<?xml version="1.0" encoding="UTF-8"?>
<!DOCTYPE svg PUBLIC "-//W3C//DTD SVG 1.1//EN" "http://www.w3.org/Graphics/SVG/1.1/DTD/svg11.dtd">
<!-- Creator: CorelDRAW 2021 (64-Bit) -->
<svg xmlns="http://www.w3.org/2000/svg" xml:space="preserve" width="1.70666in" height="1.70666in" version="1.1" style="shape-rendering:geometricPrecision; text-rendering:geometricPrecision; image-rendering:optimizeQuality; fill-rule:evenodd; clip-rule:evenodd"
viewBox="0 0 1706.66 1706.66"
 xmlns:xlink="http://www.w3.org/1999/xlink"
 xmlns:xodm="http://www.corel.com/coreldraw/odm/2003">
 <defs>
  <style type="text/css">
   <![CDATA[
    .fil0 {fill:none}
    .fil1 {fill:#2196F3;fill-rule:nonzero}
    .fil2 {fill:white;fill-rule:nonzero}
   ]]>
  </style>
 </defs>
 <g id="Layer_x0020_1">
  <metadata id="CorelCorpID_0Corel-Layer"/>
  <rect class="fil0" y="0" width="1706.65" height="1706.65"/>
  <g id="_2143646772000">
   <rect class="fil0" x="0.01" y="0.01" width="1706.65" height="1706.65"/>
   <path class="fil1" d="M37.22 853.33c0,-450.7 365.4,-816.11 816.11,-816.11 450.73,0 816.11,365.4 816.11,816.11 0,450.73 -365.37,816.11 -816.11,816.11 -450.7,0 -816.11,-365.37 -816.11,-816.11z"/>
   <path class="fil2" d="M492.72 853.37c0,283.86 78.85,520.03 157.38,684.95 5.45,11.48 10.91,23.01 16.36,34.49 13.6,28.75 27.08,57.21 40,83.41 43.87,8.01 89,12.48 135.06,13.14 -20.11,-34.78 -43.98,-85.42 -68.66,-137.78 -6.6,-14.03 -13.28,-28.2 -19.94,-42.2 -73.31,-153.94 -146.3,-373.26 -146.3,-636 0,-262.74 72.99,-482.06 146.3,-636 6.74,-14.15 13.49,-28.46 20.17,-42.67 24.59,-52.22 48.37,-102.72 68.43,-137.38 -46.05,0.66 -91.15,5.13 -135.06,13.11 -12.8,26.06 -26.17,54.29 -39.71,82.87 -5.54,11.71 -11.1,23.44 -16.64,35.12 -78.53,164.93 -157.38,401.1 -157.38,684.94l-0 -0z"/>
   <path class="fil2" d="M1000.18 50.4c-43.87,-7.98 -89.01,-12.43 -135.03,-13.08 20.06,34.66 43.84,85.16 68.43,137.38l0.06 0.08c6.66,14.18 13.37,28.46 20.11,42.58 73.31,153.94 146.3,373.26 146.3,636 0,262.74 -72.99,482.07 -146.3,636 -6.66,14 -13.34,28.15 -19.94,42.2 -24.68,52.37 -48.55,103.01 -68.66,137.78 46.05,-0.66 91.15,-5.13 135.06,-13.11 12.88,-26.2 26.37,-54.63 39.97,-83.38 5.45,-11.51 10.93,-23.07 16.39,-34.55 78.53,-164.93 157.38,-401.09 157.38,-684.95 0,-283.85 -78.85,-520.02 -157.38,-684.94 -5.54,-11.65 -11.11,-23.38 -16.61,-35.06 -13.54,-28.58 -26.94,-56.9 -39.77,-82.95l0 0.01z"/>
   <path class="fil2" d="M1618.45 568.65c13.69,36.78 24.79,74.8 33.11,113.88l-1596.38 0c8.32,-39.08 19.43,-77.1 33.11,-113.88l1530.15 0 0.01 0z"/>
   <path class="fil2" d="M1651.56 1024.15c-8.32,39.08 -19.43,77.1 -33.11,113.88l-1530.15 0c-13.69,-36.78 -24.79,-74.8 -33.11,-113.88l1596.38 0 -0.01 0z"/>
  </g>
 </g>
</svg>
