<?xml version="1.0" encoding="UTF-8"?>
<!DOCTYPE svg PUBLIC "-//W3C//DTD SVG 1.1//EN" "http://www.w3.org/Graphics/SVG/1.1/DTD/svg11.dtd">
<!-- Creator: CorelDRAW 2021 (64-Bit) -->
<svg xmlns="http://www.w3.org/2000/svg" xml:space="preserve" width="43.3492mm" height="43.3492mm" version="1.1" style="shape-rendering:geometricPrecision; text-rendering:geometricPrecision; image-rendering:optimizeQuality; fill-rule:evenodd; clip-rule:evenodd"
viewBox="0 0 4334.92 4334.92"
 xmlns:xlink="http://www.w3.org/1999/xlink"
 xmlns:xodm="http://www.corel.com/coreldraw/odm/2003">
 <defs>
  <style type="text/css">
   <![CDATA[
    .fil0 {fill:none}
    .fil2 {fill:#0CD397;fill-rule:nonzero}
    .fil1 {fill:#1E93FA;fill-rule:nonzero}
   ]]>
  </style>
 </defs>
 <g id="Layer_x0020_1">
  <metadata id="CorelCorpID_0Corel-Layer"/>
  <rect class="fil0" y="0.01" width="4334.9" height="4334.9"/>
  <g id="_2049565233984">
   <g id="Worldwide_3_">
    <g>
     <g>
      <path class="fil1" d="M1442.73 442.93c458.26,-194.22 991.21,-194.22 1449.47,0 65.19,27.16 136.86,-4.34 162.7,-65.96 26.91,-63.04 -2.67,-135.9 -65.71,-162.69 -520.33,-220.17 -1123.11,-220.17 -1643.45,0 -63.03,26.79 -92.62,99.65 -65.7,162.69 26.42,63.41 99.16,92.39 162.69,65.96zm-1065.2 836.67c-63.53,-26.55 -136.03,2.66 -162.69,65.95 -110.34,260.05 -166.1,536.46 -166.1,821.49 0,285.02 55.77,561.43 166.09,821.48 25.86,61.66 97.54,93.1 162.69,65.96 63.04,-26.8 92.63,-99.66 65.71,-162.7 -96.98,-229.38 -146.2,-473.19 -146.2,-724.74 0,-251.56 49.22,-495.37 146.2,-724.74 26.92,-63.05 -2.66,-135.91 -65.7,-162.7l0 0zm2514.66 2611.54c-458.26,194.22 -991.21,194.22 -1449.47,0 -63.53,-26.31 -136.27,2.55 -162.7,65.95 -26.91,63.04 2.67,135.9 65.71,162.7 260.17,110.08 536.58,165.97 821.72,165.97 285.14,0 561.56,-55.89 821.72,-165.97 63.04,-26.8 92.63,-99.66 65.71,-162.7 -26.66,-63.4 -99.4,-92.26 -162.69,-65.95zm1227.9 -2545.59c-26.42,-63.28 -99.16,-92.5 -162.69,-65.95 -63.04,26.79 -92.62,99.65 -65.71,162.69 96.99,229.38 146.2,473.18 146.2,724.75 0,251.56 -49.21,495.36 -146.2,724.73 -26.92,63.04 2.66,135.9 65.7,162.7 65.19,27.16 136.86,-4.34 162.7,-65.96 110.33,-260.04 166.09,-536.46 166.09,-821.47 0,-285.02 -55.76,-561.44 -166.09,-821.49zm-1952.63 -668.24c-821.48,0 -1489.73,668.24 -1489.73,1489.73 0,821.48 668.25,1489.72 1489.73,1489.72 821.48,0 1489.73,-668.24 1489.73,-1489.72 0,-821.49 -668.25,-1489.73 -1489.73,-1489.73z"/>
     </g>
    </g>
    <g>
     <g>
      <path class="fil2" d="M2167.46 553.17c-889.86,0 -1613.87,724.01 -1613.87,1613.87 0,889.86 724.01,1613.87 1613.87,1613.87 889.86,0 1613.87,-724.01 1613.87,-1613.87 0,-889.86 -724.01,-1613.87 -1613.87,-1613.87zm-558.9 369.24c-174.75,269.4 -288.98,666.09 -306.83,1120.48l-493.56 0c45.37,-500.21 361.54,-922.57 800.39,-1120.48l0 0zm-800.39 1368.77l493.56 0c17.85,454.39 132.08,851.08 306.83,1120.48 -438.85,-197.9 -755.02,-620.27 -800.39,-1120.48zm1235.14 1206.83c-238.64,-121.61 -462.89,-579.65 -490.31,-1206.84l490.31 0 0 1206.84zm0 -1455.12l-490.31 0c27.42,-627.19 251.66,-1085.22 490.32,-1206.84l-0.01 1206.84zm1483.44 0l-493.56 0c-17.85,-454.38 -132.08,-851.08 -306.83,-1120.48 438.84,197.91 755.02,620.27 800.39,1120.48zm-1235.15 -1206.84c238.65,121.61 462.89,579.65 490.32,1206.84l-490.32 0 0 -1206.84zm0 2661.96l0 -1206.84 490.32 0c-27.43,627.2 -251.67,1085.24 -490.32,1206.84l0 0zm434.76 -86.36c174.75,-269.4 288.98,-666.09 306.83,-1120.48l493.56 0c-45.37,500.22 -361.55,922.59 -800.39,1120.48z"/>
     </g>
    </g>
   </g>
  </g>
 </g>
</svg>
