<?xml version="1.0" encoding="UTF-8"?>
<!DOCTYPE svg PUBLIC "-//W3C//DTD SVG 1.1//EN" "http://www.w3.org/Graphics/SVG/1.1/DTD/svg11.dtd">
<!-- Creator: CorelDRAW 2021 (64-Bit) -->
<svg xmlns="http://www.w3.org/2000/svg" xml:space="preserve" width="43.3492mm" height="43.3492mm" version="1.1" style="shape-rendering:geometricPrecision; text-rendering:geometricPrecision; image-rendering:optimizeQuality; fill-rule:evenodd; clip-rule:evenodd"
viewBox="0 0 4334.92 4334.92"
 xmlns:xlink="http://www.w3.org/1999/xlink"
 xmlns:xodm="http://www.corel.com/coreldraw/odm/2003">
 <defs>
  <style type="text/css">
   <![CDATA[
    .fil0 {fill:none}
    .fil3 {fill:url(#id0);fill-rule:nonzero}
    .fil1 {fill:url(#id1);fill-rule:nonzero}
    .fil2 {fill:url(#id2);fill-rule:nonzero}
   ]]>
  </style>
  <linearGradient id="id0" gradientUnits="objectBoundingBox" x1="50%" y1="99.9999%" x2="50%" y2="7.38188e-05%">
   <stop offset="0" style="stop-opacity:1; stop-color:#00C489"/>
   <stop offset="1" style="stop-opacity:1; stop-color:#19E3A6"/>
  </linearGradient>
  <linearGradient id="id1" gradientUnits="userSpaceOnUse" x1="2167.47" y1="4290.83" x2="2167.47" y2="44.1">
   <stop offset="0" style="stop-opacity:1; stop-color:#0382F3"/>
   <stop offset="1" style="stop-opacity:1; stop-color:#33A0FF"/>
  </linearGradient>
  <linearGradient id="id2" gradientUnits="objectBoundingBox" x1="50%" y1="99.9999%" x2="50%" y2="7.38188e-05%">
   <stop offset="0" style="stop-opacity:1; stop-color:#F77B09"/>
   <stop offset="1" style="stop-opacity:1; stop-color:#FF9C40"/>
  </linearGradient>
 </defs>
 <g id="Layer_x0020_1">
  <metadata id="CorelCorpID_0Corel-Layer"/>
  <rect class="fil0" y="0.01" width="4334.9" height="4334.9"/>
  <g id="_2390804425760">
   <path class="fil1" d="M2167.45 44.1c1172.71,0 2123.38,950.67 2123.38,2123.38 0,1172.68 -950.67,2123.35 -2123.38,2123.35 -1172.68,0 -2123.35,-950.67 -2123.35,-2123.35 0,-1172.71 950.67,-2123.38 2123.35,-2123.38zm0.02 503.64c-892.11,0 -1619.73,727.63 -1619.73,1619.73 0,892.08 727.62,1619.72 1619.73,1619.72 892.1,0 1619.72,-727.64 1619.72,-1619.72 0,-892.1 -727.62,-1619.73 -1619.72,-1619.73z"/>
   <g>
    <path class="fil2" d="M3034.88 2543.21c-69.79,0 -124.61,-54.83 -124.61,-124.59 0,-69.79 54.82,-124.61 124.61,-124.61 69.77,0 124.59,54.82 124.59,124.61 0,69.76 -54.82,124.59 -124.59,124.59z"/>
    <path class="fil3" d="M2536.51 3290.77l-249.19 0c-206.84,0 -373.79,-166.96 -373.79,-373.78 0,-206.82 166.95,-373.78 373.79,-373.78l249.19 0c206.83,0 373.78,166.96 373.78,373.78 0,206.82 -166.95,373.78 -373.78,373.78z"/>
    <path class="fil2" d="M2038.12 1048.08c69.79,0 124.61,54.81 124.61,124.6 0,69.77 -54.82,124.59 -124.61,124.59 -69.77,0 -124.59,-54.82 -124.59,-124.59 0,-69.79 54.82,-124.6 124.59,-124.6z"/>
    <path class="fil2" d="M2785.69 2044.84c-206.84,0 -373.79,-166.98 -373.79,-373.79 0,-206.83 166.95,-373.78 373.79,-373.78 206.84,0 373.78,166.95 373.78,373.78 0,206.81 -166.94,373.79 -373.78,373.79z"/>
    <path class="fil3" d="M1539.75 2543.21c-206.84,0 -373.78,-166.98 -373.78,-373.78 0,-99.68 39.85,-194.38 109.63,-264.15l249.19 -249.19c69.77,-69.78 164.47,-109.64 264.15,-109.64 206.84,0 373.79,166.96 373.79,373.78 0,99.67 -39.85,194.37 -109.63,264.16l-249.2 249.18c-69.77,69.76 -164.45,109.64 -264.15,109.64z"/>
   </g>
  </g>
 </g>
</svg>
