<?xml version="1.0" encoding="UTF-8"?>
<!DOCTYPE svg PUBLIC "-//W3C//DTD SVG 1.1//EN" "http://www.w3.org/Graphics/SVG/1.1/DTD/svg11.dtd">
<!-- Creator: CorelDRAW 2021 (64-Bit) -->
<svg xmlns="http://www.w3.org/2000/svg" xml:space="preserve" width="1.70666in" height="1.70666in" version="1.1" style="shape-rendering:geometricPrecision; text-rendering:geometricPrecision; image-rendering:optimizeQuality; fill-rule:evenodd; clip-rule:evenodd"
viewBox="0 0 1706.66 1706.66"
 xmlns:xlink="http://www.w3.org/1999/xlink"
 xmlns:xodm="http://www.corel.com/coreldraw/odm/2003">
 <defs>
  <style type="text/css">
   <![CDATA[
    .fil0 {fill:none}
    .fil3 {fill:#2196F3;fill-rule:nonzero}
    .fil2 {fill:#8BC34A;fill-rule:nonzero}
    .fil1 {fill:#FFC107;fill-rule:nonzero}
   ]]>
  </style>
 </defs>
 <g id="Layer_x0020_1">
  <metadata id="CorelCorpID_0Corel-Layer"/>
  <rect class="fil0" y="0" width="1706.65" height="1706.65"/>
  <g id="_1315053368080">
   <rect class="fil0" x="0.01" y="0.01" width="1706.65" height="1706.65"/>
   <g id="_2690360582672">
    <path class="fil1" d="M542.45 420.62c90.54,-55.35 196.98,-87.22 310.88,-87.22 165.63,0 315.5,67.46 423.67,176.37l0 841.19c-108.16,108.94 -258.04,176.4 -423.67,176.4 -186.33,0 -352.7,-85.36 -462.18,-219.11l0 -568.24c20.35,-10.72 39.97,-24.14 58.23,-40.65 66,-59.71 95.84,-143 95.84,-231.16 0,-15.81 -0.96,-31.7 -2.77,-47.57l0 -0.01z"/>
    <path class="fil2" d="M487.43 930.37c0,-202.07 163.82,-365.9 365.9,-365.9 202.08,0 365.9,163.82 365.9,365.9 0,202.08 -163.82,365.9 -365.9,365.9 -202.07,0 -365.9,-163.82 -365.9,-365.9z"/>
    <path class="fil3" d="M1373.27 237.09c0,-31.91 25.88,-57.76 57.79,-57.76l38.52 0c116.98,0 211.83,94.85 211.83,211.83l0 539.22c0,31.91 -25.88,57.76 -57.79,57.76l-134.8 0 0 481.46c0,31.91 -25.85,57.76 -57.76,57.76 -31.91,0 -57.79,-25.85 -57.79,-57.76l0 -1232.5 0 -0.01z"/>
    <path class="fil3" d="M89.39 627.94c26.09,23.58 57.21,38.2 89.93,45.74l0 795.91c0,31.91 25.85,57.76 57.76,57.76 31.91,0 57.79,-25.85 57.79,-57.76l0 -795.91c32.72,-7.54 63.85,-22.15 89.91,-45.74 42.15,-38.14 64.14,-93.43 64.14,-159.75 0,-64.4 -20.5,-132.76 -53.95,-186.13 -32.14,-51.27 -85.94,-102.74 -157.89,-102.74 -71.94,0 -125.74,51.47 -157.88,102.74 -33.45,53.37 -53.95,121.72 -53.95,186.13 0,66.32 21.98,121.61 64.14,159.75l-0 0z"/>
   </g>
  </g>
 </g>
</svg>
