<?xml version="1.0" encoding="UTF-8"?>
<!DOCTYPE svg PUBLIC "-//W3C//DTD SVG 1.1//EN" "http://www.w3.org/Graphics/SVG/1.1/DTD/svg11.dtd">
<!-- Creator: CorelDRAW 2021 (64-Bit) -->
<svg xmlns="http://www.w3.org/2000/svg" xml:space="preserve" width="1.70666in" height="1.70666in" version="1.1" style="shape-rendering:geometricPrecision; text-rendering:geometricPrecision; image-rendering:optimizeQuality; fill-rule:evenodd; clip-rule:evenodd"
viewBox="0 0 1706.66 1706.66"
 xmlns:xlink="http://www.w3.org/1999/xlink"
 xmlns:xodm="http://www.corel.com/coreldraw/odm/2003">
 <defs>
  <style type="text/css">
   <![CDATA[
    .fil0 {fill:none}
    .fil1 {fill:#FF9800;fill-rule:nonzero}
    .fil2 {fill:#FFC107;fill-rule:nonzero}
   ]]>
  </style>
 </defs>
 <g id="Layer_x0020_1">
  <metadata id="CorelCorpID_0Corel-Layer"/>
  <rect class="fil0" y="0" width="1706.65" height="1706.65"/>
  <g id="_1315055532736">
   <rect class="fil0" x="0.01" y="0.01" width="1706.65" height="1706.65"/>
   <g id="_2659113822848">
    <path class="fil1" d="M18.04 749.18c2.41,-114.07 4.44,-208.32 17.71,-284.69l175.02 90.07c-7.85,-2.76 -13.85,-3 -19.3,0 -11.41,6.3 -12.18,22.06 -13.68,53.63 -2.03,42.54 -3.15,91.87 -4.39,150.17 -1.62,75.45 -1.62,114.48 0,189.94 2.59,121.43 4.56,203.85 15.59,267.27 10.39,59.71 27.71,95.22 57.36,124.93 29.33,29.42 65.3,47.04 127.05,57.77 65.22,11.35 150.31,13.68 275.07,16.83 149.61,3.74 260.09,3.74 409.7,-0.03 124.75,-3.12 209.85,-5.44 275.09,-16.8 61.72,-10.74 97.69,-28.35 127.02,-57.77 29.65,-29.71 46.98,-65.22 57.36,-124.93 11.03,-63.42 13,-145.87 15.59,-267.27 1.62,-75.45 1.62,-114.48 0,-189.94 -1.24,-58.3 -2.35,-107.63 -4.39,-150.17 -1.5,-31.56 -2.26,-47.36 -13.68,-53.65 -5.44,-3 -11.47,-2.76 -19.33,0.03l175.06 -90.07c13.27,76.37 15.3,170.61 17.71,284.69l0.12 5.85c1.68,77.66 1.68,118.9 0,196.59l-0.12 5.85c-2.41,114.07 -4.44,208.29 -17.71,284.69 -14.15,81.37 -42.09,149.49 -100.43,207.97 -58.63,58.8 -127.87,86.81 -210.53,101.19 -77.92,13.53 -174.58,15.97 -292.04,18.92l-5.83 0.15c-152.22,3.82 -265.3,3.82 -417.53,0l-5.83 -0.15c-117.46,-2.94 -214.12,-5.39 -292.04,-18.92 -82.66,-14.38 -151.91,-42.39 -210.53,-101.19 -58.33,-58.48 -86.28,-126.61 -100.43,-207.97 -13.27,-76.39 -15.27,-170.61 -17.71,-284.69l-0.12 -5.85c-1.68,-77.69 -1.68,-118.93 0,-196.59l0.12 -5.85 0.05 -0.01z"/>
    <path class="fil2" d="M644.63 136.27c152.22,-3.8 265.33,-3.8 417.53,0l5.83 0.15c117.48,2.97 214.12,5.38 292.04,18.94 28.83,5 56.01,11.68 81.66,20.71 6.83,1.62 13.39,4.12 19.48,7.47 40.15,16.62 76.45,39.94 109.43,72.98 58.3,58.48 86.25,126.61 100.4,208l-175.06 90.04c-8.65,3.09 -19.53,9.24 -34.24,17.59l-329.67 186.79c-101.16,57.3 -186.7,94.4 -278.63,94.4 -91.94,0 -177.5,-37.09 -278.63,-94.4l-329.63 -186.79c-14.77,-8.35 -25.65,-14.53 -34.3,-17.59l-175.02 -90.04c14.15,-81.39 42.09,-149.52 100.43,-208 58.63,-58.78 127.87,-86.81 210.56,-101.16 77.89,-13.56 174.56,-15.97 292.01,-18.94l5.83 -0.15 -0.03 0z"/>
   </g>
  </g>
 </g>
</svg>
