<?xml version="1.0" encoding="UTF-8"?>
<!DOCTYPE svg PUBLIC "-//W3C//DTD SVG 1.1//EN" "http://www.w3.org/Graphics/SVG/1.1/DTD/svg11.dtd">
<!-- Creator: CorelDRAW 2021 (64-Bit) -->
<svg xmlns="http://www.w3.org/2000/svg" xml:space="preserve" width="43.3492mm" height="43.3492mm" version="1.1" style="shape-rendering:geometricPrecision; text-rendering:geometricPrecision; image-rendering:optimizeQuality; fill-rule:evenodd; clip-rule:evenodd"
viewBox="0 0 4334.92 4334.92"
 xmlns:xlink="http://www.w3.org/1999/xlink"
 xmlns:xodm="http://www.corel.com/coreldraw/odm/2003">
 <defs>
  <style type="text/css">
   <![CDATA[
    .fil0 {fill:none}
    .fil2 {fill:url(#id0);fill-rule:nonzero}
    .fil1 {fill:url(#id1);fill-rule:nonzero}
   ]]>
  </style>
  <linearGradient id="id0" gradientUnits="userSpaceOnUse" x1="2167.47" y1="3024.05" x2="2167.47" y2="797.55">
   <stop offset="0" style="stop-opacity:1; stop-color:#FF9800"/>
   <stop offset="1" style="stop-opacity:1; stop-color:#FFB74D"/>
  </linearGradient>
  <linearGradient id="id1" gradientUnits="userSpaceOnUse" x1="2167.47" y1="3537.38" x2="2167.47" y2="830.76">
   <stop offset="0" style="stop-opacity:1; stop-color:#FF6D00"/>
   <stop offset="1" style="stop-opacity:1; stop-color:#FF9100"/>
  </linearGradient>
 </defs>
 <g id="Layer_x0020_1">
  <metadata id="CorelCorpID_0Corel-Layer"/>
  <rect class="fil0" y="0.01" width="4334.9" height="4334.9"/>
  <g id="_2049664735104">
   <path class="fil1" d="M4256.45 834l-1757.63 1011.95 -662.73 0 -1757.62 -1011.95c-22.53,22.52 -36.46,53.66 -36.46,88.08l0 2490.76c0,68.84 55.71,124.54 124.54,124.54l4001.82 0c68.84,0 124.54,-55.7 124.54,-124.54l0 -2490.76c0,-34.42 -13.92,-65.56 -36.45,-88.08l-0.01 0z"/>
   <path class="fil2" d="M3741.7 2818.98l-898.16 -748.51 1412.91 -1236.47c-22.52,-22.53 -53.66,-36.45 -88.08,-36.45l-4001.82 -0.01c-34.42,0 -65.55,13.93 -88.08,36.46l1412.93 1236.47 -898.17 748.51c-52.78,44.02 -59.96,122.59 -15.93,175.5 43.98,52.64 122.28,59.99 175.5,15.93l927.91 -773.29 404.47 356.05c47.05,41.42 117.53,41.42 164.58,0l404.49 -356.07 927.89 773.3c53.27,44.11 131.56,36.66 175.5,-15.93 44.02,-52.9 36.85,-131.47 -15.94,-175.49z"/>
  </g>
 </g>
</svg>
