<?xml version="1.0" encoding="UTF-8"?>
<!DOCTYPE svg PUBLIC "-//W3C//DTD SVG 1.1//EN" "http://www.w3.org/Graphics/SVG/1.1/DTD/svg11.dtd">
<!-- Creator: CorelDRAW 2021 (64-Bit) -->
<svg xmlns="http://www.w3.org/2000/svg" xml:space="preserve" width="1.70666in" height="1.70666in" version="1.1" style="shape-rendering:geometricPrecision; text-rendering:geometricPrecision; image-rendering:optimizeQuality; fill-rule:evenodd; clip-rule:evenodd"
viewBox="0 0 1706.66 1706.66"
 xmlns:xlink="http://www.w3.org/1999/xlink"
 xmlns:xodm="http://www.corel.com/coreldraw/odm/2003">
 <defs>
  <style type="text/css">
   <![CDATA[
    .fil0 {fill:none}
    .fil2 {fill:#2196F3}
    .fil3 {fill:white}
    .fil1 {fill:#FFC107;fill-rule:nonzero}
   ]]>
  </style>
 </defs>
 <g id="Layer_x0020_1">
  <metadata id="CorelCorpID_0Corel-Layer"/>
  <rect class="fil0" y="0" width="1706.65" height="1706.65"/>
  <g id="_1314910304912">
   <rect class="fil0" x="0.01" y="0.01" width="1706.65" height="1706.65"/>
   <g id="_2689561872176">
    <path class="fil1" d="M111.32 672.94l1484.02 0c37.4,0 56.09,0 67.82,11.7 11.76,11.7 11.79,30.27 11.91,67.46 0.12,30.88 0.12,63.09 0.12,96.67l0 9.15c0,175.68 0,313.63 -14.48,421.36 -14.85,110.37 -45.88,197.95 -114.67,266.77 -68.82,68.79 -156.4,99.82 -266.77,114.67 -107.73,14.48 -245.68,14.48 -421.36,14.48l-9.15 0c-175.68,0 -313.63,0 -421.35,-14.48 -110.37,-14.85 -197.95,-45.88 -266.77,-114.67 -68.79,-68.82 -99.82,-156.4 -114.67,-266.77 -14.48,-107.73 -14.48,-245.68 -14.48,-421.36l0 -9.15c0,-33.57 0,-65.79 0.12,-96.67 0.12,-37.19 0.18,-55.76 11.91,-67.46 11.73,-11.7 30.43,-11.7 67.82,-11.7l-0 0z"/>
    <path class="fil2" d="M848.69 31.48l9.15 0 0.03 0c175.65,0 313.59,0 421.32,14.48 110.37,14.85 197.95,45.88 266.77,114.67 68.82,68.82 99.85,156.4 114.67,266.77 1.79,13.37 3.37,27.15 4.76,41.43 3.7,38.37 5.54,57.55 -6.39,70.7 -11.94,13.12 -31.91,13.12 -71.85,13.12l-1467.78 0c-39.94,0 -59.91,0 -71.82,-13.12 -11.94,-13.15 -10.09,-32.33 -6.39,-70.7 1.37,-14.28 2.94,-28.06 4.73,-41.43 14.85,-110.37 45.88,-197.95 114.7,-266.77 68.79,-68.79 156.37,-99.82 266.77,-114.67 107.7,-14.48 245.68,-14.48 421.31,-14.48l0 0 0.01 0zm-397.04 180.41c-44.28,0 -80.19,35.91 -80.19,80.19 0,44.28 35.91,80.19 80.19,80.19l0.73 0c44.28,0 80.19,-35.91 80.19,-80.19 0,-44.28 -35.91,-80.19 -80.19,-80.19l-0.73 0zm240.53 80.19c0,-44.28 35.91,-80.19 80.19,-80.19l0.72 0c44.28,0 80.19,35.91 80.19,80.19 0,44.28 -35.91,80.19 -80.19,80.19l-0.72 0c-44.28,0 -80.19,-35.91 -80.19,-80.19z"/>
    <path class="fil3" d="M512.56 1374.52c0,-188.19 152.58,-340.78 340.78,-340.78 188.19,0 340.78,152.58 340.78,340.78 0,33.21 26.91,60.12 60.13,60.12 33.21,0 60.15,-26.91 60.15,-60.12 0,-254.62 -206.44,-461.06 -461.06,-461.06 -254.61,0 -461.06,206.43 -461.06,461.06 0,33.21 26.94,60.12 60.15,60.12 33.22,0 60.13,-26.91 60.13,-60.12zm439.99 -94.34c23.49,-23.49 23.49,-61.58 0,-85.07 -23.48,-23.48 -61.58,-23.48 -85.04,0l-113.4 113.4c-23.49,23.48 -23.49,61.55 0,85.04 23.48,23.48 61.55,23.48 85.04,0l113.4 -113.37z"/>
   </g>
  </g>
 </g>
</svg>
