<?xml version="1.0" encoding="UTF-8"?>
<!DOCTYPE svg PUBLIC "-//W3C//DTD SVG 1.1//EN" "http://www.w3.org/Graphics/SVG/1.1/DTD/svg11.dtd">
<!-- Creator: CorelDRAW 2021 (64-Bit) -->
<svg xmlns="http://www.w3.org/2000/svg" xml:space="preserve" width="43.3492mm" height="43.3492mm" version="1.1" style="shape-rendering:geometricPrecision; text-rendering:geometricPrecision; image-rendering:optimizeQuality; fill-rule:evenodd; clip-rule:evenodd"
viewBox="0 0 4334.92 4334.92"
 xmlns:xlink="http://www.w3.org/1999/xlink"
 xmlns:xodm="http://www.corel.com/coreldraw/odm/2003">
 <defs>
  <style type="text/css">
   <![CDATA[
    .fil0 {fill:none}
    .fil2 {fill:url(#id0);fill-rule:nonzero}
    .fil1 {fill:url(#id1);fill-rule:nonzero}
   ]]>
  </style>
  <linearGradient id="id0" gradientUnits="userSpaceOnUse" x1="4015.48" y1="4015.48" x2="372" y2="241.56">
   <stop offset="0" style="stop-opacity:1; stop-color:#0091EA"/>
   <stop offset="1" style="stop-opacity:1; stop-color:#03A9F4"/>
  </linearGradient>
  <linearGradient id="id1" gradientUnits="userSpaceOnUse" x1="995.19" y1="4295.83" x2="2167.14" y2="39.07">
   <stop offset="0" style="stop-opacity:1; stop-color:#01579B"/>
   <stop offset="1" style="stop-opacity:1; stop-color:#0277BD"/>
  </linearGradient>
 </defs>
 <g id="Layer_x0020_1">
  <metadata id="CorelCorpID_0Corel-Layer"/>
  <rect class="fil0" y="0.01" width="4334.9" height="4334.9"/>
  <path class="fil1" d="M4295.83 995.2c0,527.19 -428.91,956.09 -956.11,956.09 -126.37,0 -247.06,-24.7 -357.58,-69.42l-285.59 285.59 -529.1 -529.09 285.6 -285.6c-44.73,-110.51 -69.43,-231.21 -69.43,-357.57 0,-527.21 428.91,-956.11 956.1,-956.11 66.18,0 130.82,6.76 193.24,19.64 97.05,20.02 132.68,140.24 62.61,210.31 -169.84,169.84 -314.32,314.33 -314.32,314.33l58.79 411.52 411.52 58.79c0,0 141.38,-141.37 314.31,-314.3 70.07,-70.08 190.3,-34.47 210.32,62.59 12.87,62.41 19.64,127.04 19.64,193.23zm-2128.38 1701.35l-285.59 285.6c44.73,110.52 69.43,231.21 69.43,357.58 0,527.2 -428.91,956.1 -956.1,956.1 -527.2,0 -956.11,-428.9 -956.11,-956.1 0,-527.2 428.91,-956.11 956.11,-956.11 126.37,0 247.05,24.7 357.58,69.44l285.59 -285.6 529.09 529.09zm-839.7 643.18c0,-183.67 -148.9,-332.56 -332.56,-332.56 -183.67,0 -332.56,148.89 -332.56,332.56 0,183.66 148.89,332.55 332.56,332.55 183.66,0 332.56,-148.88 332.56,-332.55z"/>
  <path class="fil2" d="M39.08 995.2c0,527.19 428.91,956.09 956.11,956.09 126.37,0 247.06,-24.7 357.58,-69.42l1100.28 1100.28c-44.73,110.52 -69.43,231.21 -69.43,357.58 0,527.2 428.91,956.1 956.1,956.1 527.2,0 956.11,-428.9 956.11,-956.1 0,-527.2 -428.91,-956.11 -956.11,-956.11 -126.37,0 -247.05,24.7 -357.58,69.44l-1100.27 -1100.29c44.73,-110.51 69.42,-231.21 69.42,-357.57 0,-527.21 -428.9,-956.11 -956.1,-956.11 -66.18,0 -130.81,6.76 -193.23,19.64 -97.06,20.02 -132.69,140.24 -62.61,210.31 169.84,169.84 314.32,314.33 314.32,314.33l-58.79 411.52 -411.52 58.79c0,0 -141.37,-141.37 -314.3,-314.3 -70.08,-70.08 -190.31,-34.46 -210.33,62.59 -12.88,62.41 -19.64,127.04 -19.64,193.23l-0.01 0zm3300.64 2677.08c-183.66,0 -332.55,-148.89 -332.55,-332.55 0,-183.67 148.89,-332.56 332.55,-332.56 183.68,0 332.56,148.89 332.56,332.56 0,183.66 -148.89,332.55 -332.56,332.55z"/>
 </g>
</svg>
