<?xml version="1.0" encoding="UTF-8"?>
<!DOCTYPE svg PUBLIC "-//W3C//DTD SVG 1.1//EN" "http://www.w3.org/Graphics/SVG/1.1/DTD/svg11.dtd">
<!-- Creator: CorelDRAW 2021 (64-Bit) -->
<svg xmlns="http://www.w3.org/2000/svg" xml:space="preserve" width="1.70666in" height="1.70666in" version="1.1" style="shape-rendering:geometricPrecision; text-rendering:geometricPrecision; image-rendering:optimizeQuality; fill-rule:evenodd; clip-rule:evenodd"
viewBox="0 0 1706.66 1706.66"
 xmlns:xlink="http://www.w3.org/1999/xlink"
 xmlns:xodm="http://www.corel.com/coreldraw/odm/2003">
 <defs>
  <style type="text/css">
   <![CDATA[
    .fil0 {fill:none}
    .fil2 {fill:#2196F3;fill-rule:nonzero}
    .fil1 {fill:#8BC34A;fill-rule:nonzero}
   ]]>
  </style>
 </defs>
 <g id="Layer_x0020_1">
  <metadata id="CorelCorpID_0Corel-Layer"/>
  <rect class="fil0" y="0" width="1706.65" height="1706.65"/>
  <g id="_1315047013728">
   <rect class="fil0" x="0.01" y="0.01" width="1706.65" height="1706.65"/>
   <path class="fil1" d="M1460.34 73.19c25.19,-15.13 57.41,-11.16 78.17,9.61l85.33 85.33c20.77,20.77 24.74,52.98 9.61,78.17l-128 213.33c-10.13,16.9 -27.48,28.19 -47.05,30.57 -19.54,2.42 -39.12,-4.32 -53.05,-18.25l-170.66 -170.66c-13.93,-13.93 -20.67,-33.51 -18.25,-53.05 2.39,-19.57 13.67,-36.93 30.57,-47.05l213.33 -128z"/>
   <path class="fil2" d="M332.28 25.1c109.04,-15.64 224.13,18.48 308.17,102.52 94.04,94.01 125.54,226.74 94.84,346.68l497.06 497.06c119.93,-30.7 252.67,0.81 346.68,94.84 84.04,84.04 118.19,199.14 102.52,308.17 -3.45,23.99 -20.12,43.99 -43.11,51.63 -23,7.65 -48.34,1.68 -65.47,-15.48l-119.64 -119.61 -152.02 0 0 172.79 109.23 109.26c17.12,17.16 23.12,42.47 15.48,65.46 -7.68,22.99 -27.64,39.7 -51.63,43.15 -109.03,15.64 -224.13,-18.48 -308.17,-102.52 -93.97,-93.97 -125.52,-226.58 -94.91,-346.45l-497.24 -497.24c-119.87,30.61 -252.48,-0.93 -346.42,-94.91 -84.07,-84.04 -118.19,-199.14 -102.52,-308.17 3.42,-23.96 20.13,-43.96 43.12,-51.63 23,-7.65 48.34,-1.65 65.46,15.48l109.26 109.26 172.82 0 0 -152.05 -119.64 -119.65c-17.16,-17.13 -23.12,-42.47 -15.48,-65.46 7.67,-23 27.64,-39.67 51.63,-43.12l-0 -0z"/>
   <path class="fil1" d="M486.69 898.82l-370.09 370.12c-70.04,70.01 -70.04,183.56 0,253.57l67.53 67.56c70.04,70.02 183.56,70.02 253.61,0l370.12 -370.12 -321.17 -321.13z"/>
   <polygon class="fil1" points="1013.82,602.1 1104.31,692.6 1410.35,386.55 1319.86,296.03 "/>
  </g>
 </g>
</svg>
