<?xml version="1.0" encoding="UTF-8"?>
<!DOCTYPE svg PUBLIC "-//W3C//DTD SVG 1.1//EN" "http://www.w3.org/Graphics/SVG/1.1/DTD/svg11.dtd">
<!-- Creator: CorelDRAW 2021 (64-Bit) -->
<svg xmlns="http://www.w3.org/2000/svg" xml:space="preserve" width="1.70666in" height="1.70666in" version="1.1" style="shape-rendering:geometricPrecision; text-rendering:geometricPrecision; image-rendering:optimizeQuality; fill-rule:evenodd; clip-rule:evenodd"
viewBox="0 0 1706.66 1706.66"
 xmlns:xlink="http://www.w3.org/1999/xlink"
 xmlns:xodm="http://www.corel.com/coreldraw/odm/2003">
 <defs>
  <style type="text/css">
   <![CDATA[
    .fil0 {fill:none}
    .fil3 {fill:#2196F3}
    .fil4 {fill:white}
    .fil1 {fill:#2196F3;fill-rule:nonzero}
    .fil2 {fill:#FFC107;fill-rule:nonzero}
   ]]>
  </style>
 </defs>
 <g id="Layer_x0020_1">
  <metadata id="CorelCorpID_0Corel-Layer"/>
  <rect class="fil0" y="0" width="1706.65" height="1706.65"/>
  <g id="_1314856798336">
   <rect class="fil0" x="0.01" y="0.01" width="1706.65" height="1706.65"/>
   <g id="_3000399815200">
    <path class="fil1" d="M1310.48 1453.91c-14.61,0 -21.91,0 -26.44,4.54 -4.54,4.54 -4.54,11.83 -4.54,26.44l0 37.34c0,29.35 18.65,56.2 48.2,69.32 1.14,0.5 2.31,1.03 3.46,1.55 17.92,8 35.35,15.76 56.08,15.76l133.19 0c20.76,0 38.16,-7.76 56.08,-15.76 1.17,-0.52 2.31,-1.05 3.48,-1.55 29.52,-13.12 48.18,-39.97 48.18,-69.32l0 -68.85c0,-19.83 0,-29.72 -5.45,-34.35 -5.48,-4.65 -16.49,-2.84 -38.54,0.76 -2.2,0.35 -4.42,0.67 -6.65,0.96l-241.52 31.95c-5.89,0.79 -11.83,1.2 -17.78,1.2l-7.76 0 0.01 0.01z"/>
    <path class="fil1" d="M396.19 1453.91c14.59,0 21.91,0 26.44,4.54 4.54,4.54 4.54,11.86 4.54,26.47l0 37.34c0,29.35 -18.65,56.17 -48.17,69.29 -1.17,0.53 -2.34,1.03 -3.48,1.55 -17.93,8 -35.32,15.79 -56.08,15.79l-133.19 0c-20.76,0 -38.16,-7.79 -56.08,-15.79 -1.17,-0.52 -2.31,-1.02 -3.48,-1.55 -29.52,-13.12 -48.17,-39.94 -48.17,-69.29l0 -68.88c0,-19.8 0,-29.7 5.44,-34.35 5.48,-4.63 16.49,-2.84 38.54,0.76 2.2,0.35 4.43,0.7 6.65,1l241.49 31.95c5.92,0.79 11.86,1.17 17.81,1.17l7.76 0 -0.02 0.01z"/>
    <path class="fil2" d="M1605.71 724.68c-33.33,-44.6 -73.45,-86.1 -105.9,-119.69 -6.21,-6.41 -8.2,-13.3 -11.1,-21.7l-83.11 -240.76c-15.46,-44.87 -29.02,-84.17 -44.04,-115.36 -16.26,-33.74 -37.17,-64.63 -71.11,-88.24 -33.91,-23.63 -70.87,-33.04 -109.15,-37.25 -35.37,-3.9 -78.28,-3.9 -127.22,-3.9l-401.51 0c-48.94,0 -91.84,0 -127.22,3.9 -38.28,4.22 -75.24,13.62 -109.15,37.25 -33.94,23.6 -54.85,54.5 -71.11,88.24 -15.02,31.19 -28.58,70.49 -44.04,115.36l0 0 -83.11 240.76c-3.07,8.93 -4.51,14.88 -11.1,21.7 -32.48,33.62 -72.57,75.09 -105.87,119.69 -41.88,56.05 -80.62,126.37 -80.62,206.06l0 268.9c0,68 45.98,134.54 118.93,144.2l241.52 31.95c2.52,0.35 5.07,0.5 7.61,0.5l929.81 0c2.55,0 5.09,-0.15 7.61,-0.5l241.52 -31.95c72.95,-9.67 118.93,-76.2 118.93,-144.2l0 -268.9c0,-79.69 -38.74,-150 -80.59,-206.06l0.01 0z"/>
    <path class="fil3" d="M1532.46 639.13c-11.33,-12.07 -22.37,-23.49 -32.65,-34.12 -5.71,-5.92 -7.88,-12.21 -10.45,-19.74 -0.2,-0.65 -0.41,-1.29 -0.65,-1.96l-28.14 -81.5 55.5 -27.73c38.28,-19.15 84.81,-3.63 103.93,34.65 19.15,38.28 3.63,84.81 -34.65,103.96l-52.89 26.44 0 -0zm-1358.27 -0.03l-52.86 -26.41c-38.28,-19.15 -53.8,-65.69 -34.65,-103.96 19.13,-38.28 65.66,-53.8 103.94,-34.65l55.47 27.7 -28.15 81.53c-0.35,1.02 -0.67,2.02 -1,2.96 -2.46,7.35 -4.28,12.71 -10.1,18.74 -10.28,10.63 -21.32,22.05 -32.65,34.09l-0 -0z"/>
    <path class="fil4" d="M448.83 562.7c-29.72,0 -44.6,0 -51.54,-9.75 -6.94,-9.75 -2.11,-23.81 7.59,-51.89l37.6 -108.97c17.1,-49.52 28.02,-80.86 39.01,-103.64 13.94,-28.94 29.08,-38.89 60.91,-42.41 25.83,-2.84 60.07,-2.96 114.13,-2.96l393.59 0c54.06,0 88.3,0.12 114.13,2.96 31.83,3.52 46.98,13.47 60.91,42.41 10.98,22.78 21.91,54.12 39.01,103.64l37.6 108.97c9.69,28.08 14.52,42.14 7.58,51.89 -6.94,9.75 -21.82,9.75 -51.54,9.75l-808.98 0zm-266.88 257.98c-28.7,-14.35 -63.61,-2.72 -77.96,26.01 -14.35,28.7 -2.72,63.61 25.98,77.96l116.23 58.1c28.7,14.35 63.61,2.72 77.99,-25.98 14.35,-28.7 2.7,-63.61 -26,-77.96l-116.24 -58.13 0 0zm1394.74 103.96c28.73,-14.35 40.35,-49.26 26,-77.96 -14.35,-28.73 -49.26,-40.36 -77.96,-26.01l-116.24 58.13c-28.7,14.35 -40.36,49.26 -26.01,77.96 14.35,28.7 49.26,40.33 77.99,25.98l116.21 -58.1 0.02 0zm-648.27 161.1l-150.15 0c-76.2,0 -114.33,0 -143.85,21.17 -22.9,16.46 -36.55,42.76 -54.76,88.8 -8,20.2 -11.98,30.34 -7.38,37.66 4.59,7.32 15.05,7.32 35.96,7.32l490.24 0c20.91,0 31.37,0 35.96,-7.32 4.59,-7.32 0.58,-17.46 -7.41,-37.66 -18.19,-46.04 -31.83,-72.33 -54.77,-88.8 -29.49,-21.17 -67.62,-21.17 -143.85,-21.17l0.01 0z"/>
   </g>
  </g>
 </g>
</svg>
