<?xml version="1.0" encoding="UTF-8"?>
<!DOCTYPE svg PUBLIC "-//W3C//DTD SVG 1.1//EN" "http://www.w3.org/Graphics/SVG/1.1/DTD/svg11.dtd">
<!-- Creator: CorelDRAW 2021 (64-Bit) -->
<svg xmlns="http://www.w3.org/2000/svg" xml:space="preserve" width="43.3492mm" height="43.3492mm" version="1.1" style="shape-rendering:geometricPrecision; text-rendering:geometricPrecision; image-rendering:optimizeQuality; fill-rule:evenodd; clip-rule:evenodd"
viewBox="0 0 4334.92 4334.92"
 xmlns:xlink="http://www.w3.org/1999/xlink"
 xmlns:xodm="http://www.corel.com/coreldraw/odm/2003">
 <defs>
  <style type="text/css">
   <![CDATA[
    .fil0 {fill:none}
    .fil1 {fill:#00BFA5;fill-rule:nonzero}
    .fil3 {fill:url(#id0)}
    .fil2 {fill:url(#id1);fill-rule:nonzero}
   ]]>
  </style>
  <linearGradient id="id0" gradientUnits="userSpaceOnUse" x1="2337.49" y1="2487.29" x2="1979.85" y2="1854.3">
   <stop offset="0" style="stop-opacity:1; stop-color:#104A7B"/>
   <stop offset="1" style="stop-opacity:1; stop-color:#437097"/>
  </linearGradient>
  <linearGradient id="id1" gradientUnits="userSpaceOnUse" x1="2164.05" y1="4289.37" x2="2164.05" y2="39.11">
   <stop offset="0" style="stop-opacity:1; stop-color:#1E88E5"/>
   <stop offset="1" style="stop-opacity:1; stop-color:#2196F3"/>
  </linearGradient>
 </defs>
 <g id="Layer_x0020_1">
  <metadata id="CorelCorpID_0Corel-Layer"/>
  <rect class="fil0" y="0.01" width="4334.9" height="4334.9"/>
  <path class="fil1" d="M3650.07 1938.29l-44.89 -32.09c-312.15,-223.04 -822.2,-489 -1440.83,-489 -618.6,0 -1128.66,265.96 -1440.81,488.99l-44.89 32.1c-33.22,330.42 -3.64,358.53 0.36,475.1l231.79 0c549.29,0 1004.52,455.22 1004.52,1004.52l0 231.78c386.95,32.89 360.38,4.96 498.08,0l0 -231.77c0,-549.29 455.23,-1004.52 1004.52,-1004.52l231.79 0c4.59,-133.62 34.75,-133.09 0.36,-475.11zm-1485.7 -151.18c208.34,0 377.25,168.91 377.25,377.26 0,208.34 -168.91,377.25 -377.25,377.25 -208.35,0 -377.26,-168.91 -377.26,-377.25 0,-208.35 168.91,-377.26 377.26,-377.26z"/>
  <path class="fil2" d="M2164.37 39.13c-1168.05,0 -2125.24,957.19 -2125.24,2125.24 0,1168.03 957.19,2125.22 2125.24,2125.22 1168.03,0 2125.22,-957.19 2125.22,-2125.22 0,-1168.05 -957.19,-2125.24 -2125.22,-2125.24zm0 3503.31c-754.64,0 -1378.09,-623.47 -1378.09,-1378.07 0,-754.64 623.45,-1378.09 1378.09,-1378.09 754.62,0 1378.07,623.45 1378.07,1378.09 0,754.61 -623.45,1378.07 -1378.07,1378.07z"/>
  <circle class="fil3" cx="2164.37" cy="2164.37" r="377.26"/>
 </g>
</svg>
