<?xml version="1.0" encoding="UTF-8"?>
<!DOCTYPE svg PUBLIC "-//W3C//DTD SVG 1.1//EN" "http://www.w3.org/Graphics/SVG/1.1/DTD/svg11.dtd">
<!-- Creator: CorelDRAW 2021 (64-Bit) -->
<svg xmlns="http://www.w3.org/2000/svg" xml:space="preserve" width="43.3492mm" height="43.3492mm" version="1.1" style="shape-rendering:geometricPrecision; text-rendering:geometricPrecision; image-rendering:optimizeQuality; fill-rule:evenodd; clip-rule:evenodd"
viewBox="0 0 4334.92 4334.92"
 xmlns:xlink="http://www.w3.org/1999/xlink"
 xmlns:xodm="http://www.corel.com/coreldraw/odm/2003">
 <defs>
  <style type="text/css">
   <![CDATA[
    .fil0 {fill:none}
    .fil3 {fill:#FEFEFE;fill-rule:nonzero}
    .fil1 {fill:url(#id0);fill-rule:nonzero}
    .fil2 {fill:url(#id1);fill-rule:nonzero}
   ]]>
  </style>
  <linearGradient id="id0" gradientUnits="userSpaceOnUse" x1="2051.23" y1="2781.84" x2="2051.23" y2="41.99">
   <stop offset="0" style="stop-opacity:1; stop-color:#1F3B82"/>
   <stop offset="1" style="stop-opacity:1; stop-color:#3F5794"/>
  </linearGradient>
  <linearGradient id="id1" gradientUnits="userSpaceOnUse" x1="4012.95" y1="4127.78" x2="374.45" y2="1904.79">
   <stop offset="0" style="stop-opacity:1; stop-color:#0091EA"/>
   <stop offset="1" style="stop-opacity:1; stop-color:#03A9F4"/>
  </linearGradient>
 </defs>
 <g id="Layer_x0020_1">
  <metadata id="CorelCorpID_0Corel-Layer"/>
  <rect class="fil0" y="0.01" width="4334.9" height="4334.9"/>
  <g id="_2151230573088">
   <path class="fil1" d="M1303.37 154.13c-6.36,-63.66 -59.94,-112.14 -123.92,-112.14l-498.16 0c-63.98,0 -117.55,48.48 -123.92,112.15l-249.08 2490.78c-3.5,35.01 7.97,69.87 31.58,95.96 23.62,26.08 57.16,40.97 92.34,40.97l747.24 -0.01c26.94,0 53.16,-8.73 74.71,-24.9l231.73 -173.78c34.88,-26.15 53.54,-68.64 49.21,-112.02l-231.73 -2317.01zm2422.55 25.54c-11.24,-5.62 -278.54,-137.68 -553.85,-137.68 -275.32,0 -542.61,132.06 -553.85,137.68 -61.96,30.99 -262.24,111.4 -442.46,111.4 -215.45,0 -440.39,-110.36 -442.64,-111.48 -61.5,-30.63 -136.19,-5.68 -166.91,55.78 -30.76,61.52 -5.82,136.33 55.69,167.09 11.25,5.62 278.54,137.68 553.86,137.68 275.31,0 542.61,-132.06 553.85,-137.68 61.96,-30.98 262.24,-111.4 442.46,-111.4 215.45,0 440.38,110.36 442.46,111.4 61.52,30.76 136.33,5.82 167.09,-55.69 30.76,-61.52 5.82,-136.34 -55.7,-167.1l0 0z"/>
   <path class="fil2" d="M4168.38 4292.91l-4001.85 0c-68.78,0 -124.54,-55.76 -124.54,-124.54l0 -1511.07c0,-68.78 55.76,-124.54 124.54,-124.54l971.4 0.01 963.11 -722.33c37.72,-28.31 88.22,-32.86 130.41,-11.76 42.2,21.09 68.85,64.22 68.85,111.39l0 498.16 797.05 -597.79c37.73,-28.3 88.22,-32.86 130.42,-11.76 42.19,21.1 68.84,64.22 68.84,111.39l0 498.16 797.05 -597.79c37.73,-28.3 88.22,-32.86 130.42,-11.76 42.19,21.09 68.84,64.22 68.84,111.39l0 2258.31c0,68.77 -55.76,124.54 -124.54,124.54l0 -0.01z"/>
   <path class="fil3" d="M1179.45 3778.16l-498.16 0c-68.78,0 -124.54,-55.76 -124.54,-124.55l0 -498.15c0,-68.78 55.76,-124.54 124.54,-124.54l498.16 0c68.78,0 124.54,55.76 124.54,124.54l0 498.16c0,68.78 -55.76,124.54 -124.54,124.54l0 0z"/>
   <path class="fil3" d="M2424.84 3778.16l-498.16 0c-68.78,0 -124.54,-55.76 -124.54,-124.55l0 -498.15c0,-68.78 55.76,-124.54 124.54,-124.54l498.16 0c68.77,0 124.54,55.76 124.54,124.54l0 498.16c0,68.78 -55.76,124.54 -124.54,124.54l0 0z"/>
   <path class="fil3" d="M3670.22 3778.16l-498.15 0c-68.78,0 -124.54,-55.76 -124.54,-124.55l0 -498.15c0,-68.78 55.76,-124.54 124.54,-124.54l498.15 0c68.78,0 124.54,55.76 124.54,124.54l0 498.16c0,68.78 -55.75,124.54 -124.54,124.54l0 0z"/>
  </g>
 </g>
</svg>
