<?xml version="1.0" encoding="UTF-8"?>
<!DOCTYPE svg PUBLIC "-//W3C//DTD SVG 1.1//EN" "http://www.w3.org/Graphics/SVG/1.1/DTD/svg11.dtd">
<!-- Creator: CorelDRAW 2021 (64-Bit) -->
<svg xmlns="http://www.w3.org/2000/svg" xml:space="preserve" width="1.70666in" height="1.70666in" version="1.1" style="shape-rendering:geometricPrecision; text-rendering:geometricPrecision; image-rendering:optimizeQuality; fill-rule:evenodd; clip-rule:evenodd"
viewBox="0 0 1706.66 1706.66"
 xmlns:xlink="http://www.w3.org/1999/xlink"
 xmlns:xodm="http://www.corel.com/coreldraw/odm/2003">
 <defs>
  <style type="text/css">
   <![CDATA[
    .fil0 {fill:none}
    .fil3 {fill:white}
    .fil1 {fill:#0D47A1;fill-rule:nonzero}
    .fil2 {fill:#2196F3;fill-rule:nonzero}
   ]]>
  </style>
 </defs>
 <g id="Layer_x0020_1">
  <metadata id="CorelCorpID_0Corel-Layer"/>
  <rect class="fil0" y="0" width="1706.65" height="1706.65"/>
  <g id="_1314917593760">
   <rect class="fil0" x="0.01" y="0.01" width="1706.65" height="1706.65"/>
   <g id="_2131383438080">
    <path class="fil1" d="M621.28 477.77c-1.62,-12.74 -2.43,-19.12 -6.78,-22.94 -4.34,-3.82 -10.77,-3.82 -23.6,-3.82l-401.35 0c-12.86,0 -19.29,0 -23.6,3.82 -4.35,3.82 -5.19,10.2 -6.81,22.94l-125.12 974.54c-2.26,17.55 -4.67,36.23 -4.43,52.07 0.23,18.42 3.94,42.78 22.74,63.89 18.68,21 42.37,27.54 60.5,30.06 15.7,2.2 34.61,2.17 52.54,2.17l534.72 0c16.54,0 32.24,-7.09 43.16,-19.49 10.92,-12.43 15.96,-28.91 13.87,-45.3l-135.84 -1057.94 -0.01 0.01z"/>
    <path class="fil2" d="M390.17 106.17c-54.16,0 -108.58,4.75 -148.35,39.54 -39.88,34.9 -51.38,88.07 -58.19,140.93l-1.91 14.86c-2.06,16.11 -3.1,24.16 1.48,29.37 4.57,5.19 12.72,5.19 28.94,5.19l356.11 0c16.22,0 24.33,0 28.91,-5.19 4.57,-5.21 3.56,-13.26 1.48,-29.37l-1.88 -14.86c-6.81,-52.86 -18.31,-106.04 -58.22,-140.93 -39.74,-34.79 -94.16,-39.54 -148.35,-39.54l-0.02 0z"/>
    <path class="fil2" d="M1644 418.13c20.19,9.44 33.1,29.74 33.1,52.05l0 998.87c0,0.11 0,32.73 -1.94,47.07 -2.26,16.8 -8.05,38.26 -26.12,56.33 -18.07,18.07 -39.54,23.9 -56.37,26.16 -14.33,1.91 -31.34,1.91 -47.06,1.91l-639.66 0c-18.62,0 -27.92,0 -32.47,-4.98 -4.57,-4.98 -3.62,-15.76 -1.71,-37.28 1.1,-12.28 0.87,-24.74 -0.72,-37.16l-105.66 -823.09c-1.16,-8.92 -1.74,-13.38 0,-17.29 1.71,-3.88 5.39,-6.49 12.72,-11.67l348.57 -245.84c17.55,-12.37 40.52,-13.93 59.58,-4.06 19.06,9.88 31.05,29.57 31.05,51.04l0.15 194.63c0.03,28.27 0.06,42.41 8.86,46.55 8.83,4.11 19.7,-4.93 41.42,-23.03l315.09 -262.32c17.12,-14.28 40.95,-17.35 61.17,-7.88l0 -0.01z"/>
    <path class="fil3" d="M1025.77 1083.24c0,-31.74 25.75,-57.49 57.49,-57.49l76.61 0c31.74,0 57.49,25.75 57.49,57.49 0,31.72 -25.75,57.46 -57.49,57.46l-76.61 0c-31.74,0 -57.49,-25.75 -57.49,-57.46z"/>
    <path class="fil3" d="M1332.29 1083.24c0,-31.74 25.75,-57.49 57.49,-57.49l76.64 0c31.74,0 57.46,25.75 57.46,57.49 0,31.72 -25.72,57.46 -57.46,57.46l-76.64 0c-31.74,0 -57.49,-25.75 -57.49,-57.46z"/>
   </g>
  </g>
 </g>
</svg>
