<?xml version="1.0" encoding="UTF-8"?>
<!DOCTYPE svg PUBLIC "-//W3C//DTD SVG 1.1//EN" "http://www.w3.org/Graphics/SVG/1.1/DTD/svg11.dtd">
<!-- Creator: CorelDRAW 2021 (64-Bit) -->
<svg xmlns="http://www.w3.org/2000/svg" xml:space="preserve" width="43.3492mm" height="43.3492mm" version="1.1" style="shape-rendering:geometricPrecision; text-rendering:geometricPrecision; image-rendering:optimizeQuality; fill-rule:evenodd; clip-rule:evenodd"
viewBox="0 0 4334.92 4334.92"
 xmlns:xlink="http://www.w3.org/1999/xlink"
 xmlns:xodm="http://www.corel.com/coreldraw/odm/2003">
 <defs>
  <style type="text/css">
   <![CDATA[
    .fil0 {fill:none}
    .fil5 {fill:url(#id0);fill-rule:nonzero}
    .fil6 {fill:url(#id1);fill-rule:nonzero}
    .fil7 {fill:url(#id2);fill-rule:nonzero}
    .fil1 {fill:url(#id3);fill-rule:nonzero}
    .fil8 {fill:url(#id4);fill-rule:nonzero}
    .fil2 {fill:url(#id5);fill-rule:nonzero}
    .fil4 {fill:url(#id6);fill-rule:nonzero}
    .fil3 {fill:url(#id7);fill-rule:nonzero}
   ]]>
  </style>
  <linearGradient id="id0" gradientUnits="userSpaceOnUse" x1="3918.84" y1="2546.05" x2="3918.84" y2="1799.01">
   <stop offset="0" style="stop-opacity:1; stop-color:#CECECE"/>
   <stop offset="1" style="stop-opacity:1; stop-color:#F1F1F1"/>
  </linearGradient>
  <linearGradient id="id1" gradientUnits="userSpaceOnUse" xlink:href="#id0" x1="3794.33" y1="1550" x2="3794.33" y2="802.96">
  </linearGradient>
  <linearGradient id="id2" gradientUnits="userSpaceOnUse" xlink:href="#id0" x1="4043.33" y1="3542.08" x2="4043.33" y2="2795.06">
  </linearGradient>
  <linearGradient id="id3" gradientUnits="userSpaceOnUse" x1="1162.95" y1="3542" x2="1162.95" y2="2048.02">
   <stop offset="0" style="stop-opacity:1; stop-color:#1E88E5"/>
   <stop offset="1" style="stop-opacity:1; stop-color:#2196F3"/>
  </linearGradient>
  <linearGradient id="id4" gradientUnits="userSpaceOnUse" xlink:href="#id3" x1="1163.02" y1="2037.61" x2="1163.02" y2="792.84">
  </linearGradient>
  <linearGradient id="id5" gradientUnits="userSpaceOnUse" x1="3830.42" y1="3476.44" x2="2828.1" y2="2911.86">
   <stop offset="0" style="stop-opacity:1; stop-color:#FFC107"/>
   <stop offset="1" style="stop-opacity:1; stop-color:#FFD54F"/>
  </linearGradient>
  <linearGradient id="id6" gradientUnits="userSpaceOnUse" xlink:href="#id3" x1="3225.3" y1="2546.01" x2="3225.3" y2="1799.01">
  </linearGradient>
  <linearGradient id="id7" gradientUnits="userSpaceOnUse" x1="3164.14" y1="1550" x2="2847.21" y2="802.97">
   <stop offset="0" style="stop-opacity:1; stop-color:#00BFA5"/>
   <stop offset="1" style="stop-opacity:1; stop-color:#02D4B8"/>
  </linearGradient>
 </defs>
 <g id="Layer_x0020_1">
  <metadata id="CorelCorpID_0Corel-Layer"/>
  <rect class="fil0" y="0.01" width="4334.9" height="4334.9"/>
  <g id="_2049655027840">
   <path class="fil1" d="M1412.13 2048.03l-124.51 0 -249.01 0 -124.5 0c-480.6,0 -871.54,390.94 -871.54,871.53l0 498.02c0,69.71 54.78,124.51 124.51,124.51l1992.08 0c69.73,0 124.51,-54.79 124.51,-124.51l0 -498.02c0,-480.59 -390.95,-871.53 -871.54,-871.53z"/>
   <path class="fil2" d="M3794.33 2795.06l-1137.15 0c-69.74,0 -124.5,54.77 -124.5,124.5l0 498.03c0,69.71 54.76,124.5 124.5,124.5l1137.15 0 249 -249.01 -249 -498.02z"/>
   <path class="fil3" d="M2657.18 1550l639.12 0 250.37 -344.42 -250.37 -402.61 -639.12 0c-69.74,0 -124.5,54.78 -124.5,124.51l0 498.01c0,69.72 54.76,124.51 124.5,124.51l0 0z"/>
   <path class="fil4" d="M2657.18 2546.05l888.14 0 372.84 -372.17 -372.84 -374.86 -888.14 -0.01c-69.74,0 -124.5,54.78 -124.5,124.51l0 498.02c0,69.71 54.76,124.51 124.5,124.51z"/>
   <path class="fil5" d="M4167.84 1799.01l-622.52 0 0 747.03 622.52 0.01c69.73,0 124.51,-54.8 124.51,-124.51l0 -498.02c0,-69.73 -54.78,-124.51 -124.51,-124.51z"/>
   <path class="fil6" d="M4167.84 802.97l-871.54 0 0 747.03 871.54 0c69.73,0 124.51,-54.79 124.51,-124.51l0 -498.02c0,-69.73 -54.78,-124.51 -124.51,-124.51l0 0.01z"/>
   <path class="fil7" d="M4167.84 2795.06l-373.51 0 0 747.03 373.51 0c69.73,0 124.51,-54.79 124.51,-124.51l0 -498.02c0,-69.74 -54.78,-124.5 -124.51,-124.5l0 0z"/>
   <path class="fil8" d="M1163.11 792.84c-343.36,0 -622.52,279.28 -622.52,622.52 0,838.01 1245.06,821.43 1245.06,0 0,-343.24 -279.16,-622.52 -622.54,-622.52z"/>
  </g>
 </g>
</svg>
