<?xml version="1.0" encoding="UTF-8"?>
<!DOCTYPE svg PUBLIC "-//W3C//DTD SVG 1.1//EN" "http://www.w3.org/Graphics/SVG/1.1/DTD/svg11.dtd">
<!-- Creator: CorelDRAW 2021 (64-Bit) -->
<svg xmlns="http://www.w3.org/2000/svg" xml:space="preserve" width="1.70666in" height="1.70666in" version="1.1" style="shape-rendering:geometricPrecision; text-rendering:geometricPrecision; image-rendering:optimizeQuality; fill-rule:evenodd; clip-rule:evenodd"
viewBox="0 0 1706.66 1706.66"
 xmlns:xlink="http://www.w3.org/1999/xlink"
 xmlns:xodm="http://www.corel.com/coreldraw/odm/2003">
 <defs>
  <style type="text/css">
   <![CDATA[
    .fil0 {fill:none}
    .fil4 {fill:#8BC34A}
    .fil2 {fill:#F44336}
    .fil3 {fill:#FF9800}
    .fil1 {fill:#2196F3;fill-rule:nonzero}
   ]]>
  </style>
 </defs>
 <g id="Layer_x0020_1">
  <metadata id="CorelCorpID_0Corel-Layer"/>
  <rect class="fil0" y="0" width="1706.65" height="1706.65"/>
  <g id="_1314917793536">
   <rect class="fil0" x="0.01" y="0.01" width="1706.65" height="1706.65"/>
   <g id="_2690352317296">
    <path class="fil1" d="M283.39 1053.54c233.47,-141.23 529.39,-141.23 762.83,0 7.33,4.42 16.45,9.67 26.85,15.62 46.2,26.48 117.49,67.32 166.26,115.81 30.56,30.39 60.26,71.06 65.64,121.34 5.79,53.59 -17.36,103.55 -62.65,147.39 -76.67,74.25 -169.91,134.94 -291.19,134.94l-572.66 0c-121.25,0 -214.52,-60.69 -291.19,-134.94 -45.26,-43.84 -68.41,-93.8 -62.65,-147.39 5.42,-50.28 35.12,-90.95 65.67,-121.34 48.74,-48.48 120.06,-89.33 166.23,-115.81 10.41,-5.96 19.56,-11.2 26.85,-15.62l0.01 0z"/>
    <path class="fil1" d="M306.59 476.27c0,-197.84 160.39,-358.22 358.23,-358.22 197.83,0 358.22,160.39 358.22,358.22 0,197.84 -160.39,358.23 -358.22,358.23 -197.84,0 -358.23,-160.39 -358.23,-358.23z"/>
    <path class="fil2" d="M1381.24 777.92c0,-41.65 33.75,-75.42 75.42,-75.42l150.81 0c41.67,0 75.42,33.78 75.42,75.42 0,41.64 -33.75,75.42 -75.42,75.42l-150.81 0c-41.67,0 -75.42,-33.78 -75.42,-75.42z"/>
    <path class="fil3" d="M1154.99 551.69c0,-41.67 33.77,-75.42 75.42,-75.42l377.07 0c41.67,0 75.42,33.74 75.42,75.42 0,41.64 -33.75,75.39 -75.42,75.39l-377.07 0c-41.65,0 -75.42,-33.75 -75.42,-75.39z"/>
    <path class="fil4" d="M1154.99 325.44c0,-41.65 33.77,-75.43 75.42,-75.43l377.07 0c41.67,0 75.42,33.78 75.42,75.43 0,41.64 -33.75,75.42 -75.42,75.42l-377.07 0c-41.65,0 -75.42,-33.78 -75.42,-75.42z"/>
   </g>
  </g>
 </g>
</svg>
