<?xml version="1.0" encoding="UTF-8"?>
<!DOCTYPE svg PUBLIC "-//W3C//DTD SVG 1.1//EN" "http://www.w3.org/Graphics/SVG/1.1/DTD/svg11.dtd">
<!-- Creator: CorelDRAW 2021 (64-Bit) -->
<svg xmlns="http://www.w3.org/2000/svg" xml:space="preserve" width="1.70666in" height="1.70666in" version="1.1" style="shape-rendering:geometricPrecision; text-rendering:geometricPrecision; image-rendering:optimizeQuality; fill-rule:evenodd; clip-rule:evenodd"
viewBox="0 0 1706.66 1706.66"
 xmlns:xlink="http://www.w3.org/1999/xlink"
 xmlns:xodm="http://www.corel.com/coreldraw/odm/2003">
 <defs>
  <style type="text/css">
   <![CDATA[
    .fil0 {fill:none}
    .fil2 {fill:#2196F3}
    .fil1 {fill:#8BC34A}
   ]]>
  </style>
 </defs>
 <g id="Layer_x0020_1">
  <metadata id="CorelCorpID_0Corel-Layer"/>
  <rect class="fil0" y="0" width="1706.65" height="1706.65"/>
  <g id="_1314955183840">
   <rect class="fil0" x="0.01" y="0.01" width="1706.65" height="1706.65"/>
   <g id="_2131383260208">
    <path class="fil1" d="M1163.24 601.53c-321.15,0 -639.2,222.46 -639.2,561.72 0,41.32 4.72,80.91 13.59,118.57 -45.42,-9.78 -89.17,-23.6 -130.57,-41.03 -5.56,-2.34 -10.48,-2.67 -14.17,-1.93l-303.26 58.92c-20.03,3.89 -40.62,-2.99 -54.26,-18.16 -13.65,-15.17 -18.36,-36.37 -12.39,-55.87l72.24 -236.26c1.5,-4.86 1.23,-12.27 -3.39,-20.5 -45.57,-80.59 -71.39,-171.89 -71.39,-268.61 0,-338.67 311.08,-600.46 677.94,-600.46 342.91,0 637.06,228.7 674.05,535.1 -67.3,-20.61 -138.16,-31.48 -209.17,-31.48l-0.02 0zm-697.3 -290.56c-42.78,0 -77.48,34.7 -77.48,77.48 0,42.78 34.7,77.48 77.48,77.48l0.7 0c42.78,0 77.45,-34.7 77.45,-77.48 0,-42.78 -34.67,-77.48 -77.45,-77.48l-0.7 0zm464.17 0c-42.78,0 -77.48,34.7 -77.48,77.48 0,42.78 34.7,77.48 77.48,77.48l0.7 0c42.78,0 77.48,-34.7 77.48,-77.48 0,-42.78 -34.7,-77.48 -77.48,-77.48l-0.7 0z"/>
    <path class="fil2" d="M1163.24 717.75c-278.46,0 -522.98,189.98 -522.98,445.48 0,255.53 244.52,445.52 522.98,445.52 77.45,0 151.25,-14.32 217.75,-40.24 5.92,-2.28 10.78,-2.52 14.2,-1.91l222.35 41.17c20.12,3.72 40.7,-3.4 54.2,-18.77 13.5,-15.34 17.95,-36.66 11.72,-56.13l-50.52 -157.26c-1.52,-4.83 -1.49,-13.09 4.07,-23.19 31.42,-57.13 49.22,-121.32 49.22,-189.2 0,-255.5 -244.52,-445.48 -523,-445.48l0.01 0.01zm-154.94 251.81c-42.81,0 -77.48,34.67 -77.48,77.48 0,42.78 34.67,77.46 77.48,77.46l0.67 0c42.81,0 77.48,-34.67 77.48,-77.46 0,-42.81 -34.67,-77.48 -77.48,-77.48l-0.67 0zm309.2 0c-42.78,0 -77.48,34.67 -77.48,77.48 0,42.78 34.7,77.46 77.48,77.46l0.7 0c42.78,0 77.48,-34.67 77.48,-77.46 0,-42.81 -34.7,-77.48 -77.48,-77.48l-0.7 0z"/>
   </g>
  </g>
 </g>
</svg>
