<?xml version="1.0" encoding="UTF-8"?>
<!DOCTYPE svg PUBLIC "-//W3C//DTD SVG 1.1//EN" "http://www.w3.org/Graphics/SVG/1.1/DTD/svg11.dtd">
<!-- Creator: CorelDRAW 2021 (64-Bit) -->
<svg xmlns="http://www.w3.org/2000/svg" xml:space="preserve" width="43.3492mm" height="43.3492mm" version="1.1" style="shape-rendering:geometricPrecision; text-rendering:geometricPrecision; image-rendering:optimizeQuality; fill-rule:evenodd; clip-rule:evenodd"
viewBox="0 0 4334.92 4334.92"
 xmlns:xlink="http://www.w3.org/1999/xlink"
 xmlns:xodm="http://www.corel.com/coreldraw/odm/2003">
 <defs>
  <style type="text/css">
   <![CDATA[
    .fil0 {fill:none}
    .fil3 {fill:#FEFEFE;fill-rule:nonzero}
    .fil2 {fill:url(#id0);fill-rule:nonzero}
    .fil1 {fill:url(#id1);fill-rule:nonzero}
   ]]>
  </style>
  <linearGradient id="id0" gradientUnits="userSpaceOnUse" x1="1662.13" y1="2035" x2="1662.13" y2="47.65">
   <stop offset="0" style="stop-opacity:1; stop-color:#1E88E5"/>
   <stop offset="1" style="stop-opacity:1; stop-color:#2196F3"/>
  </linearGradient>
  <linearGradient id="id1" gradientUnits="userSpaceOnUse" x1="3832.04" y1="4112.61" x2="1689.42" y2="2610.65">
   <stop offset="0" style="stop-opacity:1; stop-color:#FFC107"/>
   <stop offset="1" style="stop-opacity:1; stop-color:#FFD54F"/>
  </linearGradient>
 </defs>
 <g id="Layer_x0020_1">
  <metadata id="CorelCorpID_0Corel-Layer"/>
  <rect class="fil0" y="0.01" width="4334.9" height="4334.9"/>
  <g id="_2050121095696">
   <path class="fil1" d="M3770.49 2299.88l-2195.89 0c-328.45,0 -516.69,316.93 -516.69,869.42 0,533.21 185.33,855.83 496.81,869.06l0 124.56c0,92.15 97.36,152.32 179.75,111.11l470.61 -235.3 1565.41 0c328.45,0 516.7,-316.95 516.7,-869.43 0,-544.36 -193.09,-869.42 -516.7,-869.42z"/>
   <path class="fil2" d="M2600.44 2021.81c83.07,41.54 179.75,-19.56 179.75,-111.11l0 -124.56c311.49,-13.22 496.81,-335.86 496.81,-869.06 0,-552.49 -188.23,-869.42 -516.69,-869.42l-2195.89 0c-323.61,0 -516.7,325.06 -516.7,869.42 0,552.49 188.25,869.42 516.7,869.42l1565.41 0 470.61 235.31z"/>
   <path class="fil3" d="M2175.73 3045.1c-68.58,0 -124.19,55.61 -124.19,124.19 0,68.6 55.61,124.21 124.19,124.21 68.6,0 124.21,-55.61 124.21,-124.21 0,-68.58 -55.61,-124.19 -124.21,-124.19z"/>
   <path class="fil3" d="M2672.54 3045.1c-68.58,0 -124.19,55.61 -124.19,124.19 0,68.6 55.61,124.21 124.19,124.21 68.6,0 124.21,-55.61 124.21,-124.21 0,-68.58 -55.61,-124.19 -124.21,-124.19z"/>
   <path class="fil3" d="M3169.36 3045.1c-68.59,0 -124.2,55.61 -124.2,124.19 0,68.6 55.61,124.21 124.2,124.21 68.59,0 124.2,-55.61 124.2,-124.21 0,-68.58 -55.61,-124.19 -124.2,-124.19z"/>
   <path class="fil3" d="M2159.18 1041.28c68.58,0 124.19,-55.6 124.19,-124.2 0,-68.59 -55.61,-124.21 -124.19,-124.21 -68.6,0 -124.21,55.62 -124.21,124.21 0,68.6 55.61,124.2 124.21,124.2z"/>
   <path class="fil3" d="M1662.37 792.87c-68.6,0 -124.21,55.62 -124.21,124.21 0,68.59 55.61,124.2 124.21,124.2 68.58,0 124.19,-55.61 124.19,-124.2 0,-68.59 -55.61,-124.21 -124.19,-124.21z"/>
   <path class="fil3" d="M1165.55 792.87c-68.59,0 -124.2,55.62 -124.2,124.21 0,68.59 55.61,124.2 124.2,124.2 68.59,0 124.2,-55.61 124.2,-124.2 0,-68.59 -55.61,-124.21 -124.2,-124.21z"/>
  </g>
 </g>
</svg>
