<?xml version="1.0" encoding="UTF-8"?>
<!DOCTYPE svg PUBLIC "-//W3C//DTD SVG 1.1//EN" "http://www.w3.org/Graphics/SVG/1.1/DTD/svg11.dtd">
<!-- Creator: CorelDRAW 2021 (64-Bit) -->
<svg xmlns="http://www.w3.org/2000/svg" xml:space="preserve" width="1.70666in" height="1.70666in" version="1.1" style="shape-rendering:geometricPrecision; text-rendering:geometricPrecision; image-rendering:optimizeQuality; fill-rule:evenodd; clip-rule:evenodd"
viewBox="0 0 1706.66 1706.66"
 xmlns:xlink="http://www.w3.org/1999/xlink"
 xmlns:xodm="http://www.corel.com/coreldraw/odm/2003">
 <defs>
  <style type="text/css">
   <![CDATA[
    .fil0 {fill:none}
    .fil1 {fill:#2196F3}
    .fil2 {fill:#8BC34A;fill-rule:nonzero}
   ]]>
  </style>
 </defs>
 <g id="Layer_x0020_1">
  <metadata id="CorelCorpID_0Corel-Layer"/>
  <rect class="fil0" y="0" width="1706.65" height="1706.65"/>
  <g id="_2143642119968">
   <rect class="fil0" x="0.01" y="0.01" width="1706.65" height="1706.65"/>
   <path class="fil1" d="M686.11 351.69c0,-46.17 37.45,-83.61 83.61,-83.61l836.11 0c46.17,0 83.58,37.44 83.58,83.61 0,46.17 -37.41,83.61 -83.58,83.61l-836.11 0c-46.17,0 -83.61,-37.45 -83.61,-83.61z"/>
   <path class="fil1" d="M686.11 853.33c0,-46.17 37.45,-83.61 83.61,-83.61l836.11 0c46.17,0 83.58,37.45 83.58,83.61 0,46.17 -37.41,83.61 -83.58,83.61l-836.11 0c-46.17,0 -83.61,-37.44 -83.61,-83.61z"/>
   <path class="fil1" d="M686.11 1354.98c0,-46.17 37.45,-83.61 83.61,-83.61l836.11 0c46.17,0 83.58,37.44 83.58,83.61 0,46.17 -37.41,83.61 -83.58,83.61l-836.11 0c-46.17,0 -83.61,-37.44 -83.61,-83.61z"/>
   <path class="fil2" d="M589.82 140.16c24.46,39.19 12.54,90.76 -26.61,115.21 -64.62,40.42 -129.21,128.65 -180.72,218.8 -24.68,43.17 -44.49,83.39 -58.14,112.88 -5.22,11.09 -15.8,35.64 -20.44,46.51 -12.1,30.31 -40.8,50.81 -73.38,52.46 -32.61,1.68 -63.2,-15.8 -78.33,-44.71 -14.47,-27.68 -37.89,-53.59 -60.36,-73.88 -8.75,-8.25 -28.09,-22.94 -36.65,-29.23 -38.65,-25.25 -49.55,-77.01 -24.37,-115.69 25.22,-38.68 77.01,-49.61 115.72,-24.39 11.38,7.68 39.47,28.06 60.7,48.22 9.1,-17.44 19.12,-35.99 30.05,-55.11 52.99,-92.75 134.74,-213.52 237.31,-277.64 39.15,-24.46 90.72,-12.58 115.22,26.57l0 -0z"/>
   <path class="fil2" d="M589.82 1059.83c24.46,39.19 12.54,90.76 -26.61,115.21 -64.62,40.42 -129.21,128.65 -180.72,218.8 -24.68,43.17 -44.49,83.43 -58.14,112.87 -5.22,11.09 -15.8,35.65 -20.44,46.52 -12.1,30.31 -40.8,50.81 -73.38,52.46 -32.61,1.68 -63.2,-15.8 -78.33,-44.71 -14.47,-27.68 -37.89,-53.59 -60.36,-73.88 -8.75,-8.25 -28.09,-22.94 -36.65,-29.23 -38.65,-25.22 -49.55,-77.01 -24.37,-115.69 25.22,-38.68 77.01,-49.61 115.72,-24.4 11.38,7.68 39.47,28.06 60.7,48.26 9.1,-17.48 19.12,-36.02 30.05,-55.14 52.99,-92.75 134.74,-213.52 237.31,-277.64 39.15,-24.46 90.72,-12.58 115.22,26.57l0 0z"/>
  </g>
 </g>
</svg>
