<?xml version="1.0" encoding="UTF-8"?>
<!DOCTYPE svg PUBLIC "-//W3C//DTD SVG 1.1//EN" "http://www.w3.org/Graphics/SVG/1.1/DTD/svg11.dtd">
<!-- Creator: CorelDRAW 2021 (64-Bit) -->
<svg xmlns="http://www.w3.org/2000/svg" xml:space="preserve" width="43.3492mm" height="43.3492mm" version="1.1" style="shape-rendering:geometricPrecision; text-rendering:geometricPrecision; image-rendering:optimizeQuality; fill-rule:evenodd; clip-rule:evenodd"
viewBox="0 0 4334.92 4334.92"
 xmlns:xlink="http://www.w3.org/1999/xlink"
 xmlns:xodm="http://www.corel.com/coreldraw/odm/2003">
 <defs>
  <style type="text/css">
   <![CDATA[
    .fil0 {fill:none}
    .fil5 {fill:url(#id0);fill-rule:nonzero}
    .fil6 {fill:url(#id1);fill-rule:nonzero}
    .fil4 {fill:url(#id2);fill-rule:nonzero}
    .fil2 {fill:url(#id3);fill-rule:nonzero}
    .fil3 {fill:url(#id4);fill-rule:nonzero}
    .fil1 {fill:url(#id5);fill-rule:nonzero}
   ]]>
  </style>
  <linearGradient id="id0" gradientUnits="userSpaceOnUse" x1="2665.64" y1="2541.1" x2="2665.64" y2="1793.83">
   <stop offset="0" style="stop-opacity:1; stop-color:#F77B09"/>
   <stop offset="1" style="stop-opacity:1; stop-color:#FF9C40"/>
  </linearGradient>
  <linearGradient id="id1" gradientUnits="userSpaceOnUse" x1="2665.64" y1="1295.65" x2="2665.64" y2="548.37">
   <stop offset="0" style="stop-opacity:1; stop-color:#FBB130"/>
   <stop offset="1" style="stop-opacity:1; stop-color:#FFC259"/>
  </linearGradient>
  <linearGradient id="id2" gradientUnits="userSpaceOnUse" x1="2665.64" y1="3786.56" x2="2665.64" y2="3039.28">
   <stop offset="0" style="stop-opacity:1; stop-color:#0382F3"/>
   <stop offset="1" style="stop-opacity:1; stop-color:#33A0FF"/>
  </linearGradient>
  <linearGradient id="id3" gradientUnits="userSpaceOnUse" xlink:href="#id0" x1="415.52" y1="2541.1" x2="415.52" y2="1793.83">
  </linearGradient>
  <linearGradient id="id4" gradientUnits="userSpaceOnUse" xlink:href="#id1" x1="415.52" y1="1295.65" x2="415.52" y2="548.37">
  </linearGradient>
  <linearGradient id="id5" gradientUnits="userSpaceOnUse" xlink:href="#id2" x1="415.52" y1="3786.56" x2="415.52" y2="3039.28">
  </linearGradient>
 </defs>
 <g id="Layer_x0020_1">
  <metadata id="CorelCorpID_0Corel-Layer"/>
  <rect class="fil0" y="0.01" width="4334.9" height="4334.9"/>
  <g id="_2049777376272">
   <path class="fil1" d="M415.52 3039.28c-206.03,0 -373.64,167.61 -373.64,373.64 0,206.03 167.61,373.64 373.64,373.64 206.03,0 373.64,-167.61 373.64,-373.64 0,-206.03 -167.61,-373.64 -373.64,-373.64z"/>
   <path class="fil2" d="M415.52 1793.83c-206.03,0 -373.64,167.6 -373.64,373.64 0,206.03 167.61,373.63 373.64,373.63 206.03,0 373.64,-167.6 373.64,-373.63 0,-206.04 -167.61,-373.64 -373.64,-373.64z"/>
   <path class="fil3" d="M415.52 1295.65c206.03,0 373.64,-167.61 373.64,-373.64 0,-206.03 -167.61,-373.64 -373.64,-373.64 -206.03,0 -373.64,167.61 -373.64,373.64 0,206.03 167.61,373.64 373.64,373.64z"/>
   <path class="fil4" d="M3919.39 3039.28l-2507.51 0c-206.03,0 -373.64,167.61 -373.64,373.64 0,206.03 167.61,373.64 373.64,373.64l2507.51 0c206.03,0 373.64,-167.61 373.64,-373.64 0,-206.03 -167.61,-373.64 -373.64,-373.64l0 0z"/>
   <path class="fil5" d="M3919.39 1793.83l-2507.51 0c-206.03,0 -373.64,167.6 -373.64,373.64 0,206.03 167.61,373.63 373.64,373.63l2507.51 0c206.03,0 373.64,-167.6 373.64,-373.63 0,-206.04 -167.61,-373.64 -373.64,-373.64z"/>
   <path class="fil6" d="M1411.88 1295.65l2507.51 0c206.03,0 373.64,-167.61 373.64,-373.64 0,-206.03 -167.61,-373.64 -373.64,-373.64l-2507.51 0.01c-206.03,0 -373.64,167.6 -373.64,373.63 0,206.03 167.61,373.64 373.64,373.64l0 0z"/>
  </g>
 </g>
</svg>
