<?xml version="1.0" encoding="utf-8"?>
<!-- Generator: Adobe Illustrator 24.2.3, SVG Export Plug-In . SVG Version: 6.00 Build 0)  -->
<!DOCTYPE svg PUBLIC "-//W3C//DTD SVG 1.1//EN" "http://www.w3.org/Graphics/SVG/1.1/DTD/svg11.dtd" [
	<!ENTITY ns_extend "http://ns.adobe.com/Extensibility/1.0/">
	<!ENTITY ns_ai "http://ns.adobe.com/AdobeIllustrator/10.0/">
	<!ENTITY ns_graphs "http://ns.adobe.com/Graphs/1.0/">
	<!ENTITY ns_vars "http://ns.adobe.com/Variables/1.0/">
	<!ENTITY ns_imrep "http://ns.adobe.com/ImageReplacement/1.0/">
	<!ENTITY ns_sfw "http://ns.adobe.com/SaveForWeb/1.0/">
	<!ENTITY ns_custom "http://ns.adobe.com/GenericCustomNamespace/1.0/">
	<!ENTITY ns_adobe_xpath "http://ns.adobe.com/XPath/1.0/">
]>
<svg version="1.1" id="Layer_1" xmlns:x="&ns_extend;" xmlns:i="&ns_ai;" xmlns:graph="&ns_graphs;"
	 xmlns="http://www.w3.org/2000/svg" xmlns:xlink="http://www.w3.org/1999/xlink" x="0px" y="0px" viewBox="0 0 1280 515"
	 style="enable-background:new 0 0 1280 515;" xml:space="preserve">
<style type="text/css">
	.st0{fill-rule:evenodd;clip-rule:evenodd;fill:#009FEB;}
	.st1{filter:url(#Adobe_OpacityMaskFilter);}
	.st2{fill-rule:evenodd;clip-rule:evenodd;fill:#FFFFFF;}
	.st3{mask:url(#b_1_);}
	.st4{opacity:0.101;fill-rule:evenodd;clip-rule:evenodd;fill:#FFFFFF;enable-background:new    ;}
	.st5{fill-rule:evenodd;clip-rule:evenodd;fill:#066287;}
</style>
<metadata>
	<sfw  xmlns="&ns_sfw;">
		<slices></slices>
		<sliceSourceBounds  bottomLeftOrigin="true" height="2615" width="2560" x="-238" y="-1122"></sliceSourceBounds>
	</sfw>
</metadata>
<g>
	<g>
		<path id="a_1_" class="st0" d="M0,0h1280v515H0V0z"/>
	</g>
	<defs>
		<filter id="Adobe_OpacityMaskFilter" filterUnits="userSpaceOnUse" x="-238" y="-978" width="2560" height="2615">
			<feColorMatrix  type="matrix" values="1 0 0 0 0  0 1 0 0 0  0 0 1 0 0  0 0 0 1 0"/>
		</filter>
	</defs>
	<mask maskUnits="userSpaceOnUse" x="-238" y="-978" width="2560" height="2615" id="b_1_">
		<g class="st1">
			<path id="a_2_" class="st2" d="M0,0h1280v515H0V0z"/>
		</g>
	</mask>
	<g class="st3">
		<g transform="translate(-238 -978)">
			<path class="st4" d="M2560,1257.2l-1065.8,28.9l1051.1-182.4l-19.1-98.7l-1044.7,240.1l999.8-391.6l-37.7-92.9L1469.9,1204
				l902.8-579.4l-54.6-83.7l-875.2,630.2l777-752.7l-69.6-71.1l-733.6,790.3l617-888.2l-81.8-56l-572.5,924.4l435.9-999.1l-91-38.5
				l-381.7,1016.9L1579.9,35.4l-96.5-19.8l-182.6,1077.8L1329.2,0h-98.5l28.3,1088.7L1080.6,15L984,34.5L1219,1101.6L835.7,80.3
				l-91,38.5l434,994.8L611.5,191.3l-81.9,55.8l617,894L409.7,347.4l-69.6,71.1l773.7,749.4L244.3,537.6l-54.8,83.5l904.9,584.8
				L116.3,760.7l-37.7,92.9l995.5,389.9L34.7,1001.1l-19.4,98.6l1055.2,186.5L0,1257.2v100.6l1065.8-28.9L14.7,1511.2l19.1,98.7
				l1044.7-240.1L78.6,1761.4l37.7,92.9l973.8-443.3l-902.8,579.4l54.6,83.7l875.2-630.2l-777,752.7l69.6,71.1l733.6-790.3
				l-617,888.2l81.8,56l572.5-924.4l-435.9,999.1l91,38.5l381.7-1016.9L980,2579.6l96.5,19.8l182.6-1077.8L1230.8,2615h98.5
				l-28.3-1088.7L1479.5,2600l96.6-19.5L1341,1513.4l383.4,1021.3l91-38.5l-434-994.8l567.2,922.2l82-55.7l-617-894l736.8,793.7
				l69.6-71.1l-773.7-749.4l869.5,630.3l54.8-83.5l-905-584.8l978.1,445.3l37.7-92.9l-995.5-389.9l1039.4,242.4l19.3-98.6
				l-1055.1-186.5l1070.4,29V1257.2"/>
			<path class="st0" d="M238,1530h1411v-242H238V1530z"/>
			<path class="st5" d="M1184.3,1239.6c0.8,2.9-0.3,11.3-2.8,16.4c-2.6,5.2-4,11.4-3.9,16.3c0.1,4.9,0.7,9.4,1.8,13.2
				c0.6,2.2,1.4,4.1,1.5,5.7c0.1,1.3-0.2,2.4-1.4,3.5c-2.6,2.3-3.4,0.4-6.8,0.2c-3.4-0.2-3.4,0.8-6,2.9c-2.6,2.1-7.5,1.8-11,0.8
				c-1.7-0.5-2.2-1.1-2.2-1.7c-0.1-0.6,0.6-1.3,1.1-1.8c1.1-1,8-5.3,9.3-6.4c1.3-1.1,2.8-1.7,4.9-4.6c1.5-2.1,1.4-8.9,1.7-9.7
				c0.3-0.8,0.1-25.3,0.2-26.5c0.1-1.2,0-11.6-0.2-14.9c-0.2-3.3-1.9-20.9-1.8-23.6c0-2.4-0.2-10.5-0.1-12.4
				c0.4-5.4,1.5-11.3,2-13.7c-4-5.3-17.5-20.3-17.1-27.2c-0.1-0.9,0.1-1.7,0.5-2.3c1.2-2,4.1-6.7,11-14.3c1.1-1.2,5.6-8.4,6.5-9.8
				c2.5-3.6,4.8-6,7-7.4c0,0.1-0.1,0.2-0.1,0.4c0.4-0.3,0.8-0.5,1.2-0.7c0.2-0.2,0.5-0.3,0.6-0.5c0.5-0.5,1.1-1,1.8-1.4
				c0.5-1.2,1.3-2,2.5-2.5c-3.1-1.6-6.5-5.6-7.9-11.3c-0.8-3.2-1.2-6.4-1.1-9.2c0-0.5,0-1.1,0-1.6c0.1-2,0,2,0,0
				c0-1.2,0.3-3.1,0.3-4.6c-0.1-0.1-0.3-0.2-0.4-0.3c-0.7-0.7-1.2-1.7-1.3-2.7c-0.1-1.1,0.4-1.7,0-2.6c-0.9-2.1-1-2.2,0.4-4
				c3.7-4.8,12-6.4,17.7-5.7c7.2,0.9,14.1,3.4,20.5,6.6c3.7,1.8,7.3,3.7,11,5.4c3.4,1.5,7,3.1,10.7,3.4c4.2,0.4,8.4-0.3,12.5,0.4
				c1.8,0.3,4.3,0.4,5.6,1.7c0.2,0.2,2.2,3.1,1.8,3.3c0.1-0.2-1-1.4-1.1-1.6c-0.8-0.9-1.7-1.3-2.9-1.4c-2.5-0.1-5.1,0.2-7.5,0.8
				c0.3,0.1,5,2,4.9,2.3c0-0.3-4.1-0.7-4.4-0.7c-2.7-0.2-5.3,0-7.9,0.5c2.9,0.1,5.6,0.7,8.4,1.3c-1.6,0.1-3.1,0.3-4.7,0.5
				c-2.5,0.4-4.8,1.3-7.1,2c1.7,0.2,3.3-0.1,4.9-0.4c2.9-0.6,5.8-0.9,8.8-0.7c2.6,0.2,5.6,0.8,7.3,2.9c0.7,0.8,1.2,1.8,1.4,2.9
				c0,0.2-0.1,0.9-0.3,1.5c4.5-0.9,9.6-0.7,13.1,2c1.7,1.3,2.9,3.5,3.4,5.5c0.5,1.7,0.6,3.6,0.2,5.3c-0.4,1.8-1.1,2.2-0.2,3.9
				c1.3,2.6,3.4,4.9,5.8,6.4c1.4,0.9,3.1,1.6,4.9,1.5c0.4,0,4.7-1.7,4.3-2.1c0.2,0.1-2.1,2.1-2.3,2.2c-1.7,1-3.8,1.2-5.7,0.7
				c-3.1-0.7-6.3-2.1-9.1-3.5c1.5,2.1,2.9,4.4,4.2,6.6c-1.4-1.2-2.7-2.5-4.1-3.7c-1.9-1.6-3.8-3.2-6.2-4.1c-2.2,1-4.2,2.3-6.1,3.8
				c4-0.3,8.6,0.2,11.4,3.3c1.3,1.5,2.2,3.4,2,5.4c0,0.4-1.5,4.9-2,4.5c1.1,0.4,0.8-5.9,0.5-6.4c-1.2-2.4-3.9-3.6-6.5-3.7
				c-4.8-0.2-9.4,1.9-13.7,3.6c-6.4,2.5-12.8,3.5-18.7,1.8c3,6.3,5.6,12.9,11.2,17.7c8.5,7.1,19.9,9.1,30.4,10.3
				c13.6,1.5,26.8,2.1,37.2,10.8c7.1,5.8,19,8.3,28.5,7.8c-12.6,0.7-17.9,12-26.5,18.7c-8.7,6.7-20.6,4.2-31,3.4
				c-13.2-1.1-15.6,12.8-20.5,21.4c-4.6,7.3-14.3,11.4-22.5,10.5c-7.1-1-15.1-7.6-22.7-10c0.5,2.3,0.9,4.3,1,4.6
				c0.2,0.6,3.3,6.6,5.6,12.1c1.5,3.5,2.9,9.4,1.2,17.7c-1.7,8.3-3.2,11.8-2.3,21.3c0.6,6.2,3.8,8.7,1.2,14.6
				c-0.1,0.3-0.2,0.6-0.3,0.9c-1.9,4.6-2.6,6.7-4.7,6.8c-0.6,0-1.2-0.1-1.8-0.4c-2.2-0.9-3.3-5.5-3.1-9.5c0-1.2,0.2-2.4,0.5-3.4
				c0.7-2.2,1.3-3.8,1.8-5.2c0.3-0.9,0.6-1.8,0.8-2.6c0.5-2.2-2.6-21.7-3.1-24c-0.1-0.2-0.1-0.6-0.2-1c-0.5-3.5-1.1-13.2-2.4-16.1
				c-1.5-3.2-2.7-2.9-6.2-12.5c-0.4-1-0.7-2-1.1-3c-5.2,1.1-9.3,2.3-12.6,3.4c-0.9,0.3-2.5,0.9-4.1,1.5
				C1183.8,1237.3,1184.1,1238.8,1184.3,1239.6L1184.3,1239.6z M1172.6,1174.1c1.1-5.1,2.3-10.8,2.5-12.1c0.4-2.3,1.4-5,0.9-8.4
				c-0.4-2.6-0.8-5-1.3-7.3c-0.7,0.8-1.2,1.3-1.2,1.3s-9.2,7.9-10.5,10.8c0.4,1.1,2.9,5,5.3,8.8
				C1170,1170,1171.7,1172.6,1172.6,1174.1z M1234,1105.9c0.2,0.4,0.5,0.7,0.7,1c3.9,5.3,10.3,2.2,15.2,0.5c1.2-0.4,2.5-0.8,3.8-1
				c0.1-0.4,0.1-0.9,0.1-0.9c-0.2-0.9-0.8-1.6-1.5-2.2c-1.6-1.4-3.9-1.4-6-1.2c-4,0.5-7.3,2.4-11.1,3.5
				C1234.9,1105.7,1234.4,1105.9,1234,1105.9L1234,1105.9z"/>
			<path class="st5" d="M1332,1238.6l0.4-0.2l0.2,0.4c0.3,0.5,0.6,0.9,0.8,1.3c0.2,0.3,0.4,0.6,0.6,0.9l0.1,0.1
				c4.4,7.8,5.3,15.8,5.3,21.2c0,7.8-2.5,17.9-4.2,24.6l-0.2,1c0.2,1.8,0.5,4.3,0.8,8.2c0.3,3.2,0.9,5.8,1.4,8.1
				c1.2,5.2,2.1,9.3-1.1,16.1c-3.5,7.5-5.6,10.8-8.8,10.8h0c-0.8,0-1.7-0.2-2.7-0.6c-4.6-1.9-6.4-13.3-4.3-19.9c1.4-4.2,2-7,2.6-9.5
				c0.3-1.3,0.6-2.5,0.9-3.7c0.4-1.5,0-5.4-1.2-11.7c-2.3-7.2-4.3-18.6-5.5-24.7c-0.2-0.8-0.3-1.6-0.4-2.2c-0.4-2.1-0.6-4.1-0.8-6.1
				c-0.3-2.6-0.6-5.1-1.2-7l-0.3-1.1l0.5,0.3c-0.2-0.4-0.3-0.9-0.6-1.3c-1.8-3.3-2.7-1.9-4.1-7.2c-1.1-4-2.5-7.6-5.1-12.1
				c-0.5,1.6-1,3.1-1.5,4.7c-1,3-1,5.6,0,8.6c0.4,1.1,0.7,2.3,0.9,3.4l0.4-0.2l0.1,0.5c0.7,4,0.7,8.5-0.1,13.6
				c-1.3,8.8-5.3,16.6-9.6,24.5c-0.5,0.9-1,1.7-1.6,2.7c-2.2,3.6-4.4,7.3-3.7,11.3c0.3,1.4,0.7,2.8,1.2,4.3c0.7,2.4,1.5,4.8,1.5,7.3
				c-0.1,2.7-2.5,5.8-5.5,5.8c-0.3,0-0.6,0-0.9-0.1c-0.7-0.2-1.4-0.4-2.1-0.6c-1.4-0.4-2.8-0.8-4.2-0.8c-0.9,0-1.6,0.2-2.3,0.5
				c-0.8,0.4-1.5,1-2.2,1.6c-0.2,0.2-0.4,0.4-0.6,0.6c-1.7,1.5-3.2,2.3-4.9,2.7c-1.3,0.3-2.6,0.4-3.9,0.4c-2.3,0-4.8-0.4-7.5-1.2
				c-1-0.3-3.2-1-3.2-2.6c0-1.1,0.9-1.9,1.6-2.4l0.3-0.3c1.5-1.3,3.4-2.4,5.1-3.5c0.7-0.4,1.3-0.8,2-1.2c2.1-1.3,4.3-2.8,6.9-4.7
				c2.6-1.9,4.4-3.8,5.3-5.9c0.4-0.8,0.8-1.7,1.2-2.5c0.8-1.6,1.7-3.3,2.1-5c1.1-3.9,1.9-16.3,1.9-16.4c0.2-5.8,0.5-12,1.1-17.9
				l0-0.2l0.2-0.1c0.1-0.1,0.2-0.2,0.3-0.2c0.2-1.5,0.3-3,0.6-4.5c0.6-4.2,1.9-9-0.1-13c-1.6-3.2-1.3-6.3-1.6-9.8
				c-0.6-7.5-3.6-14.4-4.6-21.8c-1-7.6-1.4-15.3-1.2-23c0.1-2.8,0.3-5.6,0.7-8.3c-0.6-0.9-1.2-1.7-1.8-2.2
				c-2.9-2.5-17.6-11.6-20.2-16.4c-2.6-4.8-0.7-14.2,0.5-19.2c1.2-4.9,3.4-4.7,4-10.2c0.6-5.5,7.1-15.5,7.1-15.5s3.7-10.3,10.1-13.4
				c2.6-2,5.1-2.4,7.1-2.2c0.4-0.1,4.6-1.1,9.1-2.3l0-0.3c-3-0.4-2.1-1.5-2.1-1.5s-0.8,0.5-1.4,0.3c-1.6-0.6-2.7-1.9-3.1-3.1
				c-0.4-1.2-0.3-9.9-0.9-11.2c-0.6-1.3-2.2-3.9-1.8-4.9c0.4-1.1,1.3-2.8,1.1-3.2c-0.2-0.4-1.6-3.3-1-5c0.2-0.6,1-1.9,1.9-3.3
				c-0.2,0.2-0.3,0.3-0.3,0.3s0-2.1,1.7-5.6c1.7-3.5,5.2-6.5,5.2-6.5l-0.2,3.1c0,0,0.6-2.7,4.2-3.6c3.6-0.9,6.1,0.2,6.1,0.2l-2,1.5
				c0,0,3.3-1.6,6.9-1.2c3.6,0.4,7,3.3,7,3.3l-1.9,0.3c0,0,1.9,1.8,4.2,3.2c2.3,1.4,2.7,2.4,2.7,2.4s-1.9,0.4-2.2,2.6
				c-0.3,2.2-0.8,9-1.7,11.5c-0.7,1.9-1.9,3.7-2.4,4.5l0.3,0.8c-1.2,2.7,0.3,5-0.1,7.9c-0.1,0.3-0.2,0.6-0.4,0.9
				c14.5-2.3,31.7-1.5,40.8,1.9c17.6,6.7,27.7,24.2,47.9,24.9c20.3,0.7,40.5-12.8,61.5-7.4c6.1,1.3,10.1,4.7,14.2,8.8
				c5.4,4.7,10.8,9.4,16.9,12.8c-12.8,4.7-23,2.7-25,19.5c-1.3,14.1-2,27.6-18.2,31c-14.2,3.4-29-4-41.9,4.7
				c-8.1,5.4-7.4,15.5-12.2,22.9c-4.7,10.1-11.5,16.8-23,15.5c-12.8-1.3-23-10.1-35.8-9.4c-2.6,0-5.2,0.6-7.9,1.9
				c0.9,9.1,1.6,17.7,1.1,21C1330.7,1234.7,1331.2,1237.1,1332,1238.6L1332,1238.6z M1281.7,1157.8c1.1-4.1-0.2-11.3-0.8-15.4
				c-0.5-3-1.8-5.9-3.1-8.6c-2.7,5.7-6.9,10.8-5.9,14.2c1.2,4,5.4,6,8.9,11.6c0.3-0.7,0.7-2,0.7-2L1281.7,1157.8z"/>
		</g>
	</g>
</g>
</svg>
