<?xml version="1.0" encoding="utf-8"?>
<!-- Generator: Adobe Illustrator 24.2.3, SVG Export Plug-In . SVG Version: 6.00 Build 0)  -->
<!DOCTYPE svg PUBLIC "-//W3C//DTD SVG 1.1//EN" "http://www.w3.org/Graphics/SVG/1.1/DTD/svg11.dtd" [
	<!ENTITY ns_extend "http://ns.adobe.com/Extensibility/1.0/">
	<!ENTITY ns_ai "http://ns.adobe.com/AdobeIllustrator/10.0/">
	<!ENTITY ns_graphs "http://ns.adobe.com/Graphs/1.0/">
	<!ENTITY ns_vars "http://ns.adobe.com/Variables/1.0/">
	<!ENTITY ns_imrep "http://ns.adobe.com/ImageReplacement/1.0/">
	<!ENTITY ns_sfw "http://ns.adobe.com/SaveForWeb/1.0/">
	<!ENTITY ns_custom "http://ns.adobe.com/GenericCustomNamespace/1.0/">
	<!ENTITY ns_adobe_xpath "http://ns.adobe.com/XPath/1.0/">
]>
<svg version="1.1" id="Layer_1" xmlns:x="&ns_extend;" xmlns:i="&ns_ai;" xmlns:graph="&ns_graphs;"
	 xmlns="http://www.w3.org/2000/svg" xmlns:xlink="http://www.w3.org/1999/xlink" x="0px" y="0px" viewBox="0 0 1280 515"
	 style="enable-background:new 0 0 1280 515;" xml:space="preserve">
<style type="text/css">
	.st0{fill-rule:evenodd;clip-rule:evenodd;fill:#009FEB;}
	.st1{filter:url(#Adobe_OpacityMaskFilter);}
	.st2{fill-rule:evenodd;clip-rule:evenodd;fill:#FFFFFF;}
	.st3{mask:url(#b_1_);}
	.st4{opacity:0.105;fill-rule:evenodd;clip-rule:evenodd;fill:#FFFFFF;enable-background:new    ;}
	.st5{fill-rule:evenodd;clip-rule:evenodd;fill:#066287;}
	.st6{fill-rule:evenodd;clip-rule:evenodd;fill:#418ECA;}
	.st7{fill-rule:evenodd;clip-rule:evenodd;fill:#1A1919;}
	.st8{fill-rule:evenodd;clip-rule:evenodd;fill:#F1DCBC;}
	.st9{fill-rule:evenodd;clip-rule:evenodd;fill:#2D2118;}
	.st10{fill-rule:evenodd;clip-rule:evenodd;fill:#C8A67A;}
	.st11{fill-rule:evenodd;clip-rule:evenodd;fill:#252A1D;}
	.st12{fill-rule:evenodd;clip-rule:evenodd;fill:#50341D;}
	.st13{fill-rule:evenodd;clip-rule:evenodd;fill:#343534;}
	.st14{fill-rule:evenodd;clip-rule:evenodd;fill:#CBCCCB;}
	.st15{fill-rule:evenodd;clip-rule:evenodd;fill:#FFFFFE;}
	.st16{fill-rule:evenodd;clip-rule:evenodd;fill:#907E63;}
	.st17{fill-rule:evenodd;clip-rule:evenodd;fill:#605442;}
	.st18{fill-rule:evenodd;clip-rule:evenodd;fill:#D89A13;}
	.st19{fill-rule:evenodd;clip-rule:evenodd;fill:#583F07;}
	.st20{fill-rule:evenodd;clip-rule:evenodd;fill:#886210;}
</style>
<metadata>
	<sfw  xmlns="&ns_sfw;">
		<slices></slices>
		<sliceSourceBounds  bottomLeftOrigin="true" height="2496" width="2443" x="-64" y="-1079"></sliceSourceBounds>
	</sfw>
</metadata>
<g>
	<g>
		<path id="a_1_" class="st0" d="M0,0h1280v515H0V0z"/>
	</g>
	<defs>
		<filter id="Adobe_OpacityMaskFilter" filterUnits="userSpaceOnUse" x="-64" y="-902" width="2443" height="2496">
			<feColorMatrix  type="matrix" values="1 0 0 0 0  0 1 0 0 0  0 0 1 0 0  0 0 0 1 0"/>
		</filter>
	</defs>
	<mask maskUnits="userSpaceOnUse" x="-64" y="-902" width="2443" height="2496" id="b_1_">
		<g class="st1">
			<path id="a_2_" class="st2" d="M0,0h1280v515H0V0z"/>
		</g>
	</mask>
	<g class="st3">
		<g transform="translate(-64 -902)">
			<path class="st4" d="M2443,1200l-1017.1,27.6L2429,1053.5l-18.2-94.2l-997,229.2L2368,814.8l-36-88.7l-929.3,423.2l861.5-553
				l-52.1-79.9l-835.2,601.6l741.5-718.4l-66.5-67.9l-700.1,754.3l588.8-847.8l-78-53.5L1316.4,1067l416-953.6l-86.8-36.7
				l-364.3,970.6L1507.7,33.8l-92.1-18.9l-174.3,1028.8L1268.5,0h-94l27,1039.1L1031.2,14.3L939,32.9l224.3,1018.6L797.5,76.6
				l-86.8,36.7l414.2,949.5L583.6,182.6l-78.2,53.2l588.8,853.3L391,331.6l-66.4,67.9l738.3,715.3L233.1,513.2l-52.3,79.7
				l863.6,558.2L111,726.1l-36,88.7l950,372.2L33.1,955.5l-18.5,94.1l1007,178L0,1200v96l1017.1-27.6L14,1442.5l18.2,94.2l997-229.2
				L75,1681.2l36,88.7l929.3-423.2l-861.5,553l52.1,79.9l835.2-601.6l-741.5,718.4l66.4,67.9l700.1-754.3l-588.8,847.8l78,53.5
				l546.3-882.4l-416,953.7l86.8,36.7l364.3-970.6L935.3,2462.2l92.1,18.9l174.3-1028.8L1174.5,2496h94l-27-1039.2l170.4,1024.9
				l92.2-18.6l-224.3-1018.6l365.9,974.9l86.8-36.7l-414.2-949.5l541.3,880.2l78.2-53.2l-588.8-853.3l703.1,757.6l66.4-67.9
				l-738.3-715.3l829.8,601.6l52.3-79.7l-863.6-558.2l933.4,425l35.9-88.7l-950-372.2l991.9,231.4l18.5-94.1l-1006.9-178L2443,1296
				V1200"/>
			<path class="st0" d="M64,1417h1280v-169H64V1417z"/>
			<g transform="translate(892 1246)">
				<path class="st5" d="M354.9,14.1l7.4,13.9L86,91.6l-1.9-17.5L354.9,14.1z"/>
				<path class="st5" d="M248.7,6.1l4.6,12.8L28.2,71.1l2.4-12.7L248.7,6.1z"/>
				<path class="st5" d="M294.5,7l16.5-7l13,8.7L58.5,79.2L52,70.7L294.5,7z"/>
				<path class="st5" d="M172,16.1l37.1-9.3l4,5.2L0.7,61.2l0.2-4.7L172,16.1z"/>
			</g>
			<path class="st5" d="M1111.5,1204.2c0,0.5-0.1,1.1-0.1,1.7c-0.4,3.7-1.4,8.3-3,11.6c-2.6,5.4-4,11.7-3.9,16.8
				c0.1,5,0.7,9.7,1.8,13.6c1.1,4,2.8,6.9,0.2,9.3c-1.3,1.2-2.2,1.3-3.1,1.1c-1-0.2-2-0.8-3.8-0.9c-3.5-0.2-3.4,0.8-6.1,3
				c-2.6,2.2-7.6,1.8-11.1,0.8c-3.5-1-2-2.5-1.1-3.4c1.2-1.1,8.1-5.5,9.4-6.6c1.3-1.1,2.8-1.8,4.9-4.7c1.5-2.1,1.4-9.2,1.7-10
				s0.1-26.1,0.2-27.3c0-0.1,0-0.1,0-0.2c0.1-1.9,0-11.9-0.2-15.1c-0.2-3.4-1.9-21.5-1.9-24.3c0-2.5-0.2-10.8-0.1-12.7
				c0.4-6,1.7-12.6,2.1-14.6c-4.1-5.5-20.5-23.6-17.1-29.7c1.2-2.1,4.2-6.9,11-14.7c1.1-1.3,5.6-8.7,6.6-10.1
				c3.4-4.9,6.4-7.7,9.2-8.7c0.1-0.1,0.2-0.1,0.3-0.2c0.1,0,0.2-0.1,0.3-0.1c0.9-0.8,2.1-1.5,2.7-2c0.6-0.4,1-1,1.2-1.6
				c-0.1-0.1-0.3-0.2-0.4-0.4c-3.1-1.7-6.3-5.7-7.7-11.3c-1.1-4.6-1.5-9.2-0.7-12.8c0.1-1,0.1-1.9,0.1-2.7c-0.2-0.1-0.3-0.3-0.4-0.4
				c-0.7-0.7-1.2-1.7-1.3-2.7c-0.1-1.1,0.4-1.7,0-2.7c-0.9-2.1-1-2.3,0.4-4.1c3.7-4.9,12-6.6,17.7-5.9c7.2,0.9,14.1,3.5,20.5,6.7
				c3.7,1.8,7.3,3.8,11,5.5c3.4,1.6,7,3.1,10.7,3.4c4.2,0.4,8.4-0.3,12.5,0.4c1.8,0.3,4.3,0.4,5.6,1.8c0.2,0.2,2.2,3.2,1.8,3.4
				c0.1-0.2-1-1.4-1.1-1.6c-0.8-0.9-1.7-1.4-2.9-1.4c-2.5-0.1-5.1,0.2-7.5,0.8c0.3,0.1,5,2,4.9,2.3c0-0.3-4.1-0.7-4.4-0.7
				c-2.7-0.2-5.3,0-7.9,0.5c2.9,0.1,5.6,0.7,8.4,1.4c-1.6,0.1-3.1,0.3-4.7,0.5c-2.5,0.4-4.8,1.3-7.1,2.1c1.7,0.2,3.3-0.1,4.9-0.4
				c2.9-0.6,5.8-0.9,8.8-0.7c2.6,0.2,5.6,0.8,7.3,2.9c0.7,0.8,1.2,1.9,1.4,2.9c0,0.3-0.6,2.8-0.9,2.5c0.3,0.2,0.4-1.7,0.4-1.8
				c-0.2-0.9-0.8-1.7-1.5-2.2c-1.6-1.5-3.9-1.5-6-1.2c-4,0.5-7.3,2.5-11.1,3.6c-0.5,0.1-0.9,0.3-1.4,0.3c0.4,0.6,0.8,1.2,1.2,1.8
				c3.9,5.3,10.3,2.2,15.3,0.5c5.3-1.8,12.6-2.7,17.3,1c1.7,1.3,2.9,3.5,3.5,5.5c0.5,1.7,0.6,3.6,0.2,5.3c-0.4,1.8-1.1,2.2-0.2,4
				c1.3,2.6,3.4,4.9,5.8,6.5c1.5,0.9,3.2,1.6,4.9,1.5c0.4,0,4.8-1.7,4.3-2.1c0.2,0.1-2.1,2.1-2.3,2.2c-1.7,1-3.8,1.2-5.7,0.8
				c-3.1-0.7-6.4-2.1-9.2-3.5c1.5,2.1,2.9,4.4,4.3,6.7c-1.4-1.2-2.7-2.5-4.1-3.7c-1.9-1.6-3.8-3.3-6.2-4.1c-2.2,1-4.2,2.4-6.1,3.8
				c4-0.3,8.6,0.2,11.4,3.4c1.3,1.5,2.2,3.4,2.1,5.5c0,0.4-1.5,4.9-2,4.6c1.2,0.4,0.8-5.9,0.5-6.5c-1.3-2.4-3.9-3.6-6.6-3.7
				c-4.8-0.2-9.4,1.9-13.8,3.6c-6.4,2.5-12.7,3.5-18.6,1.9c3.1,6.5,5.7,13.4,11.3,18.4c8.6,7.2,20,9.3,30.5,10.6
				c13.7,1.5,26.9,2.2,37.4,11.1c7.1,6,19.1,8.5,28.6,8c-12.7,0.7-17.9,12.3-26.6,19.2c-8.7,6.8-20.6,4.3-31.1,3.5
				c-13.2-1.1-15.6,13.1-20.6,22c-4.6,7.5-14.3,11.7-22.6,10.8c-7.2-1-15.4-8-23.2-10.4c0.4,2.2,0.9,4.1,1,4.4
				c0.2,0.5,2.2,4.6,4.3,9.2l0.2-0.2l0.1,0.3c0.5,1.1,0.9,2.1,1.3,3.1c1.5,3.7,2.9,9.9,1.2,18.3c-0.3,1.4-0.6,2.9-0.9,4.3
				c-1.3,5.8-2.2,9.6-1.3,17.6c0.2,2.2,0.8,4,1.3,5.6c0.9,3,1.7,5.6-0.1,9.7c-2.1,4.7-2.8,6.8-5.1,6.9c-0.6,0-1.3-0.1-2-0.4
				c-3-1.2-4.2-8.3-2.9-12.5c0.6-1.9,1.1-3.4,1.6-4.7c0.5-1.4,0.9-2.5,1.2-3.7c0.6-2.3-2.9-21.9-3.4-24.3c-0.2-0.8-0.3-2.5-0.6-4.7
				c-0.2-2.3-0.5-5.2-0.9-7.7l-0.1-0.7l0.2,0.3c-0.3-2-0.7-3.8-1.1-4.7c-1.5-3.3-2.7-3-6.2-12.9c-0.3-0.9-0.6-1.7-0.9-2.6
				c-5.1,1.1-9.1,2.4-12.3,3.4c-1,0.3-2.8,1.1-4.6,1.7c0.2,1.5,0.5,2.8,0.7,3.5C1111.5,1201.4,1111.6,1202.6,1111.5,1204.2
				L1111.5,1204.2z"/>
			<path class="st5" d="M1258,1185.9l0.3-0.2l0.2,0.4c0.3,0.5,0.5,0.9,0.8,1.2c0.2,0.3,0.4,0.6,0.6,0.8l0.1,0.1
				c4.2,7.5,5.1,15.1,5.1,20.3c0,7.5-2.4,17.1-4,23.5l-0.2,0.9c0.2,1.7,0.5,4.1,0.8,7.8c0.3,3,0.8,5.5,1.3,7.8
				c1.1,4.9,2,8.8-1.1,15.3c-3.3,7.1-5.3,10.3-8.4,10.3h0c-0.8,0-1.6-0.2-2.6-0.6c-4.4-1.8-6.1-12.7-4-19c1.3-4,1.9-6.7,2.5-9.1
				c0.3-1.2,0.6-2.4,0.9-3.6c0.4-1.4,0-5.2-1.1-11.1c-2.1-6.9-4.1-17.7-5.2-23.6c-0.1-0.8-0.3-1.5-0.4-2.1c-0.4-2-0.6-3.9-0.8-5.8
				c-0.3-2.5-0.6-4.9-1.1-6.7l-0.3-1l0.5,0.3c-0.1-0.4-0.3-0.8-0.5-1.2c-1.7-3.1-2.5-1.8-3.9-6.9c-1.1-3.8-2.4-7.3-4.8-11.6
				c-0.4,1.5-1,2.9-1.5,4.4c-1,2.9-1,5.4,0,8.2c0.4,1.1,0.7,2.2,0.9,3.3l0.4-0.2l0.1,0.5c0.7,3.8,0.6,8.2-0.1,13
				c-1.3,8.4-5.1,15.9-9.2,23.4c-0.5,0.8-1,1.7-1.5,2.5c-2.1,3.4-4.2,7-3.5,10.8c0.2,1.4,0.7,2.7,1.1,4.2c0.7,2.3,1.4,4.6,1.4,6.9
				c-0.1,2.6-2.4,5.5-5.2,5.5c-0.3,0-0.6,0-0.9-0.1c-0.7-0.2-1.3-0.3-2-0.5c-1.3-0.4-2.7-0.8-4-0.8c-0.8,0-1.5,0.2-2.2,0.5
				c-0.8,0.3-1.4,1-2.1,1.6c-0.2,0.2-0.4,0.4-0.6,0.6c-1.6,1.4-3,2.2-4.7,2.6c-1.2,0.3-2.4,0.4-3.7,0.4c-2.2,0-4.6-0.4-7.1-1.2
				c-1-0.3-3.1-0.9-3-2.5c0-1,0.9-1.8,1.5-2.3l0.3-0.3c1.5-1.3,3.2-2.3,4.9-3.4c0.6-0.4,1.3-0.8,1.9-1.2c2-1.3,4.1-2.7,6.5-4.5
				c2.5-1.8,4.2-3.6,5-5.6c0.4-0.8,0.8-1.6,1.2-2.4c0.8-1.5,1.6-3.1,2-4.8c1-3.8,1.8-15.6,1.8-15.7c0.2-5.5,0.5-11.4,1-17.2l0-0.2
				l0.2-0.1c0.1-0.1,0.2-0.1,0.3-0.2c0.2-1.4,0.3-2.9,0.5-4.3c0.6-4,1.8-8.6-0.1-12.4c-1.5-3-1.2-6-1.5-9.4
				c-0.6-7.1-3.4-13.7-4.4-20.8c-1-7.3-1.4-14.6-1.1-21.9c0.1-2.7,0.2-5.3,0.7-8c-0.5-0.9-1.1-1.6-1.7-2.1
				c-2.8-2.4-16.8-11.1-19.3-15.7c-2.5-4.6-0.7-13.6,0.5-18.4c1.2-4.7,3.3-4.5,3.8-9.8c0.5-5.3,6.8-14.8,6.8-14.8s3.5-9.9,9.6-12.8
				c2.5-2,4.9-2.3,6.8-2.1c0.4-0.1,4.4-1.1,8.7-2.2l0-0.3c-2.8-0.4-2-1.5-2-1.5s-0.8,0.5-1.4,0.3c-1.6-0.5-2.6-1.8-2.9-2.9
				c-0.3-1.1-0.3-9.4-0.9-10.7c-0.6-1.3-2.1-3.7-1.7-4.7c0.4-1,1.3-2.7,1.1-3.1c-0.2-0.4-1.5-3.1-1-4.7c0.2-0.6,0.9-1.8,1.8-3.2
				c-0.2,0.2-0.3,0.3-0.3,0.3s0-2,1.6-5.4c1.6-3.4,5-6.2,5-6.2l-0.2,2.9c0,0,0.5-2.5,4-3.5c3.4-0.9,5.8,0.2,5.8,0.2l-1.9,1.4
				c0,0,3.1-1.5,6.5-1.1c3.4,0.4,6.6,3.1,6.6,3.1l-1.8,0.3c0,0,1.8,1.8,4,3.1c2.2,1.3,2.6,2.3,2.6,2.3s-1.8,0.4-2.1,2.5
				c-0.2,2.1-0.8,8.6-1.6,11c-0.7,1.8-1.8,3.6-2.3,4.3l0.3,0.8c-1.1,2.6,0.3,4.7-0.1,7.6c-0.1,0.3-0.2,0.6-0.3,0.9
				c13.8-2.2,30.2-1.4,38.8,1.8c16.7,6.4,26.4,23.2,45.7,23.8c19.3,0.6,38.6-12.2,58.5-7.1c5.8,1.3,9.6,4.5,13.5,8.4
				c5.1,4.5,10.3,9,16.1,12.2c-12.2,4.5-21.9,2.6-23.8,18.7c-1.3,13.5-1.9,26.4-17.4,29.6c-13.5,3.2-27.7-3.9-39.9,4.5
				c-7.7,5.1-7.1,14.8-11.6,21.9c-4.5,9.7-10.9,16.1-21.9,14.8c-12.2-1.3-21.9-9.7-34.1-9c-2.5,0-5,0.6-7.5,1.8
				c0.9,8.7,1.5,16.9,1.1,20.1C1256.7,1182.1,1257.3,1184.4,1258,1185.9L1258,1185.9z M1210.1,1108.6c1-3.9-0.2-10.8-0.8-14.7
				c-0.4-2.8-1.7-5.6-2.9-8.2c-2.5,5.5-6.5,10.3-5.6,13.6c1.1,3.8,5.1,5.7,8.5,11.1c0.2-0.6,0.7-1.9,0.7-1.9L1210.1,1108.6
				L1210.1,1108.6z"/>
			<g transform="translate(873 1139)">
				<path class="st6" d="M25.7,35.4c-3.2-2.3-6.9-0.7-11.4,5.8c-0.7,1-4.1,6.6-4.9,7.5c-5.1,5.9-7.4,9.4-8.3,11
					c-2.7,4.8,11,19.5,13.2,22.8c2.2,3.3,1.4-6.2,1.4-6.2S7.7,63.7,7.7,63.1c0.1-1.8,8.1-8.7,8.1-8.7S30.3,38.8,25.7,35.4"/>
				<path class="st7" d="M12.9,51.6c-0.5-2-0.6-3.2,0.4-5.1c1-1.8,2-3.9,3.4-5.5c1.3-1.4,3.5-3.3,4-5.3c2.2-1.5,3.1-1.7,4.9-0.4
					c4.6,3.4-9.8,19.1-9.8,19.1s-0.3,0.2-1.5,1.3C13.8,54.3,13.1,52.9,12.9,51.6"/>
				<path class="st8" d="M7.7,67c0.3,0.1,0.6,0.3,0.9,0.3c0-0.8-0.1-1.6,0.1-2.3c2.1,3.6,7,11.4,7,11.4s0.8,9.5-1.4,6.2
					c-1.5-2.3-8.4-9.9-11.7-16c0.6,0,1.2,0,1.8,0C5.5,66.6,6.6,66.7,7.7,67"/>
				<path class="st9" d="M67.1,66.5c-0.1-0.4-0.3-0.9-0.4-1.3C66.9,65.6,67,66.1,67.1,66.5C67,66.2,67,66.3,67.1,66.5z M71.3,58.8
					c-0.3,1.1-0.8,2.2-1.7,3c0.9-3.6,1.5-6.7-0.7-10C71.3,53.4,72,56,71.3,58.8C71,59.6,71.5,58,71.3,58.8z M66.5,64.6
					c-1.1-1.9-1.4-4.5-2.2-6.6c-0.7-1.8-1.7-3.5-3-5c2.9,0.5,5.5,2.2,5.4,5.4c0,2.2-0.4,4.3-0.1,6.5C66.6,64.7,66.6,64.7,66.5,64.6z
					 M19.6,7.8c-5.4,8.2-5,16.8,0.8,24.7c1.9,4.5,4.7,8.1,8.7,11c2.4,1.7,2.9,4.6,3.6,7.3c2,8,8.4,11.7,16.2,13.2
					c3.5,0.6,7.3,1.2,10.2,3.2c1.6,1.1,2.9,2.9,2.7,5c0,0.5-2.3,4.7-2.9,3.9c0.2,0.4,2.9-1.9,3.1-2.1c0.9-1.2,1.1-2.8,0.9-4.3
					c-0.5-3.1-3.3-5.3-5.9-6.7c1.8-0.1,3.6-0.2,5.4,0c1.2,1.5,1.7,3.3,2.3,5.1c0.4,1.3,0.8,2.7,1.1,4c0-2,0.1-4,0-6
					c1.2,2,2.7,4.2,4.4,5.9c1.1,1,2.4,1.8,3.9,1.8c0.2,0,2.4-0.3,2.4-0.5c0.1,0.4-3.3-0.2-3.6-0.4c-1.2-0.6-2-1.7-2.5-2.9
					c-0.9-2-1.3-4.3-1.1-6.5c0.1-1.5,0.8-1.5,1.7-2.5c0.9-1,1.6-2.2,2-3.5c0.5-1.5,0.6-3.4,0-4.9c-1.5-4.2-6.5-6.5-10.6-7.5
					c-3.9-0.9-9.2-1.5-9.5-6.4c-0.3-3.7,0.9-7.3-0.1-10.9c-1.6-6-7-7.7-12.2-9.5c-1.9-0.7-3.8-1.5-5.2-3c-1.7-1.6-1-5-1.7-7.1
					c-0.8-2.3-2.5-3.6-4.7-4.4c-0.5-0.2-6.6-1.4-6.6-0.1C22.1,4.7,20.4,6.7,19.6,7.8C18.8,9.1,20.5,6.5,19.6,7.8L19.6,7.8z"/>
				<path class="st8" d="M31.3,24.2c0,0,0.1,2.6,1.1,4.2c0.9,1.6,6,4.3,6,4.3s-8.7,7.1-9.7,7.5c-1.1,0.4-3.4,0-4.3-0.5
					c-0.9-0.5-1.9-3.7-1.9-4c0.1-0.3,1.1-1.9,1.5-2.9c0.3-1,0.2-6.9,0.2-6.9L31.3,24.2"/>
				<path class="st10" d="M27.5,32.4c-1.2,0.3-2.4,0-3.4-0.6c0.2-2,0.1-5.9,0.1-5.9l7.1-1.7c0,0,0.1,2.6,1.1,4.2
					C31.2,30.2,29.5,32,27.5,32.4"/>
				<path class="st6" d="M52.4,76.2c-0.7-1.7-2.2-21.3-2.6-24.1c-0.5-3-1.8-5.3-2-6.1c-0.3-0.8-0.4-1.9-0.4-2.8
					c0-0.9-0.7-6.6-3.5-9.4c-1.5-1.5-4.4-1.7-5.8-1.7c-1.3,0-3,0.6-4.8,1.8c-2.4,1.6-8.1,6.8-9,6.1s-0.7-5.5-1-6
					c-0.3-0.5-1,0.1-1.8,0.5s-3.3,2.8-3.9,3.8c-0.4,0.6-0.8,2-1.2,3.3c-0.9,1.3-1.9,2.9-2.2,3.5c-0.6,1.1-1.2,3-0.3,5.3
					c1,2.3,2.5,4.4,3.2,5.4c0.1,0.1,0.2,0.2,0.3,0.4c0.2,1,0.3,2.1,0.5,3.2c0.4,2.6-0.4,4.7-0.7,6.5c-0.3,1.8-1.3,6.2-1.8,8.7
					c0,0,23.6,3.7,22.5,2.3c-1.5-1.9-2.3-4.2-3.2-6c-1.6-3.2-0.9-7-0.8-8.6c0.1-1.6,1.3-3.5,2-4.5c0.7-1,2.3-5.4,2.7-6.1
					c0.4-0.6,1.1,1.2,1.7,2.7c2.2,5.2,5.7,20,5.7,24c0,0.8,0.2,2.2,0.8,4.9c0.6,2.6,2.1,12,2.5,13.8c0.3,1.8-0.1,1.9-0.6,3.9
					c-0.6,2.1-0.4,3.2-0.5,4.4c-0.1,1.2,0.1,2.6,0.2,4c0.1,1.1,0,1.5-0.1,2c0.4,0,0.7-0.1,1.1-0.1c0.2-0.7,0-1.9,0-1.9l0-0.8
					c0-0.8,0.8-1.5,0.8-1.5s0.8,2.7,0.9,3.3c0,0.3,0,0.5-0.1,0.8c0.6-0.1,1.1-0.1,1.7-0.2c0.1-0.3,0.1-0.6,0.1-1
					c0.1-1.4-0.7-9.8-0.6-11.6c0.1-1.7,0.8-17,0.9-18.2C53.3,79.1,53.1,78,52.4,76.2z"/>
				<path class="st8" d="M13.3,114.4c0.2,2.9,0.5,5.5,0.5,6.5c0.1,2.6,0.2,10.6,0.1,11.5c-0.1,0.9,10.3-0.4,10.5-3.3
					c0.1-1.3,0-2.5-0.2-3.2c-0.6-1.9-1.4-8.5-1.4-11.8C19.6,114.2,16.4,114.3,13.3,114.4z M45.5,113.8c0-0.2,0-0.6-0.1-1.1
					c-3.7,0.3-7.3,0.6-11,0.8c0.8,2.4,1.7,5,2.7,7.8c2.6,7.4,3.6,7.2,4.7,9.7c0.4,0.8,0.6,2.2,0.9,3.9c0.1,1,1.3,3.6,3.5,7.8
					c3.9-6.3,5.7-10,5.2-11.1c-0.3-0.8-0.6-1.5-0.9-2.2c-1.5-3.5-3.2-6.8-3.3-7.1C46.9,121.7,45.6,115.8,45.5,113.8L45.5,113.8z"/>
				<path class="st11" d="M46.2,162.5c0.5-1.8-2.2-16.6-2.5-18.3c-0.3-1.2-0.6-5.7-1.1-9.3c1.9,2.2,3.1,4.9,3.1,4.9s0.7-3.1,1.6-5.9
					c0.6-2,2.1-3.7,2.9-4.5c0.3,0.8,0.7,1.5,1,2.3c1.1,2.7,2.2,7.3,0.9,13.7c-1.3,6.4-2.5,9.1-1.7,16.5c0.5,4.9,2.9,6.7,0.9,11.4
					c-2.1,4.7-3,5.7-5.1,4.8c-2.1-0.8-3-6.1-2.1-9.2C45.1,165.8,45.8,164.2,46.2,162.5 M1.7,168.8c0.9-0.8,6-4.1,7-4.9
					c1-0.8,2.1-1.3,3.7-3.5c1.1-1.6,1-6.9,1.3-7.5c0.2-0.6,0.1-19.6,0.2-20.5c0,0,0-0.1,0-0.1c1-0.7,2-1.4,3.1-1.9
					c2.3-1.1,4.8-1.7,7.3-1.7c-0.1,3-1,7.1-2.4,10c-2,4.1-3,8.8-2.9,12.6c0.1,3.8,0.5,7.3,1.3,10.2c0.8,3,2.1,5.2,0.1,7
					c-2,1.8-2.6,0.3-5.2,0.1c-2.6-0.2-2.6,0.6-4.5,2.2c-2,1.6-5.7,1.4-8.3,0.6C-0.1,170.6,1,169.5,1.7,168.8"/>
				<path class="st7" d="M38.7,49.8c0.4,0.4,0.7,1.4,0.7,2.5c-0.3-0.5-0.5-0.8-0.8-0.5c-0.3,0.5-1.2,2.9-1.9,4.6
					c0.1-0.5,0.2-1.1,0.2-1.7C36.9,53.7,35.9,47.6,38.7,49.8"/>
				<path class="st8" d="M21.7,8.3c4.4-1.9,12.6,2.3,12.5,10.3c-0.1,8.1-5.2,11-6.7,11.4c-1.5,0.4-7.3-5.1-8.4-9.7
					C18,15.7,17.3,10.2,21.7,8.3"/>
				<path class="st12" d="M23.1,0.8c-1.6,0.6-2.7,2-3,3.8c-0.1,0.8-0.7,1-1.1,1.7c-0.4,0.7-0.5,1.5-0.3,2.2c0.6,2.6,3.1,4.8,5.2,6.4
					c2.3,1.8,4.8,3.3,7.1,5.1c1.2,0.9,2.5,1.8,3.6,2.8c1.1,1,1.8,2.4,2.4,3.8c1.5,3.4,2.9,6.5,5.9,8.9c1.3,1.1,2.9,1.8,4.2,2.9
					c1.4,1.1,3,2,4.7,2.5c2.8,0.8,5.7,0.9,8.5,2.1c1.4,0.7,2.9,1.6,3.3,3.2c0.2,0.6,0.3,1.4,0,2c0,0.1-0.9,1.2-1,1
					c0.1,0.4,1.5-1,1.6-1.2c0.3-0.7,0.4-1.6,0.3-2.4c-0.2-2-1.9-3.6-3.5-4.8c-1.8-1.3-3.8-2.3-5.8-3.1c-1.2-0.4-2.3-0.9-3.3-1.7
					c1.8,0.5,3.6,0.8,5.4,1.5c1.1,0.5,2.2,1,3.2,1.5c-1.5-1.5-3-3-4.8-4.2c1.9,0.7,3.7,1.6,5.3,2.8c0.2,0.1,2.7,2,2.5,2.2
					c0.2-0.1-2-3.3-2.2-3.4c1.8,0.6,3.6,1.4,5.1,2.5c0.7,0.5,1.1,1.2,1.3,2c0,0.2,0.2,1.4,0.1,1.5c0.3,0,0.3-2.6,0.2-2.9
					c-0.3-1.4-1.8-2.5-2.9-3.4c-2.4-2.1-5.3-3.3-7.8-5.2c-2.3-1.7-3.9-4.1-5.5-6.5c-1.7-2.6-3.2-5.2-4.8-7.9
					c-2.8-4.6-6.2-9-10.4-12.5C33.4,1.4,27.4-0.9,23.1,0.8C22.2,1.1,24.1,0.4,23.1,0.8"/>
				<path class="st13" d="M11.4,107.5c0,3.6-0.4,12.2-0.4,12.2s9.7,2.9,19.8,3.2c10.1,0.4,18-3.6,19.4-4.3c1.4-0.7,6.1-1.1,6.1-1.1
					S41.6,82.7,37.3,75.2s-21.9-0.7-21.9-0.7S11.4,103.9,11.4,107.5z"/>
				<path class="st14" d="M35.8,113.9h29.4V91.6H35.8V113.9z"/>
				<path class="st15" d="M53.4,102.4c0,1.9-1.5,3.4-3.4,3.4c-1.9,0-3.4-1.5-3.4-3.4S48.1,99,50,99S53.4,100.6,53.4,102.4
					L53.4,102.4"/>
				<path class="st8" d="M56.4,114.1c-0.1-0.6-1-4.9-1.6-6c-0.6-1.1-2.2-5.4-2.3-6.3c0-0.2,0-0.3-0.1-0.5c-0.1-1.2-0.1-2.2-0.1-2.6
					C52.4,97,53,84,53.2,80.9c-1.4,0.6-2.6,1.8-2.9,3.5c0,0.1-0.2,0.1-0.3,0.1c-1.2-0.9-2.3-1.8-3.5-2.6c0.1,0.5,0.2,1,0.3,1.6
					c0.6,2.6,2.1,12,2.5,13.8c0.3,1.8-0.1,1.9-0.6,3.9c-0.2,0.7-0.3,1.4-0.4,2.1l0,0c0,0-1.1,5.8-1.2,6.7c0,1,0.1,2.8-0.1,3.4
					c-0.2,0.6-1,2.2-1,2.2s1.2,0.4,1.7-0.1c0.4-0.5,1.6-2.4,1.6-2.6s0.2,2.1,0.2,2.1s0.2,1.1,0.9,1c0.6-0.1,0.8-1,1.4-1
					s0.2,0.7,0.8,0.7s0.8-0.9,1.3-1c0.4-0.1,0.4,0.5,1.1,0.5C55.8,115.2,56.5,114.7,56.4,114.1"/>
			</g>
			<g transform="translate(925 1113)">
				<path class="st16" d="M43.6,20.9c0,0,2.3,6.2,2.8,7.3c0.5,1.1,2,4.1,2.3,4.3c0.3,0.2,0.1-0.4,3-0.2c2.9,0.2,2.8,3.2,2.8,3.2
					S37.2,47.9,32,47.7c-5.3-0.2-14.4-9-14.4-9s2.4-1.7,5-2c2.6-0.3,7.5-1.2,7.5-1.2l-0.8-6L43.6,20.9"/>
				<path class="st17" d="M44.1,22.2l-0.5-1.3l-14.4,8.5l0.8,6l0,0.7c0.7,0.2,1.5,0,2.1-0.1c0.5-0.1,1.1-0.2,1.6-0.2
					c3.4,0,3.8-2.2,5.6-3.7c0.7-0.6,1.8-1.2,2.5-1.8c0.7-0.6,1.9-1.5,2-2.4C44.3,25.8,43.3,24.2,44.1,22.2"/>
				<path class="st16" d="M23.1,12.5c-0.4,1.2,0.6,3.3,0.7,3.6c0.1,0.3-0.5,1.5-0.8,2.3c-0.3,0.8,0.9,2.6,1.3,3.5
					c0.4,0.9,0.4,7.2,0.7,8c0.3,0.8,1,1.8,2.2,2.2c0.5,0.2,1-0.2,1-0.2s-0.8,0.9,2.1,1.2s4.2,0,5-0.8c0.9-1.1,2-1.9,3.3-2.7
					c1.5-0.9,3.2-1.2,4.2-3.4c1.1-2.2,0.2-5.1,0.3-5.8c0.1-0.6,0.9-3.2,1-5c0.1-1.8,0-10-4.9-10.7C34.4,4,30.5,2.6,27.3,6
					C26.9,6.3,23.5,11.3,23.1,12.5z"/>
				<path class="st11" d="M10.4,216.9c0.9-0.1,1.9-0.2,2.7-0.5c1.2-0.4,2.2-1,3.4-2.2c0.1-0.1,0.3-0.3,0.4-0.4
					c0.5-0.5,0.9-1,1.5-1.3c0.5-0.3,1.1-0.4,1.6-0.5c1-0.1,2,0.2,3.1,0.4c0.5,0.1,1,0.2,1.5,0.3c0.2,0,0.4,0,0.7,0
					c2.2-0.2,3.7-2.5,3.6-4.4c-0.1-1.7-0.8-3.5-1.4-5.1c-0.4-1.1-0.8-2-1.1-3c-0.7-2.8,0.7-5.6,2.1-8.3c0.3-0.7,0.7-1.3,1-2
					c2.7-5.9,5.1-11.7,5.6-18c0.3-3.7,0.1-7-0.7-9.8l-0.1-0.4l-0.4,0.2c-1.3,0.6-2.5,1.3-3.8,1.9c-2,1-4.1,2-6.1,3.1
					c-1.9,1.1-3.5,2.2-4.8,3.4l-0.1,0.1l0,0.1c-0.1,4.3,0,8.8,0.2,12.9c0,0.1,0.1,9-0.5,11.9c-0.2,1.3-0.8,2.5-1.3,3.7
					c-0.3,0.6-0.5,1.2-0.7,1.9c-0.6,1.5-1.7,3-3.5,4.5c-1.5,1.3-3.1,2.5-4.7,3.7c-0.4,0.3-0.9,0.7-1.4,1c-1.2,0.9-2.4,1.7-3.5,2.8
					l0,0l-0.2,0.2c-0.4,0.5-1,1.1-1,1.8c0.1,1.2,1.6,1.5,2.4,1.7C6.9,216.9,8.8,217,10.4,216.9 M58.8,199.5c-0.1-0.7-0.1-1.4-0.2-2
					c-2.8,0-5.6,0-8.3,0.2c0.1,1.3,0.1,2.2,0,2.7c-0.2,0.9-0.5,1.8-0.7,2.7c-0.4,1.8-0.9,3.8-1.9,6.8c-1.5,4.7-0.2,12.9,3,14.3
					c0.8,0.3,1.4,0.5,1.9,0.5h0c2.3,0,3.8-2.4,6.3-7.8c2.3-4.9,1.6-7.8,0.8-11.5C59.4,203.7,59,201.8,58.8,199.5"/>
				<path class="st7" d="M43.2,6.7c-1.7-5.1-8-7.5-14.1-5.5C22.9,3.2,19.4,9,21,14C26.9,8.3,35,5.7,43.2,6.7"/>
				<path class="st7" d="M42.8,26.5c5-1.7,7.2-8.6,4.9-15.3c-2.3-6.7-8.3-10.7-13.3-9L42.8,26.5"/>
				<path class="st16" d="M10.7,78.7c0.6-1.2,1.2-2.4,1.9-3.5c1.4,1.9,3.6,3.8,5.4,7.1c2.7,4.9,2.6,2.2,6.4,3
					c3.8,0.7,2.6,2.6,4.2,4.9c1.5,2.2,2.6,3.6,2.2,5.6c-0.4,2-2.4,3.9-6.2,4.8c-3,0.6-4.5,1-6-0.9c-1.5-1.9-3.1-8.2-5.3-10.5
					l-2.7-10.3C10.5,78.8,10.6,78.8,10.7,78.7"/>
				<path class="st13" d="M19.3,83.8c0,0-2.2,36.4-1.9,49.7c0.3,12-2.6,44-2.6,44l-3.9,27.9l21.6,0.6c0,0,3.3-31.5,3.7-37.4
					c0.3-5.9,3.1-39.7,3.1-39.7s4.1,45.4,4.4,47.7c0.3,2.3,3.1,31,3.1,31l7.2,3.4l12.9-1.7c0,0-1.9-43.8-2.9-49.7
					c-1-5.9-2.5-21.4-3.5-27.3c-1-5.9-7.2-41.4-7.2-41.4l-2-3.6L19.3,83.8"/>
				<path class="st18" d="M52.2,79.4c0.7-4.1,5.9-21.5,5.9-21.5l12.7,14.1L55.2,89.4l3.3,8.2c0,0,24.2-19.7,25.6-23
					c1.5-3.3-15.6-33.4-19-36.7c-3.3-3.3-10.5-5.2-13.8-5.4c-3.3-0.2-20.3,12.8-20.3,12.8l-2.3-9.9c0,0-9.4,0.1-13.2,3.2
					c-2.5,2-7.1,10.4-9.3,16c-2.2,5.6-9,16-4.9,20.8c4.1,4.8,13.8,17.2,13.8,17.2c1.3-1.8,2.6-3.7,3.9-5.5l-0.3-5.2
					c-2.7-2.7-6.8-7.2-6.8-10.2c0-4.5,5.3-12.2,5.3-12.2l2,30.2l32.4-0.8C51.5,88.7,51.5,83.4,52.2,79.4z"/>
				<g transform="rotate(24 -140.5 137.11)">
					<path class="st14" d="M0.9,25.9l33,0l0-25l-33,0L0.9,25.9z"/>
					<path class="st15" d="M21.7,12.7c0,2.2-1.8,4-4,4c-2.2,0-4-1.8-4-4c0-2.2,1.8-4,4-4C19.9,8.7,21.7,10.5,21.7,12.7"/>
				</g>
				<path class="st16" d="M63.9,83.7l-7.2,3.6c-2.7,4.9-2.6,2.2-6.4,3c-3.8,0.7-2.6,2.6-4.2,4.9c-1.5,2.2-2.6,3.6-2.2,5.6
					c0.4,2,2.4,3.9,6.2,4.8c3,0.6,4.5,1,6-0.9c1.5-1.9,3.1-8.2,5.3-10.5l2.7-10.3C64,83.9,63.9,83.8,63.9,83.7"/>
				<path class="st18" d="M63.7,64l7.1,8L55.2,89.4l3.3,8.2c0,0,24.2-19.7,25.6-23c0.8-1.7-3.4-10.4-8-19"/>
				<path class="st16" d="M39.4,18.5c0,2.1,0.8,3.7,1.8,3.7c1,0,1.7-1.7,1.7-3.8c0-2.1-0.8-3.7-1.8-3.7
					C40.2,14.8,39.4,16.4,39.4,18.5"/>
				<path class="st19" d="M28,38.2l3.1,7l-0.9-8.7L28,38.2"/>
				<path class="st20" d="M29.7,33.1l-3.3,1.1l-1.9,8.6l5.7-6.3L29.7,33.1"/>
				<path class="st20" d="M47.7,30.8l-7.8,7.9l8.7-2.4l0.9,4.2l1.7-8.6L47.7,30.8"/>
			</g>
		</g>
	</g>
</g>
</svg>
