<?xml version="1.0" encoding="UTF-8"?>
<!DOCTYPE svg PUBLIC "-//W3C//DTD SVG 1.1//EN" "http://www.w3.org/Graphics/SVG/1.1/DTD/svg11.dtd">
<!-- Creator: CorelDRAW 2021 (64-Bit) -->
<svg xmlns="http://www.w3.org/2000/svg" xml:space="preserve" width="1.70666in" height="1.70666in" version="1.1" style="shape-rendering:geometricPrecision; text-rendering:geometricPrecision; image-rendering:optimizeQuality; fill-rule:evenodd; clip-rule:evenodd"
viewBox="0 0 1706.66 1706.66"
 xmlns:xlink="http://www.w3.org/1999/xlink"
 xmlns:xodm="http://www.corel.com/coreldraw/odm/2003">
 <defs>
  <style type="text/css">
   <![CDATA[
    .fil0 {fill:none}
    .fil1 {fill:#2196F3}
   ]]>
  </style>
 </defs>
 <g id="Layer_x0020_1">
  <metadata id="CorelCorpID_0Corel-Layer"/>
  <rect class="fil0" y="0" width="1706.65" height="1706.65"/>
  <path class="fil1" d="M19.83 92.99c0,-41.92 33.95,-75.87 75.87,-75.87l73.3 0c104.92,0 198.66,69.51 224.98,171.91l33.87 131.56 1108.26 0 0.89 0 1.15 0 74.93 0c41.92,0 75.87,33.98 75.87,75.87 0,41.89 -33.95,75.87 -75.87,75.87l-7.94 0 -40.8 367.16c-11.39,102.46 -29.94,191.35 -91.67,251.39 -61.77,60.07 -151.12,76.19 -253.86,84.74l-618.32 51.53c-5.93,11.19 -12.87,21.94 -20.73,32.15l-25.38 32.83c26.53,24.74 47.14,55.74 59.47,90.64l405.24 0c31.26,-88.41 115.56,-151.75 214.66,-151.75 125.71,0 227.62,101.91 227.62,227.62 0,125.71 -101.91,227.59 -227.62,227.59 -99.1,0 -183.41,-63.34 -214.66,-151.72l-405.24 0c-31.26,88.38 -115.56,151.72 -214.66,151.72 -125.71,0 -227.62,-101.88 -227.62,-227.59 0,-125.71 101.91,-227.62 227.62,-227.62 3.53,0 7.03,0.09 10.5,0.23l49.95 -64.66c14.08,-18.24 18.67,-41.15 13.16,-62.6l-225.73 -877.17c-8.43,-32.72 -39.66,-57.98 -78.05,-57.98l-73.3 0c-41.92,0 -75.87,-33.95 -75.87,-75.85zm1432.64 379.34l-985.56 0 154.5 600.8 584.8 -48.72c104.29,-8.69 141.65,-23.83 160.64,-42.27 18.95,-18.46 35.13,-55.43 46.68,-159.43l38.94 -350.38zm-1053.3 910.44c-41.89,0 -75.87,33.95 -75.87,75.87 0,41.89 33.98,75.87 75.87,75.87 41.89,0 75.87,-33.98 75.87,-75.87 0,-41.92 -33.98,-75.87 -75.87,-75.87zm758.69 75.87c0,41.89 33.98,75.87 75.87,75.87 41.89,0 75.87,-33.98 75.87,-75.87 0,-41.92 -33.98,-75.87 -75.87,-75.87 -41.89,0 -75.87,33.95 -75.87,75.87z"/>
 </g>
</svg>
