<?xml version="1.0" encoding="UTF-8"?>
<!DOCTYPE svg PUBLIC "-//W3C//DTD SVG 1.1//EN" "http://www.w3.org/Graphics/SVG/1.1/DTD/svg11.dtd">
<!-- Creator: CorelDRAW 2021 (64-Bit) -->
<svg xmlns="http://www.w3.org/2000/svg" xml:space="preserve" width="43.3492mm" height="43.3492mm" version="1.1" style="shape-rendering:geometricPrecision; text-rendering:geometricPrecision; image-rendering:optimizeQuality; fill-rule:evenodd; clip-rule:evenodd"
viewBox="0 0 4334.92 4334.92"
 xmlns:xlink="http://www.w3.org/1999/xlink"
 xmlns:xodm="http://www.corel.com/coreldraw/odm/2003">
 <defs>
  <style type="text/css">
   <![CDATA[
    .fil0 {fill:none}
    .fil1 {fill:url(#id0);fill-rule:nonzero}
    .fil2 {fill:url(#id1);fill-rule:nonzero}
   ]]>
  </style>
  <linearGradient id="id0" gradientUnits="userSpaceOnUse" x1="1873.35" y1="4288.02" x2="1873.35" y2="1049.19">
   <stop offset="0" style="stop-opacity:1; stop-color:#FBB130"/>
   <stop offset="1" style="stop-opacity:1; stop-color:#FFC259"/>
  </linearGradient>
  <linearGradient id="id1" gradientUnits="userSpaceOnUse" x1="2657.86" y1="4288.02" x2="2657.86" y2="46.89">
   <stop offset="0" style="stop-opacity:1; stop-color:#0382F3"/>
   <stop offset="1" style="stop-opacity:1; stop-color:#33A0FF"/>
  </linearGradient>
 </defs>
 <g id="Layer_x0020_1">
  <metadata id="CorelCorpID_0Corel-Layer"/>
  <rect class="fil0" y="0.01" width="4334.9" height="4334.9"/>
  <g id="_2049461710160">
   <g>
    <g>
     <g>
      <path class="fil1" d="M2213.81 4039.52c-35.31,0 -67.82,-14.68 -91.61,-41.5 -23.91,-26.82 -35.19,-62.62 -31.07,-97.2l200.09 -1600.83 717.84 0c34.7,0 67.83,-14.56 91.37,-40.04 23.54,-25.6 35.31,-59.82 32.53,-94.4l-82.03 -1002.3c-5.34,-64.43 -59.21,-114.06 -123.88,-114.06l-2501.61 0c-64.68,0 -118.43,49.51 -123.76,113.94l-226.18 2721.56c-8.86,103.13 26.2,206.03 96.34,282.36 70.5,76.93 171.09,120.97 275.93,120.97l1766.03 0c68.68,0 124.26,-55.57 124.26,-124.25 0,-68.68 -55.57,-124.26 -124.25,-124.26l0 0.01zm1210.24 -1615.28c-137.11,0 -248.5,111.52 -248.5,248.51l0 124.25c0,68.56 -55.82,124.25 -124.26,124.25 -68.44,0 -124.25,-55.69 -124.25,-124.25l0 -124.25c0,-136.99 -111.39,-248.51 -248.5,-248.51 -137.12,0 -248.51,111.52 -248.51,248.51l0 124.25c0,342.55 278.6,621.26 621.26,621.26 342.67,0 621.26,-278.71 621.26,-621.26l0 -124.25c0,-136.99 -111.39,-248.51 -248.5,-248.51z"/>
     </g>
    </g>
    <g>
     <g>
      <path class="fil2" d="M2049 668.15l0 753.8c0,68.68 55.57,124.25 124.25,124.25 68.68,0 124.25,-55.57 124.25,-124.25l0 -753.8c0,-342.54 -278.71,-621.26 -621.26,-621.26 -342.55,0 -621.26,278.71 -621.26,621.26l0 753.8c0,68.68 55.58,124.25 124.26,124.25 68.68,0 124.25,-55.57 124.25,-124.25l0 -753.8c0,-205.55 167.21,-372.76 372.76,-372.76 205.54,0 372.75,167.21 372.75,372.76l0 0zm2209.14 3202.58c0,-0.24 -0.13,-0.48 -0.13,-0.72l-213.67 -1709.68c-7.77,-62.12 -60.67,-108.84 -123.28,-108.84l-1739.53 0c-62.61,0 -115.51,46.72 -123.28,108.84l-213.81 1710.4c-12.61,105.81 20.88,212.35 91.86,292.31 70.62,79.48 171.7,124.98 277.5,124.98l1674.98 0c105.8,0 206.88,-45.5 277.5,-124.98 70.99,-79.96 104.48,-186.5 91.86,-292.31zm-709.84 -1073.73c0,274.11 -222.9,497.01 -497.01,497.01 -274.1,0 -497,-222.9 -497,-497.01l0 -124.25c0,-68.68 55.57,-124.26 124.25,-124.26 68.68,0 124.25,55.58 124.25,124.26l0 124.25c0,136.99 111.51,248.5 248.51,248.5 136.99,0 248.5,-111.51 248.5,-248.5l0 -124.25c0,-68.68 55.57,-124.26 124.25,-124.26 68.68,0 124.26,55.58 124.26,124.26l-0.01 124.25z"/>
     </g>
    </g>
   </g>
  </g>
 </g>
</svg>
