<?xml version="1.0" encoding="UTF-8"?>
<!DOCTYPE svg PUBLIC "-//W3C//DTD SVG 1.1//EN" "http://www.w3.org/Graphics/SVG/1.1/DTD/svg11.dtd">
<!-- Creator: CorelDRAW 2021 (64-Bit) -->
<svg xmlns="http://www.w3.org/2000/svg" xml:space="preserve" width="43.3492mm" height="43.3492mm" version="1.1" style="shape-rendering:geometricPrecision; text-rendering:geometricPrecision; image-rendering:optimizeQuality; fill-rule:evenodd; clip-rule:evenodd"
viewBox="0 0 4334.92 4334.92"
 xmlns:xlink="http://www.w3.org/1999/xlink"
 xmlns:xodm="http://www.corel.com/coreldraw/odm/2003">
 <defs>
  <style type="text/css">
   <![CDATA[
    .fil0 {fill:none}
    .fil2 {fill:url(#id0);fill-rule:nonzero}
    .fil1 {fill:url(#id1);fill-rule:nonzero}
   ]]>
  </style>
  <linearGradient id="id0" gradientUnits="userSpaceOnUse" x1="2661.68" y1="4036.4" x2="2661.68" y2="341.45">
   <stop offset="0" style="stop-opacity:1; stop-color:#1F3B82"/>
   <stop offset="1" style="stop-opacity:1; stop-color:#3F5794"/>
  </linearGradient>
  <linearGradient id="id1" gradientUnits="userSpaceOnUse" x1="2167.14" y1="3787.09" x2="2167.14" y2="298.5">
   <stop offset="0" style="stop-opacity:1; stop-color:#2393F4"/>
   <stop offset="1" style="stop-opacity:1; stop-color:#25A7F7"/>
  </linearGradient>
 </defs>
 <g id="Layer_x0020_1">
  <metadata id="CorelCorpID_0Corel-Layer"/>
  <rect class="fil0" y="0.01" width="4334.9" height="4334.9"/>
  <g id="_2049555587632">
   <g>
    <g>
     <g>
      <path class="fil1" d="M4262.52 342.5c-3.81,-3.08 -62.77,-73.79 -149.9,-29.39 -1.93,0.86 -4008.73,2243.31 -4008.73,2243.31 -42.35,24.9 -64.78,72.24 -62.29,119.58 4.99,49.83 37.38,89.71 82.23,107.14l935.79 333.87 939.88 -365.08 -314.68 591.75 1195.88 436.02c62.76,23.12 134.31,-8.28 158.89,-72.27l1245.77 -3238.99c16.86,-43.97 6.7,-91.93 -22.84,-125.93l0 -0.01z"/>
     </g>
    </g>
    <g>
     <g>
      <path class="fil2" d="M1059.62 3117.01l249.16 829.69c34.46,114.91 187.99,118.89 234.2,14.96l294 -672.72 2426.75 -2947.5 -3204.11 2775.57z"/>
     </g>
    </g>
   </g>
  </g>
 </g>
</svg>
