<?xml version="1.0" encoding="UTF-8"?>
<!DOCTYPE svg PUBLIC "-//W3C//DTD SVG 1.1//EN" "http://www.w3.org/Graphics/SVG/1.1/DTD/svg11.dtd">
<!-- Creator: CorelDRAW 2021 (64-Bit) -->
<svg xmlns="http://www.w3.org/2000/svg" xml:space="preserve" width="1.70666in" height="1.70666in" version="1.1" style="shape-rendering:geometricPrecision; text-rendering:geometricPrecision; image-rendering:optimizeQuality; fill-rule:evenodd; clip-rule:evenodd"
viewBox="0 0 1706.66 1706.66"
 xmlns:xlink="http://www.w3.org/1999/xlink"
 xmlns:xodm="http://www.corel.com/coreldraw/odm/2003">
 <defs>
  <style type="text/css">
   <![CDATA[
    .fil0 {fill:none}
    .fil3 {fill:white}
    .fil2 {fill:#0D47A1;fill-rule:nonzero}
    .fil1 {fill:#2196F3;fill-rule:nonzero}
   ]]>
  </style>
 </defs>
 <g id="Layer_x0020_1">
  <metadata id="CorelCorpID_0Corel-Layer"/>
  <rect class="fil0" y="0" width="1706.65" height="1706.65"/>
  <g id="_1314950993184">
   <rect class="fil0" x="0.01" y="0.01" width="1706.65" height="1706.65"/>
   <g id="_2690407069232">
    <path class="fil1" d="M552.11 41.95c10.46,-1.42 19.96,5.98 21.5,16.41l0.46 3.21 0.17 1.18 0.55 3.24c6.91,41.46 12.91,77.54 21.38,106.37 9.1,31.03 22.76,60.15 49.03,83.46 27.19,24.12 58.5,34.24 92.02,38.89 31.63,4.36 70.63,4.45 116.11,4.45 45.44,0 84.48,-0.09 116.08,-4.45 33.54,-4.65 64.83,-14.76 92.02,-38.89 26.29,-23.31 39.93,-52.44 49.02,-83.46 8.46,-28.83 14.48,-64.92 21.41,-106.37l0.52 -3.24 0.69 -4.54c1.59,-10.37 11.07,-17.68 21.46,-16.26 79.22,10.63 144.42,33.22 196.05,84.82 51.59,51.63 74.19,116.86 84.85,196.05 10.28,76.7 10.28,174.44 10.28,296.96l0 467.15c0,122.5 0,220.26 -10.28,296.93 -10.66,79.22 -33.26,144.45 -84.85,196.05 -51.63,51.6 -116.83,74.19 -196.05,84.85 -76.67,10.31 -174.44,10.29 -296.96,10.29l-8.49 0c-122.52,0 -220.29,0.03 -296.96,-10.29 -79.19,-10.66 -144.42,-33.25 -196.05,-84.85 -51.6,-51.6 -74.19,-116.83 -84.82,-196.05 -10.31,-76.67 -10.31,-174.44 -10.31,-296.93l0 0 0 -467.15 0 0c0,-122.52 0,-220.29 10.31,-296.96 10.63,-79.19 33.22,-144.42 84.82,-196.05 51.63,-51.6 116.86,-74.19 196.05,-84.82l-0.01 0z"/>
    <path class="fil2" d="M1009.39 32.58c6.12,0.12 10.72,5.61 9.79,11.67 -7.57,45.42 -12.51,74.48 -18.78,95.8 -5.84,19.93 -11.04,26.38 -15.11,29.99 -4.45,3.96 -11.41,8.26 -31.61,11.07 -22.13,3.06 -52.32,3.38 -100.39,3.38 -48.09,0 -78.29,-0.32 -100.42,-3.38 -20.2,-2.8 -27.13,-7.11 -31.61,-11.07 -4.04,-3.61 -9.24,-10.06 -15.11,-29.99 -6.24,-21.29 -11.18,-50.27 -18.75,-95.57 -0.9,-6.19 3.81,-11.79 10.08,-11.93 45.67,-0.95 96.06,-0.95 151.53,-0.95l8.52 0c55.61,0 106.08,0 151.85,0.98l0.01 0z"/>
    <path class="fil3" d="M776.89 1407.5c-31.67,0 -57.32,25.68 -57.32,57.35 0,31.66 25.65,57.31 57.32,57.31l152.89 0c31.66,0 57.32,-25.65 57.32,-57.31 0,-31.67 -25.66,-57.35 -57.32,-57.35l-152.89 0z"/>
   </g>
  </g>
 </g>
</svg>
