<?xml version="1.0" encoding="UTF-8"?>
<!DOCTYPE svg PUBLIC "-//W3C//DTD SVG 1.1//EN" "http://www.w3.org/Graphics/SVG/1.1/DTD/svg11.dtd">
<!-- Creator: CorelDRAW 2021 (64-Bit) -->
<svg xmlns="http://www.w3.org/2000/svg" xml:space="preserve" width="43.3492mm" height="43.3492mm" version="1.1" style="shape-rendering:geometricPrecision; text-rendering:geometricPrecision; image-rendering:optimizeQuality; fill-rule:evenodd; clip-rule:evenodd"
viewBox="0 0 4334.92 4334.92"
 xmlns:xlink="http://www.w3.org/1999/xlink"
 xmlns:xodm="http://www.corel.com/coreldraw/odm/2003">
 <defs>
  <style type="text/css">
   <![CDATA[
    .fil0 {fill:none}
    .fil5 {fill:white;fill-rule:nonzero}
    .fil2 {fill:url(#id0);fill-rule:nonzero}
    .fil1 {fill:url(#id1);fill-rule:nonzero}
    .fil3 {fill:url(#id2);fill-rule:nonzero}
    .fil6 {fill:url(#id3);fill-rule:nonzero}
    .fil7 {fill:url(#id4);fill-rule:nonzero}
    .fil4 {fill:url(#id5);fill-rule:nonzero}
   ]]>
  </style>
  <linearGradient id="id0" gradientUnits="userSpaceOnUse" x1="2166.68" y1="954.25" x2="2166.68" y2="40.86">
   <stop offset="0" style="stop-opacity:1; stop-color:#1E88E5"/>
   <stop offset="1" style="stop-opacity:1; stop-color:#2196F3"/>
  </linearGradient>
  <linearGradient id="id1" gradientUnits="userSpaceOnUse" xlink:href="#id0" x1="3503.65" y1="954.25" x2="3503.65" y2="40.86">
  </linearGradient>
  <linearGradient id="id2" gradientUnits="userSpaceOnUse" xlink:href="#id0" x1="829.74" y1="954.25" x2="829.74" y2="40.86">
  </linearGradient>
  <linearGradient id="id3" gradientUnits="userSpaceOnUse" x1="2166.72" y1="1344.6" x2="2166.72" y2="456.06">
   <stop offset="0" style="stop-opacity:1; stop-color:#FBB439"/>
   <stop offset="1" style="stop-opacity:1; stop-color:#FBBE53"/>
  </linearGradient>
  <linearGradient id="id4" gradientUnits="userSpaceOnUse" x1="3773.55" y1="4292.54" x2="3773.55" y2="3503.65">
   <stop offset="0" style="stop-opacity:1; stop-color:#1F3B82"/>
   <stop offset="1" style="stop-opacity:1; stop-color:#3F5794"/>
  </linearGradient>
  <linearGradient id="id5" gradientUnits="userSpaceOnUse" xlink:href="#id0" x1="2166.39" y1="4292.39" x2="2166.39" y2="1344.59">
  </linearGradient>
 </defs>
 <g id="Layer_x0020_1">
  <metadata id="CorelCorpID_0Corel-Layer"/>
  <rect class="fil0" y="0.01" width="4334.9" height="4334.9"/>
  <g id="_2049257598032">
   <path class="fil1" d="M3628.23 829.75l0 -664.32c0,-68.8 -55.77,-124.57 -124.56,-124.57 -68.8,0 -124.57,55.77 -124.57,124.57l0 664.32c0,68.79 55.77,124.56 124.57,124.56 68.79,0 124.56,-55.77 124.56,-124.56z"/>
   <path class="fil2" d="M2291.27 829.75l0 -664.32c0,-68.8 -55.76,-124.57 -124.55,-124.57 -68.8,0 -124.57,55.77 -124.57,124.57l0 664.32c0,68.79 55.77,124.56 124.57,124.56 68.79,0 124.55,-55.77 124.55,-124.56z"/>
   <path class="fil3" d="M954.32 829.75l0 -664.32c0,-68.8 -55.77,-124.57 -124.56,-124.57 -68.79,0 -124.57,55.77 -124.57,124.57l0 664.32c0,68.79 55.78,124.56 124.57,124.56 68.79,0 124.56,-55.77 124.56,-124.56z"/>
   <path class="fil4" d="M3379.1 3503.65c-68.79,0 -124.55,55.77 -124.55,124.57l0 664.32 -3089.11 0c-68.8,0 -124.57,-55.77 -124.57,-124.57l0 -2823.37 4251.68 0 0 2159.05 -913.45 0z"/>
   <path class="fil5" d="M2208.23 2424.12c0,-251.83 -204.88,-456.71 -456.72,-456.71 -217.77,0 -406.23,154.91 -448.15,368.33 -13.27,67.5 30.72,132.98 98.22,146.22 67.52,13.28 132.97,-30.71 146.23,-98.21 19.03,-96.9 104.7,-167.22 203.7,-167.22 114.47,0 207.6,93.12 207.6,207.59 0,114.47 -93.13,207.61 -207.6,207.61 -68.79,0 -124.56,55.76 -124.56,124.56 0,68.8 55.77,124.56 124.56,124.56 114.47,0 207.6,93.14 207.6,207.61 0,114.47 -93.13,207.59 -207.6,207.59 -103,0 -191.4,-76.72 -205.59,-178.52 -1.33,-9.52 -2.01,-19.31 -2.01,-29.07 0,-68.79 -55.77,-124.57 -124.57,-124.57 -68.79,0 -124.56,55.78 -124.56,124.57 0,21.26 1.49,42.65 4.4,63.54 31.27,224.15 225.74,393.18 452.32,393.18 251.85,0 456.73,-204.89 456.73,-456.72 0,-130.79 -55.35,-248.83 -143.74,-332.16 88.39,-83.35 143.74,-201.38 143.74,-332.17l0 -0.01z"/>
   <path class="fil5" d="M2748 1967.41l-284 0c-68.79,0 -124.56,55.76 -124.56,124.55 0,68.79 55.77,124.57 124.56,124.57l159.43 0 0 1204.08c0,68.79 55.78,124.57 124.57,124.57 68.79,0 124.56,-55.78 124.56,-124.57l0 -1328.65c0,-68.78 -55.77,-124.55 -124.56,-124.55l0 0z"/>
   <path class="fil6" d="M4167.99 456.06l-539.76 0 0 373.69c0,68.79 -55.77,124.56 -124.56,124.56 -68.8,0 -124.57,-55.77 -124.57,-124.56l0 -373.69 -1087.83 0 0 373.69c0,68.79 -55.76,124.56 -124.55,124.56 -68.8,0 -124.57,-55.77 -124.57,-124.56l0 -373.69 -1087.83 0 0 373.69c0,68.79 -55.77,124.56 -124.56,124.56 -68.79,0 -124.57,-55.77 -124.57,-124.56l0 -373.69 -539.75 0c-68.8,0 -124.57,55.78 -124.57,124.57l0 763.97 4251.68 0 0 -763.98c0,-68.78 -55.77,-124.56 -124.57,-124.56l0.01 0z"/>
   <path class="fil7" d="M3327.81 4268.72c-21.3,15.48 -46.94,23.82 -73.26,23.82l0 -664.32c0,-68.8 55.76,-124.57 124.55,-124.57l913.45 0c0,39.85 -19.06,77.3 -51.29,100.74l-913.45 664.33z"/>
  </g>
 </g>
</svg>
