<?xml version="1.0" encoding="UTF-8"?>
<!DOCTYPE svg PUBLIC "-//W3C//DTD SVG 1.1//EN" "http://www.w3.org/Graphics/SVG/1.1/DTD/svg11.dtd">
<!-- Creator: CorelDRAW 2021 (64-Bit) -->
<svg xmlns="http://www.w3.org/2000/svg" xml:space="preserve" width="1.70666in" height="1.70666in" version="1.1" style="shape-rendering:geometricPrecision; text-rendering:geometricPrecision; image-rendering:optimizeQuality; fill-rule:evenodd; clip-rule:evenodd"
viewBox="0 0 1706.66 1706.66"
 xmlns:xlink="http://www.w3.org/1999/xlink"
 xmlns:xodm="http://www.corel.com/coreldraw/odm/2003">
 <defs>
  <style type="text/css">
   <![CDATA[
    .fil0 {fill:none}
    .fil1 {fill:#FFC107}
    .fil3 {fill:white}
    .fil2 {fill:#2196F3;fill-rule:nonzero}
    .fil4 {fill:white;fill-rule:nonzero}
   ]]>
  </style>
 </defs>
 <g id="Layer_x0020_1">
  <metadata id="CorelCorpID_0Corel-Layer"/>
  <rect class="fil0" y="0" width="1706.65" height="1706.65"/>
  <g id="_1314849835264">
   <rect class="fil0" x="0.01" y="0.01" width="1706.65" height="1706.65"/>
   <g id="_2168499330512">
    <path class="fil1" d="M469.31 94.87c0,-42.41 -34.4,-76.78 -76.81,-76.78 -42.41,0 -76.81,34.37 -76.81,76.78l0 54.66c29.64,-9.87 61.66,-16.84 96.11,-21.86 18.17,-2.64 37.33,-4.76 57.5,-6.48l0 -26.33 0.01 0.01zm921.67 54.66c-29.64,-9.87 -61.63,-16.84 -96.11,-21.86 -18.17,-2.64 -37.33,-4.76 -57.51,-6.48l0 -26.33c0,-42.41 34.4,-76.78 76.81,-76.78 42.41,0 76.81,34.37 76.81,76.78l0 54.66 0 0.01z"/>
    <path class="fil2" d="M930.96 114.09c150.83,0 270.35,0 363.91,13.59 96.67,14.05 173.91,43.63 234.23,108.86 59.77,64.59 86.3,146.22 99.05,248.49 12.46,100.21 12.46,228.66 12.46,392.53l0 47.61c0,163.87 0,292.29 -12.46,392.5 -12.74,102.3 -39.28,183.9 -99.05,248.49 -60.32,65.23 -137.57,94.81 -234.23,108.86 -93.56,13.59 -213.07,13.59 -363.91,13.59l-155.24 0c-150.83,0 -270.35,0 -363.91,-13.59 -96.67,-14.05 -173.91,-43.63 -234.24,-108.86 -59.74,-64.59 -86.3,-146.19 -99.05,-248.49 -12.45,-100.21 -12.45,-228.63 -12.45,-392.5l0 -47.64c0,-163.83 0,-292.29 12.45,-392.5 12.74,-102.27 39.31,-183.9 99.05,-248.49 60.32,-65.23 137.57,-94.81 234.24,-108.86 93.56,-13.59 213.07,-13.59 363.91,-13.59l0 0 155.24 0 0 0z"/>
    <path class="fil3" d="M669 862.94c59.39,0 107.52,48.13 107.52,107.52l0 276.5c0,42.41 -34.37,76.81 -76.81,76.81 -42.41,0 -76.81,-34.4 -76.81,-76.81l0 -230.43c-42.41,0 -76.78,-34.37 -76.78,-76.78 0,-42.44 34.37,-76.81 76.78,-76.81l46.1 0 0 0z"/>
    <path class="fil4" d="M853.33 939.76c0,-42.44 34.4,-76.81 76.81,-76.81l132.17 0c61.22,0 118.09,60.64 92.22,130.34l-104.04 280.39c-14.75,39.77 -58.96,60.06 -98.73,45.31 -39.77,-14.78 -60.03,-58.96 -45.29,-98.72l75.59 -203.73 -51.93 0c-42.41,0 -76.81,-34.37 -76.81,-76.78l0.01 0z"/>
    <path class="fil3" d="M315.69 555.71c0,-42.41 34.4,-76.78 76.81,-76.78l921.67 0c42.41,0 76.81,34.37 76.81,76.78 0,42.44 -34.4,76.81 -76.81,76.81l-921.67 0c-42.41,0 -76.81,-34.37 -76.81,-76.81z"/>
   </g>
  </g>
 </g>
</svg>
