<?xml version="1.0" encoding="UTF-8"?>
<!DOCTYPE svg PUBLIC "-//W3C//DTD SVG 1.1//EN" "http://www.w3.org/Graphics/SVG/1.1/DTD/svg11.dtd">
<!-- Creator: CorelDRAW 2021 (64-Bit) -->
<svg xmlns="http://www.w3.org/2000/svg" xml:space="preserve" width="1.70666in" height="1.70666in" version="1.1" style="shape-rendering:geometricPrecision; text-rendering:geometricPrecision; image-rendering:optimizeQuality; fill-rule:evenodd; clip-rule:evenodd"
viewBox="0 0 1706.66 1706.66"
 xmlns:xlink="http://www.w3.org/1999/xlink"
 xmlns:xodm="http://www.corel.com/coreldraw/odm/2003">
 <defs>
  <style type="text/css">
   <![CDATA[
    .fil0 {fill:none}
    .fil4 {fill:#01579B}
    .fil2 {fill:white}
    .fil3 {fill:#01579B;fill-rule:nonzero}
    .fil1 {fill:#03A9F4;fill-rule:nonzero}
   ]]>
  </style>
 </defs>
 <g id="Layer_x0020_1">
  <metadata id="CorelCorpID_0Corel-Layer"/>
  <rect class="fil0" y="0" width="1706.65" height="1706.65"/>
  <g id="_1315081466640">
   <rect class="fil0" x="0.01" y="0.01" width="1706.65" height="1706.65"/>
   <path class="fil1" d="M335.94 154.21c0,-6.78 -5.82,-12.28 -12.54,-11.35 -68.96,9.53 -126.27,29.86 -171.51,75.12 -46.11,46.17 -65.94,104.29 -75.21,173.3 -8.92,66.47 -8.92,151.03 -8.92,255.9l0 506.96c0,104.9 0,189.43 8.92,255.93 9.27,69.01 29.11,127.11 75.21,173.27 46.13,46.17 104.2,66 173.19,75.3 29.86,4.03 63.37,6.23 100.7,7.44 22.41,0.72 33.62,1.1 40.05,-3.65 1.91,-1.42 2.87,-2.35 4.35,-4.2 4.95,-6.28 4.95,-20.22 4.95,-48.13 0,-105.8 85.78,-191.55 191.58,-191.55l76.63 0c7.85,0 15.61,0.46 23.26,1.39 27.83,3.36 41.76,5.04 48.57,0.93 0.87,-0.55 1.22,-0.78 2.03,-1.42 6.31,-4.83 9.3,-16.51 15.23,-39.82 12.34,-48.25 35.96,-113.9 92.3,-170.23l257.98 -257.98 3.42 -3.44c18.07,-18.16 45.76,-45.99 79.38,-65.39 49.52,-28.61 105.45,-41.35 160.65,-38.26 29.89,1.65 44.8,2.49 51.98,-4.31 7.21,-6.78 7.21,-19.93 7.21,-46.19l0 -146.6c0,-104.9 0,-189.43 -8.92,-255.93 -9.3,-69.01 -29.11,-127.14 -75.24,-173.3 -45.24,-45.26 -102.52,-65.59 -171.48,-75.12 -6.75,-0.93 -12.57,4.57 -12.57,11.35 0,126.96 -102.9,229.89 -229.87,229.89l-421.44 0c-126.96,0 -229.89,-102.93 -229.89,-229.89l0 -0.02z"/>
   <path class="fil2" d="M412.72 767.14c0,-31.74 25.75,-57.46 57.49,-57.46l612.98 0c31.74,0 57.49,25.72 57.49,57.46 0,31.74 -25.75,57.48 -57.49,57.48l-612.98 0c-31.74,0 -57.49,-25.74 -57.49,-57.48zm0 383.12c0,-31.74 25.75,-57.46 57.49,-57.46l306.49 0c31.74,0 57.46,25.72 57.46,57.46 0,31.74 -25.72,57.49 -57.46,57.49l-306.49 0c-31.74,0 -57.49,-25.74 -57.49,-57.49z"/>
   <path class="fil3" d="M431.76 154.12c0,-74.05 60.04,-134.09 134.09,-134.09l421.44 0c74.06,0 134.09,60.04 134.09,134.09 0,74.08 -60.04,134.12 -134.09,134.12l-421.44 0c-74.06,0 -134.09,-60.04 -134.09,-134.12z"/>
   <path class="fil3" d="M1322.96 982.02c53.84,-31.11 120.16,-31.11 174,0 20.04,11.56 42.57,34.15 63.51,55.11 20.97,20.94 43.53,43.44 55.11,63.51 31.07,53.84 31.07,120.16 0,174 -11.59,20.04 -29.57,38 -50.54,58.91l-258.04 258.07c-35.65,35.65 -78.72,52.3 -117.38,62.18 -19.31,4.92 -38.72,8.43 -56.33,11.5 -23.46,5.01 -99.89,19.78 -119.29,21.02 -21.37,1.36 -52.39,-0.72 -77.18,-25.54 -24.82,-24.82 -26.91,-55.81 -25.54,-77.18 1.22,-19.4 16.02,-95.86 21.03,-119.29 3.04,-17.61 6.57,-37.01 11.5,-56.33 9.87,-38.66 26.53,-81.73 62.18,-117.38l258.04 -258.04c20.94,-21 38.89,-38.98 58.94,-50.54l-0.01 0z"/>
   <path class="fil4" d="M590.08 1610.02c0,-42.31 34.32,-76.6 76.63,-76.6l76.63 0c42.31,0 76.63,34.29 76.63,76.6 0,42.34 -34.32,76.63 -76.63,76.63l-76.63 0c-42.31,0 -76.63,-34.29 -76.63,-76.63z"/>
  </g>
 </g>
</svg>
