<?xml version="1.0" encoding="UTF-8"?>
<!DOCTYPE svg PUBLIC "-//W3C//DTD SVG 1.1//EN" "http://www.w3.org/Graphics/SVG/1.1/DTD/svg11.dtd">
<!-- Creator: CorelDRAW 2021 (64-Bit) -->
<svg xmlns="http://www.w3.org/2000/svg" xml:space="preserve" width="43.3492mm" height="43.3492mm" version="1.1" style="shape-rendering:geometricPrecision; text-rendering:geometricPrecision; image-rendering:optimizeQuality; fill-rule:evenodd; clip-rule:evenodd"
viewBox="0 0 4334.92 4334.92"
 xmlns:xlink="http://www.w3.org/1999/xlink"
 xmlns:xodm="http://www.corel.com/coreldraw/odm/2003">
 <defs>
  <style type="text/css">
   <![CDATA[
    .fil0 {fill:none}
    .fil3 {fill:#FEFEFE;fill-rule:nonzero}
    .fil4 {fill:url(#id0);fill-rule:nonzero}
    .fil1 {fill:url(#id1);fill-rule:nonzero}
    .fil2 {fill:url(#id2);fill-rule:nonzero}
   ]]>
  </style>
  <linearGradient id="id0" gradientUnits="userSpaceOnUse" x1="1669.47" y1="540.66" x2="1669.47" y2="42.66">
   <stop offset="0" style="stop-opacity:1; stop-color:#1F3B82"/>
   <stop offset="1" style="stop-opacity:1; stop-color:#3F5794"/>
  </linearGradient>
  <linearGradient id="id1" gradientUnits="userSpaceOnUse" x1="3918.76" y1="3794.25" x2="3918.76" y2="806.26">
   <stop offset="0" style="stop-opacity:1; stop-color:#E64A19"/>
   <stop offset="1" style="stop-opacity:1; stop-color:#FF8A65"/>
  </linearGradient>
  <linearGradient id="id2" gradientUnits="userSpaceOnUse" x1="1669.23" y1="4292.04" x2="1669.23" y2="291.64">
   <stop offset="0" style="stop-opacity:1; stop-color:#2393F4"/>
   <stop offset="1" style="stop-opacity:1; stop-color:#25A7F7"/>
  </linearGradient>
 </defs>
 <g id="Layer_x0020_1">
  <metadata id="CorelCorpID_0Corel-Layer"/>
  <rect class="fil0" y="0.01" width="4334.9" height="4334.9"/>
  <g id="_2150945933008">
   <path class="fil1" d="M4167.76 806.26l-498 0c-68.82,0 -124.5,55.68 -124.5,124.5l0 1684.27c0,383.23 90.71,767.18 262.13,1110.41 21.15,42.19 64.19,68.81 111.37,68.81 47.18,0 90.22,-26.62 111.37,-68.81 171.42,-343.24 262.13,-727.18 262.13,-1110.41l0 -1684.27c0,-68.82 -55.68,-124.5 -124.5,-124.5z"/>
   <path class="fil2" d="M3171.76 291.66l-3004.59 0c-69.73,0 -124.5,54.77 -124.5,124.5l0 3751.59c0,69.71 54.77,124.5 124.5,124.5l1950.49 -0.01 1054.1 0c69.73,0 124.51,-54.79 124.51,-124.5l0 -1045.79 0 -2705.79c0,-69.74 -54.78,-124.5 -124.51,-124.5z"/>
   <path class="fil3" d="M665.17 3296.25l2008.59 0c68.82,0 124.5,-55.68 124.5,-124.51 0,-68.81 -55.68,-124.5 -124.5,-124.5l-2008.59 0.01c-68.82,0 -124.5,55.68 -124.5,124.5 0,68.82 55.68,124.5 124.5,124.5l0 0z"/>
   <path class="fil3" d="M665.17 2798.25l2008.59 0c68.82,0 124.5,-55.69 124.5,-124.5 0,-68.82 -55.68,-124.5 -124.5,-124.5l-2008.59 0c-68.82,0 -124.5,55.69 -124.5,124.5 0,68.81 55.68,124.5 124.5,124.5l0 0z"/>
   <path class="fil3" d="M2291.96 3669.75c0,-68.82 -55.68,-124.51 -124.49,-124.51l-1502.3 0c-68.82,0 -124.5,55.69 -124.5,124.51 0,68.82 55.68,124.5 124.5,124.5l1502.3 0c68.81,0 124.49,-55.69 124.49,-124.5l0 0z"/>
   <path class="fil4" d="M1171.47 540.66l996 0c68.75,0 124.49,-55.74 124.49,-124.5l0 -124.5c0,-137.52 -111.47,-249 -248.99,-249l-747 0c-137.52,0 -249.01,111.48 -249.01,249l0 124.5c0,68.76 55.75,124.5 124.51,124.5l0 0z"/>
   <path class="fil3" d="M665.17 1304.25l2008.59 0c68.82,0 124.5,-55.68 124.5,-124.49 0,-68.83 -55.68,-124.51 -124.5,-124.51l-2008.59 0c-68.82,0 -124.5,55.69 -124.5,124.51 0,68.81 55.68,124.5 124.5,124.5l0 -0.01z"/>
   <path class="fil3" d="M665.17 1802.25l2008.59 0c68.82,0 124.5,-55.68 124.5,-124.5 0,-68.81 -55.68,-124.5 -124.5,-124.5l-2008.59 0c-68.82,0 -124.5,55.69 -124.5,124.51 0,68.81 55.68,124.49 124.5,124.49l0 0z"/>
   <path class="fil3" d="M665.17 2300.25l2008.59 0c68.82,0 124.5,-55.69 124.5,-124.5 0,-68.81 -55.68,-124.5 -124.5,-124.5l-2008.59 0c-68.82,0 -124.5,55.69 -124.5,124.5 0,68.82 55.68,124.5 124.5,124.5l0 0z"/>
  </g>
 </g>
</svg>
