<?xml version="1.0" encoding="UTF-8"?>
<!DOCTYPE svg PUBLIC "-//W3C//DTD SVG 1.1//EN" "http://www.w3.org/Graphics/SVG/1.1/DTD/svg11.dtd">
<!-- Creator: CorelDRAW 2021 (64-Bit) -->
<svg xmlns="http://www.w3.org/2000/svg" xml:space="preserve" width="43.3492mm" height="43.3492mm" version="1.1" style="shape-rendering:geometricPrecision; text-rendering:geometricPrecision; image-rendering:optimizeQuality; fill-rule:evenodd; clip-rule:evenodd"
viewBox="0 0 4334.92 4334.92"
 xmlns:xlink="http://www.w3.org/1999/xlink"
 xmlns:xodm="http://www.corel.com/coreldraw/odm/2003">
 <defs>
  <style type="text/css">
   <![CDATA[
    .fil0 {fill:none}
    .fil2 {fill:#FEFEFE;fill-rule:nonzero}
    .fil5 {fill:url(#id0);fill-rule:nonzero}
    .fil1 {fill:url(#id1);fill-rule:nonzero}
    .fil3 {fill:url(#id2);fill-rule:nonzero}
    .fil4 {fill:url(#id3);fill-rule:nonzero}
   ]]>
  </style>
  <linearGradient id="id0" gradientUnits="userSpaceOnUse" x1="3417.84" y1="1285.79" x2="3417.84" y2="539.15">
   <stop offset="0" style="stop-opacity:1; stop-color:#C3FFE8"/>
   <stop offset="1" style="stop-opacity:1; stop-color:#F0FFF4"/>
  </linearGradient>
  <linearGradient id="id1" gradientUnits="userSpaceOnUse" x1="1572.53" y1="3110.89" x2="1572.53" y2="41.39">
   <stop offset="0" style="stop-opacity:1; stop-color:#0382F3"/>
   <stop offset="1" style="stop-opacity:1; stop-color:#33A0FF"/>
  </linearGradient>
  <linearGradient id="id2" gradientUnits="userSpaceOnUse" x1="4043.36" y1="1630.44" x2="2887.46" y2="313.81">
   <stop offset="0" style="stop-opacity:1; stop-color:#FFC107"/>
   <stop offset="1" style="stop-opacity:1; stop-color:#FFD54F"/>
  </linearGradient>
  <linearGradient id="id3" gradientUnits="userSpaceOnUse" x1="3548.95" y1="4288.91" x2="2935.86" y2="2327.41">
   <stop offset="0" style="stop-opacity:1; stop-color:#00BFA5"/>
   <stop offset="1" style="stop-opacity:1; stop-color:#02D4B8"/>
  </linearGradient>
 </defs>
 <g id="Layer_x0020_1">
  <metadata id="CorelCorpID_0Corel-Layer"/>
  <rect class="fil0" y="0.01" width="4334.9" height="4334.9"/>
  <g id="_2049666361792">
   <path class="fil1" d="M3103.65 1724.89c-75.05,776.73 -731.43,1386 -1527.51,1386 -846.26,0 -1534.75,-688.48 -1534.75,-1534.75 0,-846.26 688.49,-1534.75 1534.75,-1534.75 421.4,0 803.63,170.75 1081.27,446.65 -70.42,125.67 -110.65,270.42 -110.65,424.43 0,369.59 231.4,686.11 556.89,812.42l0 0z"/>
   <path class="fil2" d="M2319.16 2364.25c0,-362.36 -259.51,-665.22 -602.43,-732.6 146.14,-57.69 249.85,-200.22 249.85,-366.6l0 -165.93c0,-217.28 -176.78,-394.05 -394.05,-394.05 -217.28,0 -394.07,176.77 -394.07,394.05l0 165.93c0,166.38 103.72,308.91 249.86,366.6 -342.92,67.38 -602.42,370.24 -602.42,732.6 0,45.83 37.14,82.97 82.95,82.97l1327.35 0c45.81,0 82.95,-37.14 82.95,-82.96l0.01 -0.01z"/>
   <path class="fil3" d="M4288.91 912.47c0,480.31 -390.77,871.08 -871.08,871.08 -480.3,0 -871.07,-390.77 -871.07,-871.08 0,-480.31 390.77,-871.08 871.07,-871.08 480.31,0 871.08,390.77 871.08,871.08z"/>
   <path class="fil4" d="M4167.62 3581l-1253.61 -1253.59c-138.13,245.02 -341.57,448.47 -586.59,586.6l1253.59 1253.6c161.73,161.73 424.89,161.73 586.62,0 161.72,-161.72 161.72,-424.87 -0.01,-586.61z"/>
   <path class="fil5" d="M3666.72 788.03l-124.44 0 0 -124.45c0,-68.72 -55.72,-124.43 -124.45,-124.43 -68.72,0 -124.43,55.71 -124.43,124.43l0 124.45 -124.44 0c-68.72,0 -124.44,55.72 -124.44,124.44 0,68.72 55.72,124.43 124.44,124.43l124.44 0 0 124.45c0,68.72 55.71,124.44 124.44,124.44 68.72,0 124.44,-55.72 124.44,-124.44l0 -124.45 124.44 0c68.72,0 124.44,-55.71 124.44,-124.43 0,-68.73 -55.71,-124.45 -124.44,-124.45l0 0.01z"/>
   <path class="fil2" d="M3791.15 912.47c0,-68.72 -55.71,-124.45 -124.43,-124.45l-124.44 0.01 0 -124.45c0,-68.72 -55.72,-124.43 -124.45,-124.43 -68.72,0 -124.43,55.71 -124.43,124.43l0 124.45 -124.44 0c-68.72,0 -124.44,55.72 -124.44,124.44 0,68.72 55.72,124.43 124.44,124.43l124.44 0 0 124.45c0,68.72 55.71,124.44 124.44,124.44 68.72,0 124.44,-55.72 124.44,-124.44l0 -124.45 124.44 0c68.72,0 124.44,-55.71 124.44,-124.43l-0.01 0z"/>
  </g>
 </g>
</svg>
