<?xml version="1.0" encoding="UTF-8"?>
<!DOCTYPE svg PUBLIC "-//W3C//DTD SVG 1.1//EN" "http://www.w3.org/Graphics/SVG/1.1/DTD/svg11.dtd">
<!-- Creator: CorelDRAW 2021 (64-Bit) -->
<svg xmlns="http://www.w3.org/2000/svg" xml:space="preserve" width="1.70666in" height="1.70666in" version="1.1" style="shape-rendering:geometricPrecision; text-rendering:geometricPrecision; image-rendering:optimizeQuality; fill-rule:evenodd; clip-rule:evenodd"
viewBox="0 0 1706.66 1706.66"
 xmlns:xlink="http://www.w3.org/1999/xlink"
 xmlns:xodm="http://www.corel.com/coreldraw/odm/2003">
 <defs>
  <style type="text/css">
   <![CDATA[
    .fil0 {fill:none}
    .fil1 {fill:#2196F3}
    .fil2 {fill:#FF9800;fill-rule:nonzero}
   ]]>
  </style>
 </defs>
 <g id="Layer_x0020_1">
  <metadata id="CorelCorpID_0Corel-Layer"/>
  <rect class="fil0" y="0" width="1706.65" height="1706.65"/>
  <g id="_1314449382400">
   <rect class="fil0" x="0.01" y="0.01" width="1706.65" height="1706.65"/>
   <path class="fil1" d="M919.94 1270c0,-193.36 156.74,-350.1 350.09,-350.1 193.36,0 350.1,156.74 350.1,350.1 0,68.86 -19.91,133.09 -54.22,187.23l93.11 94.12c29.54,29.89 29.28,78.07 -0.61,107.64 -29.86,29.54 -78.07,29.28 -107.61,-0.6l-92.31 -93.28c-54.43,34.8 -119.09,55 -188.47,55 -193.36,0 -350.09,-156.74 -350.09,-350.09l0.01 -0.02zm350.09 -197.87c-109.28,0 -197.87,88.59 -197.87,197.87 0,109.28 88.6,197.87 197.87,197.87 109.28,0 197.87,-88.6 197.87,-197.87 0,-109.28 -88.59,-197.87 -197.87,-197.87z"/>
   <path class="fil2" d="M767.78 25.68c-220.69,0 -399.57,178.89 -399.57,399.54 0,220.69 178.89,399.57 399.57,399.57 220.65,0 399.54,-178.89 399.54,-399.57 0,-220.65 -178.89,-399.54 -399.54,-399.54z"/>
   <path class="fil2" d="M903.6 984.91c10.79,-13.86 3.71,-34.95 -13.72,-37.42 -80.98,-11.42 -163.3,-11.42 -244.27,0 -111.46,15.74 -220.45,53.1 -319.75,112.24 -8.86,5.26 -19.79,11.45 -32.16,18.41 -54.25,30.61 -136.26,76.89 -192.44,131.86 -35.15,34.4 -68.55,79.74 -74.59,135.25 -6.47,59.06 19.3,114.46 70.96,163.7 89.17,84.94 196.15,153 334.53,153l432.13 0c60.52,0 90.78,0 97.02,-12.86 6.24,-12.89 -14.5,-39.2 -56,-91.79 -62.33,-79.05 -99.56,-178.83 -99.56,-287.3 0,-107.46 36.53,-206.39 97.83,-285.09l0.02 0z"/>
  </g>
 </g>
</svg>
