<?xml version="1.0" encoding="utf-8"?>
<!-- Generator: Adobe Illustrator 25.4.1, SVG Export Plug-In . SVG Version: 6.00 Build 0)  -->
<svg version="1.1" id="Layer_1" xmlns="http://www.w3.org/2000/svg" xmlns:xlink="http://www.w3.org/1999/xlink" x="0px" y="0px"
	 viewBox="0 0 100 100" style="enable-background:new 0 0 100 100;" xml:space="preserve">
<style type="text/css">
	.st0{fill:#009EFB;}
</style>
<g id="Paid_Time_Off">
	<g>
		<path class="st0" d="M21.5,61.8c1.1-1.2,3-1.4,4.2-0.3c0,0,0,0,0,0l13.8,12.1h39.4c1.7,0,3,1.3,3,3s-1.3,3-3,3h-4.5v4.8
			c0,1.7-1.3,3-3,3s-3-1.3-3-3v-4.8H45.5v4.8c0,1.7-1.3,3-3,3s-3-1.3-3-3v-4.8h-1.1c-0.7,0-1.4-0.3-2-0.8L21.7,66.1
			C20.5,65,20.4,63.1,21.5,61.8C21.5,61.8,21.5,61.8,21.5,61.8z"/>
		<g>
			<rect x="46.5" y="67.6" class="st0" width="6" height="0.1"/>
			<path class="st0" d="M78.8,41.3C75.6,29.1,65.1,20.1,52.5,19v-3.4c0-1.5-1-2.7-2.4-3.1c-1.6-0.3-3.2,0.7-3.5,2.4
				c0,0.2-0.1,0.4-0.1,0.6V19c-12.4,1.4-22.6,10.3-25.7,22.3c0,0.2-0.1,0.4-0.1,0.6c-0.2,2.4,2.9,3.3,4.3,1.3
				c2.5-3.6,10.1-3.7,12.9-0.3c0.5,0.7,1.5,0.8,2.2,0.2c0,0,0.1-0.1,0.1-0.1c3.8-3.5,14.9-3.5,18.7,0c0.6,0.6,1.5,0.6,2.1,0.1
				c0,0,0.1-0.1,0.1-0.1c2.8-3.5,10.9-3.4,13.5,0.2c1.4,2,4.6,1,4.3-1.3C78.9,41.7,78.8,41.5,78.8,41.3z"/>
			<rect x="46.5" y="38.8" class="st0" width="6" height="28.8"/>
		</g>
	</g>
</g>
</svg>
