<?xml version="1.0" encoding="utf-8"?>
<!-- Generator: Adobe Illustrator 25.4.1, SVG Export Plug-In . SVG Version: 6.00 Build 0)  -->
<svg version="1.1" id="Layer_1" xmlns="http://www.w3.org/2000/svg" xmlns:xlink="http://www.w3.org/1999/xlink" x="0px" y="0px"
	 viewBox="0 0 100 100" style="enable-background:new 0 0 100 100;" xml:space="preserve">
<style type="text/css">
	.st0{fill:#009EFB;}
	.st1{fill:#875B7B;}
	.st2{fill:none;stroke:#009EFB;stroke-width:5;stroke-miterlimit:10;}
</style>
<g id="Paid_Time_Off">
	<g>
		<path class="st0" d="M21.5,61.8c1.1-1.2,3-1.4,4.2-0.3c0,0,0,0,0,0l13.8,12.1h39.4c1.7,0,3,1.3,3,3s-1.3,3-3,3h-4.5v4.8
			c0,1.7-1.3,3-3,3s-3-1.3-3-3v-4.8H45.5v4.8c0,1.7-1.3,3-3,3s-3-1.3-3-3v-4.8h-1.1c-0.7,0-1.4-0.3-2-0.8L21.7,66.1
			C20.5,65,20.4,63.1,21.5,61.8C21.5,61.8,21.5,61.8,21.5,61.8z"/>
		<g>
			<rect x="46.5" y="67.6" class="st1" width="6" height="0.1"/>
			<path class="st2" d="M78.9,41.9c0-0.2-0.1-0.4-0.1-0.5c0-32.9-58-32.9-58,0c0,0.2-0.1,0.4-0.1,0.6c-0.2,2.4,2.9,3.3,4.3,1.3
				c2.5-3.6,10.1-3.7,12.9-0.3c0.6,0.7,1.8,1,2.3,0.1c1.9-3.6,17.8-3.5,18.7,0c0.2,0.9,1.7,0.6,2.2-0.1c2.8-3.5,10.9-3.4,13.5,0.2
				C76,45.2,79.1,44.2,78.9,41.9z"/>
			<path class="st0" d="M46.5,40.6v27h6v-27C50.5,40.4,48.5,40.4,46.5,40.6z"/>
			<path class="st0" d="M52.5,11.6c0-1.5-1-2.7-2.4-3.1c-1.6-0.3-3.2,0.7-3.5,2.4c0,0.2-0.1,0.4-0.1,0.6v3h6V11.6z"/>
		</g>
	</g>
	<path class="st0" d="M21.8,43.8c-3.2-18.9,18.5-25.4,27.4-24.7C43.7,22.7,39,25.5,39,40.6C29.3,37.7,26.2,40.6,21.8,43.8z"/>
	<path class="st0" d="M76,43.9c3.3-19.9-17.8-26.4-26.8-24.8c5.4,3.6,9.1,7.5,9.1,22.6C65.6,39.8,69.4,41.7,76,43.9z"/>
</g>
</svg>
