<?xml version="1.0" encoding="utf-8"?>
<!-- Generator: Adobe Illustrator 25.4.1, SVG Export Plug-In . SVG Version: 6.00 Build 0)  -->
<svg version="1.1" id="Layer_1" xmlns="http://www.w3.org/2000/svg" xmlns:xlink="http://www.w3.org/1999/xlink" x="0px" y="0px"
	 viewBox="0 0 100 100" style="enable-background:new 0 0 100 100;" xml:space="preserve">
<style type="text/css">
	.st0{fill:none;stroke:#009EFB;stroke-width:3;stroke-linejoin:round;}
</style>
<g id="Parental_Time_Off">
	<path class="st0" d="M94.9,52.3l-7.7-17.4c-0.7-1.5-2.2-2.4-3.9-2.2c2.4-2.1,2.7-5.9,0.5-8.3s-5.9-2.7-8.3-0.5
		c-2.4,2.1-2.7,5.9-0.5,8.3c0.2,0.3,0.5,0.5,0.8,0.7c-1.1-0.2-2.2,0-3.1,0.8c-0.5,0.2-0.8,0.5-1.1,1L58.9,47.4
		c-0.4,0.5-0.7,1-0.9,1.7l-4,1.8c-0.5-0.5-1.1-0.8-1.8-0.9c1.8-1.5,2-4.2,0.5-6s-4.2-2-6-0.5s-2,4.2-0.5,6c0.2,0.2,0.3,0.4,0.5,0.5
		c-0.7,0.1-1.3,0.3-1.9,0.7l-2.9-2c-0.2-0.5-0.5-0.9-0.8-1.2L27.6,34c-0.7-0.7-1.8-1.1-2.8-1.1l-0.2,0c2.5-2.1,2.8-5.8,0.7-8.3
		s-5.8-2.8-8.3-0.7s-2.8,5.8-0.7,8.3c0.2,0.2,0.4,0.5,0.7,0.7c-1.7-0.3-3.5,0.6-4.2,2.2L5.1,52.3c-0.8,1.9,0.2,4.1,2.1,4.9
		C9,58,11.1,57.2,12,55.4l0.4-0.9c0,0.7,0.2,1.5,0.6,2.1v17.1c0,2.1,1.7,3.8,3.8,3.8l0,0c2.1,0,3.8-1.7,3.8-3.8V59.3h0.1v14.4
		c0,2.1,1.7,3.8,3.8,3.8s3.8-1.7,3.8-3.8c0,0,0,0,0,0V56.4c0.3-0.7,0.5-1.5,0.5-2.3v-8.4l7,7c1,1,2.4,1.3,3.7,0.9l3.8,2.7v9.2
		c0,0.6,0.2,1.3,0.5,1.8v7.4c-0.1,1.5,1.1,2.8,2.6,2.9s2.8-1.1,2.9-2.6c0-0.1,0-0.2,0-0.3v-5.5h0.1v5.5c0.1,1.5,1.4,2.7,2.9,2.6
		c1.4-0.1,2.5-1.2,2.6-2.6v-7.6c0.3-0.5,0.4-1.1,0.4-1.6v-9.2l5.6-2.5c1.2,0.2,2.5-0.1,3.4-1l8.6-8.6l0.7,4.6c0.1,0.4,0,0.7-0.2,1.1
		l-7.7,13.5c-0.4,0.9-0.1,2,0.9,2.5c0.3,0.2,0.7,0.2,1,0.2h4v7.8c0,2.1,1.7,3.8,3.8,3.8c2.1,0,3.8-1.7,3.8-3.8v-7.8h0.2v7.7
		c0,2.1,1.7,3.8,3.8,3.8c2.1,0,3.8-1.7,3.8-3.8v-7.7h3.4c1,0.1,1.9-0.6,2.1-1.6c0-0.4,0-0.7-0.2-1l-5.5-9.7
		c-0.2-0.6-0.5-1.1-0.9-1.6l-1.2-2.1c-0.2-0.3-0.3-0.8-0.2-1.1l0.2-1.1l3.4,7.7c0.9,1.9,3.2,2.6,5,1.7
		C94.8,56.3,95.6,54.2,94.9,52.3z"/>
</g>
</svg>
