<?xml version="1.0" encoding="utf-8"?>
<!-- Generator: Adobe Illustrator 25.4.1, SVG Export Plug-In . SVG Version: 6.00 Build 0)  -->
<svg version="1.1" id="Layer_1" xmlns="http://www.w3.org/2000/svg" xmlns:xlink="http://www.w3.org/1999/xlink" x="0px" y="0px"
	 viewBox="0 0 100 100" style="enable-background:new 0 0 100 100;" xml:space="preserve">
<style type="text/css">
	.st0{fill:#009EFB;}
</style>
<g id="Recovery_Bank_Holiday">
	<g>
		<path class="st0" d="M20,45c4.1,0.1,7.4,3.6,7.2,7.7c0,0,0,0,0,0c0,0.3,0,0.5,0,0.8c0,12.7,10.3,22.9,22.9,22.9S73.1,66.2,73,53.5
			c0-9.8-6.2-18.5-15.5-21.7c-0.1,0.8-0.4,1.7-0.8,2.4c-1.3,2.4-3.9,3.9-6.6,3.9c-1.4,0-2.8-0.4-3.9-1.1l-8.9-5.7
			c-2.8-1.4-4.5-4.5-4.1-7.6C25,28.4,19.1,36.3,16.9,45.5c0.9-0.4,1.9-0.6,2.9-0.5H20z M40.1,53.2l12.5,0.1v-9.6
			c0-1.4,1.1-2.5,2.5-2.5s2.5,1.1,2.5,2.5v11.5c0,0.3-0.1,0.7-0.2,1c-0.3,1.2-1.3,2-2.5,2l-14.9,0c-1.4,0-2.5-1.1-2.5-2.5
			S38.7,53.2,40.1,53.2z"/>
		<path class="st0" d="M50.2,20.6c-0.7,0-1.3,0-2,0.1c1-1,1.9-1.9,2.9-2.9c1-0.9,1.1-2.5,0.2-3.5c-0.9-1-2.5-1.1-3.5-0.2
			c-0.1,0.1-0.1,0.1-0.2,0.2l-8.2,8.2c-1.2,0.7-1.6,2.2-0.9,3.4c0.3,0.5,0.7,0.8,1.2,1l9.2,5.9c1.2,0.7,2.7,0.3,3.4-0.9
			c0.7-1.2,0.3-2.7-0.9-3.4l-4.2-2.7c1-0.1,2-0.2,3-0.2c15.4,0,27.9,12.5,27.9,27.9c0,15.4-12.5,27.9-27.9,27.9S22.3,69,22.3,53.5
			c0,0,0,0,0,0c0-0.3,0-0.7,0-1c0-1.4-1.1-2.5-2.4-2.5c-1.4,0-2.5,1-2.6,2.4c0,0.4,0,0.8,0,1.2c0,18.2,14.7,32.9,32.9,32.9
			s32.9-14.7,32.9-32.9S68.4,20.6,50.2,20.6C50.2,20.6,50.2,20.7,50.2,20.6L50.2,20.6z"/>
	</g>
</g>
</svg>
