<?xml version="1.0" encoding="utf-8"?>
<!-- Generator: Adobe Illustrator 25.4.1, SVG Export Plug-In . SVG Version: 6.00 Build 0)  -->
<svg version="1.1" id="Layer_1" xmlns="http://www.w3.org/2000/svg" xmlns:xlink="http://www.w3.org/1999/xlink" x="0px" y="0px"
	 viewBox="0 0 100 100" style="enable-background:new 0 0 100 100;" xml:space="preserve">
<style type="text/css">
	.st0{fill:#009EFB;}
	.st1{fill:none;stroke:#009EFB;stroke-width:5;stroke-linecap:round;stroke-linejoin:round;}
</style>
<g id="Recovery_Bank_Holiday">
	<g>
		<g>
			<path class="st0" d="M57.5,55.3V43.8c0-1.4-1.1-2.5-2.5-2.5s-2.5,1.1-2.5,2.5v11.5c0,1.4,1.1,2.5,2.5,2.5S57.5,56.7,57.5,55.3z"
				/>
			<path class="st0" d="M54.8,53.3l-14.8-0.1c-1.4,0-2.5,1.1-2.5,2.5s1.1,2.5,2.5,2.5l14.8,0.1c1.4,0,2.5-1.1,2.5-2.5
				S56.2,53.3,54.8,53.3z"/>
		</g>
		<g>
			<path class="st1" d="M40.5,24.6c16-5.2,33.1,3.4,38.4,19.4s-3.4,33.1-19.4,38.4S26.4,79,21.1,63c-1-3.1-1.5-6.3-1.5-9.5
				c0-0.4,0-0.7,0-1.1"/>
			<path class="st0" d="M47.4,14.3l-8.5,8.6c-1,1-0.9,2.6,0.1,3.6c0.1,0.1,0.3,0.2,0.4,0.3l9.4,6.1c1.2,0.7,2.7,0.3,3.4-0.9
				c0.7-1.2,0.3-2.7-0.9-3.4l-9.4-6l0.5,3.9l8.5-8.6c1-1,1-2.6,0-3.5S48.4,13.3,47.4,14.3L47.4,14.3z"/>
		</g>
	</g>
</g>
</svg>
