<?xml version="1.0" encoding="utf-8"?>
<!-- Generator: Adobe Illustrator 25.4.1, SVG Export Plug-In . SVG Version: 6.00 Build 0)  -->
<svg version="1.1" id="Layer_1" xmlns="http://www.w3.org/2000/svg" xmlns:xlink="http://www.w3.org/1999/xlink" x="0px" y="0px"
	 viewBox="0 0 100 100" style="enable-background:new 0 0 100 100;" xml:space="preserve">
<style type="text/css">
	.st0{fill:none;stroke:#009EFB;stroke-width:5;stroke-linecap:round;stroke-linejoin:round;}
	.st1{fill:#009EFB;stroke:#FFFFFF;stroke-miterlimit:10;}
</style>
<g id="Sick_Time_Off">
	<g>
		<path class="st0" d="M44.4,10.3h6.9c1.7,0,3.1,1.4,3.1,3.1v25c0,11.6-9.4,21.1-21.1,21.1l0,0l0,0c-11.6,0-21.1-9.4-21.1-21.1V13.4
			c0-1.7,1.4-3.1,3.1-3.1c0,0,0,0,0,0h6.6"/>
		<path class="st0" d="M32.6,59.9v7.8c0,29.3,44.8,29.3,44.8,0v-10"/>
		<g>
			<circle class="st0" cx="77.2" cy="45.8" r="10.6"/>
			<path class="st1" d="M77.2,48.3c3.2,0,3.2-5,0-5S74,48.3,77.2,48.3z"/>
		</g>
	</g>
</g>
</svg>
