<?xml version="1.0" encoding="utf-8"?>
<!-- Generator: Adobe Illustrator 25.4.1, SVG Export Plug-In . SVG Version: 6.00 Build 0)  -->
<svg version="1.1" id="Layer_1" xmlns="http://www.w3.org/2000/svg" xmlns:xlink="http://www.w3.org/1999/xlink" x="0px" y="0px"
	 viewBox="0 0 100 100" style="enable-background:new 0 0 100 100;" xml:space="preserve">
<style type="text/css">
	.st0{fill:#009EFB;}
</style>
<g id="Small_Unemployement">
	<path class="st0" d="M50,86.9c-20.4,0-36.9-16.5-36.9-36.9c0-20.4,16.5-36.9,36.9-36.9c20.4,0,36.9,16.5,36.9,36.9c0,0,0,0,0,0
		C86.9,70.4,70.4,86.9,50,86.9z M50,18.1c-17.6,0-31.9,14.3-31.9,31.9S32.4,81.9,50,81.9S81.9,67.6,81.9,50
		C81.9,32.4,67.6,18.1,50,18.1z"/>
	<g>
		<path class="st0" d="M71.7,45.2c0-3.7-3-6.6-6.6-6.6h-6v-5c0-1.4-1.1-2.5-2.5-2.5H43.4c-1.4,0-2.5,1.1-2.5,2.5v1.9l30.9,20.2V45.2
			z M54.1,38.4h-8.3V36h8.3V38.4z"/>
		<path class="st0" d="M28.3,45.2v17.2c0,3.7,3,6.6,6.6,6.6h29.9L28.3,45V45.2z"/>
	</g>
	<path class="st0" d="M78.4,71.5c-0.5,0-1-0.1-1.4-0.4L20.6,34c-1.1-0.8-1.4-2.3-0.6-3.5c0.8-1.1,2.2-1.4,3.4-0.7l56.5,37.1
		c1.2,0.8,1.5,2.3,0.7,3.5C80.1,71.1,79.3,71.5,78.4,71.5z"/>
</g>
</svg>
