<?xml version="1.0" encoding="utf-8"?>
<!-- Generator: Adobe Illustrator 25.4.1, SVG Export Plug-In . SVG Version: 6.00 Build 0)  -->
<svg version="1.1" id="Layer_1" xmlns="http://www.w3.org/2000/svg" xmlns:xlink="http://www.w3.org/1999/xlink" x="0px" y="0px"
	 viewBox="0 0 100 100" style="enable-background:new 0 0 100 100;" xml:space="preserve">
<style type="text/css">
	.st0{fill:#009EFB;}
</style>
<g id="Small_Unemployement">
	<g>
		<g>
			<path class="st0" d="M76.3,41.8c0-4.4-3.6-8-8-8H61v-6.1c0-1.7-1.3-3-3-3H42c-1.7,0-3,1.3-3,3v6.1h-0.7l38.1,25L76.3,41.8z
				 M55,33.6H45v-2.9h10V33.6z"/>
			<path class="st0" d="M23.7,62.7c0,4.4,3.6,8,8,8c0,0,0,0,0,0h34l-42-27.6L23.7,62.7z"/>
		</g>
		<path class="st0" d="M82.6,75.3c-0.6,0-1.1-0.2-1.6-0.5L15.8,31.9c-1.3-0.9-1.7-2.7-0.8-4c0.9-1.3,2.7-1.7,4-0.8l0,0L84.2,70
			c1.3,0.9,1.7,2.7,0.8,4C84.5,74.8,83.6,75.3,82.6,75.3L82.6,75.3z"/>
	</g>
</g>
</svg>
