<?xml version="1.0" encoding="utf-8"?>
<!-- Generator: Adobe Illustrator 25.4.1, SVG Export Plug-In . SVG Version: 6.00 Build 0)  -->
<svg version="1.1" id="Layer_1" xmlns="http://www.w3.org/2000/svg" xmlns:xlink="http://www.w3.org/1999/xlink" x="0px" y="0px"
	 viewBox="0 0 100 100" style="enable-background:new 0 0 100 100;" xml:space="preserve">
<style type="text/css">
	.st0{fill:#009EFB;}
</style>
<g id="Small_Unemployement">
	<path class="st0" d="M50,86.9c-20.4,0-36.9-16.5-36.9-36.9c0-20.4,16.5-36.9,36.9-36.9c20.4,0,36.9,16.5,36.9,36.9c0,0,0,0,0,0
		C86.9,70.4,70.4,86.9,50,86.9z M50,18.1c-17.6,0-31.9,14.3-31.9,31.9S32.4,81.9,50,81.9S81.9,67.6,81.9,50
		C81.9,32.4,67.6,18.1,50,18.1z"/>
	<g>
		<path class="st0" d="M34.9,64.5c-1.2,0-2.1-1-2.1-2.1V54c4.4,1.6,9,2.7,13.8,3L39,52c-2.1-0.5-4.2-1.2-6.2-2v-2l-4-2.6v17
			c0,3.4,2.7,6.1,6.1,6.1c0,0,0,0,0,0H64l-6.1-4L34.9,64.5z"/>
		<path class="st0" d="M45.4,35.5h9.3v3.4h-8.5l6.3,4.1h12.6c1.2,0,2.1,1,2.1,2.1V50c-0.9,0.3-1.8,0.6-2.7,0.9l6.7,4.4V45.2
			c0-3.4-2.7-6.1-6.1-6.1c0,0,0,0,0,0h-6.5v-5.5c0-1.1-0.9-2-2-2H43.4c-1.1,0-2,0.9-2,2v2.2l4,2.6V35.5z"/>
	</g>
	<path class="st0" d="M78.4,71.5c-0.5,0-1-0.1-1.4-0.4L20.6,34c-1.1-0.8-1.4-2.3-0.6-3.5c0.8-1.1,2.2-1.4,3.4-0.7l56.5,37.1
		c1.2,0.8,1.5,2.3,0.7,3.5C80.1,71.1,79.3,71.5,78.4,71.5z"/>
</g>
</svg>
