<?xml version="1.0" encoding="utf-8"?>
<!-- Generator: Adobe Illustrator 25.4.1, SVG Export Plug-In . SVG Version: 6.00 Build 0)  -->
<svg version="1.1" id="Layer_1" xmlns="http://www.w3.org/2000/svg" xmlns:xlink="http://www.w3.org/1999/xlink" x="0px" y="0px"
	 viewBox="0 0 100 100" style="enable-background:new 0 0 100 100;" xml:space="preserve">
<style type="text/css">
	.st0{fill:#009EFB;}
</style>
<g id="Training_Time_Off">
	<g>
		<g>
			<path class="st0" d="M21.7,41.9v3c0,2.8,1.2,6.7,6.7,9.7V44.1L21.7,41.9z"/>
			<path class="st0" d="M49.7,50.2c-1.7,0-3.4-0.3-5-0.8L43.4,49v9.9c2.2,0.2,4.4,0.3,6.6,0.3c14.1,0,28.3-4.4,28.3-14.3v-3.4
				l-23.5,7.8C53.2,49.9,51.4,50.2,49.7,50.2z"/>
		</g>
		<path class="st0" d="M92.7,26.7l-39-12.1c-2.2-0.7-4.5-0.7-6.7,0L7.3,27.2c-1.3,0.4-2,1.8-1.6,3.1C6,31.1,6.6,31.7,7.3,32
			l26.1,8.5V70c-4.3,1.4-6.6,6-5.3,10.3c1.4,4.3,6,6.6,10.3,5.3c4.3-1.4,6.6-6,5.3-10.3c-0.8-2.5-2.8-4.5-5.3-5.3V42.1l7.9,2.5
			c2.3,0.8,4.7,0.8,7,0l39.4-13.2c1.3-0.4,2-1.8,1.6-3.1C94.1,27.5,93.5,26.9,92.7,26.7L92.7,26.7z"/>
	</g>
</g>
</svg>
