<?xml version="1.0" encoding="utf-8"?>
<!-- Generator: Adobe Illustrator 25.4.1, SVG Export Plug-In . SVG Version: 6.00 Build 0)  -->
<svg version="1.1" id="Layer_1" xmlns="http://www.w3.org/2000/svg" xmlns:xlink="http://www.w3.org/1999/xlink" x="0px" y="0px"
	 viewBox="0 0 100 100" style="enable-background:new 0 0 100 100;" xml:space="preserve">
<style type="text/css">
	.st0{fill:#009EFB;}
</style>
<g id="Unpaid_Time_Off">
	<path class="st0" d="M50,86.6c-20.2,0-36.5-16.4-36.5-36.6S29.8,13.5,50,13.5S86.6,29.8,86.6,50C86.5,70.2,70.2,86.5,50,86.6z
		 M50,18.5c-17.4,0-31.5,14.1-31.5,31.5S32.6,81.6,50,81.6S81.6,67.4,81.6,50v0C81.5,32.6,67.4,18.5,50,18.5z"/>
	<path class="st0" d="M60.8,34.3c-2.3-2.3-5.4-3.7-8.6-3.9v-2.7c0-3.2-5-3.2-5,0v3.1c-4.8,1.2-8.4,5.4-8.8,10.3
		c-0.2,3.2,0.9,6.3,3.1,8.6c1.5,1.6,3.5,2.8,5.7,3.3v13.2c-1.7-0.3-3.2-1.1-4.4-2.4c-0.4-0.4-0.6-1-0.6-1.5v-3
		c0-1.4-1.1-2.5-2.5-2.5c0,0,0,0,0,0l0,0c-1.4,0-2.5,1.1-2.5,2.5v3c0,1.9,0.8,3.8,2.1,5.1c2.2,2.2,5,3.5,8,3.9v1.2c0,3.2,5,3.2,5,0
		v-1.4c5.1-1,9-5.3,9.4-10.5c0.4-5.8-3.7-11-9.4-12V35.3c1.9,0.2,3.7,1.1,5.1,2.5c0.4,0.4,0.6,1,0.6,1.5v3c0,1.4,1.1,2.5,2.5,2.5
		c0,0,0,0,0,0l0,0c1.4,0,2.5-1.1,2.5-2.5v-3C62.9,37.5,62.1,35.6,60.8,34.3z M45.2,46.2c-2.4-2.6-2.3-6.6,0.2-9
		c0.5-0.5,1.1-0.9,1.8-1.2v11.7C46.4,47.3,45.7,46.8,45.2,46.2z M56.6,60.2c-0.2,2.6-1.9,4.8-4.4,5.6V53.7c1,0.3,1.9,0.9,2.7,1.7
		C56.1,56.7,56.7,58.4,56.6,60.2L56.6,60.2z"/>
	<g>
		<path class="st0" d="M33.4,40.7c0.1-1.3,0.3-2.6,0.7-3.9L23,29.4c-1.1-0.8-2.7-0.5-3.5,0.6c-0.8,1.1-0.5,2.7,0.6,3.5
			c0,0,0.1,0,0.1,0.1l13.1,8.7C33.4,41.7,33.4,41.2,33.4,40.7z"/>
		<path class="st0" d="M78.9,66.4l-12.4-8.2c0.1,0.9,0.1,1.8,0.1,2.7c-0.1,1-0.2,2-0.5,3l10.1,6.7c1.1,0.8,2.7,0.4,3.4-0.7
			C80.3,68.7,80,67.2,78.9,66.4L78.9,66.4z"/>
	</g>
</g>
</svg>
