<?xml version="1.0" encoding="utf-8"?>
<!-- Generator: Adobe Illustrator 25.4.1, SVG Export Plug-In . SVG Version: 6.00 Build 0)  -->
<svg version="1.1" id="Layer_1" xmlns="http://www.w3.org/2000/svg" xmlns:xlink="http://www.w3.org/1999/xlink" x="0px" y="0px"
	 viewBox="0 0 100 100" style="enable-background:new 0 0 100 100;" xml:space="preserve">
<style type="text/css">
	.st0{fill:#009EFB;}
</style>
<g id="Credit_Time">
	<path class="st0" d="M90.1,38.8c0-0.5-0.1-1-0.3-1.4c0-0.1,0-0.1,0-0.2c-0.1-0.2-0.1-0.3-0.2-0.5c-0.1-0.2-0.2-0.4-0.3-0.6L89.2,36
		c-0.9-1.4-2.5-2.3-4.2-2.3l-0.4,0.1c-0.2,0-0.4,0-0.6,0H71c-2.8,0-5,2.2-5,5s2.2,5,5,5h1.3L61.6,54.4L51.3,44.2
		c0,0-0.1-0.1-0.1-0.1l-9-8.9c-0.5-0.5-1.1-0.9-1.8-1.1c-1.9-0.9-4.1-0.5-5.6,0.9L19.9,49.8v-2.7c0-2.8-2.2-5-5-5s-5,2.2-5,5v13.1
		c-0.1,0.3-0.1,0.7-0.1,1c0,0.5,0.1,1,0.3,1.4c0,0.1,0,0.1,0,0.2c0.1,0.2,0.1,0.3,0.2,0.5c0.1,0.2,0.2,0.4,0.3,0.6l0.1,0.1
		c0.9,1.4,2.5,2.3,4.2,2.3l0.4-0.1c0.2,0,0.4,0,0.6,0H29c2.8,0,5-2.2,5-5c0-2.8-2.2-5-5-5h-1.3l10.7-10.7l10.4,10.2
		c0,0,0.1,0.1,0.1,0.1l9,8.9c0.5,0.5,1.1,0.9,1.8,1.1c1.9,0.9,4.1,0.5,5.6-0.9l14.8-14.8v2.7c0,2.8,2.2,5,5,5s5-2.2,5-5V39.8
		C90.1,39.4,90.1,39.1,90.1,38.8z"/>
</g>
</svg>
