<?xml version="1.0" encoding="utf-8"?>
<!-- Generator: Adobe Illustrator 25.4.1, SVG Export Plug-In . SVG Version: 6.00 Build 0)  -->
<svg version="1.1" id="Layer_1" xmlns="http://www.w3.org/2000/svg" xmlns:xlink="http://www.w3.org/1999/xlink" x="0px" y="0px"
	 viewBox="0 0 100 100" style="enable-background:new 0 0 100 100;" xml:space="preserve">
<style type="text/css">
	.st0{fill:none;stroke:#009EFB;stroke-width:5;stroke-linecap:round;stroke-linejoin:round;}
</style>
<g id="Work_Accident_Time_Off">
	<g>
		<path class="st0" d="M39,44.2h22c11.4,0,20.6,9.2,20.6,20.5c0,0,0,0,0,0v25.2l0,0H27.2c-4.9,0-8.8-3.9-8.8-8.8V64.8
			C18.4,53.4,27.6,44.2,39,44.2C39,44.2,39,44.2,39,44.2z"/>
		<circle class="st0" cx="50" cy="27.1" r="17"/>
		<path class="st0" d="M63.6,89.8c11.8,0,11.8-16.1,0-16.1h-5.1"/>
		<line class="st0" x1="26.9" y1="48.2" x2="37.7" y2="88.8"/>
		<line class="st0" x1="39" y1="44.2" x2="67.6" y2="89.7"/>
	</g>
</g>
</svg>
