<?xml version="1.0" encoding="UTF-8"?>
<!DOCTYPE svg PUBLIC "-//W3C//DTD SVG 1.1//EN" "http://www.w3.org/Graphics/SVG/1.1/DTD/svg11.dtd">
<!-- Creator: CorelDRAW 2021 (64-Bit) -->
<svg xmlns="http://www.w3.org/2000/svg" xml:space="preserve" width="43.3492mm" height="43.3492mm" version="1.1" style="shape-rendering:geometricPrecision; text-rendering:geometricPrecision; image-rendering:optimizeQuality; fill-rule:evenodd; clip-rule:evenodd"
viewBox="0 0 4334.92 4334.92"
 xmlns:xlink="http://www.w3.org/1999/xlink"
 xmlns:xodm="http://www.corel.com/coreldraw/odm/2003">
 <defs>
  <style type="text/css">
   <![CDATA[
    .fil0 {fill:none}
    .fil11 {fill:#FEFEFE;fill-rule:nonzero}
    .fil3 {fill:url(#id0);fill-rule:nonzero}
    .fil8 {fill:url(#id1);fill-rule:nonzero}
    .fil12 {fill:url(#id2);fill-rule:nonzero}
    .fil13 {fill:url(#id3);fill-rule:nonzero}
    .fil4 {fill:url(#id4);fill-rule:nonzero}
    .fil9 {fill:url(#id5);fill-rule:nonzero}
    .fil6 {fill:url(#id6);fill-rule:nonzero}
    .fil2 {fill:url(#id7);fill-rule:nonzero}
    .fil5 {fill:url(#id8);fill-rule:nonzero}
    .fil10 {fill:url(#id9);fill-rule:nonzero}
    .fil7 {fill:url(#id10);fill-rule:nonzero}
    .fil1 {fill:url(#id11);fill-rule:nonzero}
   ]]>
  </style>
  <linearGradient id="id0" gradientUnits="userSpaceOnUse" x1="2167.46" y1="3794.14" x2="2167.46" y2="3047.19">
   <stop offset="0" style="stop-opacity:1; stop-color:#1F3B82"/>
   <stop offset="1" style="stop-opacity:1; stop-color:#3F5794"/>
  </linearGradient>
  <linearGradient id="id1" gradientUnits="userSpaceOnUse" xlink:href="#id0" x1="2167.46" y1="2798.21" x2="2167.46" y2="2549.23">
  </linearGradient>
  <linearGradient id="id2" gradientUnits="userSpaceOnUse" x1="3412.37" y1="3296.17" x2="3412.37" y2="2799.82">
   <stop offset="0" style="stop-opacity:1; stop-color:#FFC2CC"/>
   <stop offset="1" style="stop-opacity:1; stop-color:#FFF2F4"/>
  </linearGradient>
  <linearGradient id="id3" gradientUnits="userSpaceOnUse" x1="3412.38" y1="3775.49" x2="3412.38" y2="1038.73">
   <stop offset="0" style="stop-opacity:1; stop-color:#FF9800"/>
   <stop offset="1" style="stop-opacity:1; stop-color:#FFB74D"/>
  </linearGradient>
  <linearGradient id="id4" gradientUnits="userSpaceOnUse" xlink:href="#id0" x1="1669.49" y1="3794.14" x2="1669.49" y2="3545.15">
  </linearGradient>
  <linearGradient id="id5" gradientUnits="userSpaceOnUse" xlink:href="#id0" x1="1669.49" y1="2798.21" x2="1669.49" y2="2549.23">
  </linearGradient>
  <linearGradient id="id6" gradientUnits="userSpaceOnUse" xlink:href="#id0" x1="1669.49" y1="3296.17" x2="1669.49" y2="3047.19">
  </linearGradient>
  <linearGradient id="id7" gradientUnits="userSpaceOnUse" x1="1669.5" y1="1038.73" x2="1669.5" y2="42.81">
   <stop offset="0" style="stop-opacity:1; stop-color:#CECECE"/>
   <stop offset="1" style="stop-opacity:1; stop-color:#F1F1F1"/>
  </linearGradient>
  <linearGradient id="id8" gradientUnits="userSpaceOnUse" xlink:href="#id0" x1="1171.52" y1="3794.14" x2="1171.52" y2="3545.15">
  </linearGradient>
  <linearGradient id="id9" gradientUnits="userSpaceOnUse" xlink:href="#id0" x1="1171.52" y1="2798.21" x2="1171.52" y2="2549.23">
  </linearGradient>
  <linearGradient id="id10" gradientUnits="userSpaceOnUse" xlink:href="#id0" x1="1171.52" y1="3296.17" x2="1171.52" y2="3047.19">
  </linearGradient>
  <linearGradient id="id11" gradientUnits="userSpaceOnUse" x1="2042.71" y1="4291.91" x2="2042.71" y2="540.75">
   <stop offset="0" style="stop-opacity:1; stop-color:#2393F4"/>
   <stop offset="1" style="stop-opacity:1; stop-color:#25A7F7"/>
  </linearGradient>
 </defs>
 <g id="Layer_x0020_1">
  <metadata id="CorelCorpID_0Corel-Layer"/>
  <rect class="fil0" y="0.01" width="4334.9" height="4334.9"/>
  <g id="_2049459192576">
   <path class="fil1" d="M3412.37 2549.23c-54.23,0 -105.75,11.71 -152.29,32.59l-221.18 -1543.09 0 -124.49c0,-206.66 -166.81,-373.47 -373.48,-373.47l-248.98 0c-69.72,0 -124.49,54.77 -124.49,124.49l0 124.5 -1244.91 -0.01 0 -124.49c0,-69.72 -54.77,-124.49 -124.5,-124.49l-248.98 0c-206.66,0 -373.47,166.81 -373.47,373.48l0 1510.49c0,161.84 104.56,301.27 248.98,351.06l0 1142.83c0,206.67 166.81,373.48 373.48,373.48l1493.89 -0.01c206.66,0 373.48,-166.81 373.48,-373.47l0 -124.5 260.12 -531.95c40.56,162.34 187.59,282.97 362.33,282.97 205.94,0 373.47,-167.53 373.47,-373.47l0 -248.99c0,-205.94 -167.53,-373.47 -373.47,-373.47l0 0.01z"/>
   <path class="fil2" d="M2255.47 79.28c-48.63,-48.62 -127.41,-48.62 -176.03,0l-160.96 160.96 -160.97 -160.96c-48.63,-48.62 -127.41,-48.62 -176.05,0l-160.94 160.96 -160.97 -160.96c-48.63,-48.62 -127.42,-48.62 -176.05,0l-248.98 248.98c-23.33,23.34 -36.47,54.95 -36.47,88.02l0 497.96c0,68.81 55.69,124.5 124.49,124.5l1493.9 0c68.81,0 124.49,-55.69 124.49,-124.5l0 -497.96c0,-33.07 -13.13,-64.68 -36.48,-88.02l-248.98 -248.98z"/>
   <path class="fil3" d="M2167.46 3047.19c-68.82,0 -124.49,55.68 -124.49,124.49l0 497.96c0,68.82 55.67,124.5 124.49,124.5 68.81,0 124.49,-55.68 124.49,-124.5l0 -497.96c0,-68.81 -55.68,-124.49 -124.49,-124.49z"/>
   <path class="fil4" d="M1669.5 3545.15c-68.76,0 -124.5,55.74 -124.5,124.49 0,68.76 55.74,124.5 124.5,124.5 68.74,0 124.49,-55.74 124.49,-124.5 0,-68.75 -55.75,-124.49 -124.49,-124.49z"/>
   <path class="fil5" d="M1171.52 3545.15c-68.74,0 -124.49,55.74 -124.49,124.49 0,68.76 55.75,124.5 124.49,124.5 68.76,0 124.51,-55.74 124.51,-124.5 0,-68.75 -55.75,-124.49 -124.51,-124.49z"/>
   <path class="fil6" d="M1669.5 3047.19c-68.76,0 -124.5,55.73 -124.5,124.49 0,68.76 55.74,124.49 124.5,124.49 68.74,0 124.49,-55.73 124.49,-124.49 0,-68.76 -55.75,-124.49 -124.49,-124.49z"/>
   <path class="fil7" d="M1171.52 3047.19c-68.74,0 -124.49,55.73 -124.49,124.49 0,68.76 55.75,124.49 124.49,124.49 68.76,0 124.51,-55.73 124.51,-124.49 0,-68.76 -55.75,-124.49 -124.51,-124.49z"/>
   <path class="fil8" d="M2167.46 2549.23c-68.76,0 -124.49,55.73 -124.49,124.49 0,68.76 55.73,124.49 124.49,124.49 68.76,0 124.49,-55.73 124.49,-124.49 0,-68.76 -55.73,-124.49 -124.49,-124.49z"/>
   <path class="fil9" d="M1669.5 2549.23c-68.76,0 -124.5,55.73 -124.5,124.49 0,68.76 55.74,124.49 124.5,124.49 68.74,0 124.49,-55.73 124.49,-124.49 0,-68.76 -55.75,-124.49 -124.49,-124.49z"/>
   <path class="fil10" d="M1171.52 2549.23c-68.74,0 -124.49,55.73 -124.49,124.49 0,68.76 55.75,124.49 124.49,124.49 68.76,0 124.51,-55.73 124.51,-124.49 0,-68.76 -55.75,-124.49 -124.51,-124.49z"/>
   <path class="fil11" d="M2416.44 1287.72l-1493.9 0c-68.8,0 -124.49,55.68 -124.49,124.49l0 746.95c0,68.81 55.69,124.49 124.49,124.49l1493.9 -0.01c68.81,0 124.49,-55.67 124.49,-124.49l0 -746.94c0,-68.81 -55.68,-124.49 -124.49,-124.49l0 0z"/>
   <path class="fil12" d="M3536.86 3171.68c0,69.73 -54.77,124.49 -124.49,124.49 -69.72,0 -124.49,-54.76 -124.49,-124.49l0 -248.98c0,-69.73 54.77,-124.49 124.49,-124.49 69.72,0 124.49,54.76 124.49,124.49l0 248.98z"/>
   <path class="fil13" d="M3661.35 1038.74l-622.46 0 0 1386c0,161.85 -104.56,301.27 -248.98,351.06l0 1018.33 871.44 0c206.67,0 373.48,-166.8 373.48,-373.47l0 -2008.45c0,-206.67 -166.81,-373.48 -373.48,-373.48l0 0.01z"/>
  </g>
 </g>
</svg>
