<?xml version="1.0" encoding="UTF-8"?>
<!DOCTYPE svg PUBLIC "-//W3C//DTD SVG 1.1//EN" "http://www.w3.org/Graphics/SVG/1.1/DTD/svg11.dtd">
<!-- Creator: CorelDRAW 2021 (64-Bit) -->
<svg xmlns="http://www.w3.org/2000/svg" xml:space="preserve" width="1.70666in" height="1.70666in" version="1.1" style="shape-rendering:geometricPrecision; text-rendering:geometricPrecision; image-rendering:optimizeQuality; fill-rule:evenodd; clip-rule:evenodd"
viewBox="0 0 1706.66 1706.66"
 xmlns:xlink="http://www.w3.org/1999/xlink"
 xmlns:xodm="http://www.corel.com/coreldraw/odm/2003">
 <defs>
  <style type="text/css">
   <![CDATA[
    .fil0 {fill:none}
    .fil1 {fill:#2196F3}
    .fil5 {fill:white}
    .fil4 {fill:#33691E;fill-rule:nonzero}
    .fil2 {fill:#8BC34A;fill-rule:nonzero}
    .fil3 {fill:#141B34;fill-rule:nonzero;fill-opacity:0.160784}
   ]]>
  </style>
 </defs>
 <g id="Layer_x0020_1">
  <metadata id="CorelCorpID_0Corel-Layer"/>
  <rect class="fil0" y="0" width="1706.65" height="1706.65"/>
  <g id="_1315104596880">
   <rect class="fil0" x="0.01" y="0.01" width="1706.65" height="1706.65"/>
   <path class="fil1" d="M155.89 1608.89c0,-42.79 34.71,-77.5 77.5,-77.5l1239.91 0c42.79,0 77.5,34.71 77.5,77.5 0,42.79 -34.71,77.5 -77.5,77.5l-1239.91 0c-42.79,0 -77.5,-34.71 -77.5,-77.5z"/>
   <path class="fil2" d="M1308.53 223.42c-20.12,-19.65 -30.17,-29.49 -42.91,-29.41 -12.74,0.06 -22.81,10.13 -42.94,30.28l-998.39 998.39c-20.15,20.12 -30.22,30.2 -30.28,42.94 -0.09,12.74 9.75,22.79 29.41,42.91 25.8,26.39 53.92,54.51 84.18,84.79l5.74 5.71c86.31,86.31 155.05,155.06 216.35,202.5 63.29,48.97 124.59,80.11 196.88,84.24 21.32,1.23 42.79,0.59 64.14,-1.93 71.61,-8.41 133.5,-42.59 198.72,-94.57 63.82,-50.84 136.46,-123.48 228.54,-215.56l155.73 -155.73c92.08,-92.08 164.72,-164.72 215.56,-228.54 51.99,-65.22 86.17,-127.11 94.57,-198.72 2.52,-21.35 3.16,-42.82 1.93,-64.14 -4.13,-72.28 -35.26,-133.59 -84.24,-196.88 -47.44,-61.3 -116.16,-130.04 -202.5,-216.35l-5.71 -5.74c-30.28,-30.26 -58.4,-58.37 -84.79,-84.18l0.01 -0.01z"/>
   <path class="fil3" d="M155.13 1127.44c-23.84,23.84 -35.76,35.76 -50.85,33.86 -15.08,-1.93 -22.96,-15.32 -38.72,-42.12 -25.83,-43.96 -41.8,-88.95 -44.67,-139.09 -1.23,-21.32 -0.59,-42.79 1.93,-64.14 8.41,-71.61 42.59,-133.5 94.57,-198.72 50.84,-63.82 123.48,-136.46 215.59,-228.54l155.7 -155.7c92.08,-92.11 164.72,-164.75 228.54,-215.59 65.22,-51.99 127.11,-86.17 198.72,-94.57 21.35,-2.52 42.82,-3.16 64.14,-1.93 50.11,2.87 94.95,18.72 138.83,44.49 26.77,15.73 40.19,23.58 42.12,38.66 1.9,15.09 -9.99,27.04 -33.83,50.87l-972.09 972.53 0.02 -0.01z"/>
   <path class="fil4" d="M155.13 1127.44c-23.84,23.84 -35.76,35.76 -50.85,33.86 -15.08,-1.93 -22.96,-15.32 -38.72,-42.12 -25.83,-43.96 -41.8,-88.95 -44.67,-139.09 -1.23,-21.32 -0.59,-42.79 1.93,-64.14 8.41,-71.61 42.59,-133.5 94.57,-198.72 50.84,-63.82 123.48,-136.46 215.59,-228.54l155.7 -155.7c92.08,-92.11 164.72,-164.75 228.54,-215.59 65.22,-51.99 127.11,-86.17 198.72,-94.57 21.35,-2.52 42.82,-3.16 64.14,-1.93 50.11,2.87 94.95,18.72 138.83,44.49 26.77,15.73 40.19,23.58 42.12,38.66 1.9,15.09 -9.99,27.04 -33.83,50.87l-972.09 972.53 0.02 -0.01z"/>
   <path class="fil5" d="M1407.35 738.99c22.7,22.7 22.7,59.49 0,82.19l-170.96 170.96c-22.7,22.7 -59.51,22.7 -82.21,0 -22.7,-22.67 -22.7,-59.48 0,-82.18l170.99 -170.96c22.7,-22.7 59.48,-22.7 82.19,0l-0.01 -0.01zm-317.52 317.52c22.7,22.7 22.7,59.48 0,82.19l-73.28 73.28c-22.7,22.7 -59.48,22.7 -82.19,0 -22.7,-22.7 -22.7,-59.52 0,-82.21l73.28 -73.25c22.7,-22.7 59.48,-22.7 82.19,0l0 -0.01z"/>
  </g>
 </g>
</svg>
