<?xml version="1.0" encoding="UTF-8"?>
<!DOCTYPE svg PUBLIC "-//W3C//DTD SVG 1.1//EN" "http://www.w3.org/Graphics/SVG/1.1/DTD/svg11.dtd">
<!-- Creator: CorelDRAW 2021 (64-Bit) -->
<svg xmlns="http://www.w3.org/2000/svg" xml:space="preserve" width="43.3492mm" height="43.3492mm" version="1.1" style="shape-rendering:geometricPrecision; text-rendering:geometricPrecision; image-rendering:optimizeQuality; fill-rule:evenodd; clip-rule:evenodd"
viewBox="0 0 4334.92 4334.92"
 xmlns:xlink="http://www.w3.org/1999/xlink"
 xmlns:xodm="http://www.corel.com/coreldraw/odm/2003">
 <defs>
  <style type="text/css">
   <![CDATA[
    .fil0 {fill:none}
    .fil1 {fill:url(#id0);fill-rule:nonzero}
    .fil4 {fill:url(#id1);fill-rule:nonzero}
    .fil2 {fill:url(#id2);fill-rule:nonzero}
    .fil3 {fill:url(#id3);fill-rule:nonzero}
   ]]>
  </style>
  <linearGradient id="id0" gradientUnits="userSpaceOnUse" x1="2162.36" y1="4283.8" x2="2162.36" y2="40.94">
   <stop offset="0" style="stop-opacity:1; stop-color:#0382F3"/>
   <stop offset="1" style="stop-opacity:1; stop-color:#33A0FF"/>
  </linearGradient>
  <linearGradient id="id1" gradientUnits="userSpaceOnUse" x1="1408.26" y1="3537.98" x2="1408.26" y2="2543.56">
   <stop offset="0" style="stop-opacity:1; stop-color:#FBB130"/>
   <stop offset="1" style="stop-opacity:1; stop-color:#FFC259"/>
  </linearGradient>
  <linearGradient id="id2" gradientUnits="userSpaceOnUse" x1="3397.1" y1="3537.98" x2="3397.1" y2="309.58">
   <stop offset="0" style="stop-opacity:1; stop-color:#00C489"/>
   <stop offset="1" style="stop-opacity:1; stop-color:#19E3A6"/>
  </linearGradient>
  <linearGradient id="id3" gradientUnits="userSpaceOnUse" x1="2402.68" y1="3537.98" x2="2402.68" y2="1797.75">
   <stop offset="0" style="stop-opacity:1; stop-color:#F77B09"/>
   <stop offset="1" style="stop-opacity:1; stop-color:#FF9C40"/>
  </linearGradient>
 </defs>
 <g id="Layer_x0020_1">
  <metadata id="CorelCorpID_0Corel-Layer"/>
  <rect class="fil0" y="0.01" width="4334.9" height="4334.9"/>
  <path class="fil1" d="M4159.49 3786.59l-3621.35 0 0 -3621.35c0,-68.7 -55.59,-124.3 -124.3,-124.3 -68.71,0 -124.31,55.6 -124.31,124.3l0 124.31 -124.3 0c-68.7,0 -124.3,55.59 -124.3,124.3 0,68.71 55.6,124.31 124.3,124.31l124.31 -0.01 0 762.39 -124.31 0c-68.7,0 -124.3,55.6 -124.3,124.3 0,68.71 55.6,124.31 124.3,124.31l124.31 -0.01 0 745.82 -124.31 0c-68.7,0 -124.3,55.59 -124.3,124.3 0,68.71 55.6,124.31 124.3,124.31l124.31 -0.01 0 745.82 -124.31 0c-68.7,0 -124.3,55.59 -124.3,124.3 0,68.71 55.6,124.31 124.3,124.31l124.31 -0.01 0 372.91c0,68.71 55.59,124.31 124.3,124.31l372.91 -0.01 0 124.31c0,68.7 55.59,124.3 124.3,124.3 68.71,0 124.31,-55.6 124.31,-124.3l0 -124.31 745.81 0 0 124.31c0,68.7 55.59,124.3 124.3,124.3 68.71,0 124.3,-55.6 124.3,-124.3l0 -124.31 745.82 0 0 124.31c0,68.7 55.59,124.3 124.3,124.3 68.71,0 124.3,-55.6 124.3,-124.3l0 -124.31 762.39 0 0 124.31c0,68.7 55.59,124.3 124.3,124.3 68.71,0 124.31,-55.6 124.31,-124.3l0 -124.31 124.3 0c68.7,0 124.3,-55.59 124.3,-124.3 0,-68.71 -55.6,-124.31 -124.3,-124.31l0 0.01z"/>
  <path class="fil2" d="M3997.72 1107.29l-497.21 -745.82c-46.12,-69.19 -160.71,-69.19 -206.84,0l-497.21 745.82c-25.49,38.12 -27.92,87.16 -6.07,127.59 21.61,40.41 63.61,65.66 109.49,65.66l124.31 0 0 2113.15c0,68.7 55.6,124.29 124.3,124.29l497.21 0c68.71,0 124.31,-55.6 124.31,-124.31l0 -2113.13 124.3 0c45.88,0 87.88,-25.25 109.49,-65.67 21.85,-40.43 19.42,-89.46 -6.08,-127.58z"/>
  <path class="fil3" d="M2651.28 1797.74l-497.21 0c-68.71,0 -124.3,55.61 -124.3,124.31l0 1491.64c0,68.7 55.59,124.29 124.3,124.29l497.21 0c68.71,0 124.3,-55.6 124.3,-124.31l0 -1491.62c0,-68.71 -55.59,-124.31 -124.3,-124.31l0 0z"/>
  <path class="fil4" d="M1656.86 2543.56l-497.21 0c-68.7,0 -124.3,55.6 -124.3,124.31l0 745.82c0,68.7 55.6,124.29 124.3,124.29l497.21 0c68.71,0 124.31,-55.6 124.31,-124.31l0 -745.81c0,-68.71 -55.6,-124.3 -124.31,-124.3l0 0z"/>
 </g>
</svg>
