<?xml version="1.0" encoding="UTF-8"?>
<!DOCTYPE svg PUBLIC "-//W3C//DTD SVG 1.1//EN" "http://www.w3.org/Graphics/SVG/1.1/DTD/svg11.dtd">
<!-- Creator: CorelDRAW 2021 (64-Bit) -->
<svg xmlns="http://www.w3.org/2000/svg" xml:space="preserve" width="1.70666in" height="1.70666in" version="1.1" style="shape-rendering:geometricPrecision; text-rendering:geometricPrecision; image-rendering:optimizeQuality; fill-rule:evenodd; clip-rule:evenodd"
viewBox="0 0 1706.66 1706.66"
 xmlns:xlink="http://www.w3.org/1999/xlink"
 xmlns:xodm="http://www.corel.com/coreldraw/odm/2003">
 <defs>
  <style type="text/css">
   <![CDATA[
    .fil0 {fill:none}
    .fil2 {fill:#0D47A1}
    .fil1 {fill:#2196F3}
    .fil3 {fill:white;fill-rule:nonzero}
   ]]>
  </style>
 </defs>
 <g id="Layer_x0020_1">
  <metadata id="CorelCorpID_0Corel-Layer"/>
  <rect class="fil0" y="0" width="1706.65" height="1706.65"/>
  <g id="_2144614315040">
   <rect class="fil0" x="0.01" y="0.01" width="1706.65" height="1706.65"/>
   <path class="fil1" d="M146.33 1274.31c-72.07,-73.06 -72.07,-266.61 -72.07,-501.74l0 -332.54c0,-235.13 0,-276.7 72.07,-349.72 72.04,-73.05 188.02,-73.05 419.95,-73.05l574.05 0c231.96,0 347.94,0 420.01,73.05 72.04,73.02 72.04,190.6 72.04,425.73l0 332.54c0,235.13 0,352.68 -72.04,425.73 -72.07,73.05 -188.05,73.05 -420.01,73.05l-574.05 0c-231.94,0 -347.91,0 -419.95,-73.05l0 0z"/>
   <path class="fil2" d="M777.31 1347.37l0 76.27c-35.96,0.83 -69.09,4.19 -100.31,17.12 -42.28,17.52 -74.63,49.96 -111.06,86.5l-7.44 7.47 -24.94 24.93c-29.7,29.7 -29.7,77.82 0,107.5 29.68,29.67 77.8,29.67 107.5,0l24.94 -24.96c48.31,-48.31 58.46,-56.56 69.17,-60.98 7.32,-3.05 15.74,-4.63 42.14,-5.34l0 37.52c0,42 34.04,76.01 76.01,76.01 41.97,0 76.01,-34.01 76.01,-76.01l0 -37.52c26.4,0.72 34.79,2.3 42.11,5.34 10.72,4.42 20.85,12.67 69.17,60.98l24.96 24.96c29.67,29.67 77.82,29.67 107.5,0 29.67,-29.67 29.67,-77.82 0,-107.5l-24.96 -24.96 -7.47 -7.47c-36.43,-36.54 -68.74,-68.98 -111.03,-86.47 -31.23,-12.93 -64.35,-16.29 -100.29,-17.12l0 -76.27 -152.02 0 0.01 0z"/>
   <path class="fil3" d="M929.33 440.35c0,-42 -34.04,-76.01 -76.01,-76.01 -41.96,0 -76.01,34.01 -76.01,76.01l0 456.04c0,41.97 34.04,75.98 76.01,75.98 41.97,0 76.01,-34.01 76.01,-75.98l0 -456.04z"/>
   <path class="fil3" d="M625.28 668.36c0,-41.97 -34.01,-76.01 -75.98,-76.01 -42,0 -76.01,34.04 -76.01,76.01l0 228.03c0,41.97 34.01,75.98 76.01,75.98 41.97,0 75.98,-34.01 75.98,-75.98l0 -228.03z"/>
   <path class="fil3" d="M1233.34 744.36c0,-41.97 -34.01,-76.01 -76.01,-76.01 -41.97,0 -75.98,34.04 -75.98,76.01l0 152.02c0,41.97 34.01,75.98 75.98,75.98 42,0 76.01,-34.01 76.01,-75.98l0 -152.02z"/>
  </g>
 </g>
</svg>
