<?xml version="1.0" encoding="utf-8"?>
<!-- Generator: Adobe Illustrator 25.4.1, SVG Export Plug-In . SVG Version: 6.00 Build 0)  -->
<svg version="1.1" id="Layer_1" xmlns="http://www.w3.org/2000/svg" xmlns:xlink="http://www.w3.org/1999/xlink" x="0px" y="0px"
	 viewBox="0 0 120 140" style="enable-background:new 0 0 120 140;" xml:space="preserve">
<style type="text/css">
	.st0{fill-rule:evenodd;clip-rule:evenodd;}
	.st1{fill-rule:evenodd;clip-rule:evenodd;fill:#009EFB;}
	.st2{filter:url(#Adobe_OpacityMaskFilter);}
	.st3{fill-rule:evenodd;clip-rule:evenodd;fill:#FFFFFF;}
	.st4{mask:url(#empty_state_file_happy-e_00000054226289336775323510000017178392655204251559_);}
	.st5{fill:none;stroke:#A1ACBA;stroke-width:2;}
	.st6{filter:url(#Adobe_OpacityMaskFilter_00000042732996264762425690000002531449800733130381_);}
	
		.st7{mask:url(#empty_state_file_happy-e_00000128452825245139811380000006507246278962504889_);fill:none;stroke:#A1ACBA;stroke-width:2;}
	.st8{filter:url(#Adobe_OpacityMaskFilter_00000011741611002094885220000016972995268882155656_);}
	.st9{opacity:7.000000e-02;mask:url(#empty_state_file_happy-e_00000070101758331865359670000016867975244603492747_);}
	.st10{fill:none;stroke:#A1ACBA;stroke-width:2;stroke-linecap:round;}
	.st11{fill:none;stroke:#A1ACBA;stroke-width:2;stroke-linecap:round;stroke-linejoin:round;}
	.st12{fill-rule:evenodd;clip-rule:evenodd;fill:#A1ACBA;}
</style>
<g transform="translate(4 2)">
	<g>
		<circle id="empty_state_file_happy-b" class="st0" cx="56" cy="76.6" r="56"/>
	</g>
	<g>
		
			<circle id="empty_state_file_happy-b_00000014612136433940470320000017833644963060816808_" class="st1" cx="56" cy="76.6" r="56"/>
	</g>
	<g transform="translate(0 10)">
		<defs>
			<filter id="Adobe_OpacityMaskFilter" filterUnits="userSpaceOnUse" x="14" y="6" width="86.5" height="125.8">
				<feColorMatrix  type="matrix" values="1 0 0 0 0  0 1 0 0 0  0 0 1 0 0  0 0 0 1 0"/>
			</filter>
		</defs>
		
			<mask maskUnits="userSpaceOnUse" x="14" y="6" width="86.5" height="125.8" id="empty_state_file_happy-e_00000054226289336775323510000017178392655204251559_">
			<g class="st2">
				<path id="empty_state_file_happy-d_00000008843589918877474520000016719457281011557786_" class="st3" d="M56,122.8
					c30.9,0,56-25.1,56-56.1c0-7,0-29.2,0-66.7H0c0,23.8,0,46,0,66.7C0,97.7,25.1,122.8,56,122.8z"/>
			</g>
		</mask>
		<g class="st4">
			<g>
				<path id="empty_state_file_happy-f" class="st3" d="M22,6h62.3l16.2,16.5v92.3l0,0c0,9.4-7.6,17-17,17H31l0,0
					c-9.4,0-17-7.6-17-17V14l0,0C14,9.6,17.6,6,22,6z"/>
			</g>
			<path class="st5" d="M99.5,23L83.9,7H22c-3.9,0-7,3.1-7,7v100.8c0,8.8,7.2,16,16,16h52.5c8.8,0,16-7.2,16-16V23z"/>
		</g>
		<defs>
			
				<filter id="Adobe_OpacityMaskFilter_00000088094129638567493020000016537586999552701570_" filterUnits="userSpaceOnUse" x="83.4" y="6.7" width="16.6" height="16.5">
				<feColorMatrix  type="matrix" values="1 0 0 0 0  0 1 0 0 0  0 0 1 0 0  0 0 0 1 0"/>
			</filter>
		</defs>
		
			<mask maskUnits="userSpaceOnUse" x="83.4" y="6.7" width="16.6" height="16.5" id="empty_state_file_happy-e_00000128452825245139811380000006507246278962504889_">
			<g style="filter:url(#Adobe_OpacityMaskFilter_00000088094129638567493020000016537586999552701570_);">
				<path id="empty_state_file_happy-d_00000138569242236929486990000004064674617974305716_" class="st3" d="M56,122.8
					c30.9,0,56-25.1,56-56.1c0-7,0-29.2,0-66.7H0c0,23.8,0,46,0,66.7C0,97.7,25.1,122.8,56,122.8z"/>
			</g>
		</mask>
		<path class="st7" d="M84.6,9c-0.1,3.6-0.3,9.1-0.1,9.8c0.2,0.6,0.5,1,1.2,1.8c0.4,0.4,1,0.8,1.6,1c1.1,0.4,2.5,0.6,4.8,0.6
			c0.8,0,3.4,0,5.5-0.1L84.6,9z"/>
		<defs>
			
				<filter id="Adobe_OpacityMaskFilter_00000143590646359022670600000000454283077301685932_" filterUnits="userSpaceOnUse" x="23" y="81" width="68.8" height="37.3">
				<feColorMatrix  type="matrix" values="1 0 0 0 0  0 1 0 0 0  0 0 1 0 0  0 0 0 1 0"/>
			</filter>
		</defs>
		
			<mask maskUnits="userSpaceOnUse" x="23" y="81" width="68.8" height="37.3" id="empty_state_file_happy-e_00000070101758331865359670000016867975244603492747_">
			<g style="filter:url(#Adobe_OpacityMaskFilter_00000143590646359022670600000000454283077301685932_);">
				<path id="empty_state_file_happy-d_00000090978112618772008800000005553770451414925501_" class="st3" d="M56,122.8
					c30.9,0,56-25.1,56-56.1c0-7,0-29.2,0-66.7H0c0,23.8,0,46,0,66.7C0,97.7,25.1,122.8,56,122.8z"/>
			</g>
		</mask>
		<g class="st9">
			<g transform="translate(23 81)">
				<rect class="st0" width="46.7" height="6.2"/>
				<rect y="8.7" class="st0" width="68.8" height="6.2"/>
				<rect y="20.5" class="st0" width="42.3" height="6.2"/>
				<rect y="31.1" class="st0" width="52.4" height="6.2"/>
			</g>
		</g>
	</g>
	<path class="st10" d="M13,14L4,5 M18,9V0 M1,20h9"/>
	<g transform="translate(28.491 43.21)">
		<path class="st11" d="M11.5,17.8c16.5,9,33,0,33,0"/>
		<circle class="st12" cx="48" cy="5.3" r="3.5"/>
		<circle class="st12" cx="8" cy="5.3" r="3.5"/>
	</g>
</g>
</svg>
