<?xml version="1.0" encoding="utf-8"?>
<!-- Generator: Adobe Illustrator 24.2.3, SVG Export Plug-In . SVG Version: 6.00 Build 0)  -->
<!DOCTYPE svg PUBLIC "-//W3C//DTD SVG 1.1//EN" "http://www.w3.org/Graphics/SVG/1.1/DTD/svg11.dtd" [
	<!ENTITY ns_extend "http://ns.adobe.com/Extensibility/1.0/">
	<!ENTITY ns_ai "http://ns.adobe.com/AdobeIllustrator/10.0/">
	<!ENTITY ns_graphs "http://ns.adobe.com/Graphs/1.0/">
	<!ENTITY ns_vars "http://ns.adobe.com/Variables/1.0/">
	<!ENTITY ns_imrep "http://ns.adobe.com/ImageReplacement/1.0/">
	<!ENTITY ns_sfw "http://ns.adobe.com/SaveForWeb/1.0/">
	<!ENTITY ns_custom "http://ns.adobe.com/GenericCustomNamespace/1.0/">
	<!ENTITY ns_adobe_xpath "http://ns.adobe.com/XPath/1.0/">
]>
<svg version="1.1" id="Layer_1" xmlns:x="&ns_extend;" xmlns:i="&ns_ai;" xmlns:graph="&ns_graphs;"
	 xmlns="http://www.w3.org/2000/svg" xmlns:xlink="http://www.w3.org/1999/xlink" x="0px" y="0px" width="136px" height="136px"
	 viewBox="0 0 136 136" style="enable-background:new 0 0 136 136;" xml:space="preserve">
<style type="text/css">
	.st0{fill:#FBFCFD;stroke:#2396F5;stroke-width:4;}
	.st1{fill:#ECF1FF;}
	.st2{fill:none;stroke:#2396F5;stroke-width:5;stroke-linecap:round;}
	.st3{fill:none;stroke:#2396F5;stroke-width:5;stroke-linecap:round;stroke-linejoin:round;}
</style>
<metadata>
	<sfw  xmlns="&ns_sfw;">
		<slices></slices>
		<sliceSourceBounds  bottomLeftOrigin="true" height="136" width="136" x="0" y="0"></sliceSourceBounds>
	</sfw>
</metadata>
<path class="st0" d="M68,134c36.5,0,66-29.5,66-66S104.5,2,68,2S2,31.5,2,68S31.5,134,68,134z"/>
<path class="st1" d="M109.4,19.2C123.8,31.5,132,49.5,132,68.5c-0.2,35-28.5,63.3-63.5,63.5c-19,0-37-8.2-49.3-22.6
	C31,119.5,46,125,61.5,125c35-0.2,63.3-28.5,63.5-63.5C125,46,119.5,31,109.4,19.2z"/>
<path class="st2" d="M49.1,62.1c-3.9-3.9-10.2-3.9-14.1,0 M101.1,62.1c-3.9-3.9-10.2-3.9-14.1,0"/>
<path class="st3" d="M42,88c14.4,14.3,37.6,14.3,52,0"/>
</svg>
