<?xml version="1.0" encoding="UTF-8"?>
<!DOCTYPE svg PUBLIC "-//W3C//DTD SVG 1.1//EN" "http://www.w3.org/Graphics/SVG/1.1/DTD/svg11.dtd">
<!-- Creator: CorelDRAW 2021 (64-Bit) -->
<svg xmlns="http://www.w3.org/2000/svg" xml:space="preserve" width="1.70666in" height="1.70666in" version="1.1" style="shape-rendering:geometricPrecision; text-rendering:geometricPrecision; image-rendering:optimizeQuality; fill-rule:evenodd; clip-rule:evenodd"
viewBox="0 0 1706.66 1706.66"
 xmlns:xlink="http://www.w3.org/1999/xlink"
 xmlns:xodm="http://www.corel.com/coreldraw/odm/2003">
 <defs>
  <style type="text/css">
   <![CDATA[
    .fil0 {fill:none}
    .fil2 {fill:#2196F3}
    .fil1 {fill:white}
    .fil5 {fill:#FF6F00;fill-rule:nonzero}
    .fil3 {fill:#FFC107;fill-rule:nonzero}
    .fil4 {fill:#141B34;fill-rule:nonzero;fill-opacity:0.400000}
   ]]>
  </style>
 </defs>
 <g id="Layer_x0020_1">
  <metadata id="CorelCorpID_0Corel-Layer"/>
  <rect class="fil0" y="0" width="1706.65" height="1706.65"/>
  <g id="_1315111154896">
   <rect class="fil0" x="0.01" y="0.01" width="1706.65" height="1706.65"/>
   <g id="_2690378513264">
    <path class="fil1" d="M1137.54 799.01c-24.81,-3.34 -55.32,-3.31 -88.59,-3.31l-391.24 0c-33.27,0 -63.78,-0.03 -88.59,3.31 -27.34,3.69 -56.22,12.32 -79.96,36.08 -23.76,23.74 -32.42,52.61 -36.08,79.96 -3.34,24.81 -3.34,55.32 -3.34,88.59l0 160.64c0,33.27 0,63.77 3.34,88.59 3.66,27.34 12.32,56.22 36.08,79.96 23.74,23.77 52.62,32.4 79.96,36.09 24.81,3.34 55.32,3.34 88.59,3.31l391.24 0c33.27,0.03 63.78,0.03 88.59,-3.31 27.34,-3.69 56.22,-12.32 79.96,-36.09 23.76,-23.74 32.42,-52.62 36.08,-79.96 3.34,-24.81 3.34,-55.32 3.34,-88.59l0 -160.64c0,-33.27 0,-63.78 -3.34,-88.59 -3.66,-27.34 -12.32,-56.22 -36.08,-79.96 -23.74,-23.76 -52.62,-32.39 -79.96,-36.08zm-341.85 227.29l-230.63 0 0 -19.2c0,-37.89 0.11,-60.49 2.3,-76.67 0.98,-9.97 11.82,-15.57 17.14,-17.14 16.18,-2.15 38.79,-2.3 76.65,-2.3l134.55 0 0 115.31 -0.01 0zm-230.63 134.52l0 -19.21 230.63 0 0 115.32 -134.55 0c-37.86,0 -60.46,-0.15 -76.65,-2.3 -11.8,-1.1 -16.33,-11.88 -17.14,-17.14 -2.18,-16.19 -2.3,-38.79 -2.3,-76.67l0.01 0zm345.92 -19.21l0 115.32 134.55 0c37.86,0 60.46,-0.15 76.65,-2.3 11.39,-4.01 16.16,-13.1 17.14,-17.14 2.18,-16.19 2.3,-38.79 2.3,-76.67l0 -19.21 -230.63 0 -0.01 0zm230.63 -115.31l-230.63 0 0 -115.31 134.55 0c37.86,0 60.46,0.14 76.65,2.3 5.32,1.69 16.19,7.44 17.14,17.14 2.18,16.18 2.3,38.79 2.3,76.67l0 19.2 -0.01 0z"/>
    <path class="fil2" d="M826.11 172.58c-16.24,-28.58 -51.26,-37.58 -78.3,-21.71 -27.62,16.24 -37.84,53.06 -21.31,82.2 16.24,28.58 51.26,37.61 78.3,21.72 27.62,-16.24 37.84,-53.07 21.31,-82.2l0 -0.01zm-136.81 -121.32c83.46,-49.02 189.7,-19.5 237.26,64.3 47.24,83.25 19.62,190.17 -63.25,238.83 -23.26,13.65 -48.26,21.22 -73.3,23.23l-28.32 107.47c-8.12,30.85 -39.7,49.28 -70.56,41.16 -30.85,-8.12 -49.28,-39.73 -41.16,-70.59l28.5 -108.14c-20.93,-14.46 -39,-33.8 -52.43,-57.43 -47.24,-83.25 -19.62,-190.17 63.25,-238.83l0.01 0z"/>
    <path class="fil3" d="M511.02 263.86c2.68,3.35 4.66,9.58 8.65,22.07 5.65,17.67 13.19,34.96 22.65,51.64 4.31,7.59 8.94,14.9 13.85,21.92 7.33,10.51 11,15.75 11.91,20.76 0.9,5.04 -0.55,10.48 -3.43,21.42l-7.74 29.46c-21.69,82.26 27.45,166.53 109.71,188.19 82.26,21.66 166.53,-27.45 188.19,-109.71l7.45 -28.24c2.88,-11 4.34,-16.5 7.6,-20.43 3.26,-3.93 9.08,-6.7 20.76,-12.2 7.25,-3.44 14.41,-7.22 21.48,-11.35 97.19,-57.08 145.05,-165.1 131.51,-269.78 -3.49,-26.98 -5.24,-40.49 0.7,-48.09 5.91,-7.6 17.17,-8.94 39.67,-11.65 7.19,-0.84 14.2,-1.54 21.1,-2.09 56.65,-4.39 107.88,2.15 155.61,29.28 55.07,31.32 88.4,80.28 114.43,141.7 24.98,58.91 46.11,136.55 72.19,232.37l136 499.79c26.08,95.85 47.21,173.49 55.51,236.83 8.62,65.96 4.66,125.08 -27.33,179.66 -31.93,54.46 -81.65,87.15 -143.65,112.62 -59.73,24.54 -138.44,45.32 -235.87,71.02l-174.89 46.14c-14.26,3.76 -21.39,5.65 -28.09,3.29 -6.7,-2.35 -10.94,-8.12 -19.48,-19.68 -13.97,-18.92 -30.59,-42.2 -50.21,-69.1 -29.72,-40.72 -64.8,-87.47 -102.76,-131.66 -37.72,-43.89 -79.87,-87.12 -124.2,-119.75 -82.35,-60.63 -172.64,-78.62 -258.37,-16.65 -28.91,20.93 -55.48,47.62 -78.89,74.63 -24.77,28.59 -47.94,59.88 -67.88,88.2 -9.87,14 -30.65,12.81 -36.85,-3.17 -10.65,-27.48 -19.94,-61.65 -30.8,-101.53l-136.17 -500.41c-26.08,-95.81 -47.21,-173.46 -55.51,-236.81 -8.62,-65.96 -4.69,-125.08 27.33,-179.66 31.9,-54.43 81.65,-87.15 143.65,-112.62 59.7,-24.54 138.44,-45.32 235.87,-71.02 11,-2.91 16.5,-4.34 20.76,-3.87 6.69,0.7 11.35,3.26 15.54,8.5l0.01 -0.02z"/>
    <path class="fil4" d="M395.8 1568.43c-1.57,2.27 -0.67,5.41 1.89,6.43 7.8,3.17 15.83,5.97 24.1,8.53 28.41,8.79 63.48,15.86 104.64,24.16l326.31 65.76c10.19,2.07 19.65,3.96 28.67,5.56 6.08,1.08 10.19,-5.7 6.58,-10.71 -7.16,-9.9 -14.56,-20.09 -22.04,-30.36 -29.22,-40.05 -62.15,-83.83 -97.05,-124.47 -35.17,-40.9 -70.79,-76.79 -105.08,-102.02 -21.25,-15.66 -52.22,-37.55 -80.43,-35.8 -39.44,2.41 -77.81,49.6 -101.04,76.41 -32.87,37.93 -62,80.54 -86.57,116.52l0.02 -0.02z"/>
    <path class="fil5" d="M395.74 1568.61c-1.54,2.27 -0.64,5.41 1.92,6.43 7.8,3.17 15.84,5.96 24.1,8.53 28.38,8.79 63.49,15.86 104.65,24.16l326.31 65.76c10.19,2.06 19.65,3.98 28.67,5.56 6.09,1.07 10.19,-5.7 6.55,-10.71 -7.13,-9.9 -14.52,-20.09 -22.01,-30.36 -29.24,-40.05 -62.15,-83.83 -97.05,-124.46 -35.16,-40.9 -70.79,-76.79 -105.08,-102.03 -21.25,-15.63 -52.22,-37.55 -80.46,-35.8 -39.41,2.42 -77.78,49.6 -101.01,76.41 -32.86,37.93 -62,80.54 -86.6,116.52l0.01 -0.01z"/>
   </g>
  </g>
 </g>
</svg>
