<?xml version="1.0" encoding="UTF-8"?>
<!DOCTYPE svg PUBLIC "-//W3C//DTD SVG 1.1//EN" "http://www.w3.org/Graphics/SVG/1.1/DTD/svg11.dtd">
<!-- Creator: CorelDRAW 2021 (64-Bit) -->
<svg xmlns="http://www.w3.org/2000/svg" xml:space="preserve" width="43.3492mm" height="43.3492mm" version="1.1" style="shape-rendering:geometricPrecision; text-rendering:geometricPrecision; image-rendering:optimizeQuality; fill-rule:evenodd; clip-rule:evenodd"
viewBox="0 0 4334.92 4334.92"
 xmlns:xlink="http://www.w3.org/1999/xlink"
 xmlns:xodm="http://www.corel.com/coreldraw/odm/2003">
 <defs>
  <style type="text/css">
   <![CDATA[
    .fil0 {fill:none}
    .fil3 {fill:#FEFEFE;fill-rule:nonzero}
    .fil2 {fill:url(#id0);fill-rule:nonzero}
    .fil4 {fill:url(#id1);fill-rule:nonzero}
    .fil1 {fill:url(#id2);fill-rule:nonzero}
   ]]>
  </style>
  <linearGradient id="id0" gradientUnits="userSpaceOnUse" x1="3802.21" y1="979.53" x2="3802.21" y2="48.17">
   <stop offset="0" style="stop-opacity:1; stop-color:#1F3B82"/>
   <stop offset="1" style="stop-opacity:1; stop-color:#3F5794"/>
  </linearGradient>
  <linearGradient id="id1" gradientUnits="userSpaceOnUse" x1="2803.47" y1="2597.73" x2="2803.47" y2="452.53">
   <stop offset="0" style="stop-opacity:1; stop-color:#2393F4"/>
   <stop offset="1" style="stop-opacity:1; stop-color:#25A7F7"/>
  </linearGradient>
  <linearGradient id="id2" gradientUnits="userSpaceOnUse" x1="2814.32" y1="4006.73" x2="670.14" y2="1564.42">
   <stop offset="0" style="stop-opacity:1; stop-color:#FFC107"/>
   <stop offset="1" style="stop-opacity:1; stop-color:#FFD54F"/>
  </linearGradient>
 </defs>
 <g id="Layer_x0020_1">
  <metadata id="CorelCorpID_0Corel-Layer"/>
  <rect class="fil0" y="0.01" width="4334.9" height="4334.9"/>
  <path class="fil1" d="M3193.09 1421.52c-46.36,-19.3 -100.01,-8.74 -135.45,26.95l-742.37 742.36 -264.61 87.27 87.39 -264.6 742.37 -742.25c35.44,-35.57 46.12,-88.97 26.94,-135.46 -19.17,-46.37 -64.57,-76.72 -114.82,-76.72l-2630.08 0c-68.7,0 -124.29,55.6 -124.29,124.31l0 2983.04c0,68.71 55.59,124.3 124.29,124.3l2983.05 -0.01c68.71,0 124.3,-55.58 124.3,-124.29l0 -2630.07c0,-50.25 -30.35,-95.64 -76.72,-114.83z"/>
  <path class="fil2" d="M4243.43 433.48l-348.01 -348.03c-24.87,-24.86 -49.72,-34.8 -89.49,-37.28 -32.32,0 -64.64,12.43 -87.02,37.28l-369.55 367.09 -25.69 471.48 552.69 55.51 367.07 -369.56c24.87,-22.37 37.3,-54.69 37.3,-87.02 0,-32.31 -12.43,-64.63 -37.3,-89.47z"/>
  <path class="fil3" d="M908.23 3047.78l497.17 0c68.71,0 124.3,-55.59 124.3,-124.29 0,-68.71 -55.59,-124.3 -124.3,-124.3l-497.17 0.01c-68.7,0 -124.29,55.59 -124.29,124.29 0,68.7 55.59,124.29 124.29,124.29l0 0z"/>
  <path class="fil3" d="M2399.75 3296.37l-1491.52 0c-68.7,0 -124.29,55.59 -124.29,124.29 0,68.71 55.59,124.3 124.29,124.3l1491.52 -0.01c68.71,0 124.3,-55.58 124.3,-124.29 0,-68.7 -55.59,-124.29 -124.3,-124.29l0 0z"/>
  <path class="fil4" d="M1895.12 2590.38l527.01 -174.01c17.38,-4.97 34.8,-14.92 47.23,-29.83l1407 -1407.01 -527 -526.99c-155.19,155.17 -1250.7,1250.68 -1407.02,1406.99 -14.91,12.43 -24.85,29.83 -29.83,47.23l-176.49 527c-12.43,44.75 -2.49,94.47 32.32,126.78 32.63,36.28 86.91,45.8 126.78,29.83l0 0.01z"/>
 </g>
</svg>
