<?xml version="1.0" encoding="utf-8"?>
<!-- Generator: Adobe Illustrator 25.4.1, SVG Export Plug-In . SVG Version: 6.00 Build 0)  -->
<svg version="1.1" id="Layer_1" xmlns="http://www.w3.org/2000/svg" xmlns:xlink="http://www.w3.org/1999/xlink" x="0px" y="0px"
	 viewBox="0 0 100 100" style="enable-background:new 0 0 100 100;" xml:space="preserve">
<style type="text/css">
	.st0{fill:#009EFB;}
</style>
<path class="st0" d="M83.1,35.7c0-3.2-2-6.1-4.9-7.3L34.3,72.2h12.7l36.1-36.1V35.7z"/>
<path class="st0" d="M53.4,27.8L16.9,64.3l0,0c0,3.3,2.1,6.3,5.2,7.4l44-44L53.4,27.8z"/>
<path class="st0" d="M24.8,27.8c-4.4,0-7.9,3.5-7.9,7.9c0,0,0,0,0,0v15.9l23.8-23.8H24.8z"/>
<path class="st0" d="M59.8,72.2h15.4c4.4,0,7.9-3.5,7.9-7.9v0V48.9L59.8,72.2z"/>
</svg>
