<?xml version="1.0" encoding="UTF-8"?>
<!DOCTYPE svg PUBLIC "-//W3C//DTD SVG 1.1//EN" "http://www.w3.org/Graphics/SVG/1.1/DTD/svg11.dtd">
<!-- Creator: CorelDRAW 2021 (64-Bit) -->
<svg xmlns="http://www.w3.org/2000/svg" xml:space="preserve" width="1.70666in" height="1.70666in" version="1.1" style="shape-rendering:geometricPrecision; text-rendering:geometricPrecision; image-rendering:optimizeQuality; fill-rule:evenodd; clip-rule:evenodd"
viewBox="0 0 1706.66 1706.66"
 xmlns:xlink="http://www.w3.org/1999/xlink"
 xmlns:xodm="http://www.corel.com/coreldraw/odm/2003">
 <defs>
  <style type="text/css">
   <![CDATA[
    .fil0 {fill:none}
    .fil2 {fill:white}
    .fil1 {fill:#8BC34A;fill-rule:nonzero}
   ]]>
  </style>
 </defs>
 <g id="Layer_x0020_1">
  <metadata id="CorelCorpID_0Corel-Layer"/>
  <rect class="fil0" y="0" width="1706.65" height="1706.65"/>
  <g id="_1730483227712">
   <rect class="fil0" x="0.01" y="0.01" width="1706.65" height="1706.65"/>
   <path class="fil1" d="M857.58 18.36c178.79,0 318.63,0 427.65,13.21 111.09,13.43 199.48,41.44 269.52,104.5 70.96,63.85 103.35,145.87 118.72,248.74 14.84,99.35 14.84,226.2 14.84,386.08l0 164.91c0,159.88 0,286.73 -14.84,386.08 -15.37,102.87 -47.76,184.89 -118.72,248.77 -70.04,63.02 -158.44,91.04 -269.52,104.46 -109.02,13.21 -248.86,13.21 -427.65,13.21l-8.5 0c-178.81,0 -318.63,0 -427.68,-13.21 -111.06,-13.43 -199.42,-41.44 -269.49,-104.46 -70.96,-63.89 -103.35,-145.91 -118.72,-248.77 -14.84,-99.35 -14.84,-226.2 -14.84,-386.08l0 0 0 -164.91 0 0c0,-159.85 0,-286.73 14.84,-386.08 15.37,-102.87 47.76,-184.89 118.72,-248.74 70.07,-63.06 158.44,-91.07 269.49,-104.5 109.05,-13.21 248.86,-13.21 427.68,-13.21l8.5 0z"/>
   <path class="fil2" d="M527.5 303.49c-33.74,0 -61.11,27.34 -61.11,61.09l0 101.81 -101.81 0c-33.74,0 -61.09,27.37 -61.09,61.11 0,33.74 27.34,61.09 61.09,61.09l101.81 0 0 101.81c0,33.74 27.37,61.11 61.11,61.11 33.74,0 61.09,-27.37 61.09,-61.11l0 -101.81 101.81 0c33.74,0 61.11,-27.34 61.11,-61.09 0,-33.74 -27.37,-61.11 -61.11,-61.11l-101.81 0 0 -101.81c0,-33.74 -27.34,-61.09 -61.09,-61.09z"/>
   <path class="fil2" d="M914.43 1301.37c0,-33.74 27.37,-61.08 61.11,-61.08l325.83 0c33.74,0 61.09,27.34 61.09,61.08 0,33.74 -27.34,61.09 -61.09,61.09l-325.83 0c-33.74,0 -61.11,-27.34 -61.11,-61.09z"/>
   <path class="fil2" d="M914.43 1057c0,-33.74 27.37,-61.11 61.11,-61.11l325.83 0c33.74,0 61.09,27.37 61.09,61.11 0,33.71 -27.34,61.08 -61.09,61.08l-325.83 0c-33.74,0 -61.11,-27.37 -61.11,-61.08z"/>
   <path class="fil2" d="M692.87 973.07c23.86,23.86 23.86,62.53 0,86.39l-99.35 99.35 99.35 99.35c23.86,23.86 23.86,62.53 0,86.39 -23.86,23.86 -62.53,23.86 -86.39,0l-99.35 -99.35 -99.35 99.35c-23.86,23.86 -62.53,23.86 -86.39,0 -23.86,-23.86 -23.86,-62.53 0,-86.39l99.35 -99.35 -99.35 -99.35c-23.86,-23.86 -23.86,-62.53 0,-86.39 23.86,-23.86 62.53,-23.86 86.39,0l99.35 99.32 99.35 -99.32c23.86,-23.86 62.53,-23.86 86.39,0z"/>
   <path class="fil2" d="M1403.18 527.51c0,-33.74 -27.34,-61.11 -61.09,-61.11l-325.83 0c-33.74,0 -61.11,27.37 -61.11,61.11 0,33.74 27.37,61.09 61.11,61.09l325.83 0c33.74,0 61.09,-27.34 61.09,-61.09z"/>
  </g>
 </g>
</svg>
