<?xml version="1.0" encoding="UTF-8"?>
<!DOCTYPE svg PUBLIC "-//W3C//DTD SVG 1.1//EN" "http://www.w3.org/Graphics/SVG/1.1/DTD/svg11.dtd">
<!-- Creator: CorelDRAW 2021 (64-Bit) -->
<svg xmlns="http://www.w3.org/2000/svg" xml:space="preserve" width="43.3492mm" height="43.3492mm" version="1.1" style="shape-rendering:geometricPrecision; text-rendering:geometricPrecision; image-rendering:optimizeQuality; fill-rule:evenodd; clip-rule:evenodd"
viewBox="0 0 4334.92 4334.92"
 xmlns:xlink="http://www.w3.org/1999/xlink"
 xmlns:xodm="http://www.corel.com/coreldraw/odm/2003">
 <defs>
  <style type="text/css">
   <![CDATA[
    .fil0 {fill:none}
    .fil2 {fill:#FEFEFE;fill-rule:nonzero}
    .fil1 {fill:url(#id0);fill-rule:nonzero}
    .fil3 {fill:url(#id1);fill-rule:nonzero}
    .fil4 {fill:url(#id2);fill-rule:nonzero}
   ]]>
  </style>
  <linearGradient id="id0" gradientUnits="userSpaceOnUse" x1="2167.46" y1="3397.29" x2="2167.46" y2="929.3">
   <stop offset="0" style="stop-opacity:1; stop-color:#0C4B57"/>
   <stop offset="1" style="stop-opacity:1; stop-color:#396C76"/>
  </linearGradient>
  <linearGradient id="id1" gradientUnits="objectBoundingBox" x1="49.9926%" y1="99.9948%" x2="49.9926%" y2="0%">
   <stop offset="0" style="stop-opacity:1; stop-color:#2393F4"/>
   <stop offset="1" style="stop-opacity:1; stop-color:#25A7F7"/>
  </linearGradient>
  <linearGradient id="id2" gradientUnits="objectBoundingBox" x1="62.2756%" y1="99.9998%" x2="31.0192%" y2="0.000250739%">
   <stop offset="0" style="stop-opacity:1; stop-color:#00BFA5"/>
   <stop offset="1" style="stop-opacity:1; stop-color:#4DB6AC"/>
  </linearGradient>
 </defs>
 <g id="Layer_x0020_1">
  <metadata id="CorelCorpID_0Corel-Layer"/>
  <rect class="fil0" y="0.01" width="4334.9" height="4334.9"/>
  <polygon class="fil1" points="2167.46,933.54 3401.39,2167.46 2167.46,3401.39 933.54,2167.46 "/>
  <path class="fil2" d="M2520.01 2079.32c-48.67,48.68 -48.67,127.6 0,176.28 48.68,48.68 127.6,48.68 176.28,0 48.68,-48.68 48.68,-127.6 0,-176.28 -48.68,-48.67 -127.6,-48.67 -176.28,0z"/>
  <path class="fil2" d="M2079.33 2520.01c-48.68,48.68 -48.68,127.6 0,176.28 48.67,48.68 127.59,48.68 176.27,0 48.68,-48.68 48.68,-127.6 0,-176.28 -48.68,-48.67 -127.6,-48.67 -176.27,0z"/>
  <path class="fil2" d="M1638.64 2079.32c-48.68,48.68 -48.68,127.6 0,176.28 48.68,48.68 127.59,48.68 176.27,0 48.68,-48.68 48.68,-127.6 0,-176.28 -48.68,-48.67 -127.6,-48.67 -176.27,0z"/>
  <path class="fil2" d="M2079.33 1638.64c-48.68,48.68 -48.68,127.59 0,176.27 48.67,48.68 127.59,48.68 176.27,0 48.68,-48.68 48.68,-127.59 0,-176.27 -48.68,-48.68 -127.6,-48.68 -176.27,0z"/>
  <path class="fil3" d="M3401.39 2167.46l637.8 -637.8c340.74,-340.74 340.74,-893.19 0,-1233.93 -340.73,-340.73 -893.18,-340.73 -1233.92,0l-637.81 637.81 1233.93 1233.92z"/>
  <path class="fil3" d="M295.73 4039.18c340.74,340.74 893.19,340.74 1233.93,0l637.8 -637.79 -1233.92 -1233.93 -637.81 637.8c-340.73,340.73 -340.73,893.18 0,1233.92l0 0z"/>
  <path class="fil4" d="M4039.18 4039.18c340.74,-340.73 340.74,-893.19 0,-1233.93l-637.79 -637.79 -1233.93 1233.93 637.8 637.8c340.74,340.73 893.18,340.73 1233.92,-0.01l0 0z"/>
  <path class="fil4" d="M1529.66 295.73l637.8 637.81 -1233.92 1233.92 -637.81 -637.8c-340.73,-340.74 -340.73,-893.19 0,-1233.93 340.74,-340.73 893.19,-340.73 1233.93,0z"/>
 </g>
</svg>
