<?xml version="1.0" encoding="UTF-8"?>
<!DOCTYPE svg PUBLIC "-//W3C//DTD SVG 1.1//EN" "http://www.w3.org/Graphics/SVG/1.1/DTD/svg11.dtd">
<!-- Creator: CorelDRAW 2021 (64-Bit) -->
<svg xmlns="http://www.w3.org/2000/svg" xml:space="preserve" width="1.70666in" height="1.70666in" version="1.1" style="shape-rendering:geometricPrecision; text-rendering:geometricPrecision; image-rendering:optimizeQuality; fill-rule:evenodd; clip-rule:evenodd"
viewBox="0 0 1706.66 1706.66"
 xmlns:xlink="http://www.w3.org/1999/xlink"
 xmlns:xodm="http://www.corel.com/coreldraw/odm/2003">
 <defs>
  <style type="text/css">
   <![CDATA[
    .fil0 {fill:none}
    .fil1 {fill:white}
    .fil3 {fill:#0D47A1;fill-rule:nonzero}
    .fil2 {fill:#2196F3;fill-rule:nonzero}
   ]]>
  </style>
 </defs>
 <g id="Layer_x0020_1">
  <metadata id="CorelCorpID_0Corel-Layer"/>
  <rect class="fil0" y="0" width="1706.65" height="1706.65"/>
  <g id="_1315089227056">
   <rect class="fil0" x="0.01" y="0.01" width="1706.65" height="1706.65"/>
   <g id="_2690355375808">
    <path class="fil1" d="M1300.67 406c23.69,23.69 23.69,62.09 0,85.78l-80.89 80.89c-23.69,23.69 -62.09,23.69 -85.78,0 -23.69,-23.69 -23.69,-62.12 0,-85.78l80.89 -80.89c23.69,-23.69 62.09,-23.69 85.78,0z"/>
    <path class="fil2" d="M1579.93 975.26c-103.89,103.86 -299.35,99.81 -599.02,99.81 -192.8,0 -349.13,-156.54 -349.22,-349.33 0,-299.5 -4.05,-495.04 99.81,-598.91 103.89,-103.86 149.78,-99.66 609.93,-99.66 44.45,-0.19 66.85,53.59 35.4,85.04l-236.92 236.94c-60.14,60.15 -60.33,157.64 -0.18,217.78 60.14,60.11 157.67,60.15 217.81,0l237.01 -236.89c31.44,-31.44 85.22,-9.05 85.04,35.41 0,460.09 4.2,505.94 -99.66,609.81l0 0.01z"/>
    <path class="fil3" d="M852.35 1262.17c29.31,-29.31 43.97,-43.96 40.98,-57 -2.98,-13.04 -24.37,-20.5 -67.2,-35.43 -135.12,-47.17 -242.09,-154.29 -289.23,-289.39 -14.93,-42.81 -22.39,-64.19 -35.43,-67.18 -13.04,-2.98 -27.7,11.67 -57.01,40.98l-332.92 332.92c-112.64,112.67 -112.64,295.32 0,407.96 112.67,112.64 295.3,112.67 407.96,0l332.85 -332.86 0 -0z"/>
    <path class="fil1" d="M228.59 1377.41c0,-55.66 44.91,-100.76 100.3,-100.76l0.91 0c55.39,0 100.3,45.09 100.3,100.76 0,55.67 -44.91,100.76 -100.3,100.76l-0.91 0c-55.39,0 -100.3,-45.09 -100.3,-100.76z"/>
   </g>
  </g>
 </g>
</svg>
