<?xml version="1.0" encoding="UTF-8"?>
<!DOCTYPE svg PUBLIC "-//W3C//DTD SVG 1.1//EN" "http://www.w3.org/Graphics/SVG/1.1/DTD/svg11.dtd">
<!-- Creator: CorelDRAW 2021 (64-Bit) -->
<svg xmlns="http://www.w3.org/2000/svg" xml:space="preserve" width="43.3492mm" height="43.3492mm" version="1.1" style="shape-rendering:geometricPrecision; text-rendering:geometricPrecision; image-rendering:optimizeQuality; fill-rule:evenodd; clip-rule:evenodd"
viewBox="0 0 4334.92 4334.92"
 xmlns:xlink="http://www.w3.org/1999/xlink"
 xmlns:xodm="http://www.corel.com/coreldraw/odm/2003">
 <defs>
  <style type="text/css">
   <![CDATA[
    .fil0 {fill:none}
    .fil1 {fill:url(#id0);fill-rule:nonzero}
    .fil2 {fill:url(#id1);fill-rule:nonzero}
   ]]>
  </style>
  <linearGradient id="id0" gradientUnits="objectBoundingBox" x1="50%" y1="99.9999%" x2="50%" y2="7.38188e-05%">
   <stop offset="0" style="stop-opacity:1; stop-color:#FBB130"/>
   <stop offset="1" style="stop-opacity:1; stop-color:#FFC259"/>
  </linearGradient>
  <linearGradient id="id1" gradientUnits="userSpaceOnUse" x1="2167.46" y1="2781.01" x2="2167.46" y2="44.93">
   <stop offset="0" style="stop-opacity:1; stop-color:#00C489"/>
   <stop offset="1" style="stop-opacity:1; stop-color:#19E3A6"/>
  </linearGradient>
 </defs>
 <g id="Layer_x0020_1">
  <metadata id="CorelCorpID_0Corel-Layer"/>
  <rect class="fil0" y="0.01" width="4334.9" height="4334.9"/>
  <g id="_2150946938128">
   <path class="fil1" d="M1172.52 2532.27c-68.74,0 -124.37,55.63 -124.37,124.37l0 1508.99c0,68.75 55.63,124.37 124.37,124.37 68.74,0 124.37,-55.62 124.37,-124.37l0 -1508.99c0,-68.74 -55.63,-124.37 -124.37,-124.37z"/>
   <path class="fil1" d="M3162.39 2532.27c-68.74,0 -124.36,55.63 -124.36,124.37l0 1508.99c0,68.75 55.62,124.37 124.36,124.37 68.75,0 124.37,-55.62 124.37,-124.37l0 -1508.99c0,-68.74 -55.62,-124.37 -124.37,-124.37z"/>
   <path class="fil1" d="M3872.41 1182.45c-28.67,-87.21 -106.16,-153.16 -198.94,-168.58l-199.43 -30.12 -88.41 -178.65c-40.81,-81.5 -126.31,-132.15 -223.23,-132.15 -96.92,0 -182.42,50.65 -223.47,132.63l-88.18 178.17 -201.36 30.48c-90.85,15.06 -168.34,81.01 -196.75,167.61 -30.61,90.85 -4.86,191.9 62.67,255.05l142.83 141.01 -33.76 197.48c-15.31,90.84 23.56,185.34 98.86,240.23 80.93,59.54 187.86,61.09 259.92,20.28l179.24 -92.53 174.16 89.75c83.59,48.34 191.15,40.09 264.77,-17.25 75.54,-55.13 114.41,-149.62 99.11,-240.84l-33.76 -197.24 140.15 -138.45c70.19,-65.58 95.95,-166.64 65.58,-256.88l0 0z"/>
   <path class="fil2" d="M3162.39 44.93c-432.79,0 -808.38,303.45 -994.93,743.71 -186.55,-440.26 -562.14,-743.71 -994.94,-743.71 -616.85,0 -1127.6,614.37 -1127.6,1368.04 0,753.66 510.75,1368.04 1127.6,1368.04 432.8,0 808.39,-303.46 994.94,-743.71 186.55,440.25 562.14,743.71 994.93,743.71 616.86,0 1127.6,-614.38 1127.6,-1368.04 0,-753.67 -510.74,-1368.04 -1127.6,-1368.04zm559.66 1303.37l-189.04 186.55 44.77 261.17c7.47,44.77 -12.43,92.03 -49.74,119.38 -39.88,31.04 -91.64,31.49 -129.34,9.96l-236.3 -121.88 -236.3 121.88c-39.79,22.38 -92.03,17.42 -129.33,-9.96 -37.32,-27.35 -57.22,-74.62 -49.75,-119.38l44.78 -261.17 -189.04 -186.55c-34.83,-32.34 -47.26,-82.09 -32.34,-126.86 14.92,-44.77 54.73,-77.1 99.5,-84.56l263.66 -39.81 116.9 -236.29c42.28,-84.56 181.59,-84.56 223.87,0l116.9 236.29 263.66 39.81c44.77,7.46 84.58,39.79 99.5,84.56 14.93,44.78 2.47,94.52 -32.35,126.86l-0.01 0z"/>
  </g>
 </g>
</svg>
