<?xml version="1.0" encoding="UTF-8"?>
<!DOCTYPE svg PUBLIC "-//W3C//DTD SVG 1.1//EN" "http://www.w3.org/Graphics/SVG/1.1/DTD/svg11.dtd">
<!-- Creator: CorelDRAW 2021 (64-Bit) -->
<svg xmlns="http://www.w3.org/2000/svg" xml:space="preserve" width="43.3492mm" height="43.3492mm" version="1.1" style="shape-rendering:geometricPrecision; text-rendering:geometricPrecision; image-rendering:optimizeQuality; fill-rule:evenodd; clip-rule:evenodd"
viewBox="0 0 4334.92 4334.92"
 xmlns:xlink="http://www.w3.org/1999/xlink"
 xmlns:xodm="http://www.corel.com/coreldraw/odm/2003">
 <defs>
  <style type="text/css">
   <![CDATA[
    .fil0 {fill:none}
    .fil2 {fill:white;fill-rule:nonzero}
    .fil3 {fill:url(#id0);fill-rule:nonzero}
    .fil4 {fill:url(#id1);fill-rule:nonzero}
    .fil1 {fill:url(#id2);fill-rule:nonzero}
   ]]>
  </style>
  <linearGradient id="id0" gradientUnits="userSpaceOnUse" x1="547.88" y1="954.86" x2="547.88" y2="41.24">
   <stop offset="0" style="stop-opacity:1; stop-color:#1F3B82"/>
   <stop offset="1" style="stop-opacity:1; stop-color:#3F5794"/>
  </linearGradient>
  <linearGradient id="id1" gradientUnits="userSpaceOnUse" xlink:href="#id0" x1="547.88" y1="4293.69" x2="547.88" y2="3380.07">
  </linearGradient>
  <linearGradient id="id2" gradientUnits="userSpaceOnUse" x1="2333.31" y1="4293.46" x2="2333.31" y2="41.22">
   <stop offset="0" style="stop-opacity:1; stop-color:#2393F4"/>
   <stop offset="1" style="stop-opacity:1; stop-color:#25A7F7"/>
  </linearGradient>
 </defs>
 <g id="Layer_x0020_1">
  <metadata id="CorelCorpID_0Corel-Layer"/>
  <rect class="fil0" y="0.01" width="4334.9" height="4334.9"/>
  <path class="fil1" d="M4119.26 498.04l0 3338.84c0,251.88 -204.92,456.8 -456.8,456.8l-3114.59 0c183.48,0 332.22,-148.74 332.22,-332.22l0 -3588c0,-183.48 -148.74,-332.22 -332.22,-332.22l3114.59 0c251.88,0 456.8,204.92 456.8,456.81l0 -0.01z"/>
  <path class="fil2" d="M2004.45 1295.8c-108.05,-38.2 -227.51,-84.28 -294.2,-136.61 -19.78,-15.51 -28.23,-51.61 -21.03,-89.82 3.63,-19.24 20.56,-83.57 86.07,-103.3 134.41,-40.48 199.95,18.45 205.92,24.19 45.39,50.64 123.18,55.57 174.59,10.76 51.88,-45.19 57.3,-123.89 12.1,-175.77 -35.61,-40.87 -107.31,-91.72 -208.07,-112.69l0 -40.1c0,-68.8 -55.78,-124.59 -124.58,-124.59 -68.81,0 -124.59,55.78 -124.59,124.59l0 52.99c-2.42,0.69 -4.81,1.3 -7.25,2.04 -132.97,40.05 -232.23,153.37 -259.06,295.73 -24.71,131.17 18.24,258.39 112.11,332.02 76.62,60.09 182.35,110.94 364.94,175.48 117.84,41.65 115.31,136.89 108.75,175.9 -13.38,79.59 -80.34,165.6 -195.73,166.36 -114.71,0.72 -150.42,-4.9 -238.3,-62.39 -57.58,-37.67 -134.79,-21.55 -172.46,36.05 -37.67,57.59 -21.53,134.79 36.05,172.47 95.22,62.3 165.86,88.12 250.96,97.84l0 50.51c0,68.8 55.78,124.59 124.59,124.59 68.8,0 124.58,-55.78 124.58,-124.59l0 -62.62c65.38,-18.57 124.99,-51.86 176.08,-98.81 73.64,-67.65 123.35,-159.31 139.96,-258.1 33.8,-201.1 -75.27,-382.8 -271.43,-452.13z"/>
  <path class="fil2" d="M2624.26 3745.52c0,-68.81 -55.78,-124.59 -124.58,-124.59l-996.67 0c-68.8,0 -124.58,55.78 -124.58,124.59 0,68.81 55.78,124.58 124.58,124.58l996.67 0c68.8,0 124.58,-55.78 124.58,-124.58z"/>
  <path class="fil2" d="M3620.93 3247.18c0,-68.8 -55.78,-124.58 -124.58,-124.58l-1993.34 0c-68.8,0 -124.58,55.78 -124.58,124.59 0,68.8 55.78,124.58 124.58,124.58l1993.34 0c68.8,0 124.58,-55.78 124.58,-124.59z"/>
  <path class="fil2" d="M3620.93 755.52c0,-68.81 -55.78,-124.59 -124.58,-124.59l-913.61 0c-68.81,0 -124.59,55.78 -124.59,124.59 0,68.8 55.78,124.58 124.59,124.58l913.61 0c68.8,0 124.58,-55.78 124.58,-124.58z"/>
  <path class="fil2" d="M3620.93 1253.85c0,-68.8 -55.78,-124.59 -124.58,-124.59l-913.61 0.01c-68.81,0 -124.59,55.78 -124.59,124.58 0,68.81 55.78,124.59 124.59,124.59l913.61 -0.01c68.8,0 124.58,-55.77 124.58,-124.58z"/>
  <path class="fil2" d="M3620.93 1752.18c0,-68.8 -55.78,-124.58 -124.58,-124.58l-913.61 0c-68.81,0 -124.59,55.78 -124.59,124.59 0,68.8 55.78,124.58 124.59,124.58l913.61 0c68.8,0 124.58,-55.78 124.58,-124.59z"/>
  <path class="fil2" d="M3620.93 2250.52c0,-68.81 -55.78,-124.59 -124.58,-124.59l-913.61 0c-68.81,0 -124.59,55.78 -124.59,124.59 0,68.8 55.78,124.58 124.59,124.58l913.61 0c68.8,0 124.58,-55.78 124.58,-124.58z"/>
  <path class="fil2" d="M3620.93 2748.85c0,-68.8 -55.78,-124.59 -124.58,-124.59l-1993.34 0.01c-68.8,0 -124.58,55.78 -124.58,124.58 0,68.81 55.78,124.59 124.58,124.59l1993.34 -0.01c68.8,0 124.58,-55.77 124.58,-124.58z"/>
  <path class="fil3" d="M547.87 41.24c-183.48,0 -332.22,148.74 -332.22,332.22l0 456.81c0,68.8 55.78,124.58 124.59,124.58l539.86 0 0 -581.39c0,-183.48 -148.75,-332.22 -332.22,-332.22l-0.01 0z"/>
  <path class="fil4" d="M340.24 3380.07l539.86 0 0 581.39c0,183.48 -148.75,332.22 -332.22,332.22 -183.48,0 -332.23,-148.74 -332.23,-332.22l0 -456.8c0,-68.81 55.78,-124.59 124.59,-124.59l0 0z"/>
 </g>
</svg>
