<?xml version="1.0" encoding="UTF-8"?>
<!DOCTYPE svg PUBLIC "-//W3C//DTD SVG 1.1//EN" "http://www.w3.org/Graphics/SVG/1.1/DTD/svg11.dtd">
<!-- Creator: CorelDRAW 2021 (64-Bit) -->
<svg xmlns="http://www.w3.org/2000/svg" xml:space="preserve" width="1.70666in" height="1.70666in" version="1.1" style="shape-rendering:geometricPrecision; text-rendering:geometricPrecision; image-rendering:optimizeQuality; fill-rule:evenodd; clip-rule:evenodd"
viewBox="0 0 1706.66 1706.66"
 xmlns:xlink="http://www.w3.org/1999/xlink"
 xmlns:xodm="http://www.corel.com/coreldraw/odm/2003">
 <defs>
  <style type="text/css">
   <![CDATA[
    .fil0 {fill:none}
    .fil2 {fill:white}
    .fil1 {fill:#2196F3;fill-rule:nonzero}
   ]]>
  </style>
 </defs>
 <g id="Layer_x0020_1">
  <metadata id="CorelCorpID_0Corel-Layer"/>
  <rect class="fil0" y="0" width="1706.65" height="1706.65"/>
  <g id="_1730482225200">
   <rect class="fil0" x="0.01" y="0.01" width="1706.65" height="1706.65"/>
   <path class="fil1" d="M1013.05 17.93l-319.44 0 0 0c-106.24,0 -191.94,0 -259.35,9.16 -70.05,9.49 -128.97,29.81 -175.73,77.01 -46.7,47.08 -66.76,106.35 -76.13,176.79 -9.05,67.91 -9.05,154.29 -9.05,261.58l0 0 0 831.59c0,55.07 0,102.51 5.05,138.81 5.17,37.21 17.68,79.57 57.57,105.27 58.94,37.94 124.27,11.66 160.95,-7.52 21.03,-10.98 80.3,-51.17 96.66,-62.42 21.21,-13.36 32.96,-20.47 41.74,-24.61 1.67,-1.82 7.25,-4.23 16,0.61 8.9,4.44 20.24,11.52 40.04,24l150.59 94.96c18.21,11.51 35.48,22.41 51.08,30.07 17.36,8.58 37.04,15.51 60.3,15.51 23.26,0 42.94,-6.93 60.3,-15.51 15.6,-7.67 32.84,-18.56 51.08,-30.07l0 0 150.59 -94.96c21.2,-13.36 32.93,-20.47 41.74,-24.61 1.94,-1.65 7.87,-3.85 16.01,0.61 8.87,4.44 59.74,38.65 79.57,51.17 16.36,11.25 36.13,24.26 57.13,35.25 36.69,19.18 102.01,45.46 160.95,7.52 39.89,-25.7 52.4,-68.06 57.57,-105.27 5.05,-36.3 5.05,-83.74 5.05,-138.81l0 -831.59c0,-107.29 0,-193.67 -9.05,-261.58 -9.4,-70.43 -29.43,-129.7 -76.13,-176.79 -46.76,-47.2 -105.68,-67.52 -175.73,-77.01 -67.41,-9.16 -153.11,-9.16 -259.35,-9.16l0 0 -0.01 0z"/>
   <path class="fil2" d="M1222.47 387.07c0,32.19 -26.11,58.27 -58.3,58.27l-621.68 0c-32.19,0 -58.3,-26.08 -58.3,-58.27 0,-32.19 26.11,-58.28 58.3,-58.28l621.68 0c32.19,0 58.3,26.08 58.3,58.28z"/>
   <path class="fil2" d="M756.2 697.91c0,32.19 -26.11,58.3 -58.3,58.3l-155.41 0c-32.19,0 -58.3,-26.11 -58.3,-58.3 0,-32.19 26.11,-58.28 58.3,-58.28l155.41 0c32.19,0 58.3,26.08 58.3,58.28z"/>
   <path class="fil2" d="M1047.62 561.92c32.16,0 58.28,26.11 58.28,58.28l0 18.89c47.37,15.3 87,49.05 105.71,95.28 12.04,29.87 -2.38,63.82 -32.22,75.9 -29.84,12.04 -63.83,-2.38 -75.9,-32.22 -5.99,-14.89 -25.85,-31.55 -55.87,-31.55 -39.74,0 -58.3,26.64 -58.3,43.7 0,17.09 18.56,43.74 58.3,43.74 89,0 174.85,64.67 174.85,160.28 0,74.22 -51.75,129.79 -116.57,150.94l0 19.03c0,32.19 -26.11,58.3 -58.28,58.3 -32.19,0 -58.3,-26.11 -58.3,-58.3l0 -18.85c-47.38,-15.3 -87,-49.05 -105.68,-95.31 -12.07,-29.84 2.35,-63.8 32.19,-75.87 29.87,-12.04 63.82,2.38 75.89,32.22 5.99,14.89 25.85,31.54 55.89,31.54 39.74,0 58.28,-26.64 58.28,-43.7 0,-17.09 -18.54,-43.74 -58.28,-43.74 -89.02,0 -174.88,-64.67 -174.88,-160.28 0,-74.22 51.78,-129.82 116.58,-150.97l0 -19.03c0,-32.17 26.11,-58.28 58.3,-58.28l0.02 0z"/>
  </g>
 </g>
</svg>
