<?xml version="1.0" encoding="UTF-8"?>
<!DOCTYPE svg PUBLIC "-//W3C//DTD SVG 1.1//EN" "http://www.w3.org/Graphics/SVG/1.1/DTD/svg11.dtd">
<!-- Creator: CorelDRAW 2021 (64-Bit) -->
<svg xmlns="http://www.w3.org/2000/svg" xml:space="preserve" width="43.3492mm" height="43.3492mm" version="1.1" style="shape-rendering:geometricPrecision; text-rendering:geometricPrecision; image-rendering:optimizeQuality; fill-rule:evenodd; clip-rule:evenodd"
viewBox="0 0 4334.92 4334.92"
 xmlns:xlink="http://www.w3.org/1999/xlink"
 xmlns:xodm="http://www.corel.com/coreldraw/odm/2003">
 <defs>
  <style type="text/css">
   <![CDATA[
    .fil0 {fill:none}
    .fil5 {fill:#FEFEFE;fill-rule:nonzero}
    .fil4 {fill:url(#id0);fill-rule:nonzero}
    .fil2 {fill:url(#id1);fill-rule:nonzero}
    .fil3 {fill:url(#id2);fill-rule:nonzero}
    .fil1 {fill:url(#id3);fill-rule:nonzero}
   ]]>
  </style>
  <linearGradient id="id0" gradientUnits="userSpaceOnUse" x1="2212.7" y1="3841.3" x2="536.87" y2="2566.39">
   <stop offset="0" style="stop-opacity:1; stop-color:#03A9F4"/>
   <stop offset="1" style="stop-opacity:1; stop-color:#4FC3F7"/>
  </linearGradient>
  <linearGradient id="id1" gradientUnits="userSpaceOnUse" xlink:href="#id0" x1="2013.22" y1="2130.6" x2="714.61" y2="651.42">
  </linearGradient>
  <linearGradient id="id2" gradientUnits="userSpaceOnUse" x1="4038.08" y1="3883.68" x2="2842.8" y2="2974.36">
   <stop offset="0" style="stop-opacity:1; stop-color:#15327D"/>
   <stop offset="1" style="stop-opacity:1; stop-color:#395291"/>
  </linearGradient>
  <linearGradient id="id3" gradientUnits="userSpaceOnUse" xlink:href="#id2" x1="3889.16" y1="2663.54" x2="2962.94" y2="1608.52">
  </linearGradient>
 </defs>
 <g id="Layer_x0020_1">
  <metadata id="CorelCorpID_0Corel-Layer"/>
  <rect class="fil0" y="0.01" width="4334.9" height="4334.9"/>
  <g id="_2049412027472">
   <path class="fil1" d="M3387.93 1390.22c-384.83,0 -698,313.17 -698,698 0,384.83 313.17,697.99 698,697.99 384.83,0 697.99,-313.16 697.99,-697.99 0,-384.83 -313.16,-698 -697.99,-698z"/>
   <path class="fil2" d="M1310.47 345.37c-539.55,0 -978.61,439.07 -978.61,978.61 0,539.56 439.06,978.62 978.61,978.62 539.55,0 978.62,-439.06 978.62,-978.62 0,-539.54 -439.07,-978.61 -978.62,-978.61z"/>
   <path class="fil3" d="M3387.93 2786.21c-494.87,0 -897.42,402.55 -897.42,897.41l0 206.08c0,55.11 44.6,99.71 99.71,99.71l1595.41 0c55.12,0 106.36,-44.6 106.36,-99.71l0 -206.08c0,-494.86 -409.2,-897.41 -904.06,-897.41l0 0z"/>
   <path class="fil4" d="M1310.47 2302.6c-693.82,0 -1267.54,564.4 -1267.54,1258.22l0 288.93c0,77.27 71.85,139.8 149.12,139.8l2236.83 -0.01c77.28,0 139.8,-62.53 139.8,-139.81l0 -288.92c0,-693.81 -564.39,-1258.21 -1258.21,-1258.21l0 0z"/>
   <path class="fil5" d="M1592.98 1528.91c0,-118.95 -51.72,-197.82 -147.4,-241.78 -32.32,-14.22 -63.35,-21.98 -87.92,-25.86l0 -235.31c46.55,11.63 80.16,45.25 82.75,102.14l149.98 0c-2.59,-134.47 -95.68,-232.73 -223.68,-254.71l0 -104.73 -112.49 0 0 104.73c-122.83,23.27 -226.26,120.24 -226.26,268.93 0,107.32 53.01,187.48 147.39,231.44 32.33,15.51 63.36,21.98 87.93,25.86l0 235.31c-46.55,-14.22 -82.75,-49.13 -84.05,-106.02l-151.27 0c1.29,148.69 96.97,236.61 226.26,257.3l0 93.09 112.49 0 0 -90.51c122.83,-18.1 226.27,-102.14 226.27,-259.88zm-149.99 0c0,63.36 -37.49,95.68 -85.33,107.32l0 -226.27c45.25,12.93 85.33,45.25 85.33,118.95zm-263.76 -386.59c0,-63.35 34.91,-102.14 84.05,-116.36l0 224.97c-47.84,-15.52 -84.05,-51.72 -84.05,-108.61z"/>
  </g>
 </g>
</svg>
