<?xml version="1.0" encoding="UTF-8"?>
<!DOCTYPE svg PUBLIC "-//W3C//DTD SVG 1.1//EN" "http://www.w3.org/Graphics/SVG/1.1/DTD/svg11.dtd">
<!-- Creator: CorelDRAW 2021 (64-Bit) -->
<svg xmlns="http://www.w3.org/2000/svg" xml:space="preserve" width="1.70666in" height="1.70666in" version="1.1" style="shape-rendering:geometricPrecision; text-rendering:geometricPrecision; image-rendering:optimizeQuality; fill-rule:evenodd; clip-rule:evenodd"
viewBox="0 0 1706.66 1706.66"
 xmlns:xlink="http://www.w3.org/1999/xlink"
 xmlns:xodm="http://www.corel.com/coreldraw/odm/2003">
 <defs>
  <style type="text/css">
   <![CDATA[
    .fil0 {fill:none}
    .fil2 {fill:white}
    .fil3 {fill:#0D47A1;fill-rule:nonzero}
    .fil4 {fill:#141B34;fill-rule:nonzero}
    .fil1 {fill:#2196F3;fill-rule:nonzero}
   ]]>
  </style>
 </defs>
 <g id="Layer_x0020_1">
  <metadata id="CorelCorpID_0Corel-Layer"/>
  <rect class="fil0" y="0" width="1706.65" height="1706.65"/>
  <g id="_1314979523168">
   <rect class="fil0" x="0.01" y="0.01" width="1706.65" height="1706.65"/>
   <path class="fil1" d="M699.02 1682.78c-23.09,0 -42.6,-6.88 -59.87,-15.4 -15.46,-7.61 -32.6,-18.43 -50.71,-29.86l0 0 -149.51 -94.28c-19.65,-12.39 -30.91,-19.42 -39.72,-23.82 -8.17,-4.49 -14,-2.28 -15.92,-0.61 -8.72,4.11 -20.39,11.17 -41.41,24.44l-39.25 26.98c-16.27,11.17 -35.87,24.09 -56.72,34.99 -36.42,19.04 -101.31,45.14 -159.83,7.47 -39.6,-25.52 -52.02,-67.57 -57.16,-104.52 -5.02,-36.04 -5.02,-83.14 -5.02,-137.82l0 -825.65c0,-106.52 0,-192.29 8.98,-259.71 9.33,-69.93 29.25,-128.78 75.59,-175.52 46.43,-46.86 104.95,-67.04 174.47,-76.46 66.93,-9.1 152.02,-9.1 257.5,-9.1l0 0 158.58 0 772.81 0c31.96,0 57.85,25.93 57.85,57.89 0,31.7 -25.49,57.45 -57.13,57.85 -1.37,0.47 -6.85,3.06 -15.95,14.52 -12.86,16.15 -26.97,43.16 -39.92,81.62 -25.66,76.4 -42.55,185.61 -42.55,308.94l0 825.61 0 0c0,54.71 0.03,101.78 -4.98,137.82 -5.16,36.95 -17.59,79 -57.19,104.52 -58.53,37.67 -123.38,11.57 -159.81,-7.47 -20.85,-10.91 -40.44,-23.82 -56.72,-34.99l-39.25 -26.98c-21.06,-13.27 -32.69,-20.32 -41.44,-24.44 -1.9,-1.66 -7.73,-3.88 -15.89,0.61 -8.81,4.4 -20.06,11.43 -39.75,23.82l-149.48 94.28c-18.11,11.43 -35.26,22.25 -50.71,29.86 -17.26,8.52 -36.8,15.4 -59.9,15.4l0.01 0.01z"/>
   <path class="fil2" d="M332.54 390.4c0,-31.96 25.89,-57.85 57.85,-57.85l617.26 0c31.96,0 57.85,25.89 57.85,57.85 0,31.96 -25.89,57.85 -57.85,57.85l-617.26 0c-31.96,0 -57.85,-25.89 -57.85,-57.85z"/>
   <path class="fil2" d="M602.57 699.02c0,31.96 -25.89,57.89 -57.85,57.89l-154.32 0c-31.96,0 -57.85,-25.93 -57.85,-57.89 0,-31.96 25.89,-57.85 57.85,-57.85l154.32 0c31.96,0 57.85,25.89 57.85,57.85z"/>
   <path class="fil2" d="M891.91 641.16c31.96,0 57.86,25.89 57.86,57.85l0 18.72c47.04,15.22 86.41,48.73 104.95,94.63 11.95,29.66 -2.36,63.37 -31.99,75.31 -29.63,11.99 -63.37,-2.33 -75.32,-31.96 -5.98,-14.78 -25.69,-31.31 -55.5,-31.31 -39.45,0 -57.85,26.44 -57.85,43.39 0,16.94 18.4,43.39 57.85,43.39 88.36,0 173.6,64.24 173.6,159.13 0,73.69 -51.38,128.89 -115.74,149.89l0 18.9c0,31.96 -25.9,57.89 -57.86,57.89 -31.96,0 -57.85,-25.93 -57.85,-57.89l0 -18.72c-47.04,-15.19 -86.41,-48.7 -104.95,-94.63 -11.96,-29.63 2.36,-63.37 31.99,-75.32 29.63,-11.96 63.34,2.33 75.32,31.99 5.98,14.79 25.69,31.32 55.48,31.32 39.46,0 57.86,-26.45 57.86,-43.42 0,-16.94 -18.4,-43.39 -57.86,-43.39 -88.39,0 -173.59,-64.24 -173.59,-159.13 0,-73.69 51.38,-128.89 115.74,-149.89l0 -18.9c0,-31.96 25.89,-57.85 57.85,-57.85l0 0z"/>
   <path class="fil3" d="M1374.13 602.58l101.45 0c34.24,0 66.05,0 92.04,-3.88 29.25,-4.37 59.14,-14.67 82.93,-41.23 23.15,-25.84 30.74,-55.17 32.02,-84.33 1.08,-25.05 -2.45,-54.68 -6.09,-85.47l-0.47 -3.76c-11.08,-93.61 -31.93,-177.42 -60.98,-239.62 -14.46,-31 -32.25,-59.46 -54.27,-80.95 -22.25,-21.7 -52.23,-39.4 -88.85,-39.43 31.93,0.06 57.77,25.95 57.77,57.89 0,31.7 -25.49,57.45 -57.13,57.85 -0.15,0.06 -0.41,0.15 -0.7,0.29 1.37,0.64 4.06,2.31 8.08,6.21 8.52,8.31 19.16,23.36 30.24,47.07 22.05,47.27 40.68,117.93 50.92,204.3 4.28,35.99 6.47,56.11 5.86,70.6 -0.5,10.82 -2.36,11.98 -2.59,12.13 -0.26,0.29 -0.44,0.5 -1.43,0.93 -1.49,0.67 -5.02,1.95 -12.42,3.06 -16.36,2.45 -39.37,2.59 -78.68,2.59l-96.41 0c-0.85,18.9 -1.28,38.2 -1.28,57.89l0 57.85 -0 0.01z"/>
   <path class="fil4" d="M1416.67 235.79c0,0 0,0 0,0l0 0z"/>
  </g>
 </g>
</svg>
