<?xml version="1.0" encoding="utf-8"?>
<!-- Generator: Adobe Illustrator 25.4.1, SVG Export Plug-In . SVG Version: 6.00 Build 0)  -->
<svg version="1.1" id="Layer_1" xmlns="http://www.w3.org/2000/svg" xmlns:xlink="http://www.w3.org/1999/xlink" x="0px" y="0px"
	 viewBox="0 0 50 50" style="enable-background:new 0 0 50 50;" xml:space="preserve">
<style type="text/css">
	.st0{clip-path:url(#SVGID_00000098900648727957519040000017550154421216705956_);}
	.st1{fill:#009EFB;}
	.st2{fill:#FFFFFF;}
	.st3{fill:#F9F9F9;}
</style>
<g>
	<defs>
		<rect id="SVGID_1_" width="50" height="50"/>
	</defs>
	<clipPath id="SVGID_00000085247481493538786290000013807913920146021305_">
		<use xlink:href="#SVGID_1_"  style="overflow:visible;"/>
	</clipPath>
	<g style="clip-path:url(#SVGID_00000085247481493538786290000013807913920146021305_);">
		<circle class="st1" cx="25" cy="25" r="25"/>
		<path class="st2" d="M39.3,34.3C36.2,38.9,31,42,25,42s-11.2-3.1-14.3-7.7l-1,1C9.1,35.9,8,35.5,8,34.6V25c0-9.4,7.6-17,17-17
			s17,7.6,17,17v9.6c0,0.9-1.1,1.3-1.7,0.7L39.3,34.3L39.3,34.3z"/>
		<circle class="st1" cx="25" cy="25" r="12"/>
		<path class="st3" d="M32,25c0-1.7-1.3-3-3-3s-3,1.3-3,3H32z M24,25c0-1.7-1.3-3-3-3s-3,1.3-3,3H24z"/>
	</g>
</g>
</svg>
