<?xml version="1.0" encoding="UTF-8"?>
<!DOCTYPE svg PUBLIC "-//W3C//DTD SVG 1.1//EN" "http://www.w3.org/Graphics/SVG/1.1/DTD/svg11.dtd">
<!-- Creator: CorelDRAW 2021 (64-Bit) -->
<svg xmlns="http://www.w3.org/2000/svg" xml:space="preserve" width="1.70666in" height="1.70666in" version="1.1" style="shape-rendering:geometricPrecision; text-rendering:geometricPrecision; image-rendering:optimizeQuality; fill-rule:evenodd; clip-rule:evenodd"
viewBox="0 0 1706.66 1706.66"
 xmlns:xlink="http://www.w3.org/1999/xlink"
 xmlns:xodm="http://www.corel.com/coreldraw/odm/2003">
 <defs>
  <style type="text/css">
   <![CDATA[
    .fil0 {fill:none}
    .fil2 {fill:#8BC34A;fill-rule:nonzero}
    .fil1 {fill:#FFC107;fill-rule:nonzero}
   ]]>
  </style>
 </defs>
 <g id="Layer_x0020_1">
  <metadata id="CorelCorpID_0Corel-Layer"/>
  <rect class="fil0" y="0" width="1706.65" height="1706.65"/>
  <g id="_2143647281040">
   <rect class="fil0" x="0.01" y="0.01" width="1706.65" height="1706.65"/>
   <path class="fil1" d="M931 1261.04c0,42.88 -34.78,77.63 -77.66,77.63 -42.88,0 -77.66,-34.75 -77.66,-77.63l0 -220.8c0,-24.27 0,-36.39 -7.87,-40.88 -16.46,-9.33 -55.38,23.92 -70.12,32.69 -54.41,32.58 -124.18,52.69 -178.65,12.62 -54.18,-39.86 -56.38,-112.35 -42.17,-174.28l33.02 -143.91c1.94,-9.3 -1.97,-24.44 -8.75,-31.28l-115.52 -116.49c-41.27,-41.59 -69.09,-97.8 -50.87,-155.35 18.29,-57.79 73.64,-87.43 131.49,-97.18l147.75 -24.74c9.78,-1.65 19.67,-9.01 24.01,-17.91l82.06 -165.44c26.44,-53.06 71.26,-99.56 133.09,-99.56 61.96,0 106.63,46.58 132.87,99.7l82.09 165.54c4.46,8.37 14.29,15.47 23.51,17.52l148.63 24.92c57.79,9.69 113.2,39.3 131.6,97.03 18.37,57.67 -9.63,114.02 -51.13,155.61l-115.41 116.35c-6.78,6.84 -10.68,21.98 -8.74,31.28l33.02 143.96c14.15,61.84 12.24,134.51 -42.03,174.4 -54.5,40.06 -124.39,19.61 -178.77,-12.77 -14.73,-8.78 -53.5,-41.94 -69.94,-32.58 -7.87,4.46 -7.87,16.58 -7.87,40.85l0 220.68 0.02 0.02z"/>
   <path class="fil2" d="M934.88 1261.04c51.63,0 96.12,-0.03 131.72,4.79 38.19,5.11 74.78,16.7 104.46,46.37 29.7,29.7 41.27,66.27 46.4,104.46 3.29,24.42 4.31,52.98 4.64,85.15 0.15,14.67 0.2,22.04 4.76,26.53 4.55,4.49 11.83,4.49 26.41,4.49l49.4 0c41.35,0 74.9,34.78 74.9,77.66 0,42.88 -33.55,77.66 -74.9,77.66l-898.57 0c-41.35,0 -74.87,-34.78 -74.87,-77.66 0,-42.88 33.52,-77.66 74.87,-77.66l49.39 0c14.59,0 21.9,0 26.42,-4.49 4.55,-4.49 4.61,-11.86 4.75,-26.53 0.35,-32.17 1.38,-60.72 4.64,-85.15 5.14,-38.19 16.73,-74.75 46.4,-104.46 29.67,-29.67 66.28,-41.26 104.46,-46.37 35.63,-4.81 80.13,-4.79 131.75,-4.79l162.98 0 -0.01 0z"/>
  </g>
 </g>
</svg>
