<?xml version="1.0" encoding="UTF-8"?>
<!DOCTYPE svg PUBLIC "-//W3C//DTD SVG 1.1//EN" "http://www.w3.org/Graphics/SVG/1.1/DTD/svg11.dtd">
<!-- Creator: CorelDRAW 2021 (64-Bit) -->
<svg xmlns="http://www.w3.org/2000/svg" xml:space="preserve" width="43.3492mm" height="43.3492mm" version="1.1" style="shape-rendering:geometricPrecision; text-rendering:geometricPrecision; image-rendering:optimizeQuality; fill-rule:evenodd; clip-rule:evenodd"
viewBox="0 0 4334.92 4334.92"
 xmlns:xlink="http://www.w3.org/1999/xlink"
 xmlns:xodm="http://www.corel.com/coreldraw/odm/2003">
 <defs>
  <style type="text/css">
   <![CDATA[
    .fil0 {fill:none}
    .fil2 {fill:url(#id0);fill-rule:nonzero}
    .fil1 {fill:url(#id1);fill-rule:nonzero}
    .fil3 {fill:url(#id2);fill-rule:nonzero}
   ]]>
  </style>
  <linearGradient id="id0" gradientUnits="userSpaceOnUse" x1="2167.15" y1="3782.5" x2="2167.15" y2="2291.69">
   <stop offset="0" style="stop-opacity:1; stop-color:#1E88E5"/>
   <stop offset="1" style="stop-opacity:1; stop-color:#2196F3"/>
  </linearGradient>
  <linearGradient id="id1" gradientUnits="userSpaceOnUse" x1="2378.55" y1="4287.82" x2="1208.39" y2="1289.5">
   <stop offset="0" style="stop-opacity:1; stop-color:#00BFA5"/>
   <stop offset="1" style="stop-opacity:1; stop-color:#02D4B8"/>
  </linearGradient>
  <linearGradient id="id2" gradientUnits="userSpaceOnUse" x1="3327.31" y1="1633.54" x2="1184.06" y2="319.07">
   <stop offset="0" style="stop-opacity:1; stop-color:#FFC107"/>
   <stop offset="1" style="stop-opacity:1; stop-color:#FFD54F"/>
  </linearGradient>
 </defs>
 <g id="Layer_x0020_1">
  <metadata id="CorelCorpID_0Corel-Layer"/>
  <rect class="fil0" y="0.01" width="4334.9" height="4334.9"/>
  <g id="_2050117628224">
   <path class="fil1" d="M1041.02 3534.1l-869.69 0c-68.67,0 -124.24,55.57 -124.24,124.24 0,68.68 55.57,124.25 124.24,124.25l372.73 -0.01 0 381.01c0,68.67 55.57,124.24 124.24,124.24 68.67,0 124.24,-55.57 124.24,-124.24l0 -381.01 248.48 0c68.67,0 124.24,-55.57 124.24,-124.24 0,-68.67 -55.57,-124.24 -124.24,-124.24l0 0zm2625.61 0c-68.68,0 -124.24,55.57 -124.24,124.24l0 505.25c0,68.67 55.56,124.24 124.24,124.24 68.67,0 124.24,-55.57 124.24,-124.24l0 -505.25c0,-68.67 -55.57,-124.24 -124.24,-124.24zm-1499.17 0c-68.67,0 -124.24,55.57 -124.24,124.24l0 505.25c0,68.67 55.57,124.24 124.24,124.24 68.67,0 124.24,-55.57 124.24,-124.24l0 -505.25c0,-68.67 -55.57,-124.24 -124.24,-124.24zm0 -2244.6c-68.67,0 -124.24,55.56 -124.24,124.24l0 1747.64c0,68.68 55.57,124.25 124.24,124.25 68.67,0 124.24,-55.57 124.24,-124.25l0 -1747.64c0,-68.68 -55.57,-124.24 -124.24,-124.24z"/>
   <path class="fil2" d="M3915.11 3037.14l-2595.52 0 -633.1 -633.21c-70.61,-72.43 -165.25,-112.23 -266.67,-112.23 -205.54,0 -372.73,167.19 -372.73,372.73 0,101.67 40.28,196.66 111.87,266.07l815.57 815.69c23.3,23.29 54.84,36.39 87.84,36.39l2852.74 0c205.53,0 372.72,-167.19 372.72,-372.72 0,-205.53 -167.19,-372.73 -372.72,-372.73l0 0.01z"/>
   <path class="fil3" d="M629.02 1776.87c46.11,19.05 99.49,8.73 135.16,-26.69 59.69,-58.97 248.96,-212.21 409.37,-212.21 160.39,0 349.66,153.24 409.36,212.21 48.04,48.28 127.15,48.28 175.2,0 59.69,-58.97 248.96,-212.21 409.36,-212.21 160.39,0 349.66,153.24 409.36,212.21 48.05,48.28 127.16,48.28 175.2,0 59.69,-58.97 248.97,-212.21 409.36,-212.21 160.4,0 349.67,153.24 409.37,212.21 36.12,35.93 89.44,45.56 135.15,26.69 46.35,-19.29 76.68,-64.55 76.68,-114.66 0,-890.55 -724.57,-1615.12 -1615.12,-1615.12 -890.55,0 -1615.12,724.57 -1615.12,1615.12 0,50.11 30.33,95.37 76.68,114.66l-0.01 0z"/>
  </g>
 </g>
</svg>
