<?xml version="1.0" encoding="UTF-8"?>
<!DOCTYPE svg PUBLIC "-//W3C//DTD SVG 1.1//EN" "http://www.w3.org/Graphics/SVG/1.1/DTD/svg11.dtd">
<!-- Creator: CorelDRAW 2021 (64-Bit) -->
<svg xmlns="http://www.w3.org/2000/svg" xml:space="preserve" width="1.70666in" height="1.70666in" version="1.1" style="shape-rendering:geometricPrecision; text-rendering:geometricPrecision; image-rendering:optimizeQuality; fill-rule:evenodd; clip-rule:evenodd"
viewBox="0 0 1706.66 1706.66"
 xmlns:xlink="http://www.w3.org/1999/xlink"
 xmlns:xodm="http://www.corel.com/coreldraw/odm/2003">
 <defs>
  <style type="text/css">
   <![CDATA[
    .fil0 {fill:none}
    .fil1 {fill:#2196F3;fill-rule:nonzero}
    .fil2 {fill:#8BC34A;fill-rule:nonzero}
   ]]>
  </style>
 </defs>
 <g id="Layer_x0020_1">
  <metadata id="CorelCorpID_0Corel-Layer"/>
  <rect class="fil0" y="0" width="1706.65" height="1706.65"/>
  <g id="_1314850481104">
   <rect class="fil0" x="0.01" y="0.01" width="1706.65" height="1706.65"/>
   <path class="fil1" d="M458.95 1110.83c203.49,0 387.11,55.06 568.35,109.44 179.32,53.75 358.7,107.41 567.64,119 39.86,2.18 59.83,3.3 71.1,15.2 11.28,11.93 11.28,31.11 11.28,69.48l0 181.28c0,38.83 0,58.24 -12.08,70.32 -12.05,12.05 -31.48,12.05 -70.32,12.05l-1483.17 0c-38.84,0 -58.27,0 -70.35,-12.05 -12.05,-12.08 -12.05,-31.48 -12.05,-70.32l0 -373.53c0,-28.78 0,-43.17 8.41,-54.22 8.41,-11.06 21.49,-14.7 47.68,-21.96 19.69,-5.48 39.55,-10.31 59.7,-14.51 72.97,-15.23 178.89,-30.18 313.83,-30.18l-0.03 0z"/>
   <path class="fil2" d="M830.7 22.25c43.76,-12.52 89.38,12.83 101.87,56.59 6.98,24.45 12.36,29.28 37.96,26.32 246.34,-28.78 480.85,109.81 591.09,337.12 10.59,21.83 21.71,43.76 28.09,67.24 7.82,28.62 9.34,65.37 -13.76,101.24 -24.91,38.65 -62.69,50.7 -91.78,54.03 -22.64,2.59 -49.52,0.84 -72.25,-0.65l-117.54 -7.54c-11.52,-0.75 -11.71,-0.69 -21.15,5.98l-102.27 72.25c-9.03,6.42 -13.58,9.63 -15.32,14.48 -1.78,4.86 -0.34,10.21 2.52,20.93l86.45 324.22c6.72,25.23 10.09,37.87 3.15,44.6 -6.94,6.72 -19.46,2.96 -44.5,-4.55l-102.43 -30.8c-25.82,-7.79 -26.59,-8.57 -33.54,-34.6l-62.81 -235.53c-2.93,-11.06 -4.43,-16.6 -8.5,-19.93 -4.11,-3.39 -9.81,-3.74 -21.21,-4.48l-173.53 -11.15c-11.52,-0.74 -11.74,-0.69 -21.15,5.98l-96.51 68.2c-19.43,13.76 -42.07,29.77 -63.13,39.64 -26.63,12.49 -66.8,22.8 -109.41,0.75 -39.65,-20.52 -56,-55.31 -62.57,-84.61 -5.48,-24.45 -5.89,-49.8 -6.72,-74.74 -8.35,-238.96 113.98,-467.83 318.19,-580.44 24.67,-13.61 21.52,-22.92 14.17,-48.68 -12.52,-43.76 12.83,-89.38 56.59,-101.87l0 -0z"/>
  </g>
 </g>
</svg>
