<?xml version="1.0" encoding="UTF-8"?>
<!DOCTYPE svg PUBLIC "-//W3C//DTD SVG 1.1//EN" "http://www.w3.org/Graphics/SVG/1.1/DTD/svg11.dtd">
<!-- Creator: CorelDRAW 2021 (64-Bit) -->
<svg xmlns="http://www.w3.org/2000/svg" xml:space="preserve" width="43.3492mm" height="43.3492mm" version="1.1" style="shape-rendering:geometricPrecision; text-rendering:geometricPrecision; image-rendering:optimizeQuality; fill-rule:evenodd; clip-rule:evenodd"
viewBox="0 0 4334.92 4334.92"
 xmlns:xlink="http://www.w3.org/1999/xlink"
 xmlns:xodm="http://www.corel.com/coreldraw/odm/2003">
 <defs>
  <style type="text/css">
   <![CDATA[
    .fil0 {fill:none}
    .fil1 {fill:url(#id0);fill-rule:nonzero}
    .fil2 {fill:url(#id1);fill-rule:nonzero}
    .fil3 {fill:url(#id2);fill-rule:nonzero}
   ]]>
  </style>
  <linearGradient id="id0" gradientUnits="userSpaceOnUse" x1="3254.73" y1="3709.32" x2="1109.04" y2="369.83">
   <stop offset="0" style="stop-opacity:1; stop-color:#FFAB00"/>
   <stop offset="1" style="stop-opacity:1; stop-color:#FFD54F"/>
  </linearGradient>
  <linearGradient id="id1" gradientUnits="userSpaceOnUse" x1="3006.97" y1="4294.3" x2="2773.25" y2="1037.58">
   <stop offset="0" style="stop-opacity:1; stop-color:#009688"/>
   <stop offset="1" style="stop-opacity:1; stop-color:#4DB6AC"/>
  </linearGradient>
  <linearGradient id="id2" gradientUnits="userSpaceOnUse" x1="1821.96" y1="4294.3" x2="1432.44" y2="1037.58">
   <stop offset="0" style="stop-opacity:1; stop-color:#00BFA5"/>
   <stop offset="1" style="stop-opacity:1; stop-color:#4DB6AC"/>
  </linearGradient>
 </defs>
 <g id="Layer_x0020_1">
  <metadata id="CorelCorpID_0Corel-Layer"/>
  <rect class="fil0" y="0.01" width="4334.9" height="4334.9"/>
  <g id="_2049455558080">
   <path class="fil1" d="M2167.46 40.61c-1030.79,0 -1869.3,838.51 -1869.3,1869.3 0,1030.79 838.51,1869.3 1869.3,1869.3 1030.79,0 1869.3,-838.51 1869.3,-1869.3 0,-1030.79 -838.51,-1869.3 -1869.3,-1869.3z"/>
   <path class="fil2" d="M2665.94 1037.57c-68.89,0 -124.62,55.74 -124.62,124.62l0 3007.49c0,68.88 55.73,124.63 124.62,124.63 68.88,0 124.62,-55.75 124.62,-124.63l0 -1150.81c284.06,-57.89 498.48,-309.6 498.48,-610.48l0 -747.72c0,-343.56 -279.54,-623.1 -623.1,-623.1z"/>
   <path class="fil3" d="M2167.47 1037.57c-68.9,0 -124.63,55.74 -124.63,124.62l0 498.48c0,162.26 -104.5,299.3 -249.24,350.91l0 -849.39c0,-68.88 -55.74,-124.62 -124.63,-124.62 -68.88,0 -124.61,55.74 -124.61,124.62l0 849.39c-144.74,-51.62 -249.24,-188.65 -249.24,-350.91l0 -498.48c0,-68.88 -55.74,-124.62 -124.63,-124.62 -68.88,0 -124.61,55.74 -124.61,124.62l0 498.48c0,300.89 214.42,552.59 498.48,610.49l0 1898.52c0,68.88 55.73,124.63 124.61,124.63 68.89,0 124.62,-55.75 124.62,-124.63l0 -1898.52c284.07,-57.9 498.48,-309.61 498.48,-610.49l0 -498.48c0,-68.88 -55.73,-124.62 -124.62,-124.62l0.02 0z"/>
  </g>
 </g>
</svg>
