<?xml version="1.0" encoding="UTF-8"?>
<!DOCTYPE svg PUBLIC "-//W3C//DTD SVG 1.1//EN" "http://www.w3.org/Graphics/SVG/1.1/DTD/svg11.dtd">
<!-- Creator: CorelDRAW 2021 (64-Bit) -->
<svg xmlns="http://www.w3.org/2000/svg" xml:space="preserve" width="1.70666in" height="1.70666in" version="1.1" style="shape-rendering:geometricPrecision; text-rendering:geometricPrecision; image-rendering:optimizeQuality; fill-rule:evenodd; clip-rule:evenodd"
viewBox="0 0 1706.66 1706.66"
 xmlns:xlink="http://www.w3.org/1999/xlink"
 xmlns:xodm="http://www.corel.com/coreldraw/odm/2003">
 <defs>
  <style type="text/css">
   <![CDATA[
    .fil0 {fill:none}
    .fil1 {fill:#2196F3}
    .fil2 {fill:#2196F3;fill-rule:nonzero}
    .fil3 {fill:#FFC107;fill-rule:nonzero}
   ]]>
  </style>
 </defs>
 <g id="Layer_x0020_1">
  <metadata id="CorelCorpID_0Corel-Layer"/>
  <rect class="fil0" y="0" width="1706.65" height="1706.65"/>
  <g id="_1315054832896">
   <rect class="fil0" x="0.01" y="0.01" width="1706.65" height="1706.65"/>
   <path class="fil1" d="M1397.91 115.1c22.69,22.69 22.69,59.49 0,82.18l-213.02 213.02c-25.67,25.68 -42.22,42.31 -53.69,56.01 -10.98,13.09 -13.58,19.29 -14.52,22.69 -2.93,10.31 -2.93,21.22 0,31.56 0.94,3.4 3.54,9.61 14.52,22.69 11.48,13.7 28.02,30.33 53.69,56 25.68,25.68 42.31,42.22 56.01,53.69 13.09,10.98 19.29,13.59 22.69,14.55 10.33,2.9 21.26,2.9 31.56,0 3.4,-0.96 9.61,-3.57 22.72,-14.55 13.67,-11.48 30.3,-28.02 55.98,-53.69l213.02 -213.02c22.69,-22.69 59.46,-22.69 82.15,0 22.69,22.69 22.69,59.46 0,82.15l-214.72 214.74c-23.48,23.48 -43.74,43.74 -61.83,58.91 -19.15,16.02 -40.02,30.01 -65.79,37.27 -30.94,8.72 -63.68,8.72 -94.62,0 -25.76,-7.26 -46.64,-21.26 -65.78,-37.27 -7.03,-5.91 -14.37,-12.56 -22.13,-19.88l-869.43 869.43c-22.66,22.69 -59.46,22.69 -82.15,0 -22.69,-22.69 -22.69,-59.49 0,-82.18l869.44 -869.4c-7.32,-7.76 -13.97,-15.11 -19.88,-22.13 -16.01,-19.15 -30.01,-40.02 -37.27,-65.79 -8.72,-30.94 -8.72,-63.68 0,-94.62 7.26,-25.76 21.26,-46.64 37.27,-65.78 15.17,-18.09 35.43,-38.35 58.91,-61.83l214.75 -214.74c22.69,-22.66 59.46,-22.66 82.15,0l-0.03 -0z"/>
   <path class="fil1" d="M1514.11 269.79c22.69,22.69 22.69,59.49 0,82.18l-193.67 193.64c-22.69,22.69 -59.46,22.69 -82.15,0 -22.69,-22.69 -22.69,-59.46 0,-82.15l193.67 -193.67c22.69,-22.69 59.46,-22.69 82.15,0l0 -0z"/>
   <path class="fil2" d="M337.56 108.45c88.94,20.41 180.34,69.68 246.16,135.49 67.19,67.16 98.87,143.11 95,220.16 -2.81,56.21 -24.27,108 -57.03,152.85l892.42 892.42c22.69,22.69 22.69,59.46 0,82.15 -22.69,22.69 -59.46,22.69 -82.15,0l-892.41 -892.41c-44.85,32.76 -96.65,54.22 -152.85,57.03 -77.06,3.87 -153,-27.81 -220.16,-95 -65.81,-65.81 -115.09,-157.22 -135.5,-246.16 -19.88,-86.57 -15.46,-187.63 51.73,-254.8 67.16,-67.19 168.22,-71.61 254.8,-51.73l-0.01 -0z"/>
   <path class="fil3" d="M533.43 84.3c98.49,-41.02 206.55,-63.68 319.91,-63.68 123.2,0 240.13,26.76 345.35,74.77l-168.2 168.2c-21.81,21.81 -44.68,44.65 -62.59,66.08 -20.26,24.18 -43.74,57.26 -56.24,101.65 -13.58,48.13 -13.58,99.07 0,147.2 5.59,19.85 13.35,37.42 22.07,52.96l-80.33 80.3 -110.61 -110.63c18.33,-40.26 30.27,-84.58 32.64,-132.13 5.48,-109.35 -40.52,-210.76 -123.22,-293.5 -34.9,-34.87 -75.36,-65.64 -118.78,-91.23l0 0.01z"/>
   <path class="fil3" d="M634.31 930.89l-110.64 -110.64c-40.26,18.36 -84.58,30.27 -132.15,32.64 -109.32,5.5 -210.76,-40.52 -293.47,-123.22 -20.08,-20.08 -38.76,-41.98 -55.92,-65.23 -14.08,60.69 -21.52,123.93 -21.52,188.89 0,193.9 66.28,372.31 177.39,513.84l436.31 -436.28z"/>
   <path class="fil3" d="M1072.5 930.89l80.31 -80.33c15.55,8.69 33.11,16.48 52.93,22.07 48.16,13.58 99.1,13.58 147.23,0 44.39,-12.5 77.47,-35.98 101.65,-56.24 21.43,-17.94 44.27,-40.78 66.08,-62.59l132.56 -132.57c21.34,73.69 32.76,151.57 32.76,232.11 0,193.84 -66.22,372.26 -177.33,513.75l-436.2 -436.19 0.02 -0.01z"/>
   <path class="fil3" d="M1274.98 1571.56l-421.59 -421.59 -421.65 421.64c123.67,72.72 267.74,114.44 421.59,114.44 153.85,0 297.98,-41.75 421.65,-114.5l0 0.01z"/>
  </g>
 </g>
</svg>
