<?xml version="1.0" encoding="UTF-8"?>
<!DOCTYPE svg PUBLIC "-//W3C//DTD SVG 1.1//EN" "http://www.w3.org/Graphics/SVG/1.1/DTD/svg11.dtd">
<!-- Creator: CorelDRAW 2021 (64-Bit) -->
<svg xmlns="http://www.w3.org/2000/svg" xml:space="preserve" width="1.70666in" height="1.70666in" version="1.1" style="shape-rendering:geometricPrecision; text-rendering:geometricPrecision; image-rendering:optimizeQuality; fill-rule:evenodd; clip-rule:evenodd"
viewBox="0 0 1706.66 1706.66"
 xmlns:xlink="http://www.w3.org/1999/xlink"
 xmlns:xodm="http://www.corel.com/coreldraw/odm/2003">
 <defs>
  <style type="text/css">
   <![CDATA[
    .fil0 {fill:none}
    .fil1 {fill:#FF5722}
    .fil3 {fill:white}
    .fil2 {fill:#2196F3;fill-rule:nonzero}
   ]]>
  </style>
 </defs>
 <g id="Layer_x0020_1">
  <metadata id="CorelCorpID_0Corel-Layer"/>
  <rect class="fil0" y="0" width="1706.65" height="1706.65"/>
  <g id="_1314977562368">
   <rect class="fil0" x="0.01" y="0.01" width="1706.65" height="1706.65"/>
   <g id="_2658230900240">
    <path class="fil1" d="M1361.21 1353.69c4.03,-47.37 14.12,-84.8 24.74,-119.22 1.8,-5.86 3.71,-11.83 5.65,-17.95 12.24,-38.34 26.13,-81.98 26.13,-129.61 0,-118.25 -95.83,-214.11 -214.09,-214.11 -118.22,0 -214.09,95.86 -214.09,214.11 0,47.64 13.92,91.27 26.13,129.61 1.94,6.12 3.85,12.12 5.68,17.95 10.59,34.43 20.69,71.85 24.74,119.22l-159.62 50.67c-57.5,18.24 -91.54,73.8 -91.54,130.5l0 96.98c0,32.25 26.13,58.41 58.38,58.41l700.67 0c32.22,0 58.38,-26.16 58.38,-58.41l0 -96.98c0,-56.7 -34.04,-112.25 -91.54,-130.5l-159.62 -50.67 -0.01 0zm-254.87 -266.79c0,-53.76 43.58,-97.33 97.31,-97.33 53.76,0 97.33,43.57 97.33,97.33 0,28.22 -7.74,52.81 -20.09,92.22 -2.03,6.53 -4.21,13.5 -6.53,20.95 -11.71,38.02 -23.92,82.89 -29.16,139.82l-83.09 0c-5.21,-56.93 -17.45,-101.8 -29.16,-139.82 -2.3,-7.44 -4.47,-14.39 -6.54,-20.95 -12.35,-39.37 -20.07,-64 -20.07,-92.22l0 0z"/>
    <path class="fil2" d="M1124.94 28.36c-88.69,-11.92 -202,-11.92 -345.07,-11.92 -143.06,0 -265.17,0 -353.85,11.92 -91.28,12.3 -165.16,38.13 -223.42,96.39 -58.26,58.26 -84.12,132.14 -96.39,223.41 -11.92,88.69 -11.92,202.02 -11.92,345.08l0 320.19c0,143.06 0,256.4 11.92,345.08 12.27,91.27 38.13,165.16 96.39,223.41 58.26,58.26 132.14,84.09 223.42,96.39 69.06,9.27 158.39,11.33 262.07,11.77 -6.41,-18.21 -9.92,-37.81 -9.92,-58.26l0 -96.98c0,-100.07 60.2,-206 172.98,-241.81l59.82 -18.98c-18.72,-31.48 -38.19,-121.14 -38.19,-187.17 0,-182.75 148.15,-330.87 330.87,-330.87 101.51,0 192.34,45.69 253.01,117.63l0 -180.43c0,-143.06 0,-256.4 -11.91,-345.08 -12.27,-91.27 -38.13,-165.15 -96.39,-223.41 -58.26,-58.26 -132.14,-84.09 -223.41,-96.39l-0 0.03z"/>
    <path class="fil3" d="M405.69 464.09c0,-32.25 26.16,-58.41 58.41,-58.41l622.81 0c32.22,0 58.38,26.16 58.38,58.41 0,32.25 -26.16,58.38 -58.38,58.38l-622.81 0c-32.25,0 -58.41,-26.13 -58.41,-58.38zm0 311.39c0,-32.25 26.16,-58.38 58.41,-58.38l311.39 0c32.25,0 58.41,26.13 58.41,58.38 0,32.25 -26.16,58.41 -58.41,58.41l-311.39 0c-32.25,0 -58.41,-26.16 -58.41,-58.41z"/>
   </g>
  </g>
 </g>
</svg>
