<?xml version="1.0" encoding="UTF-8"?>
<!DOCTYPE svg PUBLIC "-//W3C//DTD SVG 1.1//EN" "http://www.w3.org/Graphics/SVG/1.1/DTD/svg11.dtd">
<!-- Creator: CorelDRAW 2021 (64-Bit) -->
<svg xmlns="http://www.w3.org/2000/svg" xml:space="preserve" width="43.3492mm" height="43.3492mm" version="1.1" style="shape-rendering:geometricPrecision; text-rendering:geometricPrecision; image-rendering:optimizeQuality; fill-rule:evenodd; clip-rule:evenodd"
viewBox="0 0 4334.92 4334.92"
 xmlns:xlink="http://www.w3.org/1999/xlink"
 xmlns:xodm="http://www.corel.com/coreldraw/odm/2003">
 <defs>
  <style type="text/css">
   <![CDATA[
    .fil0 {fill:none}
    .fil5 {fill:url(#id0);fill-rule:nonzero}
    .fil3 {fill:url(#id1);fill-rule:nonzero}
    .fil4 {fill:url(#id2);fill-rule:nonzero}
    .fil1 {fill:url(#id3);fill-rule:nonzero}
    .fil2 {fill:url(#id4);fill-rule:nonzero}
    .fil6 {fill:url(#id5);fill-rule:nonzero}
   ]]>
  </style>
  <linearGradient id="id0" gradientUnits="userSpaceOnUse" x1="2701.97" y1="2138.61" x2="1685.42" y2="980.72">
   <stop offset="0" style="stop-opacity:1; stop-color:#2196F3"/>
   <stop offset="1" style="stop-opacity:1; stop-color:#64B5F6"/>
  </linearGradient>
  <linearGradient id="id1" gradientUnits="userSpaceOnUse" x1="882.9" y1="2651.82" x2="541.34" y2="1559.05">
   <stop offset="0" style="stop-opacity:1; stop-color:#00BFA5"/>
   <stop offset="1" style="stop-opacity:1; stop-color:#02D4B8"/>
  </linearGradient>
  <linearGradient id="id2" gradientUnits="userSpaceOnUse" xlink:href="#id1" x1="924.46" y1="3593.68" x2="483.69" y2="2651.82">
  </linearGradient>
  <linearGradient id="id3" gradientUnits="userSpaceOnUse" x1="3973.34" y1="2555.79" x2="3248.28" y2="1729.92">
   <stop offset="0" style="stop-opacity:1; stop-color:#FF5252"/>
   <stop offset="1" style="stop-opacity:1; stop-color:#FF6B6B"/>
  </linearGradient>
  <linearGradient id="id4" gradientUnits="userSpaceOnUse" xlink:href="#id3" x1="4089.92" y1="3510.92" x2="3154.26" y2="2799.1">
  </linearGradient>
  <linearGradient id="id5" gradientUnits="userSpaceOnUse" xlink:href="#id0" x1="2858.11" y1="3477.74" x2="1546.29" y2="2479.75">
  </linearGradient>
 </defs>
 <g id="Layer_x0020_1">
  <metadata id="CorelCorpID_0Corel-Layer"/>
  <rect class="fil0" y="0.01" width="4334.9" height="4334.9"/>
  <g id="_2049666225392">
   <path class="fil1" d="M3580.97 1559.05c-301.24,0 -546.38,245.14 -546.38,546.39 0,301.24 245.14,546.38 546.38,546.38 301.25,0 546.39,-245.14 546.39,-546.38 0,-301.25 -245.14,-546.39 -546.39,-546.39z"/>
   <path class="fil2" d="M3580.97 2651.81c-387.38,0 -702.5,315.12 -702.5,702.5l0 161.32c0,43.14 34.92,78.05 78.06,78.05l1248.88 0c43.15,0 83.26,-34.91 83.26,-78.05l0 -161.32c0,-387.38 -320.32,-702.5 -707.7,-702.5l0 0z"/>
   <path class="fil3" d="M748.75 1559.05c-301.24,0 -546.39,245.14 -546.39,546.39 0,301.24 245.15,546.38 546.39,546.38 301.25,0 546.38,-245.14 546.38,-546.38 0,-301.25 -245.13,-546.39 -546.38,-546.39z"/>
   <path class="fil4" d="M748.75 2651.81c-387.38,0 -702.5,315.12 -702.5,702.5l0 161.32c0,43.14 34.91,78.05 78.06,78.05l1248.88 0c43.14,0 83.26,-34.91 83.26,-78.05l0 -161.32c0,-387.38 -320.32,-702.5 -707.7,-702.5l0 0z"/>
   <path class="fil5" d="M2151.86 741.13c-422.36,0 -766.05,343.71 -766.05,766.06 0,422.36 343.69,766.06 766.05,766.06 422.36,0 766.06,-343.7 766.06,-766.06 0,-422.35 -343.7,-766.06 -766.06,-766.06z"/>
   <path class="fil6" d="M2151.86 2273.25c-543.12,0 -992.23,441.81 -992.23,984.93l0 226.17c0,60.49 56.25,109.44 116.74,109.44l1750.98 -0.01c60.5,0 109.44,-48.95 109.44,-109.44l0 -226.17c0,-543.11 -441.81,-984.92 -984.93,-984.92l0 0z"/>
  </g>
 </g>
</svg>
