<?xml version="1.0" encoding="UTF-8"?>
<!DOCTYPE svg PUBLIC "-//W3C//DTD SVG 1.1//EN" "http://www.w3.org/Graphics/SVG/1.1/DTD/svg11.dtd">
<!-- Creator: CorelDRAW 2021 (64-Bit) -->
<svg xmlns="http://www.w3.org/2000/svg" xml:space="preserve" width="43.3492mm" height="43.3492mm" version="1.1" style="shape-rendering:geometricPrecision; text-rendering:geometricPrecision; image-rendering:optimizeQuality; fill-rule:evenodd; clip-rule:evenodd"
viewBox="0 0 4334.92 4334.92"
 xmlns:xlink="http://www.w3.org/1999/xlink"
 xmlns:xodm="http://www.corel.com/coreldraw/odm/2003">
 <defs>
  <style type="text/css">
   <![CDATA[
    .fil0 {fill:none}
    .fil5 {fill:url(#id0);fill-rule:nonzero}
    .fil6 {fill:url(#id1);fill-rule:nonzero}
    .fil4 {fill:url(#id2);fill-rule:nonzero}
    .fil3 {fill:url(#id3);fill-rule:nonzero}
    .fil1 {fill:url(#id4);fill-rule:nonzero}
    .fil2 {fill:url(#id5);fill-rule:nonzero}
   ]]>
  </style>
  <linearGradient id="id0" gradientUnits="userSpaceOnUse" x1="2151.75" y1="2273.2" x2="2151.75" y2="740.67">
   <stop offset="0" style="stop-opacity:1; stop-color:#1E88E5"/>
   <stop offset="1" style="stop-opacity:1; stop-color:#2196F3"/>
  </linearGradient>
  <linearGradient id="id1" gradientUnits="userSpaceOnUse" xlink:href="#id0" x1="2148.07" y1="3594.18" x2="2148.07" y2="2273.28">
  </linearGradient>
  <linearGradient id="id2" gradientUnits="userSpaceOnUse" x1="1257.4" y1="3511.35" x2="321.44" y2="2799.3">
   <stop offset="0" style="stop-opacity:1; stop-color:#FFC107"/>
   <stop offset="1" style="stop-opacity:1; stop-color:#FFD54F"/>
  </linearGradient>
  <linearGradient id="id3" gradientUnits="userSpaceOnUse" xlink:href="#id2" x1="1140.79" y1="2555.92" x2="415.51" y2="1729.79">
  </linearGradient>
  <linearGradient id="id4" gradientUnits="userSpaceOnUse" x1="3715.62" y1="2651.97" x2="3373.95" y2="1558.85">
   <stop offset="0" style="stop-opacity:1; stop-color:#00BFA5"/>
   <stop offset="1" style="stop-opacity:1; stop-color:#02D4B8"/>
  </linearGradient>
  <linearGradient id="id5" gradientUnits="userSpaceOnUse" xlink:href="#id4" x1="3757.2" y1="3594.14" x2="3316.29" y2="2651.98">
  </linearGradient>
 </defs>
 <g id="Layer_x0020_1">
  <metadata id="CorelCorpID_0Corel-Layer"/>
  <rect class="fil0" y="0.01" width="4334.9" height="4334.9"/>
  <g id="_2049412232896">
   <g>
    <path class="fil1" d="M3581.43 1558.85c-301.34,0 -546.56,245.22 -546.56,546.57 0,301.34 245.22,546.56 546.56,546.56 301.35,0 546.56,-245.22 546.56,-546.56 0,-301.35 -245.21,-546.57 -546.56,-546.57z"/>
    <path class="fil2" d="M3581.43 2651.97c-387.5,0 -702.72,315.22 -702.72,702.73l0 161.36c0,43.16 34.92,78.08 78.08,78.08l1249.28 0c43.16,0 83.29,-34.92 83.29,-78.08l0 -161.36c0,-387.51 -320.43,-702.73 -707.93,-702.73l0 0z"/>
   </g>
   <g>
    <path class="fil3" d="M748.3 1558.85c-301.34,0 -546.57,245.22 -546.57,546.57 0,301.34 245.23,546.56 546.57,546.56 301.34,0 546.56,-245.22 546.56,-546.56 0,-301.35 -245.22,-546.57 -546.56,-546.57z"/>
    <path class="fil4" d="M748.3 2651.97c-387.51,0 -702.73,315.22 -702.73,702.73l0 161.36c0,43.16 34.93,78.08 78.08,78.08l1249.29 0c43.16,0 83.28,-34.92 83.28,-78.08l0 -161.36c0,-387.51 -320.42,-702.73 -707.92,-702.73l0 0z"/>
   </g>
   <g>
    <path class="fil5" d="M2151.86 740.67c-422.5,0 -766.3,343.82 -766.3,766.31 0,422.5 343.8,766.3 766.3,766.3 422.49,0 766.31,-343.8 766.31,-766.3 0,-422.49 -343.82,-766.31 -766.31,-766.31z"/>
    <path class="fil6" d="M2151.86 2273.28c-543.29,0 -992.55,441.96 -992.55,985.25l0 226.25c0,60.51 56.27,109.47 116.77,109.47l1751.55 -0.01c60.52,0 109.47,-48.96 109.47,-109.47l0 -226.25c0,-543.28 -441.94,-985.24 -985.24,-985.24l0 0z"/>
   </g>
  </g>
 </g>
</svg>
