<?xml version="1.0" encoding="UTF-8"?>
<!DOCTYPE svg PUBLIC "-//W3C//DTD SVG 1.1//EN" "http://www.w3.org/Graphics/SVG/1.1/DTD/svg11.dtd">
<!-- Creator: CorelDRAW 2021 (64-Bit) -->
<svg xmlns="http://www.w3.org/2000/svg" xml:space="preserve" width="1.70666in" height="1.70666in" version="1.1" style="shape-rendering:geometricPrecision; text-rendering:geometricPrecision; image-rendering:optimizeQuality; fill-rule:evenodd; clip-rule:evenodd"
viewBox="0 0 1706.66 1706.66"
 xmlns:xlink="http://www.w3.org/1999/xlink"
 xmlns:xodm="http://www.corel.com/coreldraw/odm/2003">
 <defs>
  <style type="text/css">
   <![CDATA[
    .fil0 {fill:none}
    .fil2 {fill:#2196F3;fill-rule:nonzero}
    .fil1 {fill:#FF9800;fill-rule:nonzero}
   ]]>
  </style>
 </defs>
 <g id="Layer_x0020_1">
  <metadata id="CorelCorpID_0Corel-Layer"/>
  <rect class="fil0" y="0" width="1706.65" height="1706.65"/>
  <g id="_1314971955600">
   <rect class="fil0" x="0.01" y="0.01" width="1706.65" height="1706.65"/>
   <g id="_2658585765344">
    <g>
     <path class="fil1" d="M533.56 934.93c-20.43,10.94 -40.43,22.39 -55.13,31.47 -35.18,20.59 -101.44,59.32 -149.31,107.97 -30.88,31.39 -71.5,83.59 -79.05,155.38 -2.34,22.18 -1.26,43.41 2.55,63.57 3.82,20.19 5.73,30.27 0.62,35.56 -5.11,5.3 -13.6,4.01 -30.64,1.4 -72.79,-11.07 -122,-50.78 -162.37,-94.05 -30.21,-32.36 -45.8,-69.56 -41.93,-109.37 3.63,-37.39 23.63,-67.49 43.6,-89.48 31.53,-34.72 78.03,-64.16 105.87,-81.79 5.94,-3.76 11.05,-6.99 14.94,-9.62 105.07,-70.39 230.37,-91.15 347.4,-62.28 27.57,6.78 41.36,10.19 42.6,19.89 1.21,9.68 -12.26,16.91 -39.16,31.34l0.02 0.01z"/>
     <path class="fil1" d="M461.3 375.9c13.5,2.02 20.24,3.04 23.71,8.63 3.47,5.61 1.05,13.06 -3.79,27.95 -12.36,38.06 -19.03,78.67 -19.03,120.84 0,88.16 29.19,169.55 78.4,234.97 9.41,12.47 14.09,18.71 12.66,25.13 -1.45,6.43 -7.5,9.57 -19.57,15.89 -32.01,16.77 -68.43,26.26 -107.06,26.26 -127.65,0 -231.13,-103.48 -231.13,-231.13 0,-127.67 103.48,-231.12 231.13,-231.12 11.77,0 23.35,0.86 34.67,2.58l0.01 0z"/>
    </g>
    <g>
     <path class="fil1" d="M1173.14 934.93c20.4,10.94 40.4,22.39 55.13,31.47 35.16,20.59 101.41,59.32 149.28,107.97 30.89,31.39 71.5,83.59 79.05,155.38 2.34,22.18 1.26,43.41 -2.56,63.57 -3.81,20.19 -5.72,30.27 -0.62,35.56 5.11,5.3 13.63,4.01 30.64,1.4 72.78,-11.07 122,-50.78 162.37,-94.05 30.21,-32.36 45.8,-69.56 41.93,-109.37 -3.63,-37.39 -23.63,-67.49 -43.59,-89.48 -31.53,-34.72 -78.03,-64.16 -105.87,-81.79 -5.94,-3.76 -11.02,-6.99 -14.94,-9.62 -105.07,-70.39 -230.37,-91.15 -347.4,-62.28 -27.58,6.78 -41.37,10.19 -42.57,19.89 -1.24,9.68 12.23,16.91 39.16,31.34l-0.01 0.01z"/>
     <path class="fil1" d="M1166.07 768.3c-9.38,12.47 -14.08,18.71 -12.63,25.13 1.45,6.43 7.47,9.57 19.57,15.89 31.98,16.77 68.4,26.26 107.03,26.26 127.64,0 231.13,-103.48 231.13,-231.13 0,-127.67 -103.48,-231.12 -231.13,-231.12 -11.77,0 -23.36,0.86 -34.65,2.58 -13.49,2.02 -20.24,3.04 -23.71,8.63 -3.46,5.61 -1.05,13.06 3.79,27.95 12.34,38.06 19,78.67 19,120.84 0,88.16 -29.17,169.55 -78.41,234.97l0 0z"/>
    </g>
    <path class="fil2" d="M546.91 1029.22c187.58,-116.01 425.53,-116.01 613.11,0 5.54,3.41 12.53,7.52 20.59,12.23l0 0c36.42,21.31 94.23,55.15 133.72,95.26 24.78,25.21 49.51,59.54 54,102.38 4.84,45.8 -14.62,88.19 -51.72,124.91 -61.25,60.61 -137.16,111.59 -236.69,111.59l-452.93 0c-99.5,0 -175.41,-50.98 -236.69,-111.59 -37.09,-36.72 -56.55,-79.1 -51.71,-124.91 4.52,-42.84 29.22,-77.17 54,-102.38 39.48,-40.1 97.3,-73.94 133.72,-95.26l0.03 0c8.04,-4.7 15.05,-8.81 20.56,-12.23l0 0z"/>
    <path class="fil2" d="M551.22 533.33c0,-166.94 135.33,-302.24 302.24,-302.24 166.94,0 302.24,135.3 302.24,302.24 0,166.91 -135.3,302.24 -302.24,302.24 -166.91,0 -302.24,-135.33 -302.24,-302.24z"/>
   </g>
  </g>
 </g>
</svg>
