<?xml version="1.0" encoding="UTF-8"?>
<!DOCTYPE svg PUBLIC "-//W3C//DTD SVG 1.1//EN" "http://www.w3.org/Graphics/SVG/1.1/DTD/svg11.dtd">
<!-- Creator: CorelDRAW 2021 (64-Bit) -->
<svg xmlns="http://www.w3.org/2000/svg" xml:space="preserve" width="43.3492mm" height="43.3492mm" version="1.1" style="shape-rendering:geometricPrecision; text-rendering:geometricPrecision; image-rendering:optimizeQuality; fill-rule:evenodd; clip-rule:evenodd"
viewBox="0 0 4334.92 4334.92"
 xmlns:xlink="http://www.w3.org/1999/xlink"
 xmlns:xodm="http://www.corel.com/coreldraw/odm/2003">
 <defs>
  <style type="text/css">
   <![CDATA[
    .fil0 {fill:none}
    .fil6 {fill:#006DCC;fill-rule:nonzero}
    .fil5 {fill:#00AB78;fill-rule:nonzero}
    .fil7 {fill:#CC6300;fill-rule:nonzero}
    .fil8 {fill:#D98A03;fill-rule:nonzero}
    .fil4 {fill:url(#id0);fill-rule:nonzero}
    .fil2 {fill:url(#id1);fill-rule:nonzero}
    .fil3 {fill:url(#id2);fill-rule:nonzero}
    .fil1 {fill:url(#id3);fill-rule:nonzero}
   ]]>
  </style>
  <linearGradient id="id0" gradientUnits="userSpaceOnUse" x1="1036.55" y1="2035.14" x2="1036.55" y2="42.53">
   <stop offset="0" style="stop-opacity:1; stop-color:#FBB130"/>
   <stop offset="1" style="stop-opacity:1; stop-color:#FFC259"/>
  </linearGradient>
  <linearGradient id="id1" gradientUnits="userSpaceOnUse" x1="1036.55" y1="4293.43" x2="1036.55" y2="2300.82">
   <stop offset="0" style="stop-opacity:1; stop-color:#0382F3"/>
   <stop offset="1" style="stop-opacity:1; stop-color:#33A0FF"/>
  </linearGradient>
  <linearGradient id="id2" gradientUnits="userSpaceOnUse" x1="3294.85" y1="2035.14" x2="3294.85" y2="42.53">
   <stop offset="0" style="stop-opacity:1; stop-color:#F77B09"/>
   <stop offset="1" style="stop-opacity:1; stop-color:#FF9C40"/>
  </linearGradient>
  <linearGradient id="id3" gradientUnits="userSpaceOnUse" x1="3294.85" y1="4293.43" x2="3294.85" y2="2300.82">
   <stop offset="0" style="stop-opacity:1; stop-color:#00C489"/>
   <stop offset="1" style="stop-opacity:1; stop-color:#19E3A6"/>
  </linearGradient>
 </defs>
 <g id="Layer_x0020_1">
  <metadata id="CorelCorpID_0Corel-Layer"/>
  <rect class="fil0" y="0.01" width="4334.9" height="4334.9"/>
  <path class="fil1" d="M4166.61 2300.82l-560.42 0 -311.35 166.05 -311.34 -166.05 -560.42 0c-68.78,0 -124.54,55.76 -124.54,124.54l0 1743.53c0,68.78 55.76,124.54 124.54,124.54l1743.53 0c68.78,0 124.54,-55.76 124.54,-124.54l0 -1743.54c0,-68.77 -55.76,-124.53 -124.54,-124.53l0 0z"/>
  <path class="fil2" d="M1908.32 2300.82l-560.42 0 -311.35 166.05 -311.34 -166.05 -560.42 0c-68.78,0 -124.54,55.76 -124.54,124.54l0 1743.53c0,68.78 55.76,124.54 124.54,124.54l1743.53 0c68.78,0 124.54,-55.76 124.54,-124.54l0 -1743.54c0,-68.77 -55.76,-124.53 -124.54,-124.53l0 0z"/>
  <path class="fil3" d="M4166.61 42.53l-560.42 0 -311.35 166.05 -311.34 -166.05 -560.42 0c-68.78,0 -124.54,55.76 -124.54,124.54l0 1743.54c0,68.77 55.76,124.53 124.54,124.53l1743.53 0c68.78,0 124.54,-55.76 124.54,-124.54l0 -1743.53c0,-68.78 -55.76,-124.54 -124.54,-124.54l0 0z"/>
  <path class="fil4" d="M2032.86 167.07l0 1743.53c0,68.78 -55.76,124.54 -124.54,124.54l-1743.53 0c-68.78,0 -124.54,-55.76 -124.54,-124.54l0 -1743.53c0,-68.78 55.76,-124.54 124.54,-124.54l560.42 0 311.35 166.05 311.34 -166.05 560.42 0c68.78,0 124.54,55.76 124.54,124.54l0 0z"/>
  <path class="fil5" d="M3606.19 3006.54l0 -705.72 -622.69 0 0 705.72c0,68.77 55.76,124.53 124.54,124.53l373.61 0c68.78,0 124.54,-55.76 124.54,-124.53l0 0z"/>
  <path class="fil6" d="M1347.9 3006.54l0 -705.72 -622.69 0 0 705.72c0,68.77 55.76,124.53 124.54,124.53l373.61 0c68.78,0 124.54,-55.76 124.54,-124.53l0 0z"/>
  <path class="fil7" d="M3606.19 748.25l0 -705.72 -622.69 0 0 705.72c0,68.78 55.76,124.54 124.54,124.54l373.61 0c68.78,0 124.54,-55.76 124.54,-124.54l0 0z"/>
  <path class="fil8" d="M725.21 748.25l0 -705.72 622.69 0 0 705.72c0,68.78 -55.76,124.54 -124.54,124.54l-373.61 0c-68.78,0 -124.54,-55.76 -124.54,-124.54l0 0z"/>
 </g>
</svg>
