<?xml version="1.0" encoding="UTF-8"?>
<!DOCTYPE svg PUBLIC "-//W3C//DTD SVG 1.1//EN" "http://www.w3.org/Graphics/SVG/1.1/DTD/svg11.dtd">
<!-- Creator: CorelDRAW 2021 (64-Bit) -->
<svg xmlns="http://www.w3.org/2000/svg" xml:space="preserve" width="1.70666in" height="1.70666in" version="1.1" style="shape-rendering:geometricPrecision; text-rendering:geometricPrecision; image-rendering:optimizeQuality; fill-rule:evenodd; clip-rule:evenodd"
viewBox="0 0 1706.66 1706.66"
 xmlns:xlink="http://www.w3.org/1999/xlink"
 xmlns:xodm="http://www.corel.com/coreldraw/odm/2003">
 <defs>
  <style type="text/css">
   <![CDATA[
    .fil0 {fill:none}
    .fil2 {fill:#2196F3}
    .fil1 {fill:#8BC34A}
    .fil3 {fill:#2196F3;fill-rule:nonzero}
   ]]>
  </style>
 </defs>
 <g id="Layer_x0020_1">
  <metadata id="CorelCorpID_0Corel-Layer"/>
  <rect class="fil0" y="0" width="1706.65" height="1706.65"/>
  <g id="_2143671472608">
   <rect class="fil0" x="0.01" y="0.01" width="1706.65" height="1706.65"/>
   <path class="fil1" d="M94.7 425.4l0 829.52c0,87.2 63.61,145.16 141.86,192.15 79.25,47.52 212.23,103.72 359.54,165.95 110.43,46.67 181.59,76.75 257.22,76.75 75.63,0 146.8,-30.08 257.23,-76.75 147.27,-62.23 280.28,-118.43 359.54,-165.95 78.25,-46.99 141.86,-104.95 141.86,-192.15l0 -829.52c0,-61.9 -44,-99.93 -79.02,-123.07 -34.96,-23.15 -84.69,-46.7 -141.07,-73.4l-242.17 -114.72c-121.72,-57.76 -205.15,-97.31 -296.37,-97.31 -91.22,0 -174.65,39.55 -296.37,97.31l-242.14 114.72c-56.4,26.7 -106.13,50.26 -141.09,73.4 -35.02,23.14 -79.02,61.17 -79.02,123.07zm512.96 -170.18c143.33,-67.9 193.56,-89.78 245.67,-89.78 47.7,0 93.84,18.32 211.23,73.52l256.05 121.25c63.08,29.88 102.6,48.81 127.37,65.2 -24.76,16.35 -64.29,35.29 -127.37,65.17l-221.61 104.98c-143.33,67.9 -193.56,89.78 -245.67,89.78 -47.7,0 -93.81,-18.32 -211.24,-73.52l-256.05 -121.25c-63.08,-29.88 -102.61,-48.81 -127.37,-65.17 24.76,-16.38 64.28,-35.32 127.37,-65.2l221.61 -104.98 0.01 0z"/>
   <path class="fil2" d="M334.32 827.26c14.41,-28.82 49.46,-40.52 78.28,-26.11l155.63 77.81c28.82,14.44 40.5,49.46 26.09,78.31 -14.41,28.82 -49.46,40.5 -78.28,26.09l-155.63 -77.81c-28.82,-14.41 -40.52,-49.46 -26.08,-78.28l-0.01 -0.01z"/>
   <polygon class="fil3" points="469.63,530.3 1064.54,239.08 1237.01,320.74 642.07,611.96 "/>
  </g>
 </g>
</svg>
