<svg xmlns="http://www.w3.org/2000/svg" width="800" height="350"><g fill="#fff"><g fill-rule="evenodd" clip-rule="evenodd"><path d="M135.55 163.08s7.7 26.35 33.1 44.28H280s-3.2-20.38.76-44.28h-145.2zM228.44 101.23c5.85-14.03 34.1-44.08 75.54-26.84l63.47-.17-48.04 10.63s-25.24 25.4-34.64 60.65H81.1s-22.94-14.82-33.32-44.27h180.66zM289.5 82.9c-2.6 0-4.72 2.1-4.72 4.7s2.1 4.7 4.7 4.7 4.7-2.1 4.7-4.7-2.1-4.7-4.7-4.7zM223.24 225.08l60.13-.03c5.78 22.58 15.1 37.9 19.12 44.43-8.3-.02-50.93-.78-79.26-44.4z"/></g><path d="M327.85 143.3h57.97c1.33 0 2.47.47 3.42 1.42.94.95 1.4 2.08 1.4 3.4 0 1.34-.46 2.48-1.4 3.43-.95.95-2.1 1.42-3.42 1.42h-53.14v33.83h38.65c1.33 0 2.47.48 3.4 1.42.96.95 1.43 2.1 1.43 3.42 0 1.33-.47 2.47-1.42 3.4-.94.96-2.08 1.43-3.4 1.43h-38.66v38.67c0 1.33-.47 2.47-1.4 3.42-.96.94-2.1 1.42-3.43 1.42-1.32 0-2.46-.48-3.4-1.42-.95-.95-1.43-2.1-1.43-3.42v-87c0-1.34.48-2.47 1.42-3.42.95-.94 2.08-1.42 3.4-1.42zM400.32 148.13c0-1.33.47-2.46 1.4-3.4.96-.95 2.1-1.43 3.43-1.43 1.32 0 2.46.48 3.4 1.42.95.95 1.43 2.1 1.43 3.42v82.17h4.83c1.34 0 2.47.48 3.42 1.43.94.94 1.42 2.08 1.42 3.4s-.48 2.48-1.42 3.43c-.95.94-2.08 1.42-3.4 1.42h-9.67c-1.33 0-2.47-.48-3.42-1.42-.94-.95-1.4-2.1-1.4-3.42v-87zM481.72 223.54c1.32 0 2.46.48 3.4 1.42.95.95 1.43 2.08 1.43 3.4 0 1.34-.47 2.5-1.4 3.46-6.23 5.44-13.58 8.15-22.03 8.15-9.34 0-17.3-3.3-23.92-9.9-6.6-6.6-9.9-14.58-9.9-23.93s3.3-17.32 9.9-23.93c6.6-6.6 14.58-9.9 23.92-9.9 9.34 0 17.3 3.3 23.9 9.9 6.6 6.62 9.9 14.6 9.9 23.94 0 1.33-.46 2.47-1.4 3.4-.95.96-2.1 1.43-3.42 1.43h-52.72c.9 4.63 3.1 8.72 6.65 12.27 4.7 4.7 10.4 7.07 17.1 7.07 6.03 0 11.22-1.9 15.57-5.73.88-.7 1.9-1.03 3.02-1.03zm5.13-22.23c-.9-4.63-3.1-8.71-6.64-12.26-4.7-4.7-10.4-7.07-17.08-7.07-6.7 0-12.38 2.36-17.1 7.07-3.53 3.55-5.75 7.63-6.63 12.27h47.45zM559.13 223.42c1.33 0 2.47.47 3.4 1.42.96.95 1.43 2.08 1.43 3.4s-.5 2.53-1.5 3.58c-6.25 5.44-13.6 8.15-22.05 8.15-9.33 0-17.3-3.3-23.9-9.9-6.6-6.6-9.9-14.6-9.9-23.93 0-9.35 3.3-17.32 9.9-23.93 6.6-6.6 14.57-9.9 23.9-9.9 8.47 0 15.8 2.72 22.05 8.16 1.13 1 1.7 2.26 1.7 3.74 0 1.34-.48 2.47-1.43 3.42-.94.95-2.08 1.42-3.4 1.42-1.18 0-2.2-.36-3.1-1.1-4.5-3.98-9.77-5.97-15.8-5.97-6.7 0-12.4 2.36-17.1 7.07s-7.06 10.4-7.06 17.1 2.35 12.4 7.06 17.1 10.4 7.07 17.1 7.07c6.03 0 11.28-1.97 15.75-5.9.85-.66 1.83-.98 2.96-.98zM608.04 230.3c1.33 0 2.47.48 3.42 1.43.94.94 1.4 2.08 1.4 3.4s-.46 2.48-1.4 3.43c-.95.94-2.1 1.42-3.42 1.42-16.1 0-24.15-8.06-24.15-24.17v-33.83h-4.84c-1.33 0-2.47-.47-3.4-1.42-.96-.95-1.43-2.08-1.43-3.4 0-1.34.47-2.48 1.42-3.43.94-.94 2.08-1.42 3.4-1.42h4.84v-24.17c0-1.33.46-2.46 1.4-3.4.95-.95 2.1-1.43 3.42-1.43 1.33 0 2.47.48 3.4 1.42.96.95 1.43 2.1 1.43 3.42v24.16h9.72c1.33 0 2.47.48 3.42 1.42.93.95 1.4 2.1 1.4 3.42 0 1.33-.47 2.46-1.4 3.4-.96.96-2.1 1.43-3.43 1.43h-9.72v33.84c0 9.67 4.83 14.5 14.5 14.5zM622.54 177.14c0-1.33.47-2.47 1.42-3.42.94-.94 2.08-1.42 3.4-1.42 1.34 0 2.47.48 3.42 1.42.94.95 1.42 2.1 1.42 3.42v5.3c6.76-6.75 14.8-10.14 24.15-10.14 4.7 0 9.04.8 12.98 2.42.73.28 1.4.7 2 1.27.92.96 1.4 2.1 1.4 3.43s-.5 2.47-1.43 3.42c-.95.94-2.1 1.42-3.4 1.42-.78 0-1.48-.16-2.13-.5-2.86-1.2-6-1.8-9.42-1.8-6.68 0-12.38 2.36-17.1 7.07s-7.05 10.4-7.05 17.1v29c0 1.33-.48 2.47-1.42 3.42-.95.94-2.08 1.4-3.4 1.4-1.34 0-2.48-.46-3.42-1.4-.95-.95-1.42-2.1-1.42-3.42v-58zM738.48 229.82c-6.76 6.77-14.82 10.15-24.15 10.15-9.35 0-17.32-3.3-23.92-9.9-6.6-6.6-9.9-14.58-9.9-23.93s3.3-17.32 9.9-23.93c6.6-6.6 14.58-9.9 23.93-9.9 9.33 0 17.3 3.3 23.9 9.9 6.6 6.62 9.9 14.6 9.9 23.94v29c0 1.33-.46 2.47-1.4 3.42-.95.94-2.1 1.42-3.42 1.42-1.32 0-2.46-.48-3.4-1.42-.95-.95-1.42-2.1-1.42-3.42v-5.3zm-24.16-47.85c-6.68 0-12.38 2.36-17.1 7.07s-7.05 10.4-7.05 17.1 2.35 12.4 7.06 17.1 10.4 7.07 17.1 7.07c6.68 0 12.37-2.35 17.08-7.06s7.08-10.4 7.08-17.1-2.36-12.4-7.07-17.1-10.4-7.07-17.08-7.07z"/></g></svg>