<?xml version="1.0" encoding="UTF-8"?>
<!DOCTYPE svg PUBLIC "-//W3C//DTD SVG 1.1//EN" "http://www.w3.org/Graphics/SVG/1.1/DTD/svg11.dtd">
<!-- Creator: CorelDRAW 2021 (64-Bit) -->
<svg xmlns="http://www.w3.org/2000/svg" xml:space="preserve" width="43.3492mm" height="43.3492mm" version="1.1" style="shape-rendering:geometricPrecision; text-rendering:geometricPrecision; image-rendering:optimizeQuality; fill-rule:evenodd; clip-rule:evenodd"
viewBox="0 0 4334.92 4334.92"
 xmlns:xlink="http://www.w3.org/1999/xlink"
 xmlns:xodm="http://www.corel.com/coreldraw/odm/2003">
 <defs>
  <style type="text/css">
   <![CDATA[
    .fil0 {fill:none}
    .fil4 {fill:#FEFEFE;fill-rule:nonzero}
    .fil3 {fill:url(#id0);fill-rule:nonzero}
    .fil2 {fill:url(#id1);fill-rule:nonzero}
    .fil1 {fill:url(#id2);fill-rule:nonzero}
   ]]>
  </style>
  <linearGradient id="id0" gradientUnits="userSpaceOnUse" x1="1679.12" y1="2923.37" x2="181.66" y2="1379.67">
   <stop offset="0" style="stop-opacity:1; stop-color:#0091EA"/>
   <stop offset="1" style="stop-opacity:1; stop-color:#03A9F4"/>
  </linearGradient>
  <linearGradient id="id1" gradientUnits="userSpaceOnUse" x1="3630.08" y1="3038.05" x2="3083.25" y2="1296.85">
   <stop offset="0" style="stop-opacity:1; stop-color:#00BFA5"/>
   <stop offset="1" style="stop-opacity:1; stop-color:#4DB6AC"/>
  </linearGradient>
  <linearGradient id="id2" gradientUnits="userSpaceOnUse" x1="3417.84" y1="3576.7" x2="1107.27" y2="650.33">
   <stop offset="0" style="stop-opacity:1; stop-color:#FF5252"/>
   <stop offset="1" style="stop-opacity:1; stop-color:#FF6B6B"/>
  </linearGradient>
 </defs>
 <g id="Layer_x0020_1">
  <metadata id="CorelCorpID_0Corel-Layer"/>
  <rect class="fil0" y="0.01" width="4334.9" height="4334.9"/>
  <g id="_2050117616944">
   <path class="fil1" d="M3411.17 1545.59c69.66,0 124.38,-54.73 124.38,-124.37l0 -1252.02c0,-69.65 -54.72,-124.37 -124.38,-124.37l-2487.44 0.01c-69.65,0 -124.37,54.71 -124.37,124.37l0 1252.01c0,69.64 54.72,124.38 124.37,124.38l621.86 -0.01 0 1067.11 -286.06 -283.57c-22.38,-24.87 -54.72,-37.31 -87.06,-37.31l-248.74 0.01c-69.65,0 -124.37,54.72 -124.37,124.38l0 1252 0 0.01 0 497.48c0,69.64 54.72,124.38 124.37,124.38l2487.44 0c69.66,0 124.38,-54.74 124.38,-124.37l0 -497.49 0 -0.01 0 -1252c0,-69.66 -54.72,-124.38 -124.38,-124.38l-248.73 0c-32.35,0 -64.68,12.44 -87.06,37.31l-286.06 283.57 0 -1067.11 621.85 -0.01zm-2736.18 621.87c-137.25,0 -248.75,-111.5 -248.75,-248.75 0,-137.25 111.5,-248.74 248.75,-248.74l497.48 0c137.25,0 248.75,111.49 248.75,248.74 0,137.25 -111.5,248.75 -248.75,248.75l-497.48 0zm2487.45 0c-137.25,0 -248.75,-111.5 -248.75,-248.75 0,-137.25 111.5,-248.74 248.75,-248.74 137.24,0 248.73,111.49 248.73,248.74 0,137.25 -111.49,248.75 -248.73,248.75zm497.48 0c-137.25,0 -248.75,-111.5 -248.75,-248.75 0,-137.25 111.5,-248.74 248.75,-248.74 137.25,0 248.74,111.49 248.74,248.74 0,137.25 -111.49,248.75 -248.74,248.75z"/>
   <path class="fil2" d="M4290.07 1421.22l0 994.98c0,68.74 -55.62,124.38 -124.37,124.38l-951.77 0 -461.05 461.04c-35.32,35.32 -88.61,46.33 -135.55,26.97 -46.4,-19.19 -76.76,-64.61 -76.76,-114.89l0 -1492.48c0,-68.74 55.62,-124.37 124.38,-124.37l1500.75 -0.01c68.75,0 124.38,55.64 124.38,124.38l-0.01 0z"/>
   <path class="fil3" d="M1794.33 1421.22l0 1492.47c0,50.27 -30.36,95.71 -76.76,114.89 -46.92,19.37 -100.21,8.37 -135.54,-26.96l-461.06 -461.05 -951.77 0c-68.75,0 -124.37,-55.63 -124.37,-124.37l0 -994.98c0,-68.74 55.62,-124.38 124.37,-124.38l1500.76 0c68.75,0 124.38,55.64 124.38,124.38l-0.01 0z"/>
   <path class="fil4" d="M2540.57 674.99c0,-68.75 -55.63,-124.37 -124.37,-124.37l-497.49 0c-68.74,0 -124.38,55.62 -124.38,124.37 0,68.74 55.64,124.38 124.38,124.38l497.49 -0.01c68.74,0 124.37,-55.63 124.37,-124.37l0 0z"/>
   <path class="fil4" d="M3784.29 1918.71c0,-68.7 -55.68,-124.37 -124.37,-124.37 -68.69,0 -124.38,55.67 -124.38,124.37 0,68.69 55.69,124.38 124.38,124.38 68.69,0 124.37,-55.69 124.37,-124.38z"/>
   <path class="fil4" d="M3286.81 1918.71c0,-68.7 -55.69,-124.37 -124.37,-124.37 -68.7,0 -124.38,55.67 -124.38,124.37 0,68.69 55.68,124.38 124.38,124.38 68.68,0 124.37,-55.69 124.37,-124.38z"/>
   <path class="fil4" d="M1296.84 1918.71c0,-68.74 -55.62,-124.37 -124.37,-124.37l-497.48 0c-68.75,0 -124.38,55.63 -124.38,124.37 0,68.75 55.63,124.38 124.38,124.38l497.48 -0.01c68.75,0 124.37,-55.62 124.37,-124.37l0 0z"/>
  </g>
 </g>
</svg>
