<?xml version="1.0" encoding="UTF-8"?>
<!DOCTYPE svg PUBLIC "-//W3C//DTD SVG 1.1//EN" "http://www.w3.org/Graphics/SVG/1.1/DTD/svg11.dtd">
<!-- Creator: CorelDRAW 2021 (64-Bit) -->
<svg xmlns="http://www.w3.org/2000/svg" xml:space="preserve" width="43.3492mm" height="43.3492mm" version="1.1" style="shape-rendering:geometricPrecision; text-rendering:geometricPrecision; image-rendering:optimizeQuality; fill-rule:evenodd; clip-rule:evenodd"
viewBox="0 0 4334.92 4334.92"
 xmlns:xlink="http://www.w3.org/1999/xlink"
 xmlns:xodm="http://www.corel.com/coreldraw/odm/2003">
 <defs>
  <style type="text/css">
   <![CDATA[
    .fil0 {fill:none}
    .fil3 {fill:#006DCC;fill-rule:nonzero}
    .fil1 {fill:#00AB78;fill-rule:nonzero}
    .fil4 {fill:url(#id0);fill-rule:nonzero}
    .fil2 {fill:url(#id1);fill-rule:nonzero}
   ]]>
  </style>
  <linearGradient id="id0" gradientUnits="userSpaceOnUse" x1="2549.43" y1="2499.29" x2="2549.43" y2="1006.06">
   <stop offset="0" style="stop-opacity:1; stop-color:#00C489"/>
   <stop offset="1" style="stop-opacity:1; stop-color:#19E3A6"/>
  </linearGradient>
  <linearGradient id="id1" gradientUnits="userSpaceOnUse" x1="2031.96" y1="3328.87" x2="2031.96" y2="1006.06">
   <stop offset="0" style="stop-opacity:1; stop-color:#0382F3"/>
   <stop offset="1" style="stop-opacity:1; stop-color:#33A0FF"/>
  </linearGradient>
 </defs>
 <g id="Layer_x0020_1">
  <metadata id="CorelCorpID_0Corel-Layer"/>
  <rect class="fil0" y="0.01" width="4334.9" height="4334.9"/>
  <g id="_2151231874688">
   <path class="fil1" d="M4291.17 2623.74l0 -1493.24c0,-68.72 -55.72,-124.44 -124.44,-124.44l-622.19 0 0 1617.68c0,68.71 55.72,124.43 124.45,124.43l497.74 0c68.72,0 124.44,-55.72 124.44,-124.44l0 0.01z"/>
   <path class="fil2" d="M3273.55 2499.29l-733.62 684.86c-99.61,93 -230.82,144.72 -367.1,144.72 -142.68,0 -279.51,-56.67 -380.4,-157.57l-672.01 -672 -330.06 -0.01 0 -1493.23 1708.92 0 774.27 1493.23z"/>
   <path class="fil3" d="M790.36 2623.74l0 -1617.68 -622.18 0c-68.72,0 -124.44,55.72 -124.44,124.44l0 1493.24c0,68.71 55.71,124.43 124.44,124.43l497.74 0c68.73,0 124.44,-55.72 124.44,-124.44l0 0.01z"/>
   <path class="fil4" d="M3544.54 2499.29l-270.99 0 -801.92 -902.15 -421.8 316.34c-133.82,100.36 -323.15,76.33 -427.64,-54.28 -107.89,-134.86 -84.63,-331.9 51.69,-437.93l365.33 -284.14c109.21,-84.95 243.62,-131.07 381.99,-131.07l1123.34 0 0 1493.23z"/>
  </g>
 </g>
</svg>
