<?xml version="1.0" encoding="UTF-8"?>
<!DOCTYPE svg PUBLIC "-//W3C//DTD SVG 1.1//EN" "http://www.w3.org/Graphics/SVG/1.1/DTD/svg11.dtd">
<!-- Creator: CorelDRAW 2021 (64-Bit) -->
<svg xmlns="http://www.w3.org/2000/svg" xml:space="preserve" width="1.70666in" height="1.70666in" version="1.1" style="shape-rendering:geometricPrecision; text-rendering:geometricPrecision; image-rendering:optimizeQuality; fill-rule:evenodd; clip-rule:evenodd"
viewBox="0 0 1706.66 1706.66"
 xmlns:xlink="http://www.w3.org/1999/xlink"
 xmlns:xodm="http://www.corel.com/coreldraw/odm/2003">
 <defs>
  <style type="text/css">
   <![CDATA[
    .fil0 {fill:none}
    .fil1 {fill:#2196F3;fill-rule:nonzero}
    .fil2 {fill:#8BC34A;fill-rule:nonzero}
   ]]>
  </style>
 </defs>
 <g id="Layer_x0020_1">
  <metadata id="CorelCorpID_0Corel-Layer"/>
  <rect class="fil0" y="0" width="1706.65" height="1706.65"/>
  <g id="_1314445935680">
   <rect class="fil0" x="0.01" y="0.01" width="1706.65" height="1706.65"/>
   <path class="fil1" d="M629.96 254.97c13.76,1.76 20.64,2.66 25.96,7.29 5.36,4.71 8.69,13.52 7.73,20.61 -0.94,7 -6.53,13.32 -17.74,26l-120.89 136.14c-104.39,117.52 -104.39,300.47 0,418 87.17,98.15 232.27,122.41 349.11,60.65 21.1,-11.15 31.67,-16.74 40.07,-14.81 8.4,1.9 14.67,10.39 27.25,27.37l112.81 152.42c30.27,40.89 58.89,79.59 86.06,110.56 5.06,5.8 10.3,11.56 15.75,17.3 8.55,9.04 8.61,23.39 -0.35,32.02 -59.94,57.99 -108.59,105.03 -152.33,138.34 -45.55,34.72 -104.56,59.72 -158.24,66.13 -53.89,3.89 -102.71,-10.77 -154.32,-36.09 -49.56,-24.35 -109.74,-63.14 -180.34,-108.63 -77.37,-49.85 -107.02,-68.38 -139.69,-78.3 -32.96,-9.28 -73.47,-11.27 -166.44,-11.27l-2.11 0c-20.63,0.03 -39.6,0.03 -55.41,-1.31 -17.07,-1.44 -35.74,-4.74 -54.04,-14.46 -23.97,-12.7 -43.56,-32.32 -56.26,-56.26 -9.72,-18.3 -13.03,-36.97 -14.46,-54.04 -1.35,-15.84 -1.35,-34.78 -1.35,-55.41l0 -419.61c0,-33.55 0,-64.28 3.37,-89.28 3.69,-27.52 12.41,-56.61 36.33,-80.56 23.94,-23.94 53.04,-32.64 80.58,-36.36 25,-3.33 55.74,-3.33 89.25,-3.33l70.46 0c36.24,0 74.38,-17.85 104.76,-55.7 57.14,-71.19 140.24,-108.28 224.45,-97.39l0.03 -0.02z"/>
   <path class="fil2" d="M1255.72 1151.78c16.33,15.28 33.67,28.22 53.45,38.67 58.54,30.85 124.52,30.79 216.05,30.74l41.92 -1.06c61.53,-7.67 110.03,-56.14 117.7,-117.7 1.06,-8.52 1.06,-17.77 1.06,-26.67l0 -440.16c0,-33.52 0,-64.25 -3.37,-89.25 -3.69,-27.54 -12.41,-56.64 -36.35,-80.56 -23.92,-23.94 -53.01,-32.67 -80.56,-36.35 -25,-3.37 -55.74,-3.37 -89.25,-3.37l-43.5 0c-57.87,0 -101.63,-29.74 -158.74,-87.43 -47.77,-48.24 -119.78,-78.33 -186.34,-82.4 -52.72,-3.31 -123.73,-7.79 -186.23,8.67l-2.9 0.79c-78.44,21.57 -129.61,79.3 -169.85,124.72l-116.94 131.67c-65.3,73.5 -65.3,190.18 0,263.68 58.81,66.2 154.61,78.07 226.13,24.35 9.92,-7.44 23.65,-19 32.52,-26.49 7.7,-6.56 14.81,-12.61 22.07,-18.41 13.08,-12.44 45.72,-28.6 71.69,6.47l181.13 244.7c32.14,43.41 58.34,78.8 82.28,106.14 9.22,10.51 18.47,20.28 28.04,29.24l-0 -0z"/>
  </g>
 </g>
</svg>
