<?xml version="1.0" encoding="UTF-8"?>
<!DOCTYPE svg PUBLIC "-//W3C//DTD SVG 1.1//EN" "http://www.w3.org/Graphics/SVG/1.1/DTD/svg11.dtd">
<!-- Creator: CorelDRAW 2021 (64-Bit) -->
<svg xmlns="http://www.w3.org/2000/svg" xml:space="preserve" width="1.70666in" height="1.70666in" version="1.1" style="shape-rendering:geometricPrecision; text-rendering:geometricPrecision; image-rendering:optimizeQuality; fill-rule:evenodd; clip-rule:evenodd"
viewBox="0 0 1706.66 1706.66"
 xmlns:xlink="http://www.w3.org/1999/xlink"
 xmlns:xodm="http://www.corel.com/coreldraw/odm/2003">
 <defs>
  <style type="text/css">
   <![CDATA[
    .fil0 {fill:none}
    .fil1 {fill:#2196F3}
    .fil2 {fill:#8BC34A}
   ]]>
  </style>
 </defs>
 <g id="Layer_x0020_1">
  <metadata id="CorelCorpID_0Corel-Layer"/>
  <rect class="fil0" y="0" width="1706.65" height="1706.65"/>
  <g id="_2143648292832">
   <rect class="fil0" x="0.01" y="0.01" width="1706.65" height="1706.65"/>
   <path class="fil1" d="M440.04 465.54l4.44 0.79c130.23,22.56 234.28,58.8 311.67,96.77 18.47,9.06 27.7,13.59 33.43,22.65 5.76,9.03 5.76,19.76 5.76,41.21l0 1052.83c0,3.51 -3.71,5.85 -6.99,4.41 -20.89,-9.15 -48.17,-22.56 -82.09,-39.22l-0.03 0 -1.37 -0.7c-66.14,-32.5 -159.4,-65.73 -280.52,-86.72l-3.04 -0.53c-68.3,-11.87 -123.69,-21.45 -165.8,-32.85 -42,-11.37 -81.83,-27.15 -109.63,-58.45 -27.15,-30.6 -37.44,-67.48 -42.09,-106.15 -4.41,-36.94 -4.41,-83.35 -4.41,-138.54l0 -464.85c0,-59.62 0,-111.32 7.07,-152.74 7.8,-45.65 25.31,-86.13 65.03,-117.14 38.02,-29.63 79.23,-39.22 124.48,-38.93 40.68,0.23 88.99,8.62 144.09,18.15l-0 0.01zm477.04 120.21c5.73,-9.06 14.96,-13.59 33.43,-22.65 77.39,-37.96 181.44,-74.2 311.67,-96.77l4.44 -0.79c55.09,-9.53 103.41,-17.92 144.09,-18.15 45.21,-0.29 86.45,9.3 124.48,38.93 39.72,31.01 57.22,71.49 65.03,117.14 7.07,41.41 7.07,93.11 7.07,152.74l0 464.85c0,55.18 0,101.59 -4.41,138.54 -4.65,38.67 -14.94,75.55 -42.09,106.15 -27.76,31.3 -67.63,47.09 -109.63,58.45 -42.11,11.4 -97.5,20.98 -165.8,32.85l0 0 -3.04 0.53c-121.12,20.98 -214.38,54.22 -280.52,86.72l-1.37 0.7c-33.96,16.66 -61.23,30.07 -82.13,39.22 -3.27,1.43 -6.98,-0.91 -6.98,-4.41l0 -1052.83c0,-21.45 0,-32.18 5.76,-41.21l-0 -0.01z"/>
   <path class="fil2" d="M539.96 116.81c90.28,-59.89 197.66,-94.76 312.81,-94.76 115.71,0 223.56,35.22 314.13,95.63 35.54,23.7 45.13,71.69 21.43,107.23 -23.7,35.54 -71.72,45.13 -107.23,21.43 -66.35,-44.25 -144.56,-69.62 -228.32,-69.62 -83.38,0 -161.24,25.13 -227.35,68.97 -35.6,23.62 -83.59,13.88 -107.17,-21.71 -23.61,-35.6 -13.88,-83.59 21.72,-107.17l-0.02 0zm148.38 186.08c48.34,-28.81 104.57,-45.39 164.43,-45.39 60.5,0 117.29,16.95 165.95,46.33 36.59,22.06 48.34,69.62 26.28,106.18 -22.07,36.56 -69.62,48.31 -106.18,26.25 -25.54,-15.43 -54.83,-24.11 -86.04,-24.11 -30.89,0 -59.89,8.51 -85.26,23.62 -36.68,21.86 -84.14,9.85 -106,-26.83 -21.86,-36.71 -9.85,-84.17 26.83,-106.04l-0.01 -0.01z"/>
  </g>
 </g>
</svg>
