<?xml version="1.0" encoding="UTF-8"?>
<!DOCTYPE svg PUBLIC "-//W3C//DTD SVG 1.1//EN" "http://www.w3.org/Graphics/SVG/1.1/DTD/svg11.dtd">
<!-- Creator: CorelDRAW 2021 (64-Bit) -->
<svg xmlns="http://www.w3.org/2000/svg" xml:space="preserve" width="43.3492mm" height="43.3492mm" version="1.1" style="shape-rendering:geometricPrecision; text-rendering:geometricPrecision; image-rendering:optimizeQuality; fill-rule:evenodd; clip-rule:evenodd"
viewBox="0 0 4334.92 4334.92"
 xmlns:xlink="http://www.w3.org/1999/xlink"
 xmlns:xodm="http://www.corel.com/coreldraw/odm/2003">
 <defs>
  <style type="text/css">
   <![CDATA[
    .fil0 {fill:none}
    .fil3 {fill:#FEFEFE}
    .fil2 {fill:url(#id0);fill-rule:nonzero}
    .fil6 {fill:url(#id1);fill-rule:nonzero}
    .fil1 {fill:url(#id2);fill-rule:nonzero}
    .fil4 {fill:url(#id3);fill-rule:nonzero}
    .fil5 {fill:url(#id4);fill-rule:nonzero}
   ]]>
  </style>
  <linearGradient id="id0" gradientUnits="userSpaceOnUse" x1="2167.46" y1="3783.86" x2="2167.46" y2="1548.98">
   <stop offset="0" style="stop-opacity:1; stop-color:#00C489"/>
   <stop offset="1" style="stop-opacity:1; stop-color:#19E3A6"/>
  </linearGradient>
  <linearGradient id="id1" gradientUnits="userSpaceOnUse" x1="2167.46" y1="2289.24" x2="2167.46" y2="1261.24">
   <stop offset="0" style="stop-opacity:1; stop-color:#1F3B82"/>
   <stop offset="1" style="stop-opacity:1; stop-color:#3F5794"/>
  </linearGradient>
  <linearGradient id="id2" gradientUnits="userSpaceOnUse" x1="2167.46" y1="1544.27" x2="2167.46" y2="302.73">
   <stop offset="0" style="stop-opacity:1; stop-color:#0382F3"/>
   <stop offset="1" style="stop-opacity:1; stop-color:#33A0FF"/>
  </linearGradient>
  <linearGradient id="id3" gradientUnits="userSpaceOnUse" xlink:href="#id1" x1="2167.46" y1="4032.17" x2="2167.46" y2="3535.53">
  </linearGradient>
  <linearGradient id="id4" gradientUnits="userSpaceOnUse" xlink:href="#id1" x1="3409.06" y1="2289.23" x2="3409.06" y2="1095.69">
  </linearGradient>
 </defs>
 <g id="Layer_x0020_1">
  <metadata id="CorelCorpID_0Corel-Layer"/>
  <rect class="fil0" y="0.01" width="4334.9" height="4334.9"/>
  <g id="_2742869231296">
   <path class="fil1" d="M3036.58 1261.24l248.32 -82.77 141.97 76.83 106.35 -159.6 163.45 -54.49c50.68,-16.86 84.87,-64.27 84.87,-117.74 0,-53.47 -34.19,-100.88 -84.87,-117.74l-1489.92 -496.64c-25.47,-8.48 -53.11,-8.48 -78.57,0l-1489.92 496.64c-50.68,16.87 -84.88,64.28 -84.88,117.75 0,53.47 34.2,100.88 84.88,117.74l660.08 220.02 0 0 829.84 276.61c12.73,4.24 26.06,6.42 39.28,6.42 13.22,0 26.56,-2.18 39.29,-6.42l829.83 -276.61 0 0z"/>
   <path class="fil2" d="M3913.98 1548.97l-877.4 0 0 372.49c0,41.46 -20.73,80.27 -55.29,103.3 -16.49,11.04 -408.37,269.18 -813.83,269.18 -405.45,0 -797.34,-258.14 -813.83,-269.18 -34.55,-23.03 -55.29,-61.84 -55.29,-103.3l0 -372.48 -877.4 0c-68.57,0 -124.16,55.58 -124.16,124.16l0 2110.73 3741.36 -0.01 0 -2110.72c0,-68.58 -55.59,-124.17 -124.16,-124.17l0 0z"/>
   <rect class="fil3" x="787.53" y="1919.15" width="2759.85" height="1288.05"/>
   <path class="fil4" d="M4162.3 3535.53l-3989.68 0c-68.57,0 -124.16,55.59 -124.16,124.17 0,205.71 166.76,372.48 372.48,372.48l3493.04 -0.01c205.72,0 372.48,-166.76 372.48,-372.48 0,-68.57 -55.59,-124.16 -124.16,-124.16l0 0z"/>
   <path class="fil5" d="M3409.06 2289.24c68.63,0 124.17,-55.54 124.17,-124.17l0 -1069.38 -248.33 82.77 0 986.61c0,68.63 55.54,124.16 124.17,124.16l-0.01 0.01z"/>
   <path class="fil6" d="M1353.63 2020.06c16.49,11.04 408.38,269.19 813.83,269.19 405.46,0 797.34,-258.15 813.83,-269.19 34.56,-23.03 55.29,-61.84 55.29,-103.3l0 -655.52 -829.83 276.61c-12.73,4.24 -26.07,6.42 -39.29,6.42 -13.22,0 -26.55,-2.18 -39.28,-6.42l-829.84 -276.61 0 655.52c0,41.46 20.74,80.27 55.29,103.3z"/>
  </g>
 </g>
</svg>
