<?xml version="1.0" encoding="UTF-8"?>
<!DOCTYPE svg PUBLIC "-//W3C//DTD SVG 1.1//EN" "http://www.w3.org/Graphics/SVG/1.1/DTD/svg11.dtd">
<!-- Creator: CorelDRAW 2021 (64-Bit) -->
<svg xmlns="http://www.w3.org/2000/svg" xml:space="preserve" width="1.70666in" height="1.70666in" version="1.1" style="shape-rendering:geometricPrecision; text-rendering:geometricPrecision; image-rendering:optimizeQuality; fill-rule:evenodd; clip-rule:evenodd"
viewBox="0 0 1706.66 1706.66"
 xmlns:xlink="http://www.w3.org/1999/xlink"
 xmlns:xodm="http://www.corel.com/coreldraw/odm/2003">
 <defs>
  <style type="text/css">
   <![CDATA[
    .fil0 {fill:none}
    .fil1 {fill:#2196F3}
    .fil2 {fill:#8BC34A}
    .fil3 {fill:white;fill-rule:nonzero}
   ]]>
  </style>
 </defs>
 <g id="Layer_x0020_1">
  <metadata id="CorelCorpID_0Corel-Layer"/>
  <rect class="fil0" y="0" width="1706.65" height="1706.65"/>
  <g id="_1315054894144">
   <rect class="fil0" x="0.01" y="0.01" width="1706.65" height="1706.65"/>
   <path class="fil1" d="M1369.54 379.6c6.57,21.93 8.96,46.05 9.8,74.52 11.26,0.87 22.05,1.95 32.43,3.17 69.78,8.41 131.42,26.73 180.75,70.92 49.36,44.18 69.81,99.36 79.2,161.84 8.93,59.52 8.93,134.7 8.93,225.89l0 144.19c0,91.19 0,166.38 -8.93,225.89 -9.39,62.48 -29.84,117.66 -79.2,161.84 -49.33,44.18 -110.97,62.48 -180.75,70.89 -66.46,8 -150.44,8 -252.3,8l-364.61 0c48.46,-57.04 77.69,-130.92 77.69,-211.64 0,-180.63 -146.43,-327.09 -327.06,-327.09 -61.31,0 -112.89,20.22 -153.93,46.37 -41.04,-26.15 -92.61,-46.37 -153.93,-46.37 -80.31,0 -153.9,28.97 -210.83,77.02 -0.81,-42.58 -0.81,-89.01 -0.81,-139.42l0 -543.67c0,-111.55 101.02,-202.01 225.63,-202.01l762.46 0c59.83,-0.03 104.25,-0.06 142.73,9.19 103.81,24.9 184.91,97.5 212.71,190.46l0.02 0.02zm-251.69 -60.38c-16.7,-4.02 -39.36,-4.6 -114.14,-4.6l-752.11 0c-41.54,0 -75.19,30.17 -75.19,67.34 0,37.2 33.65,67.37 75.19,67.37l907.85 0c24.06,0 47.12,-0.03 69.17,0.09 -0.7,-17.39 -1.98,-26.93 -4.39,-34.96 -13.9,-46.48 -54.45,-82.78 -106.37,-95.23l-0.01 -0.01z"/>
   <path class="fil2" d="M237.65 1103.46c-116.87,0 -211.64,94.76 -211.64,211.64 0,116.87 94.76,211.64 211.64,211.64 68.3,0 121.53,-45 153.32,-83.45 0.2,-0.26 0.41,-0.5 0.61,-0.73 0.2,0.23 0.41,0.46 0.61,0.73 31.8,38.45 85.02,83.45 153.32,83.45 116.87,0 211.64,-94.76 211.64,-211.64 0,-116.87 -94.77,-211.64 -211.64,-211.64 -68.3,0 -121.52,45 -153.32,83.45 -0.2,0.26 -0.41,0.5 -0.61,0.76 -0.2,-0.26 -0.41,-0.49 -0.61,-0.76 -31.79,-38.45 -85.02,-83.45 -153.32,-83.45zm-96.19 211.64c0,-53.14 43.08,-96.19 96.19,-96.19 16.72,0 40.46,12.71 64.37,41.59 10.94,13.24 19.66,27.28 25.42,39.27 3.9,8.17 5.44,13.24 6.05,15.33 -0.61,2.09 -2.15,7.15 -6.05,15.33 -5.76,11.98 -14.48,26.03 -25.42,39.27 -23.91,28.88 -47.65,41.59 -64.37,41.59 -53.11,0 -96.19,-43.05 -96.19,-96.19l0 -0.01zm500.24 0c0,-53.14 -43.08,-96.19 -96.19,-96.19 -16.72,0 -40.46,12.71 -64.37,41.59 -10.94,13.24 -19.66,27.28 -25.42,39.27 -3.9,8.17 -5.44,13.24 -6.05,15.33 0.61,2.09 2.15,7.15 6.05,15.33 5.76,11.98 14.48,26.03 25.42,39.27 23.91,28.88 47.65,41.59 64.37,41.59 53.11,0 96.19,-43.05 96.19,-96.19l0 -0.01z"/>
   <path class="fil3" d="M1449.76 988.02c0,-74.38 -60.3,-134.67 -134.67,-134.67 -74.38,0 -134.68,60.3 -134.68,134.67 0,74.38 60.3,134.67 134.68,134.67 74.37,0 134.67,-60.3 134.67,-134.67z"/>
  </g>
 </g>
</svg>
