<?xml version="1.0" encoding="UTF-8"?>
<!DOCTYPE svg PUBLIC "-//W3C//DTD SVG 1.1//EN" "http://www.w3.org/Graphics/SVG/1.1/DTD/svg11.dtd">
<!-- Creator: CorelDRAW 2021 (64-Bit) -->
<svg xmlns="http://www.w3.org/2000/svg" xml:space="preserve" width="43.3492mm" height="43.3492mm" version="1.1" style="shape-rendering:geometricPrecision; text-rendering:geometricPrecision; image-rendering:optimizeQuality; fill-rule:evenodd; clip-rule:evenodd"
viewBox="0 0 4334.92 4334.92"
 xmlns:xlink="http://www.w3.org/1999/xlink"
 xmlns:xodm="http://www.corel.com/coreldraw/odm/2003">
 <defs>
  <style type="text/css">
   <![CDATA[
    .fil0 {fill:none}
    .fil3 {fill:url(#id0);fill-rule:nonzero}
    .fil2 {fill:url(#id1);fill-rule:nonzero}
    .fil4 {fill:url(#id2);fill-rule:nonzero}
    .fil1 {fill:url(#id3);fill-rule:nonzero}
   ]]>
  </style>
  <linearGradient id="id0" gradientUnits="userSpaceOnUse" x1="3730.01" y1="3037.67" x2="3730.01" y2="2291.63">
   <stop offset="0" style="stop-opacity:1; stop-color:#CECECE"/>
   <stop offset="1" style="stop-opacity:1; stop-color:#F1F1F1"/>
  </linearGradient>
  <linearGradient id="id1" gradientUnits="userSpaceOnUse" x1="2297.86" y1="3535.03" x2="1986.94" y2="1794.27">
   <stop offset="0" style="stop-opacity:1; stop-color:#00BFA5"/>
   <stop offset="1" style="stop-opacity:1; stop-color:#4DB6AC"/>
  </linearGradient>
  <linearGradient id="id2" gradientUnits="userSpaceOnUse" xlink:href="#id1" x1="2581.64" y1="1296.9" x2="1617.8" y2="302.53">
  </linearGradient>
  <linearGradient id="id3" gradientUnits="userSpaceOnUse" x1="3691.35" y1="3770.16" x2="875.37" y2="1514.87">
   <stop offset="0" style="stop-opacity:1; stop-color:#FFC107"/>
   <stop offset="1" style="stop-opacity:1; stop-color:#FFD54F"/>
  </linearGradient>
 </defs>
 <g id="Layer_x0020_1">
  <metadata id="CorelCorpID_0Corel-Layer"/>
  <rect class="fil0" y="0.01" width="4334.9" height="4334.9"/>
  <g id="_2049559656112">
   <path class="fil1" d="M3543.5 2540.31l497.36 0c137.34,0 248.68,-111.34 248.68,-248.68l0 -621.7c0,-206.02 -167.01,-373.02 -373.03,-373.02l-171.58 0 -1428.22 -248.68 -1655.43 248.68 -242.87 0c-207.14,0 -373.02,155.82 -373.02,369.05l0 1993.41c0,206.02 167.01,373.02 373.02,373.02l3498.11 0c206.01,0 373.02,-167 373.02,-373.02l0 -621.7c0,-137.34 -111.33,-248.68 -248.68,-248.68l-497.36 0c-69.64,0 -124.35,-54.72 -124.35,-124.34 0,-69.64 54.71,-124.34 124.35,-124.34l0 0z"/>
   <path class="fil2" d="M2051.41 2291.63l248.69 0c68.48,0 124.33,55.74 124.33,124.34 0,68.73 55.62,124.35 124.35,124.35 68.73,0 124.34,-55.62 124.34,-124.35 0,-205.69 -167.33,-373.02 -373.02,-373.02l0 -124.34c0,-68.73 -55.61,-124.35 -124.34,-124.35 -68.73,0 -124.35,55.62 -124.35,124.35l0 124.34c-205.69,0 -373.02,167.33 -373.02,373.02 0,205.69 167.33,373.02 373.02,373.02l248.69 0c68.48,0 124.33,55.74 124.33,124.35 0,68.6 -55.85,124.33 -124.33,124.33l-248.69 0c-68.49,0 -124.34,-55.73 -124.34,-124.34 0,-68.73 -55.61,-124.34 -124.34,-124.34 -68.73,0 -124.34,55.61 -124.34,124.34 0,205.69 167.33,373.02 373.02,373.02l0 124.35c0,68.73 55.61,124.33 124.34,124.33 68.73,0 124.35,-55.6 124.35,-124.33l0 -124.35c205.69,0 373.02,-167.33 373.02,-373.02 0,-205.7 -167.33,-373.02 -373.02,-373.02l-248.69 0c-68.49,0 -124.34,-55.73 -124.34,-124.34 0,-68.6 55.85,-124.34 124.34,-124.34l0 0z"/>
   <path class="fil3" d="M3543.5 2291.63c-205.7,0 -373.02,167.33 -373.02,373.02 0,205.7 167.32,373.02 373.02,373.02l746.04 0 0 -746.04 -746.04 0z"/>
   <path class="fil4" d="M3282.39 371.8c-29.85,-59.68 -99.49,-84.54 -159.16,-59.68l-2461.94 984.78 3083.64 0 -462.54 -925.1z"/>
  </g>
 </g>
</svg>
