<?xml version="1.0" encoding="UTF-8"?>
<!DOCTYPE svg PUBLIC "-//W3C//DTD SVG 1.1//EN" "http://www.w3.org/Graphics/SVG/1.1/DTD/svg11.dtd">
<!-- Creator: CorelDRAW 2021 (64-Bit) -->
<svg xmlns="http://www.w3.org/2000/svg" xml:space="preserve" width="43.3492mm" height="43.3492mm" version="1.1" style="shape-rendering:geometricPrecision; text-rendering:geometricPrecision; image-rendering:optimizeQuality; fill-rule:evenodd; clip-rule:evenodd"
viewBox="0 0 4334.92 4334.92"
 xmlns:xlink="http://www.w3.org/1999/xlink"
 xmlns:xodm="http://www.corel.com/coreldraw/odm/2003">
 <defs>
  <style type="text/css">
   <![CDATA[
    .fil0 {fill:none}
    .fil5 {fill:#006DCC;fill-rule:nonzero}
    .fil2 {fill:white;fill-rule:nonzero}
    .fil1 {fill:url(#id0);fill-rule:nonzero}
    .fil4 {fill:url(#id1);fill-rule:nonzero}
    .fil3 {fill:url(#id2);fill-rule:nonzero}
   ]]>
  </style>
  <linearGradient id="id0" gradientUnits="userSpaceOnUse" x1="2167.47" y1="4292.43" x2="2167.47" y2="42.5">
   <stop offset="0" style="stop-opacity:1; stop-color:#0382F3"/>
   <stop offset="1" style="stop-opacity:1; stop-color:#33A0FF"/>
  </linearGradient>
  <linearGradient id="id1" gradientUnits="userSpaceOnUse" x1="3080.54" y1="1785.64" x2="3080.54" y2="1536.62">
   <stop offset="0" style="stop-opacity:1; stop-color:#00C489"/>
   <stop offset="1" style="stop-opacity:1; stop-color:#19E3A6"/>
  </linearGradient>
  <linearGradient id="id2" gradientUnits="userSpaceOnUse" x1="1337.41" y1="2283.67" x2="1337.41" y2="540.54">
   <stop offset="0" style="stop-opacity:1; stop-color:#F77B09"/>
   <stop offset="1" style="stop-opacity:1; stop-color:#FF9C40"/>
  </linearGradient>
 </defs>
 <g id="Layer_x0020_1">
  <metadata id="CorelCorpID_0Corel-Layer"/>
  <rect class="fil0" y="0.01" width="4334.9" height="4334.9"/>
  <g id="_2049454851024">
   <path class="fil1" d="M3080.54 4292.43l-1826.14 0c-68.77,0 -124.51,-55.75 -124.51,-124.51 0,-68.77 55.74,-124.52 124.51,-124.52l1826.14 0.01c68.76,0 124.51,55.74 124.51,124.51 0,68.76 -55.75,124.51 -124.51,124.51l0 0zm838.36 -4249.92l-3502.87 0c-205.96,0 -373.53,167.56 -373.53,373.53l0 2656.2c0,205.96 167.57,373.53 373.53,373.53l3502.87 -0.01c205.96,0 373.53,-167.56 373.53,-373.53l0 -2656.2c0,-205.96 -167.56,-373.53 -373.53,-373.53l0 0.01z"/>
   <path class="fil2" d="M4043.41 416.03l0 2241.18 -3751.88 0 0 -2241.18c0,-68.65 55.85,-124.51 124.5,-124.51l3502.87 0.01c68.66,0 124.51,55.85 124.51,124.5l0 0z"/>
   <path class="fil3" d="M2084.47 2200.67c0,-362.57 -259.66,-665.6 -602.77,-733.02 146.21,-57.73 249.98,-200.34 249.98,-366.82l0 -166.01c0,-217.4 -176.87,-394.28 -394.27,-394.28 -217.4,0 -394.28,176.88 -394.28,394.28l0 166.01c0,166.49 103.77,309.09 249.99,366.82 -343.11,67.41 -602.77,370.45 -602.77,733.02 0,45.84 37.16,83 83.01,83l1328.1 0c45.84,0 83,-37.15 83,-83l0.01 0z"/>
   <path class="fil4" d="M3786.09 1661.13c0,-68.76 -55.75,-124.51 -124.51,-124.51l-1162.09 0c-68.76,0 -124.51,55.75 -124.51,124.51 0,68.76 55.75,124.51 124.51,124.51l1162.09 -0.01c68.76,0 124.51,-55.74 124.51,-124.5zm-1125.62 -611.58l189.72 189.73c48.62,48.62 127.46,48.62 176.09,0l474.31 -474.33c48.64,-48.62 48.64,-127.45 0,-176.08 -48.62,-48.63 -127.45,-48.63 -176.07,0l-386.29 386.28 -101.67 -101.68c-48.63,-48.63 -127.46,-48.63 -176.08,0 -48.63,48.62 -48.64,127.46 -0.01,176.08zm1125.62 1109.62c0,-68.77 -55.75,-124.52 -124.51,-124.52l-1162.09 0c-68.76,0 -124.51,55.75 -124.51,124.52 0,68.76 55.75,124.51 124.51,124.51l1162.09 -0.01c68.76,0 124.51,-55.74 124.51,-124.5z"/>
   <polygon class="fil5" points="2748.9,3445.76 2924.68,4043.41 1410.26,4043.41 1586.03,3445.76 "/>
  </g>
 </g>
</svg>
