<?xml version="1.0" encoding="UTF-8"?>
<!DOCTYPE svg PUBLIC "-//W3C//DTD SVG 1.1//EN" "http://www.w3.org/Graphics/SVG/1.1/DTD/svg11.dtd">
<!-- Creator: CorelDRAW 2021 (64-Bit) -->
<svg xmlns="http://www.w3.org/2000/svg" xml:space="preserve" width="1.70666in" height="1.70666in" version="1.1" style="shape-rendering:geometricPrecision; text-rendering:geometricPrecision; image-rendering:optimizeQuality; fill-rule:evenodd; clip-rule:evenodd"
viewBox="0 0 1706.66 1706.66"
 xmlns:xlink="http://www.w3.org/1999/xlink"
 xmlns:xodm="http://www.corel.com/coreldraw/odm/2003">
 <defs>
  <style type="text/css">
   <![CDATA[
    .fil0 {fill:none}
    .fil2 {fill:white}
    .fil1 {fill:#2196F3;fill-rule:nonzero}
    .fil3 {fill:white;fill-rule:nonzero}
   ]]>
  </style>
 </defs>
 <g id="Layer_x0020_1">
  <metadata id="CorelCorpID_0Corel-Layer"/>
  <rect class="fil0" y="0" width="1706.65" height="1706.65"/>
  <g id="_2143647289488">
   <rect class="fil0" x="0.01" y="0.01" width="1706.65" height="1706.65"/>
   <g id="_2131776405984">
    <path class="fil1" d="M934.03 100.47c141.83,0 253,0 341.2,9.54 89.98,9.78 162.91,30.03 225.19,75.27 37.68,27.37 70.83,60.53 98.2,98.2 45.24,62.28 65.49,135.18 75.24,225.19 9.57,88.2 9.57,199.36 9.57,341.17l0 0 0 7.01 0 0c0,141.81 0,252.97 -9.57,341.17 -9.74,90.01 -30,162.91 -75.24,225.19 -27.37,37.68 -60.53,70.83 -98.2,98.2 -62.28,45.24 -135.21,65.49 -225.19,75.27 -88.2,9.54 -199.36,9.54 -341.17,9.54l0 0 -161.44 0 0 0c-141.81,0 -252.97,0 -341.17,-9.54 -89.98,-9.78 -162.91,-30.03 -225.16,-75.27 -37.71,-27.37 -70.86,-60.53 -98.24,-98.2 -45.24,-62.28 -65.49,-135.18 -75.24,-225.19 -9.57,-88.2 -9.57,-199.36 -9.57,-341.17l0 -7.01c0,-141.81 0,-252.96 9.57,-341.17 9.74,-90.01 30,-162.91 75.24,-225.19 27.37,-37.68 60.53,-70.83 98.24,-98.2 62.25,-45.24 135.18,-65.49 225.16,-75.27 88.2,-9.54 199.36,-9.54 341.2,-9.54l161.39 0 -0 0z"/>
    <path class="fil2" d="M930.56 621.67c0,-42.64 34.55,-77.19 77.22,-77.19l308.86 0c42.64,0 77.22,34.56 77.22,77.19 0,42.67 -34.58,77.22 -77.22,77.22l-308.86 0c-42.67,0 -77.22,-34.56 -77.22,-77.22z"/>
    <path class="fil2" d="M930.56 891.94c0,-42.64 34.55,-77.22 77.22,-77.22l231.64 0c42.64,0 77.22,34.57 77.22,77.22 0,42.64 -34.59,77.22 -77.22,77.22l-231.64 0c-42.67,0 -77.22,-34.59 -77.22,-77.22z"/>
    <path class="fil3" d="M288.26 1214.65c-28.95,-13.54 -41.44,-48.04 -27.9,-76.99 58.69,-125.32 193.29,-185.87 319.57,-187.74 126.95,-1.87 263.89,55.33 325.87,187.74 13.54,28.95 1.05,63.45 -27.9,76.99 -7.97,3.73 -16.35,5.52 -24.57,5.48l-540.5 0c-8.23,0.03 -16.61,-1.75 -24.57,-5.48l0 0z"/>
    <path class="fil3" d="M370.74 621.67c0,-117.26 95.06,-212.35 212.35,-212.35 117.26,0 212.35,95.08 212.35,212.35 0,117.3 -95.08,212.38 -212.35,212.38 -117.3,0 -212.35,-95.08 -212.35,-212.38z"/>
   </g>
  </g>
 </g>
</svg>
