<?xml version="1.0" encoding="iso-8859-1"?>
<!-- Generator: Adobe Illustrator 17.0.0, SVG Export Plug-In . SVG Version: 6.00 Build 0)  -->
<!DOCTYPE svg PUBLIC "-//W3C//DTD SVG 1.1//EN" "http://www.w3.org/Graphics/SVG/1.1/DTD/svg11.dtd">
<svg version="1.1" id="Layer_1" xmlns="http://www.w3.org/2000/svg" xmlns:xlink="http://www.w3.org/1999/xlink" x="0px" y="0px"
	 width="800px" height="350px" viewBox="0 0 800 350" style="enable-background:new 0 0 800 350;" xml:space="preserve">
<rect style="display:none;" width="800" height="350"/>
<g>
	<g>
		<path style="fill-rule:evenodd;clip-rule:evenodd;fill:#FFFFFF;" d="M135.55,163.083c0,0,7.69,26.345,33.097,44.28h111.345
			c0,0-3.195-20.385,0.767-44.287L135.55,163.083z"/>
		<path style="fill-rule:evenodd;clip-rule:evenodd;fill:#FFFFFF;" d="M228.436,101.231c5.857-14.035,34.104-44.08,75.541-26.84
			l63.472-0.164L319.41,84.862c0,0-25.254,25.398-34.652,60.649H81.103c0,0-22.948-14.831-33.319-44.281H228.436L228.436,101.231z
			 M289.486,82.889c-2.597,0-4.702,2.106-4.702,4.705c0,2.598,2.105,4.704,4.702,4.704c2.596,0,4.701-2.106,4.701-4.704
			C294.188,84.995,292.083,82.889,289.486,82.889z"/>
		<path style="fill-rule:evenodd;clip-rule:evenodd;fill:#FFFFFF;" d="M223.241,225.077l60.127-0.031
			c5.785,22.587,15.106,37.899,19.125,44.437C294.204,269.464,251.567,268.697,223.241,225.077z"/>
	</g>
	<g>
		<path style="fill:#FFFFFF;" d="M327.853,143.301h57.971c1.329,0,2.465,0.474,3.412,1.42c0.946,0.947,1.419,2.084,1.419,3.414
			c0,1.329-0.474,2.468-1.419,3.414c-0.946,0.947-2.083,1.42-3.412,1.42h-53.14v33.836h38.647c1.329,0,2.465,0.474,3.412,1.42
			c0.946,0.946,1.419,2.084,1.419,3.414c0,1.329-0.474,2.468-1.419,3.413c-0.946,0.947-2.083,1.42-3.412,1.42h-38.647v38.67
			c0,1.329-0.474,2.468-1.419,3.414c-0.946,0.947-2.083,1.42-3.412,1.42c-1.328,0-2.466-0.473-3.412-1.42
			c-0.946-0.946-1.419-2.085-1.419-3.414v-87.007c0-1.33,0.473-2.467,1.419-3.414C325.387,143.775,326.525,143.301,327.853,143.301z
			"/>
		<path style="fill:#FFFFFF;" d="M400.316,148.135c0-1.33,0.473-2.467,1.419-3.414c0.945-0.946,2.083-1.42,3.412-1.42
			c1.328,0,2.465,0.474,3.411,1.42c0.945,0.947,1.419,2.084,1.419,3.414v82.174h4.831c1.329,0,2.466,0.474,3.412,1.42
			c0.945,0.946,1.419,2.084,1.419,3.413s-0.474,2.468-1.419,3.414c-0.946,0.947-2.083,1.42-3.412,1.42h-9.661
			c-1.329,0-2.467-0.473-3.412-1.42c-0.946-0.946-1.419-2.085-1.419-3.414V148.135z"/>
		<path style="fill:#FFFFFF;" d="M481.717,223.541c1.328,0,2.465,0.474,3.412,1.42c0.945,0.947,1.419,2.084,1.419,3.414
			c0,1.329-0.464,2.477-1.39,3.443c-6.24,5.438-13.586,8.157-22.04,8.157c-9.341,0-17.312-3.303-23.913-9.909
			c-6.603-6.605-9.903-14.581-9.903-23.927c0-9.345,3.301-17.32,9.903-23.927c6.602-6.606,14.572-9.91,23.913-9.91
			c9.339,0,17.31,3.304,23.912,9.91c6.603,6.606,9.903,14.582,9.903,23.927c0,1.329-0.474,2.468-1.419,3.414
			c-0.946,0.946-2.083,1.42-3.411,1.42h-52.718c0.886,4.632,3.1,8.721,6.643,12.266c4.71,4.713,10.406,7.069,17.09,7.069
			c6.038,0,11.231-1.913,15.579-5.74C479.582,223.884,480.589,223.541,481.717,223.541z M486.85,201.306
			c-0.886-4.632-3.101-8.721-6.643-12.266c-4.71-4.713-10.407-7.069-17.089-7.069c-6.684,0-12.38,2.356-17.09,7.069
			c-3.543,3.545-5.757,7.634-6.643,12.266H486.85z"/>
		<path style="fill:#FFFFFF;" d="M559.132,223.42c1.328,0,2.465,0.474,3.411,1.42c0.945,0.947,1.419,2.085,1.419,3.414
			s-0.504,2.518-1.51,3.564c-6.24,5.438-13.586,8.157-22.04,8.157c-9.341,0-17.312-3.303-23.913-9.909
			c-6.603-6.605-9.903-14.581-9.903-23.927c0-9.345,3.301-17.32,9.903-23.927c6.602-6.606,14.572-9.91,23.913-9.91
			c8.454,0,15.8,2.719,22.04,8.157c1.127,1.008,1.691,2.257,1.691,3.746c0,1.33-0.474,2.468-1.419,3.414
			c-0.946,0.947-2.084,1.42-3.412,1.42c-1.168,0-2.194-0.362-3.08-1.088c-4.509-3.987-9.782-5.981-15.82-5.981
			c-6.684,0-12.38,2.356-17.09,7.069s-7.065,10.413-7.065,17.1s2.355,12.387,7.065,17.1s10.406,7.069,17.09,7.069
			c6.038,0,11.292-1.974,15.761-5.922C557.018,223.743,558.004,223.42,559.132,223.42z"/>
		<path style="fill:#FFFFFF;" d="M608.045,230.309c1.328,0,2.465,0.474,3.411,1.42c0.945,0.946,1.419,2.084,1.419,3.413
			s-0.474,2.468-1.419,3.414c-0.946,0.947-2.083,1.42-3.411,1.42c-16.104,0-24.155-8.056-24.155-24.169v-33.836h-4.83
			c-1.329,0-2.467-0.473-3.412-1.42c-0.946-0.946-1.419-2.084-1.419-3.414c0-1.329,0.473-2.467,1.419-3.414
			c0.945-0.946,2.083-1.42,3.412-1.42h4.83v-24.168c0-1.33,0.474-2.467,1.42-3.414c0.945-0.946,2.083-1.42,3.411-1.42
			c1.329,0,2.466,0.474,3.412,1.42c0.945,0.947,1.419,2.084,1.419,3.414v24.168h9.723c1.328,0,2.465,0.474,3.411,1.42
			c0.945,0.947,1.419,2.084,1.419,3.414c0,1.33-0.474,2.468-1.419,3.414c-0.946,0.947-2.083,1.42-3.411,1.42h-9.723v33.836
			C593.552,225.475,598.383,230.309,608.045,230.309z"/>
		<path style="fill:#FFFFFF;" d="M622.537,177.137c0-1.329,0.473-2.467,1.419-3.414c0.945-0.946,2.083-1.42,3.412-1.42
			c1.328,0,2.465,0.474,3.411,1.42c0.945,0.947,1.419,2.084,1.419,3.414v5.317c6.764-6.767,14.814-10.151,24.155-10.151
			c4.71,0,9.037,0.806,12.982,2.417c0.725,0.282,1.389,0.705,1.993,1.269c0.926,0.966,1.389,2.114,1.389,3.443
			c0,1.33-0.474,2.469-1.419,3.414c-0.946,0.947-2.084,1.42-3.412,1.42c-0.765,0-1.47-0.16-2.113-0.483
			c-2.859-1.208-5.999-1.813-9.42-1.813c-6.684,0-12.38,2.356-17.09,7.069s-7.065,10.413-7.065,17.1v29.002
			c0,1.329-0.474,2.468-1.419,3.414c-0.946,0.947-2.083,1.42-3.411,1.42c-1.329,0-2.467-0.473-3.412-1.42
			c-0.946-0.946-1.419-2.085-1.419-3.414V177.137z"/>
		<path style="fill:#FFFFFF;" d="M738.479,229.825c-6.764,6.767-14.815,10.15-24.154,10.15c-9.341,0-17.312-3.303-23.913-9.909
			c-6.603-6.605-9.903-14.581-9.903-23.927c0-9.345,3.301-17.32,9.903-23.927c6.602-6.606,14.572-9.91,23.913-9.91
			c9.339,0,17.31,3.304,23.912,9.91c6.603,6.606,9.903,14.582,9.903,23.927v29.002c0,1.329-0.474,2.468-1.419,3.414
			c-0.946,0.947-2.083,1.42-3.411,1.42c-1.329,0-2.467-0.473-3.412-1.42c-0.946-0.946-1.419-2.085-1.419-3.414V229.825z
			 M714.324,181.971c-6.684,0-12.38,2.356-17.09,7.069s-7.065,10.413-7.065,17.1s2.355,12.387,7.065,17.1s10.406,7.069,17.09,7.069
			c6.682,0,12.379-2.356,17.089-7.069s7.065-10.413,7.065-17.1s-2.355-12.387-7.065-17.1S721.006,181.971,714.324,181.971z"/>
	</g>
</g>
<g>
</g>
<g>
</g>
<g>
</g>
<g>
</g>
<g>
</g>
<g>
</g>
</svg>
