<?xml version="1.0" encoding="UTF-8"?>
<!DOCTYPE svg PUBLIC "-//W3C//DTD SVG 1.1//EN" "http://www.w3.org/Graphics/SVG/1.1/DTD/svg11.dtd">
<!-- Creator: CorelDRAW 2021 (64-Bit) -->
<svg xmlns="http://www.w3.org/2000/svg" xml:space="preserve" width="1.70666in" height="1.70666in" version="1.1" style="shape-rendering:geometricPrecision; text-rendering:geometricPrecision; image-rendering:optimizeQuality; fill-rule:evenodd; clip-rule:evenodd"
viewBox="0 0 1706.66 1706.66"
 xmlns:xlink="http://www.w3.org/1999/xlink"
 xmlns:xodm="http://www.corel.com/coreldraw/odm/2003">
 <defs>
  <style type="text/css">
   <![CDATA[
    .fil0 {fill:none}
    .fil1 {fill:#4CAF50}
    .fil2 {fill:#8BC34A}
   ]]>
  </style>
 </defs>
 <g id="Layer_x0020_1">
  <metadata id="CorelCorpID_0Corel-Layer"/>
  <rect class="fil0" y="0" width="1706.65" height="1706.65"/>
  <g id="_1314911246144">
   <rect class="fil0" x="0.01" y="0.01" width="1706.65" height="1706.65"/>
   <path class="fil1" d="M779.46 30.7c48.41,-14.45 100.19,-14.45 148.63,0 57.73,17.26 99.05,59.54 134.68,107.87 35.13,47.62 73.14,113.17 119.53,193.2l121.7 209.91 9.38 -58.26c6.62,-41.32 45.51,-69.45 86.83,-62.8 41.32,6.65 69.42,45.54 62.77,86.86l-43.11 268.16c-3.61,22.45 -17.11,42.08 -36.81,53.48 -19.66,11.43 -43.43,13.39 -64.7,5.39l-263.53 -99.2c-39.15,-14.74 -58.96,-58.43 -44.22,-97.58 14.74,-39.18 58.43,-58.99 97.61,-44.25l64.79 24.38 -119.5 -206.09c-49.26,-85.01 -83.13,-143.18 -112.67,-183.24 -29.63,-40.15 -46.27,-49.67 -56.12,-52.6 -20.13,-6.04 -41.79,-6.04 -61.89,0 -9.85,2.93 -26.52,12.46 -56.12,52.6 -29.57,40.06 -63.41,98.22 -112.7,183.24 -20.98,36.19 -67.34,48.53 -103.53,27.55 -36.22,-20.98 -48.56,-67.37 -27.54,-103.56l2.28 -3.99c46.39,-80.03 84.4,-145.58 119.53,-193.2 35.63,-48.32 76.95,-90.61 134.71,-107.87l-0.01 -0.01z"/>
   <path class="fil2" d="M499.26 528.83c19.58,11.57 32.94,31.32 36.37,53.8l41.06 268.44c6.33,41.38 -22.09,80.03 -63.44,86.36 -41.38,6.33 -80.03,-22.09 -86.36,-63.44l-8.53 -55.74 -125.69 216.79c-50.23,86.68 -84.37,145.81 -104.15,191.7 -19.84,46.01 -18.08,63.27 -15.68,71.06 4.39,14.27 12.51,27.6 23.88,38.74 7.44,7.27 24.56,17.52 76.98,23.32 52.04,5.78 123.08,5.89 226.34,5.89 41.85,0 75.75,33.93 75.75,75.78 0,41.85 -33.91,75.78 -75.75,75.78l-4.69 0c-97.44,0 -176.97,0 -238.39,-6.83 -62.01,-6.89 -121.58,-22.04 -166.15,-65.55 -29.1,-28.43 -50.75,-63.53 -62.77,-102.39 -18.67,-60.46 -2.84,-119.8 21.3,-175.8 23.8,-55.18 62.59,-122.11 109.74,-203.43l130.78 -225.61 -67.25 24.76c-39.27,14.44 -82.84,-5.66 -97.29,-44.93 -14.44,-39.3 5.66,-82.84 44.93,-97.29l264.29 -97.32c21.36,-7.85 45.1,-5.69 64.7,5.86l0.02 0.05zm935.52 389.54c36.22,-20.98 82.58,-8.65 103.56,27.55l2.67 4.63c50.46,87 91.96,158.62 116.83,217.55 25.32,59.96 40.96,123.52 17.29,187.22 -10.99,29.6 -27.69,56.7 -49.02,79.94 -45.24,49.26 -108.48,66.55 -174.56,74.35 -65.35,7.74 -150.45,7.74 -254.71,7.74l-208.15 0 43.84 33.58c33.2,25.46 39.47,73.02 14,106.22 -25.43,33.2 -73.02,39.5 -106.22,14.04l-221.07 -169.49c-18.7,-14.33 -29.69,-36.57 -29.69,-60.13 0,-23.56 10.99,-45.8 29.69,-60.13l221.07 -169.49c33.2,-25.46 80.79,-19.19 106.22,14.04 25.47,33.2 19.2,80.76 -14,106.23l-43.84 33.58 203.1 0c110.54,0 186.61,-0.12 241.96,-6.65 55.68,-6.59 73.14,-18.08 80.7,-26.34 8.3,-9.03 14.57,-19.31 18.64,-30.24 3.14,-8.5 5.83,-26.49 -14.86,-75.52 -20.69,-49.02 -57.23,-112.32 -111,-205.1 -20.98,-36.22 -8.65,-82.58 27.54,-103.56l0 -0.03z"/>
  </g>
 </g>
</svg>
