<?xml version="1.0" encoding="UTF-8"?>
<!DOCTYPE svg PUBLIC "-//W3C//DTD SVG 1.1//EN" "http://www.w3.org/Graphics/SVG/1.1/DTD/svg11.dtd">
<!-- Creator: CorelDRAW 2021 (64-Bit) -->
<svg xmlns="http://www.w3.org/2000/svg" xml:space="preserve" width="43.3492mm" height="43.3492mm" version="1.1" style="shape-rendering:geometricPrecision; text-rendering:geometricPrecision; image-rendering:optimizeQuality; fill-rule:evenodd; clip-rule:evenodd"
viewBox="0 0 4334.92 4334.92"
 xmlns:xlink="http://www.w3.org/1999/xlink"
 xmlns:xodm="http://www.corel.com/coreldraw/odm/2003">
 <defs>
  <style type="text/css">
   <![CDATA[
    .fil0 {fill:none}
    .fil5 {fill:#0CD0B6}
    .fil4 {fill:#0CD0B6;fill-rule:nonzero}
    .fil1 {fill:url(#id0);fill-rule:nonzero}
    .fil3 {fill:url(#id1);fill-rule:nonzero}
    .fil2 {fill:url(#id2);fill-rule:nonzero}
   ]]>
  </style>
  <linearGradient id="id0" gradientUnits="userSpaceOnUse" x1="1852.13" y1="3593.16" x2="786.92" y2="3471.78">
   <stop offset="0" style="stop-opacity:1; stop-color:#0D6960"/>
   <stop offset="1" style="stop-opacity:1; stop-color:#297A73"/>
  </linearGradient>
  <linearGradient id="id1" gradientUnits="userSpaceOnUse" xlink:href="#id0" x1="1401.67" y1="1630.42" x2="2052.3" y2="574.92">
  </linearGradient>
  <linearGradient id="id2" gradientUnits="userSpaceOnUse" xlink:href="#id0" x1="3248.32" y1="2176.58" x2="3814.75" y2="3114.63">
  </linearGradient>
 </defs>
 <g id="Layer_x0020_1">
  <metadata id="CorelCorpID_0Corel-Layer"/>
  <rect class="fil0" y="0.01" width="4334.9" height="4334.9"/>
  <g id="_2049659440832">
   <path class="fil1" d="M1727.69 3114.61l-734.57 0 -412.42 714.33c-23.94,41.48 -65.85,62.22 -107.75,62.22l1254.74 -0.01c68.72,0 124.43,-55.71 124.43,-124.43l0 -527.67c0,-68.74 -55.71,-124.44 -124.43,-124.44l0 0z"/>
   <path class="fil2" d="M4166.41 3114.63c47.92,0 86.85,25.95 107.8,62.29 -0.02,-0.03 -0.03,-0.05 -0.04,-0.08l-627.38 -1086.64c-34.36,-59.51 -110.46,-79.9 -169.97,-45.54l-456.98 263.83c-59.51,34.36 -79.91,110.46 -45.55,169.97l367.29 636.17 824.83 0z"/>
   <path class="fil3" d="M2167.42 1080.65l-367.29 636.17c-34.36,59.51 -110.46,79.9 -169.98,45.54l-456.98 -263.85c-59.51,-34.36 -79.9,-110.46 -45.54,-169.97l627.34 -1086.6c-20.92,36.29 -23.91,82.93 0.03,124.39l412.42 714.32z"/>
   <path class="fil4" d="M365.19 3828.93l-304.64 -527.66c-22.23,-38.49 -22.23,-85.93 0,-124.43l477.23 -826.59 -120.73 -69.7c-96,-55.43 -77.06,-199.27 30.01,-227.95l720.8 -193.14c66.38,-17.78 134.61,21.61 152.39,87.99l193.14 720.79c28.69,107.08 -86.4,195.4 -182.4,139.97l-120.73 -69.71 -629.55 1090.43c-47.9,82.95 -167.63,82.95 -215.52,0l0 0z"/>
   <path class="fil4" d="M2694.89 4118.53l-527.66 -527.65c-48.59,-48.6 -48.59,-127.38 0,-175.97l527.67 -527.66c78.38,-78.38 212.41,-22.87 212.41,87.99l0 139.4 1259.12 0c95.78,0 155.65,103.69 107.75,186.64l-304.65 527.66c-22.23,38.49 -63.3,62.21 -107.76,62.21l-954.48 0 0 139.4c0,110.85 -134.02,166.36 -212.4,87.98z"/>
   <path class="fil5" d="M3014.65 1947.53l-720.8 -193.13c-107.08,-28.7 -126.02,-172.53 -30.02,-227.95l120.73 -69.7 -629.56 -1090.42c-47.89,-82.95 11.97,-186.64 107.76,-186.64l609.29 0c44.46,0 85.53,23.71 107.76,62.21l477.23 826.59 120.72 -69.7c96,-55.43 211.1,32.89 182.41,139.96l-193.14 720.8c-17.78,66.38 -86.01,105.76 -152.38,87.98l0 0z"/>
  </g>
 </g>
</svg>
