<?xml version="1.0" encoding="UTF-8"?>
<!DOCTYPE svg PUBLIC "-//W3C//DTD SVG 1.1//EN" "http://www.w3.org/Graphics/SVG/1.1/DTD/svg11.dtd">
<!-- Creator: CorelDRAW 2021 (64-Bit) -->
<svg xmlns="http://www.w3.org/2000/svg" xml:space="preserve" width="43.3492mm" height="43.3492mm" version="1.1" style="shape-rendering:geometricPrecision; text-rendering:geometricPrecision; image-rendering:optimizeQuality; fill-rule:evenodd; clip-rule:evenodd"
viewBox="0 0 4334.92 4334.92"
 xmlns:xlink="http://www.w3.org/1999/xlink"
 xmlns:xodm="http://www.corel.com/coreldraw/odm/2003">
 <defs>
  <style type="text/css">
   <![CDATA[
    .fil0 {fill:none}
    .fil6 {fill:white;fill-rule:nonzero}
    .fil1 {fill:url(#id0);fill-rule:nonzero}
    .fil2 {fill:url(#id1);fill-rule:nonzero}
    .fil4 {fill:url(#id2);fill-rule:nonzero}
    .fil3 {fill:url(#id3);fill-rule:nonzero}
    .fil5 {fill:url(#id4);fill-rule:nonzero}
   ]]>
  </style>
  <linearGradient id="id0" gradientUnits="userSpaceOnUse" x1="2689.57" y1="4293.26" x2="1677.32" y2="41.66">
   <stop offset="0" style="stop-opacity:1; stop-color:#00BFA5"/>
   <stop offset="1" style="stop-opacity:1; stop-color:#02D4B8"/>
  </linearGradient>
  <linearGradient id="id1" gradientUnits="userSpaceOnUse" x1="629.31" y1="3513.53" x2="1089.57" y2="3342.45">
   <stop offset="0" style="stop-opacity:1; stop-color:#0D6960"/>
   <stop offset="1" style="stop-opacity:1; stop-color:#297A73"/>
  </linearGradient>
  <linearGradient id="id2" gradientUnits="userSpaceOnUse" xlink:href="#id1" x1="629.31" y1="1769.7" x2="1089.57" y2="1598.62">
  </linearGradient>
  <linearGradient id="id3" gradientUnits="userSpaceOnUse" xlink:href="#id1" x1="629.31" y1="2766.16" x2="1089.57" y2="2595.1">
  </linearGradient>
  <linearGradient id="id4" gradientUnits="userSpaceOnUse" xlink:href="#id1" x1="629.31" y1="1022.33" x2="1089.57" y2="851.27">
  </linearGradient>
 </defs>
 <g id="Layer_x0020_1">
  <metadata id="CorelCorpID_0Corel-Layer"/>
  <rect class="fil0" y="0.01" width="4334.9" height="4334.9"/>
  <g id="_2049659462336">
   <path class="fil1" d="M3537.61 41.66l-2491.17 0c-206.06,0 -373.68,167.62 -373.68,373.67l0 3504.26c0,206.05 167.62,373.67 373.68,373.67l2491.17 0c206.06,0 373.68,-167.63 373.68,-373.68l0 -3504.25c0,-206.06 -167.62,-373.68 -373.68,-373.68l0 0.01z"/>
   <path class="fil2" d="M1046.44 3288.49l-498.24 0c-68.85,0 -124.56,55.71 -124.56,124.55 0,68.85 55.71,124.57 124.56,124.57l498.24 -0.01c68.85,0 124.55,-55.71 124.55,-124.56 0,-68.84 -55.7,-124.55 -124.55,-124.55l0 0z"/>
   <path class="fil3" d="M1046.44 2541.13l-498.24 0c-68.85,0 -124.56,55.71 -124.56,124.56 0,68.86 55.71,124.57 124.56,124.57l498.24 0c68.85,0 124.55,-55.72 124.55,-124.57 0,-68.85 -55.7,-124.56 -124.55,-124.56l0 0z"/>
   <path class="fil4" d="M1046.44 1544.66l-498.24 0c-68.85,0 -124.56,55.72 -124.56,124.56 0,68.85 55.71,124.56 124.56,124.56l498.24 0c68.85,0 124.55,-55.71 124.55,-124.57 0,-68.84 -55.7,-124.55 -124.55,-124.55l0 0z"/>
   <path class="fil5" d="M1046.44 797.31l-498.24 0c-68.85,0 -124.56,55.71 -124.56,124.56 0,68.85 55.71,124.56 124.56,124.56l498.24 0c68.85,0 124.55,-55.71 124.55,-124.56 0,-68.85 -55.7,-124.57 -124.55,-124.57l0 0.01z"/>
   <path class="fil6" d="M2416.58 2042.9c-412.11,0 -747.35,335.24 -747.35,747.35l0 373.67c0,68.85 55.71,124.57 124.56,124.57l1245.59 0c68.85,0 124.56,-55.72 124.56,-124.57l0 -373.67c0,-412.11 -335.24,-747.35 -747.36,-747.35 274.79,0 498.23,-223.45 498.23,-498.24 0,-274.78 -223.44,-498.23 -498.23,-498.23 -274.79,0 -498.23,223.45 -498.23,498.23 0,274.79 223.44,498.24 498.23,498.24z"/>
  </g>
 </g>
</svg>
