<?xml version="1.0" encoding="UTF-8"?>
<!DOCTYPE svg PUBLIC "-//W3C//DTD SVG 1.1//EN" "http://www.w3.org/Graphics/SVG/1.1/DTD/svg11.dtd">
<!-- Creator: CorelDRAW 2021 (64-Bit) -->
<svg xmlns="http://www.w3.org/2000/svg" xml:space="preserve" width="1.70666in" height="1.70666in" version="1.1" style="shape-rendering:geometricPrecision; text-rendering:geometricPrecision; image-rendering:optimizeQuality; fill-rule:evenodd; clip-rule:evenodd"
viewBox="0 0 1706.66 1706.66"
 xmlns:xlink="http://www.w3.org/1999/xlink"
 xmlns:xodm="http://www.corel.com/coreldraw/odm/2003">
 <defs>
  <style type="text/css">
   <![CDATA[
    .fil0 {fill:none}
    .fil3 {fill:#0D47A1}
    .fil2 {fill:white}
    .fil1 {fill:#2196F3;fill-rule:nonzero}
   ]]>
  </style>
 </defs>
 <g id="Layer_x0020_1">
  <metadata id="CorelCorpID_0Corel-Layer"/>
  <rect class="fil0" y="0" width="1706.65" height="1706.65"/>
  <g id="_1314449360320">
   <rect class="fil0" x="0" y="0.01" width="1706.65" height="1706.65"/>
   <g id="_2817181597376">
    <rect class="fil0" x="0.01" y="0.01" width="1706.65" height="1706.65"/>
    <g id="_2168499340784">
     <path class="fil1" d="M984.2 16.72c143.01,0 256.28,0 344.97,11.91 91.24,12.3 165.07,38.12 223.34,96.36 58.24,58.24 84.07,132.1 96.33,223.34 11.94,88.66 11.94,201.96 11.94,344.97l0 0 0 320.07 0 0c0,143.01 0,256.31 -11.94,344.97 -12.26,91.24 -38.09,165.1 -96.33,223.34 -58.27,58.24 -132.1,84.07 -223.34,96.36 -88.69,11.91 -201.96,11.91 -344.97,11.91l0 0 -125.51 0 -0.03 0c-143.01,0 -256.29,0 -344.94,-11.91 -91.24,-12.3 -165.1,-38.12 -223.34,-96.36 -58.24,-58.24 -84.09,-132.1 -96.36,-223.34 -11.91,-88.66 -11.91,-201.96 -11.91,-344.97l0 0 0 -320.07 0 0c0,-143.01 0,-256.31 11.91,-344.97 12.27,-91.24 38.12,-165.1 96.36,-223.34 58.24,-58.24 132.1,-84.07 223.34,-96.36 88.65,-11.91 201.93,-11.91 344.96,-11.91l0 0 125.51 0 0 0 0 0 0.01 0z"/>
     <path class="fil2" d="M940.9 405.83c-118.22,0 -214.02,95.83 -214.02,214.02 0,118.22 95.8,214.05 214.02,214.05 118.19,0 214.02,-95.83 214.02,-214.05 0,-118.19 -95.83,-214.02 -214.02,-214.02zm220.05 567.24c-134.42,-81.83 -305.67,-81.83 -440.09,0 -24.12,13.88 -79.07,45.56 -107.92,74.44 -18.32,18.33 -37.62,44.36 -41.15,77.33 -3.76,35.39 11.62,67.86 39.8,95.3 42.56,41.5 99.51,80.68 176.81,80.68l305.02 0c77.3,0 134.22,-39.18 176.81,-80.68 28.15,-27.44 43.56,-59.92 39.77,-95.3 -3.5,-32.97 -22.83,-59 -41.12,-77.33 -28.85,-28.88 -83.8,-60.56 -107.92,-74.44l-0.01 0z"/>
     <path class="fil3" d="M45.89 386.39c0,-42.97 34.86,-77.83 77.83,-77.83l194.57 0c42.98,0 77.83,34.86 77.83,77.83 0,42.98 -34.85,77.83 -77.83,77.83l-194.57 0c-42.97,0 -77.83,-34.85 -77.83,-77.83zm0 466.94c0,-42.96 34.86,-77.83 77.83,-77.83l194.57 0c42.98,0 77.83,34.85 77.83,77.83 0,42.98 -34.85,77.83 -77.83,77.83l-194.57 0c-42.97,0 -77.83,-34.85 -77.83,-77.83zm0 466.95c0,-42.98 34.86,-77.83 77.83,-77.83l194.57 0c42.98,0 77.83,34.85 77.83,77.83 0,42.97 -34.85,77.83 -77.83,77.83l-194.57 0c-42.97,0 -77.83,-34.86 -77.83,-77.83z"/>
    </g>
   </g>
  </g>
 </g>
</svg>
