<?xml version="1.0" encoding="UTF-8"?>
<!DOCTYPE svg PUBLIC "-//W3C//DTD SVG 1.1//EN" "http://www.w3.org/Graphics/SVG/1.1/DTD/svg11.dtd">
<!-- Creator: CorelDRAW 2021 (64-Bit) -->
<svg xmlns="http://www.w3.org/2000/svg" xml:space="preserve" width="1.70666in" height="1.70666in" version="1.1" style="shape-rendering:geometricPrecision; text-rendering:geometricPrecision; image-rendering:optimizeQuality; fill-rule:evenodd; clip-rule:evenodd"
viewBox="0 0 1706.66 1706.66"
 xmlns:xlink="http://www.w3.org/1999/xlink"
 xmlns:xodm="http://www.corel.com/coreldraw/odm/2003">
 <defs>
  <style type="text/css">
   <![CDATA[
    .fil0 {fill:none}
    .fil1 {fill:#2196F3;fill-rule:nonzero}
    .fil2 {fill:#FF9800;fill-rule:nonzero}
   ]]>
  </style>
 </defs>
 <g id="Layer_x0020_1">
  <metadata id="CorelCorpID_0Corel-Layer"/>
  <rect class="fil0" y="0" width="1706.65" height="1706.65"/>
  <g id="_1314973323840">
   <rect class="fil0" x="0.01" y="0.01" width="1706.65" height="1706.65"/>
   <g id="_2532458749520">
    <path class="fil1" d="M290.22 1066.63c244.72,-143.46 554.72,-143.46 799.46,0 7.73,4.53 17.37,9.88 28.36,15.98 48.64,27 123.38,68.49 174.52,117.77 31.96,30.77 63.43,72.35 69.19,124.13 6.16,55.47 -18.63,106.67 -65.99,151.1 -80.75,75.72 -178.24,136.92 -304.5,136.92l-602.63 0c-126.29,0 -223.75,-61.22 -304.5,-136.92 -47.37,-44.43 -72.15,-95.63 -65.99,-151.1 5.76,-51.78 37.22,-93.36 69.19,-124.13 51.14,-49.28 125.88,-90.78 174.49,-117.77 10.98,-6.1 20.63,-11.45 28.39,-15.98l0 0z"/>
    <path class="fil1" d="M324.78 478.54c0,-201.69 163.48,-365.2 365.17,-365.2 201.69,0 365.2,163.51 365.2,365.2 0,201.69 -163.51,365.2 -365.2,365.2 -201.69,0 -365.17,-163.51 -365.17,-365.2z"/>
    <path class="fil2" d="M1681.31 136.64c18.97,37.98 3.57,84.15 -34.41,103.16 -59.42,29.7 -117.69,93.65 -164.03,158.51 -22.26,31.18 -40.16,60.27 -52.48,81.51 -6.13,10.61 -10.81,19.15 -13.89,24.93 -1.54,2.88 -2.7,5.08 -3.43,6.48l-0.75 1.48 -0.12 0.23c-12.29,24.58 -36.85,40.77 -64.3,42.37 -27.49,1.6 -53.73,-11.62 -68.78,-34.67 -11.74,-17.93 -31.87,-36.12 -52.8,-51.26 -9.85,-7.12 -18.77,-12.76 -25.11,-16.54 -3.11,-1.89 -5.55,-3.28 -7.09,-4.13l-1.54 -0.84c-37.63,-19.65 -52.28,-66.11 -32.63,-103.74 19.64,-37.63 66.05,-52.25 103.71,-32.6l0.11 0.06 0.15 0.06 0.41 0.2 1.07 0.61c0.9,0.46 2.06,1.07 3.46,1.89 2.85,1.57 6.71,3.78 11.39,6.57 9.27,5.58 22,13.63 36.15,23.86 3.6,2.59 7.38,5.41 11.3,8.4 9.01,-13.92 19.06,-28.85 30.07,-44.26 49.78,-69.68 126.06,-159.5 220.37,-206.66 37.98,-19 84.15,-3.61 103.16,34.37l0 0z"/>
   </g>
  </g>
 </g>
</svg>
