<?xml version="1.0" encoding="UTF-8"?>
<!DOCTYPE svg PUBLIC "-//W3C//DTD SVG 1.1//EN" "http://www.w3.org/Graphics/SVG/1.1/DTD/svg11.dtd">
<!-- Creator: CorelDRAW 2021 (64-Bit) -->
<svg xmlns="http://www.w3.org/2000/svg" xml:space="preserve" width="43.3492mm" height="43.3492mm" version="1.1" style="shape-rendering:geometricPrecision; text-rendering:geometricPrecision; image-rendering:optimizeQuality; fill-rule:evenodd; clip-rule:evenodd"
viewBox="0 0 4334.92 4334.92"
 xmlns:xlink="http://www.w3.org/1999/xlink"
 xmlns:xodm="http://www.corel.com/coreldraw/odm/2003">
 <defs>
  <style type="text/css">
   <![CDATA[
    .fil0 {fill:none}
    .fil3 {fill:url(#id0);fill-rule:nonzero}
    .fil2 {fill:url(#id1);fill-rule:nonzero}
    .fil4 {fill:url(#id2);fill-rule:nonzero}
    .fil1 {fill:url(#id3);fill-rule:nonzero}
   ]]>
  </style>
  <linearGradient id="id0" gradientUnits="userSpaceOnUse" x1="4037.72" y1="3883.34" x2="2842.67" y2="2974.2">
   <stop offset="0" style="stop-opacity:1; stop-color:#BF360C"/>
   <stop offset="1" style="stop-opacity:1; stop-color:#E64A19"/>
  </linearGradient>
  <linearGradient id="id1" gradientUnits="userSpaceOnUse" x1="2013.26" y1="2130.62" x2="714.9" y2="651.73">
   <stop offset="0" style="stop-opacity:1; stop-color:#FFC107"/>
   <stop offset="1" style="stop-opacity:1; stop-color:#FFD54F"/>
  </linearGradient>
  <linearGradient id="id2" gradientUnits="userSpaceOnUse" xlink:href="#id1" x1="2212.69" y1="3840.97" x2="537.19" y2="2566.31">
  </linearGradient>
  <linearGradient id="id3" gradientUnits="userSpaceOnUse" xlink:href="#id0" x1="3888.82" y1="2663.44" x2="2962.78" y2="1608.63">
  </linearGradient>
 </defs>
 <g id="Layer_x0020_1">
  <metadata id="CorelCorpID_0Corel-Layer"/>
  <rect class="fil0" y="0.01" width="4334.9" height="4334.9"/>
  <g id="_2049421541760">
   <path class="fil1" d="M3387.68 1390.38c-384.75,0 -697.85,313.1 -697.85,697.86 0,384.75 313.1,697.85 697.85,697.85 384.76,0 697.86,-313.1 697.86,-697.85 0,-384.76 -313.1,-697.86 -697.86,-697.86z"/>
   <path class="fil2" d="M1310.64 345.73c-218.97,0 -421.37,72.33 -584.6,194.35l738.19 649.68c66.12,102.83 58.2,188.72 0,263.12 -86.16,78.77 -180.79,91.16 -284.78,13.72l-607.87 -782.9c-149.04,171.76 -239.36,395.77 -239.36,640.45 0,539.45 438.97,978.42 978.42,978.42 539.44,0 978.42,-438.97 978.42,-978.42 0,-539.44 -438.98,-978.42 -978.42,-978.42z"/>
   <path class="fil3" d="M3387.68 2786.08c-494.76,0 -897.24,402.48 -897.24,897.24l0 206.04c0,55.1 44.59,99.69 99.7,99.69l1595.09 0c55.11,0 106.34,-44.59 106.34,-99.69l0 -206.04c0,-494.76 -409.12,-897.24 -903.89,-897.24l0 0z"/>
   <path class="fil4" d="M1310.64 2302.57c-693.68,0 -1267.29,564.29 -1267.29,1257.97l0 288.87c0,77.26 71.83,139.78 149.09,139.78l2236.39 -0.01c77.27,0 139.77,-62.52 139.77,-139.78l0 -288.87c0,-693.67 -564.28,-1257.96 -1257.96,-1257.96l0 0z"/>
  </g>
 </g>
</svg>
