<?xml version="1.0" encoding="UTF-8"?>
<!DOCTYPE svg PUBLIC "-//W3C//DTD SVG 1.1//EN" "http://www.w3.org/Graphics/SVG/1.1/DTD/svg11.dtd">
<!-- Creator: CorelDRAW 2021 (64-Bit) -->
<svg xmlns="http://www.w3.org/2000/svg" xml:space="preserve" width="1.70666in" height="1.70666in" version="1.1" style="shape-rendering:geometricPrecision; text-rendering:geometricPrecision; image-rendering:optimizeQuality; fill-rule:evenodd; clip-rule:evenodd"
viewBox="0 0 1706.66 1706.66"
 xmlns:xlink="http://www.w3.org/1999/xlink"
 xmlns:xodm="http://www.corel.com/coreldraw/odm/2003">
 <defs>
  <style type="text/css">
   <![CDATA[
    .fil0 {fill:none}
    .fil4 {fill:#2196F3;fill-rule:nonzero}
    .fil3 {fill:#8BC34A;fill-rule:nonzero}
    .fil1 {fill:#FF9800;fill-rule:nonzero}
    .fil2 {fill:#FFC107;fill-rule:nonzero}
   ]]>
  </style>
 </defs>
 <g id="Layer_x0020_1">
  <metadata id="CorelCorpID_0Corel-Layer"/>
  <rect class="fil0" y="0" width="1706.65" height="1706.65"/>
  <rect class="fil0" x="0.01" y="0.01" width="1706.65" height="1706.65"/>
  <rect class="fil0" x="0.01" y="0.01" width="1706.65" height="1706.65"/>
  <path class="fil1" d="M1004.79 20.07c-40.68,1.35 -73.19,34.7 -73.19,75.71l0 606.05c0,41.87 33.88,75.76 75.76,75.76l606.06 0c40.52,0 73.57,-31.73 75.65,-71.73l0 -252.72c0,-238.19 -194.88,-433.07 -433.07,-433.07l-251.22 0z"/>
  <path class="fil2" d="M17.57 705.43c1.87,40.2 35,72.17 75.67,72.17l606.06 0c41.87,0 75.76,-33.88 75.76,-75.76l0 -606.06c0,-40.94 -32.39,-74.25 -72.98,-75.7l-251.44 0c-238.19,0 -433.07,194.88 -433.07,433.07l0 252.29z"/>
  <path class="fil3" d="M1613.42 929.09l-606.06 0c-41.87,0 -75.76,33.88 -75.76,75.76l0 606.06c0,38.93 29.3,70.96 67.07,75.26l257.33 0c238.19,0 433.07,-194.88 433.07,-433.07l0 -252.28c-2.09,-39.99 -35.13,-71.73 -75.65,-71.73l0 -0.01z"/>
  <path class="fil4" d="M699.3 929.09l-606.06 0c-40.67,0 -73.8,31.96 -75.67,72.17l0 251.85c0,238.19 194.88,433.07 433.07,433.07l257.35 0c37.77,-4.3 67.07,-36.33 67.07,-75.26l0 -606.05c0,-41.87 -33.88,-75.76 -75.76,-75.76l0 -0.01z"/>
 </g>
</svg>
