<?xml version="1.0" encoding="UTF-8"?>
<!DOCTYPE svg PUBLIC "-//W3C//DTD SVG 1.1//EN" "http://www.w3.org/Graphics/SVG/1.1/DTD/svg11.dtd">
<!-- Creator: CorelDRAW 2021 (64-Bit) -->
<svg xmlns="http://www.w3.org/2000/svg" xml:space="preserve" width="43.3492mm" height="43.3492mm" version="1.1" style="shape-rendering:geometricPrecision; text-rendering:geometricPrecision; image-rendering:optimizeQuality; fill-rule:evenodd; clip-rule:evenodd"
viewBox="0 0 4334.92 4334.92"
 xmlns:xlink="http://www.w3.org/1999/xlink"
 xmlns:xodm="http://www.corel.com/coreldraw/odm/2003">
 <defs>
  <style type="text/css">
   <![CDATA[
    .fil0 {fill:none}
    .fil2 {fill:url(#id0);fill-rule:nonzero}
    .fil1 {fill:url(#id1);fill-rule:nonzero}
   ]]>
  </style>
  <linearGradient id="id0" gradientUnits="userSpaceOnUse" x1="2162.6" y1="3536.22" x2="2162.6" y2="802.17">
   <stop offset="0" style="stop-opacity:1; stop-color:#0382F3"/>
   <stop offset="1" style="stop-opacity:1; stop-color:#33A0FF"/>
  </linearGradient>
  <linearGradient id="id1" gradientUnits="userSpaceOnUse" x1="2162.6" y1="4290.16" x2="2162.6" y2="48.23">
   <stop offset="0" style="stop-opacity:1; stop-color:#FBB130"/>
   <stop offset="1" style="stop-opacity:1; stop-color:#FFC259"/>
  </linearGradient>
 </defs>
 <g id="Layer_x0020_1">
  <metadata id="CorelCorpID_0Corel-Layer"/>
  <rect class="fil0" y="0.01" width="4334.9" height="4334.9"/>
  <g id="_2417681578512">
   <g>
    <g>
     <g>
      <path class="fil1" d="M671.3 48.23c-137.27,0 -248.55,111.28 -248.55,248.55l0 3744.83c0,137.27 111.28,248.55 248.55,248.55 137.28,0 248.55,-111.28 248.55,-248.55l0 -3744.83c0,-137.27 -111.28,-248.55 -248.55,-248.55zm1491.3 0c-137.27,0 -248.55,111.28 -248.55,248.55l0 3744.83c0,137.27 111.29,248.55 248.55,248.55 137.28,0 248.55,-111.28 248.55,-248.55l0 -3744.83c0,-137.27 -111.28,-248.55 -248.55,-248.55zm1491.31 0c-137.28,0 -248.55,111.28 -248.55,248.55l0 3744.83c0,137.27 111.28,248.55 248.55,248.55 137.27,0 248.55,-111.28 248.55,-248.55l0 -3744.83c0,-137.27 -111.29,-248.55 -248.55,-248.55z"/>
     </g>
    </g>
    <g>
     <g>
      <path class="fil2" d="M671.3 802.16c-342.73,0 -629.66,278.77 -629.66,621.38 0,342.61 286.93,621.38 629.66,621.38 342.73,0 621.38,-278.77 621.38,-621.38 0,-342.61 -278.65,-621.38 -621.38,-621.38zm1491.3 1491.31c-342.72,0 -621.37,278.77 -621.37,621.38 0,342.61 278.64,621.38 621.37,621.38 342.73,0 621.38,-278.77 621.38,-621.38 0,-342.61 -278.65,-621.38 -621.38,-621.38zm1491.31 -1491.31c-342.73,0 -621.38,278.77 -621.38,621.38 0,342.61 278.65,621.38 621.38,621.38 342.73,0 629.66,-278.77 629.66,-621.38 0,-342.61 -286.94,-621.38 -629.66,-621.38z"/>
     </g>
    </g>
   </g>
  </g>
 </g>
</svg>
