<?xml version="1.0" encoding="UTF-8"?>
<!DOCTYPE svg PUBLIC "-//W3C//DTD SVG 1.1//EN" "http://www.w3.org/Graphics/SVG/1.1/DTD/svg11.dtd">
<!-- Creator: CorelDRAW 2021 (64-Bit) -->
<svg xmlns="http://www.w3.org/2000/svg" xml:space="preserve" width="1.70666in" height="1.70666in" version="1.1" style="shape-rendering:geometricPrecision; text-rendering:geometricPrecision; image-rendering:optimizeQuality; fill-rule:evenodd; clip-rule:evenodd"
viewBox="0 0 1706.66 1706.66"
 xmlns:xlink="http://www.w3.org/1999/xlink"
 xmlns:xodm="http://www.corel.com/coreldraw/odm/2003">
 <defs>
  <style type="text/css">
   <![CDATA[
    .fil0 {fill:none}
    .fil2 {fill:#2196F3;fill-rule:nonzero}
    .fil1 {fill:#FFC107;fill-rule:nonzero}
   ]]>
  </style>
 </defs>
 <g id="Layer_x0020_1">
  <metadata id="CorelCorpID_0Corel-Layer"/>
  <rect class="fil0" y="0" width="1706.65" height="1706.65"/>
  <g id="_2143267654400">
   <rect class="fil0" x="0.01" y="0.01" width="1706.65" height="1706.65"/>
   <g id="_2690366104608">
    <rect class="fil0" x="0.01" y="0.01" width="1706.65" height="1706.65"/>
    <g id="_2417681578512">
     <g>
      <g>
       <g>
        <path class="fil1" d="M264.3 19c-54.04,0 -97.85,43.81 -97.85,97.85l0 1474.33c0,54.04 43.81,97.85 97.85,97.85 54.05,0 97.85,-43.81 97.85,-97.85l0 -1474.33c0,-54.04 -43.81,-97.85 -97.85,-97.85zm587.13 0c-54.04,0 -97.85,43.81 -97.85,97.85l0 1474.33c0,54.04 43.81,97.85 97.85,97.85 54.05,0 97.85,-43.81 97.85,-97.85l0 -1474.33c0,-54.04 -43.81,-97.85 -97.85,-97.85zm587.13 0c-54.05,0 -97.85,43.81 -97.85,97.85l0 1474.33c0,54.04 43.81,97.85 97.85,97.85 54.04,0 97.85,-43.81 97.85,-97.85l0 -1474.33c0,-54.04 -43.81,-97.85 -97.85,-97.85z"/>
       </g>
      </g>
      <g>
       <g>
        <path class="fil2" d="M264.3 315.82c-134.93,0 -247.9,109.75 -247.9,244.64 0,134.89 112.96,244.64 247.9,244.64 134.93,0 244.64,-109.75 244.64,-244.64 0,-134.89 -109.7,-244.64 -244.64,-244.64zm587.13 587.13c-134.93,0 -244.63,109.75 -244.63,244.64 0,134.89 109.7,244.64 244.63,244.64 134.93,0 244.64,-109.75 244.64,-244.64 0,-134.89 -109.7,-244.64 -244.64,-244.64zm587.13 -587.13c-134.93,0 -244.64,109.75 -244.64,244.64 0,134.89 109.7,244.64 244.64,244.64 134.93,0 247.9,-109.75 247.9,-244.64 0,-134.89 -112.97,-244.64 -247.9,-244.64z"/>
       </g>
      </g>
     </g>
    </g>
   </g>
  </g>
 </g>
</svg>
